G04 #@! TF.FileFunction,Legend,Bot*
%FSLAX46Y46*%
G04 Gerber Fmt 4.6, Leading zero omitted, Abs format (unit mm)*
G04 Created by KiCad (PCBNEW 4.0.4+dfsg1-stable) date Sun Aug 20 17:41:52 2017*
%MOMM*%
%LPD*%
G01*
G04 APERTURE LIST*
%ADD10C,0.100000*%
%ADD11C,0.300000*%
%ADD12C,5.000000*%
%ADD13C,0.200000*%
%ADD14C,0.150000*%
%ADD15C,0.050000*%
G04 APERTURE END LIST*
D10*
D11*
X158067142Y-74338571D02*
X158567142Y-73624286D01*
X158924285Y-74338571D02*
X158924285Y-72838571D01*
X158352857Y-72838571D01*
X158209999Y-72910000D01*
X158138571Y-72981429D01*
X158067142Y-73124286D01*
X158067142Y-73338571D01*
X158138571Y-73481429D01*
X158209999Y-73552857D01*
X158352857Y-73624286D01*
X158924285Y-73624286D01*
X156852857Y-74267143D02*
X156995714Y-74338571D01*
X157281428Y-74338571D01*
X157424285Y-74267143D01*
X157495714Y-74124286D01*
X157495714Y-73552857D01*
X157424285Y-73410000D01*
X157281428Y-73338571D01*
X156995714Y-73338571D01*
X156852857Y-73410000D01*
X156781428Y-73552857D01*
X156781428Y-73695714D01*
X157495714Y-73838571D01*
X156210000Y-74267143D02*
X156067143Y-74338571D01*
X155781428Y-74338571D01*
X155638571Y-74267143D01*
X155567143Y-74124286D01*
X155567143Y-74052857D01*
X155638571Y-73910000D01*
X155781428Y-73838571D01*
X155995714Y-73838571D01*
X156138571Y-73767143D01*
X156210000Y-73624286D01*
X156210000Y-73552857D01*
X156138571Y-73410000D01*
X155995714Y-73338571D01*
X155781428Y-73338571D01*
X155638571Y-73410000D01*
X154352857Y-74267143D02*
X154495714Y-74338571D01*
X154781428Y-74338571D01*
X154924285Y-74267143D01*
X154995714Y-74124286D01*
X154995714Y-73552857D01*
X154924285Y-73410000D01*
X154781428Y-73338571D01*
X154495714Y-73338571D01*
X154352857Y-73410000D01*
X154281428Y-73552857D01*
X154281428Y-73695714D01*
X154995714Y-73838571D01*
X153852857Y-73338571D02*
X153281428Y-73338571D01*
X153638571Y-72838571D02*
X153638571Y-74124286D01*
X153567143Y-74267143D01*
X153424285Y-74338571D01*
X153281428Y-74338571D01*
D12*
X133350000Y-77724000D02*
X122600000Y-77724000D01*
D11*
X141357143Y-78331143D02*
X141142857Y-78402571D01*
X140785714Y-78402571D01*
X140642857Y-78331143D01*
X140571428Y-78259714D01*
X140500000Y-78116857D01*
X140500000Y-77974000D01*
X140571428Y-77831143D01*
X140642857Y-77759714D01*
X140785714Y-77688286D01*
X141071428Y-77616857D01*
X141214286Y-77545429D01*
X141285714Y-77474000D01*
X141357143Y-77331143D01*
X141357143Y-77188286D01*
X141285714Y-77045429D01*
X141214286Y-76974000D01*
X141071428Y-76902571D01*
X140714286Y-76902571D01*
X140500000Y-76974000D01*
X138785715Y-76831143D02*
X140071429Y-78759714D01*
X138285714Y-78402571D02*
X138285714Y-76902571D01*
X137428571Y-78402571D01*
X137428571Y-76902571D01*
X136714285Y-78259714D02*
X136642857Y-78331143D01*
X136714285Y-78402571D01*
X136785714Y-78331143D01*
X136714285Y-78259714D01*
X136714285Y-78402571D01*
X136714285Y-77474000D02*
X136642857Y-77545429D01*
X136714285Y-77616857D01*
X136785714Y-77545429D01*
X136714285Y-77474000D01*
X136714285Y-77616857D01*
X149950714Y-69187143D02*
X149736428Y-69258571D01*
X149379285Y-69258571D01*
X149236428Y-69187143D01*
X149164999Y-69115714D01*
X149093571Y-68972857D01*
X149093571Y-68830000D01*
X149164999Y-68687143D01*
X149236428Y-68615714D01*
X149379285Y-68544286D01*
X149664999Y-68472857D01*
X149807857Y-68401429D01*
X149879285Y-68330000D01*
X149950714Y-68187143D01*
X149950714Y-68044286D01*
X149879285Y-67901429D01*
X149807857Y-67830000D01*
X149664999Y-67758571D01*
X149307857Y-67758571D01*
X149093571Y-67830000D01*
X148665000Y-68258571D02*
X148093571Y-68258571D01*
X148450714Y-67758571D02*
X148450714Y-69044286D01*
X148379286Y-69187143D01*
X148236428Y-69258571D01*
X148093571Y-69258571D01*
X146950714Y-69258571D02*
X146950714Y-68472857D01*
X147022143Y-68330000D01*
X147165000Y-68258571D01*
X147450714Y-68258571D01*
X147593571Y-68330000D01*
X146950714Y-69187143D02*
X147093571Y-69258571D01*
X147450714Y-69258571D01*
X147593571Y-69187143D01*
X147665000Y-69044286D01*
X147665000Y-68901429D01*
X147593571Y-68758571D01*
X147450714Y-68687143D01*
X147093571Y-68687143D01*
X146950714Y-68615714D01*
X146450714Y-68258571D02*
X145879285Y-68258571D01*
X146236428Y-67758571D02*
X146236428Y-69044286D01*
X146165000Y-69187143D01*
X146022142Y-69258571D01*
X145879285Y-69258571D01*
X144736428Y-68258571D02*
X144736428Y-69258571D01*
X145379285Y-68258571D02*
X145379285Y-69044286D01*
X145307857Y-69187143D01*
X145164999Y-69258571D01*
X144950714Y-69258571D01*
X144807857Y-69187143D01*
X144736428Y-69115714D01*
X144093571Y-69187143D02*
X143950714Y-69258571D01*
X143664999Y-69258571D01*
X143522142Y-69187143D01*
X143450714Y-69044286D01*
X143450714Y-68972857D01*
X143522142Y-68830000D01*
X143664999Y-68758571D01*
X143879285Y-68758571D01*
X144022142Y-68687143D01*
X144093571Y-68544286D01*
X144093571Y-68472857D01*
X144022142Y-68330000D01*
X143879285Y-68258571D01*
X143664999Y-68258571D01*
X143522142Y-68330000D01*
X141736428Y-67901429D02*
X141664999Y-67830000D01*
X141522142Y-67758571D01*
X141164999Y-67758571D01*
X141022142Y-67830000D01*
X140950713Y-67901429D01*
X140879285Y-68044286D01*
X140879285Y-68187143D01*
X140950713Y-68401429D01*
X141807856Y-69258571D01*
X140879285Y-69258571D01*
X136615714Y-69187143D02*
X136401428Y-69258571D01*
X136044285Y-69258571D01*
X135901428Y-69187143D01*
X135829999Y-69115714D01*
X135758571Y-68972857D01*
X135758571Y-68830000D01*
X135829999Y-68687143D01*
X135901428Y-68615714D01*
X136044285Y-68544286D01*
X136329999Y-68472857D01*
X136472857Y-68401429D01*
X136544285Y-68330000D01*
X136615714Y-68187143D01*
X136615714Y-68044286D01*
X136544285Y-67901429D01*
X136472857Y-67830000D01*
X136329999Y-67758571D01*
X135972857Y-67758571D01*
X135758571Y-67830000D01*
X135330000Y-68258571D02*
X134758571Y-68258571D01*
X135115714Y-67758571D02*
X135115714Y-69044286D01*
X135044286Y-69187143D01*
X134901428Y-69258571D01*
X134758571Y-69258571D01*
X133615714Y-69258571D02*
X133615714Y-68472857D01*
X133687143Y-68330000D01*
X133830000Y-68258571D01*
X134115714Y-68258571D01*
X134258571Y-68330000D01*
X133615714Y-69187143D02*
X133758571Y-69258571D01*
X134115714Y-69258571D01*
X134258571Y-69187143D01*
X134330000Y-69044286D01*
X134330000Y-68901429D01*
X134258571Y-68758571D01*
X134115714Y-68687143D01*
X133758571Y-68687143D01*
X133615714Y-68615714D01*
X133115714Y-68258571D02*
X132544285Y-68258571D01*
X132901428Y-67758571D02*
X132901428Y-69044286D01*
X132830000Y-69187143D01*
X132687142Y-69258571D01*
X132544285Y-69258571D01*
X131401428Y-68258571D02*
X131401428Y-69258571D01*
X132044285Y-68258571D02*
X132044285Y-69044286D01*
X131972857Y-69187143D01*
X131829999Y-69258571D01*
X131615714Y-69258571D01*
X131472857Y-69187143D01*
X131401428Y-69115714D01*
X130758571Y-69187143D02*
X130615714Y-69258571D01*
X130329999Y-69258571D01*
X130187142Y-69187143D01*
X130115714Y-69044286D01*
X130115714Y-68972857D01*
X130187142Y-68830000D01*
X130329999Y-68758571D01*
X130544285Y-68758571D01*
X130687142Y-68687143D01*
X130758571Y-68544286D01*
X130758571Y-68472857D01*
X130687142Y-68330000D01*
X130544285Y-68258571D01*
X130329999Y-68258571D01*
X130187142Y-68330000D01*
X127544285Y-69258571D02*
X128401428Y-69258571D01*
X127972856Y-69258571D02*
X127972856Y-67758571D01*
X128115713Y-67972857D01*
X128258571Y-68115714D01*
X128401428Y-68187143D01*
X147133571Y-78260000D02*
X148205000Y-78260000D01*
X148419286Y-78188572D01*
X148562143Y-78045715D01*
X148633571Y-77831429D01*
X148633571Y-77688572D01*
X147133571Y-78760000D02*
X147133571Y-79617143D01*
X148633571Y-79188572D02*
X147133571Y-79188572D01*
X148205000Y-80045714D02*
X148205000Y-80760000D01*
X148633571Y-79902857D02*
X147133571Y-80402857D01*
X148633571Y-80902857D01*
X147205000Y-82188571D02*
X147133571Y-82045714D01*
X147133571Y-81831428D01*
X147205000Y-81617143D01*
X147347857Y-81474285D01*
X147490714Y-81402857D01*
X147776429Y-81331428D01*
X147990714Y-81331428D01*
X148276429Y-81402857D01*
X148419286Y-81474285D01*
X148562143Y-81617143D01*
X148633571Y-81831428D01*
X148633571Y-81974285D01*
X148562143Y-82188571D01*
X148490714Y-82260000D01*
X147990714Y-82260000D01*
X147990714Y-81974285D01*
X135564285Y-108628571D02*
X135564285Y-107128571D01*
X133992856Y-108485714D02*
X134064285Y-108557143D01*
X134278571Y-108628571D01*
X134421428Y-108628571D01*
X134635713Y-108557143D01*
X134778571Y-108414286D01*
X134849999Y-108271429D01*
X134921428Y-107985714D01*
X134921428Y-107771429D01*
X134849999Y-107485714D01*
X134778571Y-107342857D01*
X134635713Y-107200000D01*
X134421428Y-107128571D01*
X134278571Y-107128571D01*
X134064285Y-107200000D01*
X133992856Y-107271429D01*
X133421428Y-108557143D02*
X133207142Y-108628571D01*
X132849999Y-108628571D01*
X132707142Y-108557143D01*
X132635713Y-108485714D01*
X132564285Y-108342857D01*
X132564285Y-108200000D01*
X132635713Y-108057143D01*
X132707142Y-107985714D01*
X132849999Y-107914286D01*
X133135713Y-107842857D01*
X133278571Y-107771429D01*
X133349999Y-107700000D01*
X133421428Y-107557143D01*
X133421428Y-107414286D01*
X133349999Y-107271429D01*
X133278571Y-107200000D01*
X133135713Y-107128571D01*
X132778571Y-107128571D01*
X132564285Y-107200000D01*
X131921428Y-108628571D02*
X131921428Y-107128571D01*
X131350000Y-107128571D01*
X131207142Y-107200000D01*
X131135714Y-107271429D01*
X131064285Y-107414286D01*
X131064285Y-107628571D01*
X131135714Y-107771429D01*
X131207142Y-107842857D01*
X131350000Y-107914286D01*
X131921428Y-107914286D01*
X178744285Y-124273571D02*
X177815714Y-124273571D01*
X178315714Y-124845000D01*
X178101428Y-124845000D01*
X177958571Y-124916429D01*
X177887142Y-124987857D01*
X177815714Y-125130714D01*
X177815714Y-125487857D01*
X177887142Y-125630714D01*
X177958571Y-125702143D01*
X178101428Y-125773571D01*
X178530000Y-125773571D01*
X178672857Y-125702143D01*
X178744285Y-125630714D01*
X177172857Y-125630714D02*
X177101429Y-125702143D01*
X177172857Y-125773571D01*
X177244286Y-125702143D01*
X177172857Y-125630714D01*
X177172857Y-125773571D01*
X176601428Y-124273571D02*
X175672857Y-124273571D01*
X176172857Y-124845000D01*
X175958571Y-124845000D01*
X175815714Y-124916429D01*
X175744285Y-124987857D01*
X175672857Y-125130714D01*
X175672857Y-125487857D01*
X175744285Y-125630714D01*
X175815714Y-125702143D01*
X175958571Y-125773571D01*
X176387143Y-125773571D01*
X176530000Y-125702143D01*
X176601428Y-125630714D01*
X175244286Y-124273571D02*
X174744286Y-125773571D01*
X174244286Y-124273571D01*
X177672857Y-130695000D02*
X177815714Y-130623571D01*
X178030000Y-130623571D01*
X178244285Y-130695000D01*
X178387143Y-130837857D01*
X178458571Y-130980714D01*
X178530000Y-131266429D01*
X178530000Y-131480714D01*
X178458571Y-131766429D01*
X178387143Y-131909286D01*
X178244285Y-132052143D01*
X178030000Y-132123571D01*
X177887143Y-132123571D01*
X177672857Y-132052143D01*
X177601428Y-131980714D01*
X177601428Y-131480714D01*
X177887143Y-131480714D01*
X176958571Y-132123571D02*
X176958571Y-130623571D01*
X176101428Y-132123571D01*
X176101428Y-130623571D01*
X175387142Y-132123571D02*
X175387142Y-130623571D01*
X175029999Y-130623571D01*
X174815714Y-130695000D01*
X174672856Y-130837857D01*
X174601428Y-130980714D01*
X174529999Y-131266429D01*
X174529999Y-131480714D01*
X174601428Y-131766429D01*
X174672856Y-131909286D01*
X174815714Y-132052143D01*
X175029999Y-132123571D01*
X175387142Y-132123571D01*
X170465713Y-130623571D02*
X171179999Y-130623571D01*
X171251428Y-131337857D01*
X171179999Y-131266429D01*
X171037142Y-131195000D01*
X170679999Y-131195000D01*
X170537142Y-131266429D01*
X170465713Y-131337857D01*
X170394285Y-131480714D01*
X170394285Y-131837857D01*
X170465713Y-131980714D01*
X170537142Y-132052143D01*
X170679999Y-132123571D01*
X171037142Y-132123571D01*
X171179999Y-132052143D01*
X171251428Y-131980714D01*
X169965714Y-130623571D02*
X169465714Y-132123571D01*
X168965714Y-130623571D01*
X154432143Y-133870000D02*
X154575000Y-133798571D01*
X154789286Y-133798571D01*
X155003571Y-133870000D01*
X155146429Y-134012857D01*
X155217857Y-134155714D01*
X155289286Y-134441429D01*
X155289286Y-134655714D01*
X155217857Y-134941429D01*
X155146429Y-135084286D01*
X155003571Y-135227143D01*
X154789286Y-135298571D01*
X154646429Y-135298571D01*
X154432143Y-135227143D01*
X154360714Y-135155714D01*
X154360714Y-134655714D01*
X154646429Y-134655714D01*
X153717857Y-135298571D02*
X153717857Y-133798571D01*
X152860714Y-135298571D01*
X152860714Y-133798571D01*
X152146428Y-135298571D02*
X152146428Y-133798571D01*
X151789285Y-133798571D01*
X151575000Y-133870000D01*
X151432142Y-134012857D01*
X151360714Y-134155714D01*
X151289285Y-134441429D01*
X151289285Y-134655714D01*
X151360714Y-134941429D01*
X151432142Y-135084286D01*
X151575000Y-135227143D01*
X151789285Y-135298571D01*
X152146428Y-135298571D01*
X154575000Y-138243571D02*
X154860714Y-138243571D01*
X155003571Y-138315000D01*
X155075000Y-138386429D01*
X155217857Y-138600714D01*
X155289286Y-138886429D01*
X155289286Y-139457857D01*
X155217857Y-139600714D01*
X155146429Y-139672143D01*
X155003571Y-139743571D01*
X154717857Y-139743571D01*
X154575000Y-139672143D01*
X154503571Y-139600714D01*
X154432143Y-139457857D01*
X154432143Y-139100714D01*
X154503571Y-138957857D01*
X154575000Y-138886429D01*
X154717857Y-138815000D01*
X155003571Y-138815000D01*
X155146429Y-138886429D01*
X155217857Y-138957857D01*
X155289286Y-139100714D01*
X154003572Y-138243571D02*
X153503572Y-139743571D01*
X153003572Y-138243571D01*
D13*
X125295000Y-90805000D02*
G75*
G03X125295000Y-90805000I-200000J0D01*
G01*
X178000000Y-108585000D02*
G75*
G03X178000000Y-108585000I-200000J0D01*
G01*
D14*
X153170000Y-127126905D02*
X153122381Y-127031667D01*
X153122381Y-126888810D01*
X153170000Y-126745952D01*
X153265238Y-126650714D01*
X153360476Y-126603095D01*
X153550952Y-126555476D01*
X153693810Y-126555476D01*
X153884286Y-126603095D01*
X153979524Y-126650714D01*
X154074762Y-126745952D01*
X154122381Y-126888810D01*
X154122381Y-126984048D01*
X154074762Y-127126905D01*
X154027143Y-127174524D01*
X153693810Y-127174524D01*
X153693810Y-126984048D01*
X154122381Y-127603095D02*
X153455714Y-127603095D01*
X153646190Y-127603095D02*
X153550952Y-127650714D01*
X153503333Y-127698333D01*
X153455714Y-127793571D01*
X153455714Y-127888810D01*
X154074762Y-128603096D02*
X154122381Y-128507858D01*
X154122381Y-128317381D01*
X154074762Y-128222143D01*
X153979524Y-128174524D01*
X153598571Y-128174524D01*
X153503333Y-128222143D01*
X153455714Y-128317381D01*
X153455714Y-128507858D01*
X153503333Y-128603096D01*
X153598571Y-128650715D01*
X153693810Y-128650715D01*
X153789048Y-128174524D01*
X154074762Y-129460239D02*
X154122381Y-129365001D01*
X154122381Y-129174524D01*
X154074762Y-129079286D01*
X153979524Y-129031667D01*
X153598571Y-129031667D01*
X153503333Y-129079286D01*
X153455714Y-129174524D01*
X153455714Y-129365001D01*
X153503333Y-129460239D01*
X153598571Y-129507858D01*
X153693810Y-129507858D01*
X153789048Y-129031667D01*
X153455714Y-129936429D02*
X154122381Y-129936429D01*
X153550952Y-129936429D02*
X153503333Y-129984048D01*
X153455714Y-130079286D01*
X153455714Y-130222144D01*
X153503333Y-130317382D01*
X153598571Y-130365001D01*
X154122381Y-130365001D01*
X155662381Y-126507857D02*
X156662381Y-126745952D01*
X155948095Y-126936429D01*
X156662381Y-127126905D01*
X155662381Y-127365000D01*
X156662381Y-127745952D02*
X155662381Y-127745952D01*
X156662381Y-128174524D02*
X156138571Y-128174524D01*
X156043333Y-128126905D01*
X155995714Y-128031667D01*
X155995714Y-127888809D01*
X156043333Y-127793571D01*
X156090952Y-127745952D01*
X156662381Y-128650714D02*
X155995714Y-128650714D01*
X155662381Y-128650714D02*
X155710000Y-128603095D01*
X155757619Y-128650714D01*
X155710000Y-128698333D01*
X155662381Y-128650714D01*
X155757619Y-128650714D01*
X155995714Y-128984047D02*
X155995714Y-129364999D01*
X155662381Y-129126904D02*
X156519524Y-129126904D01*
X156614762Y-129174523D01*
X156662381Y-129269761D01*
X156662381Y-129364999D01*
X156614762Y-130079286D02*
X156662381Y-129984048D01*
X156662381Y-129793571D01*
X156614762Y-129698333D01*
X156519524Y-129650714D01*
X156138571Y-129650714D01*
X156043333Y-129698333D01*
X155995714Y-129793571D01*
X155995714Y-129984048D01*
X156043333Y-130079286D01*
X156138571Y-130126905D01*
X156233810Y-130126905D01*
X156329048Y-129650714D01*
X158726190Y-126793571D02*
X159202381Y-126793571D01*
X158202381Y-126460238D02*
X158726190Y-126793571D01*
X158202381Y-127126905D01*
X159154762Y-127841191D02*
X159202381Y-127745953D01*
X159202381Y-127555476D01*
X159154762Y-127460238D01*
X159059524Y-127412619D01*
X158678571Y-127412619D01*
X158583333Y-127460238D01*
X158535714Y-127555476D01*
X158535714Y-127745953D01*
X158583333Y-127841191D01*
X158678571Y-127888810D01*
X158773810Y-127888810D01*
X158869048Y-127412619D01*
X159202381Y-128460238D02*
X159154762Y-128365000D01*
X159059524Y-128317381D01*
X158202381Y-128317381D01*
X159202381Y-128984048D02*
X159154762Y-128888810D01*
X159059524Y-128841191D01*
X158202381Y-128841191D01*
X159202381Y-129507858D02*
X159154762Y-129412620D01*
X159107143Y-129365001D01*
X159011905Y-129317382D01*
X158726190Y-129317382D01*
X158630952Y-129365001D01*
X158583333Y-129412620D01*
X158535714Y-129507858D01*
X158535714Y-129650716D01*
X158583333Y-129745954D01*
X158630952Y-129793573D01*
X158726190Y-129841192D01*
X159011905Y-129841192D01*
X159107143Y-129793573D01*
X159154762Y-129745954D01*
X159202381Y-129650716D01*
X159202381Y-129507858D01*
X158535714Y-130174525D02*
X159202381Y-130365001D01*
X158726190Y-130555478D01*
X159202381Y-130745954D01*
X158535714Y-130936430D01*
X161218571Y-126936429D02*
X161266190Y-127079286D01*
X161313810Y-127126905D01*
X161409048Y-127174524D01*
X161551905Y-127174524D01*
X161647143Y-127126905D01*
X161694762Y-127079286D01*
X161742381Y-126984048D01*
X161742381Y-126603095D01*
X160742381Y-126603095D01*
X160742381Y-126936429D01*
X160790000Y-127031667D01*
X160837619Y-127079286D01*
X160932857Y-127126905D01*
X161028095Y-127126905D01*
X161123333Y-127079286D01*
X161170952Y-127031667D01*
X161218571Y-126936429D01*
X161218571Y-126603095D01*
X161742381Y-127745952D02*
X161694762Y-127650714D01*
X161599524Y-127603095D01*
X160742381Y-127603095D01*
X161742381Y-128555477D02*
X161218571Y-128555477D01*
X161123333Y-128507858D01*
X161075714Y-128412620D01*
X161075714Y-128222143D01*
X161123333Y-128126905D01*
X161694762Y-128555477D02*
X161742381Y-128460239D01*
X161742381Y-128222143D01*
X161694762Y-128126905D01*
X161599524Y-128079286D01*
X161504286Y-128079286D01*
X161409048Y-128126905D01*
X161361429Y-128222143D01*
X161361429Y-128460239D01*
X161313810Y-128555477D01*
X161694762Y-129460239D02*
X161742381Y-129365001D01*
X161742381Y-129174524D01*
X161694762Y-129079286D01*
X161647143Y-129031667D01*
X161551905Y-128984048D01*
X161266190Y-128984048D01*
X161170952Y-129031667D01*
X161123333Y-129079286D01*
X161075714Y-129174524D01*
X161075714Y-129365001D01*
X161123333Y-129460239D01*
X161742381Y-129888810D02*
X160742381Y-129888810D01*
X161361429Y-129984048D02*
X161742381Y-130269763D01*
X161075714Y-130269763D02*
X161456667Y-129888810D01*
X164282381Y-127174524D02*
X163806190Y-126841190D01*
X164282381Y-126603095D02*
X163282381Y-126603095D01*
X163282381Y-126984048D01*
X163330000Y-127079286D01*
X163377619Y-127126905D01*
X163472857Y-127174524D01*
X163615714Y-127174524D01*
X163710952Y-127126905D01*
X163758571Y-127079286D01*
X163806190Y-126984048D01*
X163806190Y-126603095D01*
X164234762Y-127984048D02*
X164282381Y-127888810D01*
X164282381Y-127698333D01*
X164234762Y-127603095D01*
X164139524Y-127555476D01*
X163758571Y-127555476D01*
X163663333Y-127603095D01*
X163615714Y-127698333D01*
X163615714Y-127888810D01*
X163663333Y-127984048D01*
X163758571Y-128031667D01*
X163853810Y-128031667D01*
X163949048Y-127555476D01*
X164282381Y-128888810D02*
X163282381Y-128888810D01*
X164234762Y-128888810D02*
X164282381Y-128793572D01*
X164282381Y-128603095D01*
X164234762Y-128507857D01*
X164187143Y-128460238D01*
X164091905Y-128412619D01*
X163806190Y-128412619D01*
X163710952Y-128460238D01*
X163663333Y-128507857D01*
X163615714Y-128603095D01*
X163615714Y-128793572D01*
X163663333Y-128888810D01*
D11*
X139861428Y-112413571D02*
X139861428Y-110913571D01*
X139004285Y-112413571D01*
X139004285Y-110913571D01*
X137718571Y-112342143D02*
X137861428Y-112413571D01*
X138147142Y-112413571D01*
X138289999Y-112342143D01*
X138361428Y-112199286D01*
X138361428Y-111627857D01*
X138289999Y-111485000D01*
X138147142Y-111413571D01*
X137861428Y-111413571D01*
X137718571Y-111485000D01*
X137647142Y-111627857D01*
X137647142Y-111770714D01*
X138361428Y-111913571D01*
X137218571Y-111413571D02*
X136647142Y-111413571D01*
X137004285Y-110913571D02*
X137004285Y-112199286D01*
X136932857Y-112342143D01*
X136789999Y-112413571D01*
X136647142Y-112413571D01*
X136289999Y-111413571D02*
X136004285Y-112413571D01*
X135718571Y-111699286D01*
X135432856Y-112413571D01*
X135147142Y-111413571D01*
X134361427Y-112413571D02*
X134504285Y-112342143D01*
X134575713Y-112270714D01*
X134647142Y-112127857D01*
X134647142Y-111699286D01*
X134575713Y-111556429D01*
X134504285Y-111485000D01*
X134361427Y-111413571D01*
X134147142Y-111413571D01*
X134004285Y-111485000D01*
X133932856Y-111556429D01*
X133861427Y-111699286D01*
X133861427Y-112127857D01*
X133932856Y-112270714D01*
X134004285Y-112342143D01*
X134147142Y-112413571D01*
X134361427Y-112413571D01*
X133218570Y-112413571D02*
X133218570Y-111413571D01*
X133218570Y-111699286D02*
X133147142Y-111556429D01*
X133075713Y-111485000D01*
X132932856Y-111413571D01*
X132789999Y-111413571D01*
X132289999Y-112413571D02*
X132289999Y-110913571D01*
X132147142Y-111842143D02*
X131718571Y-112413571D01*
X131718571Y-111413571D02*
X132289999Y-111985000D01*
X129289999Y-112342143D02*
X129432856Y-112413571D01*
X129718570Y-112413571D01*
X129861428Y-112342143D01*
X129932856Y-112270714D01*
X130004285Y-112127857D01*
X130004285Y-111699286D01*
X129932856Y-111556429D01*
X129861428Y-111485000D01*
X129718570Y-111413571D01*
X129432856Y-111413571D01*
X129289999Y-111485000D01*
X128432856Y-112413571D02*
X128575714Y-112342143D01*
X128647142Y-112270714D01*
X128718571Y-112127857D01*
X128718571Y-111699286D01*
X128647142Y-111556429D01*
X128575714Y-111485000D01*
X128432856Y-111413571D01*
X128218571Y-111413571D01*
X128075714Y-111485000D01*
X128004285Y-111556429D01*
X127932856Y-111699286D01*
X127932856Y-112127857D01*
X128004285Y-112270714D01*
X128075714Y-112342143D01*
X128218571Y-112413571D01*
X128432856Y-112413571D01*
X127289999Y-111413571D02*
X127289999Y-112413571D01*
X127289999Y-111556429D02*
X127218571Y-111485000D01*
X127075713Y-111413571D01*
X126861428Y-111413571D01*
X126718571Y-111485000D01*
X126647142Y-111627857D01*
X126647142Y-112413571D01*
X125932856Y-111413571D02*
X125932856Y-112413571D01*
X125932856Y-111556429D02*
X125861428Y-111485000D01*
X125718570Y-111413571D01*
X125504285Y-111413571D01*
X125361428Y-111485000D01*
X125289999Y-111627857D01*
X125289999Y-112413571D01*
X124004285Y-112342143D02*
X124147142Y-112413571D01*
X124432856Y-112413571D01*
X124575713Y-112342143D01*
X124647142Y-112199286D01*
X124647142Y-111627857D01*
X124575713Y-111485000D01*
X124432856Y-111413571D01*
X124147142Y-111413571D01*
X124004285Y-111485000D01*
X123932856Y-111627857D01*
X123932856Y-111770714D01*
X124647142Y-111913571D01*
X122647142Y-112342143D02*
X122789999Y-112413571D01*
X123075713Y-112413571D01*
X123218571Y-112342143D01*
X123289999Y-112270714D01*
X123361428Y-112127857D01*
X123361428Y-111699286D01*
X123289999Y-111556429D01*
X123218571Y-111485000D01*
X123075713Y-111413571D01*
X122789999Y-111413571D01*
X122647142Y-111485000D01*
X122218571Y-111413571D02*
X121647142Y-111413571D01*
X122004285Y-110913571D02*
X122004285Y-112199286D01*
X121932857Y-112342143D01*
X121789999Y-112413571D01*
X121647142Y-112413571D01*
X120575714Y-112342143D02*
X120718571Y-112413571D01*
X121004285Y-112413571D01*
X121147142Y-112342143D01*
X121218571Y-112199286D01*
X121218571Y-111627857D01*
X121147142Y-111485000D01*
X121004285Y-111413571D01*
X120718571Y-111413571D01*
X120575714Y-111485000D01*
X120504285Y-111627857D01*
X120504285Y-111770714D01*
X121218571Y-111913571D01*
X119218571Y-112413571D02*
X119218571Y-110913571D01*
X119218571Y-112342143D02*
X119361428Y-112413571D01*
X119647142Y-112413571D01*
X119790000Y-112342143D01*
X119861428Y-112270714D01*
X119932857Y-112127857D01*
X119932857Y-111699286D01*
X119861428Y-111556429D01*
X119790000Y-111485000D01*
X119647142Y-111413571D01*
X119361428Y-111413571D01*
X119218571Y-111485000D01*
X140290000Y-114892143D02*
X140432857Y-114963571D01*
X140718571Y-114963571D01*
X140861428Y-114892143D01*
X140932857Y-114749286D01*
X140932857Y-114177857D01*
X140861428Y-114035000D01*
X140718571Y-113963571D01*
X140432857Y-113963571D01*
X140290000Y-114035000D01*
X140218571Y-114177857D01*
X140218571Y-114320714D01*
X140932857Y-114463571D01*
X139575714Y-113963571D02*
X139575714Y-114963571D01*
X139575714Y-114106429D02*
X139504286Y-114035000D01*
X139361428Y-113963571D01*
X139147143Y-113963571D01*
X139004286Y-114035000D01*
X138932857Y-114177857D01*
X138932857Y-114963571D01*
X138361428Y-113963571D02*
X138004285Y-114963571D01*
X137647143Y-113963571D01*
X137075714Y-114963571D02*
X137075714Y-113963571D01*
X137075714Y-113463571D02*
X137147143Y-113535000D01*
X137075714Y-113606429D01*
X137004286Y-113535000D01*
X137075714Y-113463571D01*
X137075714Y-113606429D01*
X136361428Y-114963571D02*
X136361428Y-113963571D01*
X136361428Y-114249286D02*
X136290000Y-114106429D01*
X136218571Y-114035000D01*
X136075714Y-113963571D01*
X135932857Y-113963571D01*
X135218571Y-114963571D02*
X135361429Y-114892143D01*
X135432857Y-114820714D01*
X135504286Y-114677857D01*
X135504286Y-114249286D01*
X135432857Y-114106429D01*
X135361429Y-114035000D01*
X135218571Y-113963571D01*
X135004286Y-113963571D01*
X134861429Y-114035000D01*
X134790000Y-114106429D01*
X134718571Y-114249286D01*
X134718571Y-114677857D01*
X134790000Y-114820714D01*
X134861429Y-114892143D01*
X135004286Y-114963571D01*
X135218571Y-114963571D01*
X134075714Y-113963571D02*
X134075714Y-114963571D01*
X134075714Y-114106429D02*
X134004286Y-114035000D01*
X133861428Y-113963571D01*
X133647143Y-113963571D01*
X133504286Y-114035000D01*
X133432857Y-114177857D01*
X133432857Y-114963571D01*
X132718571Y-114963571D02*
X132718571Y-113963571D01*
X132718571Y-114106429D02*
X132647143Y-114035000D01*
X132504285Y-113963571D01*
X132290000Y-113963571D01*
X132147143Y-114035000D01*
X132075714Y-114177857D01*
X132075714Y-114963571D01*
X132075714Y-114177857D02*
X132004285Y-114035000D01*
X131861428Y-113963571D01*
X131647143Y-113963571D01*
X131504285Y-114035000D01*
X131432857Y-114177857D01*
X131432857Y-114963571D01*
X130147143Y-114892143D02*
X130290000Y-114963571D01*
X130575714Y-114963571D01*
X130718571Y-114892143D01*
X130790000Y-114749286D01*
X130790000Y-114177857D01*
X130718571Y-114035000D01*
X130575714Y-113963571D01*
X130290000Y-113963571D01*
X130147143Y-114035000D01*
X130075714Y-114177857D01*
X130075714Y-114320714D01*
X130790000Y-114463571D01*
X129432857Y-113963571D02*
X129432857Y-114963571D01*
X129432857Y-114106429D02*
X129361429Y-114035000D01*
X129218571Y-113963571D01*
X129004286Y-113963571D01*
X128861429Y-114035000D01*
X128790000Y-114177857D01*
X128790000Y-114963571D01*
X128290000Y-113963571D02*
X127718571Y-113963571D01*
X128075714Y-113463571D02*
X128075714Y-114749286D01*
X128004286Y-114892143D01*
X127861428Y-114963571D01*
X127718571Y-114963571D01*
X126075714Y-114963571D02*
X126075714Y-113963571D01*
X126075714Y-114106429D02*
X126004286Y-114035000D01*
X125861428Y-113963571D01*
X125647143Y-113963571D01*
X125504286Y-114035000D01*
X125432857Y-114177857D01*
X125432857Y-114963571D01*
X125432857Y-114177857D02*
X125361428Y-114035000D01*
X125218571Y-113963571D01*
X125004286Y-113963571D01*
X124861428Y-114035000D01*
X124790000Y-114177857D01*
X124790000Y-114963571D01*
X123861428Y-114963571D02*
X124004286Y-114892143D01*
X124075714Y-114820714D01*
X124147143Y-114677857D01*
X124147143Y-114249286D01*
X124075714Y-114106429D01*
X124004286Y-114035000D01*
X123861428Y-113963571D01*
X123647143Y-113963571D01*
X123504286Y-114035000D01*
X123432857Y-114106429D01*
X123361428Y-114249286D01*
X123361428Y-114677857D01*
X123432857Y-114820714D01*
X123504286Y-114892143D01*
X123647143Y-114963571D01*
X123861428Y-114963571D01*
X122718571Y-113963571D02*
X122718571Y-114963571D01*
X122718571Y-114106429D02*
X122647143Y-114035000D01*
X122504285Y-113963571D01*
X122290000Y-113963571D01*
X122147143Y-114035000D01*
X122075714Y-114177857D01*
X122075714Y-114963571D01*
X121361428Y-114963571D02*
X121361428Y-113963571D01*
X121361428Y-113463571D02*
X121432857Y-113535000D01*
X121361428Y-113606429D01*
X121290000Y-113535000D01*
X121361428Y-113463571D01*
X121361428Y-113606429D01*
X120861428Y-113963571D02*
X120289999Y-113963571D01*
X120647142Y-113463571D02*
X120647142Y-114749286D01*
X120575714Y-114892143D01*
X120432856Y-114963571D01*
X120289999Y-114963571D01*
X119575713Y-114963571D02*
X119718571Y-114892143D01*
X119789999Y-114820714D01*
X119861428Y-114677857D01*
X119861428Y-114249286D01*
X119789999Y-114106429D01*
X119718571Y-114035000D01*
X119575713Y-113963571D01*
X119361428Y-113963571D01*
X119218571Y-114035000D01*
X119147142Y-114106429D01*
X119075713Y-114249286D01*
X119075713Y-114677857D01*
X119147142Y-114820714D01*
X119218571Y-114892143D01*
X119361428Y-114963571D01*
X119575713Y-114963571D01*
X118432856Y-114963571D02*
X118432856Y-113963571D01*
X118432856Y-114249286D02*
X118361428Y-114106429D01*
X118289999Y-114035000D01*
X118147142Y-113963571D01*
X118004285Y-113963571D01*
X134254285Y-120063571D02*
X134754285Y-119349286D01*
X135111428Y-120063571D02*
X135111428Y-118563571D01*
X134540000Y-118563571D01*
X134397142Y-118635000D01*
X134325714Y-118706429D01*
X134254285Y-118849286D01*
X134254285Y-119063571D01*
X134325714Y-119206429D01*
X134397142Y-119277857D01*
X134540000Y-119349286D01*
X135111428Y-119349286D01*
X133040000Y-119992143D02*
X133182857Y-120063571D01*
X133468571Y-120063571D01*
X133611428Y-119992143D01*
X133682857Y-119849286D01*
X133682857Y-119277857D01*
X133611428Y-119135000D01*
X133468571Y-119063571D01*
X133182857Y-119063571D01*
X133040000Y-119135000D01*
X132968571Y-119277857D01*
X132968571Y-119420714D01*
X133682857Y-119563571D01*
X132468571Y-119063571D02*
X132111428Y-120063571D01*
X131754286Y-119063571D01*
X131182857Y-120063571D02*
X131182857Y-119063571D01*
X131182857Y-118563571D02*
X131254286Y-118635000D01*
X131182857Y-118706429D01*
X131111429Y-118635000D01*
X131182857Y-118563571D01*
X131182857Y-118706429D01*
X130540000Y-119992143D02*
X130397143Y-120063571D01*
X130111428Y-120063571D01*
X129968571Y-119992143D01*
X129897143Y-119849286D01*
X129897143Y-119777857D01*
X129968571Y-119635000D01*
X130111428Y-119563571D01*
X130325714Y-119563571D01*
X130468571Y-119492143D01*
X130540000Y-119349286D01*
X130540000Y-119277857D01*
X130468571Y-119135000D01*
X130325714Y-119063571D01*
X130111428Y-119063571D01*
X129968571Y-119135000D01*
X129254285Y-120063571D02*
X129254285Y-119063571D01*
X129254285Y-118563571D02*
X129325714Y-118635000D01*
X129254285Y-118706429D01*
X129182857Y-118635000D01*
X129254285Y-118563571D01*
X129254285Y-118706429D01*
X128325713Y-120063571D02*
X128468571Y-119992143D01*
X128539999Y-119920714D01*
X128611428Y-119777857D01*
X128611428Y-119349286D01*
X128539999Y-119206429D01*
X128468571Y-119135000D01*
X128325713Y-119063571D01*
X128111428Y-119063571D01*
X127968571Y-119135000D01*
X127897142Y-119206429D01*
X127825713Y-119349286D01*
X127825713Y-119777857D01*
X127897142Y-119920714D01*
X127968571Y-119992143D01*
X128111428Y-120063571D01*
X128325713Y-120063571D01*
X127182856Y-119063571D02*
X127182856Y-120063571D01*
X127182856Y-119206429D02*
X127111428Y-119135000D01*
X126968570Y-119063571D01*
X126754285Y-119063571D01*
X126611428Y-119135000D01*
X126539999Y-119277857D01*
X126539999Y-120063571D01*
X124825713Y-118563571D02*
X123897142Y-118563571D01*
X124397142Y-119135000D01*
X124182856Y-119135000D01*
X124039999Y-119206429D01*
X123968570Y-119277857D01*
X123897142Y-119420714D01*
X123897142Y-119777857D01*
X123968570Y-119920714D01*
X124039999Y-119992143D01*
X124182856Y-120063571D01*
X124611428Y-120063571D01*
X124754285Y-119992143D01*
X124825713Y-119920714D01*
X136254285Y-125092143D02*
X136039999Y-125163571D01*
X135682856Y-125163571D01*
X135539999Y-125092143D01*
X135468570Y-125020714D01*
X135397142Y-124877857D01*
X135397142Y-124735000D01*
X135468570Y-124592143D01*
X135539999Y-124520714D01*
X135682856Y-124449286D01*
X135968570Y-124377857D01*
X136111428Y-124306429D01*
X136182856Y-124235000D01*
X136254285Y-124092143D01*
X136254285Y-123949286D01*
X136182856Y-123806429D01*
X136111428Y-123735000D01*
X135968570Y-123663571D01*
X135611428Y-123663571D01*
X135397142Y-123735000D01*
X134182857Y-125092143D02*
X134325714Y-125163571D01*
X134611428Y-125163571D01*
X134754285Y-125092143D01*
X134825714Y-124949286D01*
X134825714Y-124377857D01*
X134754285Y-124235000D01*
X134611428Y-124163571D01*
X134325714Y-124163571D01*
X134182857Y-124235000D01*
X134111428Y-124377857D01*
X134111428Y-124520714D01*
X134825714Y-124663571D01*
X132825714Y-125163571D02*
X132825714Y-124377857D01*
X132897143Y-124235000D01*
X133040000Y-124163571D01*
X133325714Y-124163571D01*
X133468571Y-124235000D01*
X132825714Y-125092143D02*
X132968571Y-125163571D01*
X133325714Y-125163571D01*
X133468571Y-125092143D01*
X133540000Y-124949286D01*
X133540000Y-124806429D01*
X133468571Y-124663571D01*
X133325714Y-124592143D01*
X132968571Y-124592143D01*
X132825714Y-124520714D01*
X132111428Y-124163571D02*
X132111428Y-125163571D01*
X132111428Y-124306429D02*
X132040000Y-124235000D01*
X131897142Y-124163571D01*
X131682857Y-124163571D01*
X131540000Y-124235000D01*
X131468571Y-124377857D01*
X131468571Y-125163571D01*
X128897142Y-125163571D02*
X129611428Y-125163571D01*
X129611428Y-123663571D01*
X127825714Y-125092143D02*
X127968571Y-125163571D01*
X128254285Y-125163571D01*
X128397142Y-125092143D01*
X128468571Y-124949286D01*
X128468571Y-124377857D01*
X128397142Y-124235000D01*
X128254285Y-124163571D01*
X127968571Y-124163571D01*
X127825714Y-124235000D01*
X127754285Y-124377857D01*
X127754285Y-124520714D01*
X128468571Y-124663571D01*
X126468571Y-125163571D02*
X126468571Y-124377857D01*
X126540000Y-124235000D01*
X126682857Y-124163571D01*
X126968571Y-124163571D01*
X127111428Y-124235000D01*
X126468571Y-125092143D02*
X126611428Y-125163571D01*
X126968571Y-125163571D01*
X127111428Y-125092143D01*
X127182857Y-124949286D01*
X127182857Y-124806429D01*
X127111428Y-124663571D01*
X126968571Y-124592143D01*
X126611428Y-124592143D01*
X126468571Y-124520714D01*
X125897142Y-124163571D02*
X125539999Y-125163571D01*
X125182857Y-124163571D01*
X124040000Y-125092143D02*
X124182857Y-125163571D01*
X124468571Y-125163571D01*
X124611428Y-125092143D01*
X124682857Y-124949286D01*
X124682857Y-124377857D01*
X124611428Y-124235000D01*
X124468571Y-124163571D01*
X124182857Y-124163571D01*
X124040000Y-124235000D01*
X123968571Y-124377857D01*
X123968571Y-124520714D01*
X124682857Y-124663571D01*
X123468571Y-124163571D02*
X123111428Y-125163571D01*
X122754286Y-124163571D02*
X123111428Y-125163571D01*
X123254286Y-125520714D01*
X123325714Y-125592143D01*
X123468571Y-125663571D01*
X204616428Y-101643571D02*
X204616428Y-100143571D01*
X204045000Y-100143571D01*
X203902142Y-100215000D01*
X203830714Y-100286429D01*
X203759285Y-100429286D01*
X203759285Y-100643571D01*
X203830714Y-100786429D01*
X203902142Y-100857857D01*
X204045000Y-100929286D01*
X204616428Y-100929286D01*
X203116428Y-101643571D02*
X203116428Y-100143571D01*
X202545000Y-100143571D01*
X202402142Y-100215000D01*
X202330714Y-100286429D01*
X202259285Y-100429286D01*
X202259285Y-100643571D01*
X202330714Y-100786429D01*
X202402142Y-100857857D01*
X202545000Y-100929286D01*
X203116428Y-100929286D01*
X201616428Y-101643571D02*
X201616428Y-100143571D01*
X201259285Y-100143571D01*
X201045000Y-100215000D01*
X200902142Y-100357857D01*
X200830714Y-100500714D01*
X200759285Y-100786429D01*
X200759285Y-101000714D01*
X200830714Y-101286429D01*
X200902142Y-101429286D01*
X201045000Y-101572143D01*
X201259285Y-101643571D01*
X201616428Y-101643571D01*
X199473571Y-100643571D02*
X199473571Y-101643571D01*
X199830714Y-100072143D02*
X200187857Y-101143571D01*
X199259285Y-101143571D01*
X198759286Y-100286429D02*
X198687857Y-100215000D01*
X198545000Y-100143571D01*
X198187857Y-100143571D01*
X198045000Y-100215000D01*
X197973571Y-100286429D01*
X197902143Y-100429286D01*
X197902143Y-100572143D01*
X197973571Y-100786429D01*
X198830714Y-101643571D01*
X197902143Y-101643571D01*
D13*
X193328000Y-70965000D02*
X206845000Y-70965000D01*
X193328000Y-130965000D02*
X206845000Y-130965000D01*
X193328000Y-130965000D02*
X193328000Y-70965000D01*
D14*
X172150380Y-105750640D02*
X183849620Y-105750640D01*
X183849620Y-110749360D02*
X172150380Y-110749360D01*
X183849620Y-105750640D02*
X183849620Y-106599000D01*
X183849620Y-110749360D02*
X183849620Y-109901000D01*
X172150380Y-105750640D02*
X172150380Y-106599000D01*
X172150380Y-110749360D02*
X172150380Y-109901000D01*
X144390000Y-97242000D02*
X144390000Y-95242000D01*
X146440000Y-95242000D02*
X146440000Y-97242000D01*
X163000000Y-84185000D02*
X163000000Y-82185000D01*
X160850000Y-82185000D02*
X160850000Y-84185000D01*
X177370000Y-57785000D02*
X177370000Y-56420000D01*
X174370000Y-57785000D02*
X177370000Y-57785000D01*
X190120000Y-57785000D02*
X187120000Y-57785000D01*
X187120000Y-57785000D02*
X187120000Y-56420000D01*
X174370000Y-78200000D02*
X174370000Y-56420000D01*
X190120000Y-78200000D02*
X190120000Y-56420000D01*
X190120000Y-56420000D02*
X174370000Y-56420000D01*
X190120000Y-78200000D02*
X174370000Y-78200000D01*
X145220000Y-135214000D02*
X145220000Y-130216000D01*
X145360000Y-135206000D02*
X145360000Y-132869000D01*
X145360000Y-132561000D02*
X145360000Y-130224000D01*
X145500000Y-135190000D02*
X145500000Y-133188000D01*
X145500000Y-132242000D02*
X145500000Y-130240000D01*
X145640000Y-135166000D02*
X145640000Y-133335000D01*
X145640000Y-132095000D02*
X145640000Y-130264000D01*
X145780000Y-135133000D02*
X145780000Y-133427000D01*
X145780000Y-132003000D02*
X145780000Y-130297000D01*
X145920000Y-135092000D02*
X145920000Y-133483000D01*
X145920000Y-131947000D02*
X145920000Y-130338000D01*
X146060000Y-135042000D02*
X146060000Y-133510000D01*
X146060000Y-131920000D02*
X146060000Y-130388000D01*
X146200000Y-134981000D02*
X146200000Y-133513000D01*
X146200000Y-131917000D02*
X146200000Y-130449000D01*
X146340000Y-134911000D02*
X146340000Y-133491000D01*
X146340000Y-131939000D02*
X146340000Y-130519000D01*
X146480000Y-134829000D02*
X146480000Y-133441000D01*
X146480000Y-131989000D02*
X146480000Y-130601000D01*
X146620000Y-134734000D02*
X146620000Y-133359000D01*
X146620000Y-132071000D02*
X146620000Y-130696000D01*
X146760000Y-134623000D02*
X146760000Y-133227000D01*
X146760000Y-132203000D02*
X146760000Y-130807000D01*
X146900000Y-134495000D02*
X146900000Y-132980000D01*
X146900000Y-132450000D02*
X146900000Y-130935000D01*
X147040000Y-134346000D02*
X147040000Y-131084000D01*
X147180000Y-134167000D02*
X147180000Y-131263000D01*
X147320000Y-133948000D02*
X147320000Y-131482000D01*
X147460000Y-133659000D02*
X147460000Y-131771000D01*
X147600000Y-133187000D02*
X147600000Y-132243000D01*
X146945000Y-132715000D02*
G75*
G03X146945000Y-132715000I-800000J0D01*
G01*
X147682500Y-132715000D02*
G75*
G03X147682500Y-132715000I-2537500J0D01*
G01*
X127365000Y-98620000D02*
X125365000Y-98620000D01*
X125365000Y-100770000D02*
X127365000Y-100770000D01*
X122840000Y-90135000D02*
X123540000Y-90135000D01*
X123540000Y-88935000D02*
X122840000Y-88935000D01*
X123540000Y-95285000D02*
X122840000Y-95285000D01*
X122840000Y-96485000D02*
X123540000Y-96485000D01*
X143950000Y-105369000D02*
X143950000Y-100371000D01*
X144090000Y-105361000D02*
X144090000Y-103024000D01*
X144090000Y-102716000D02*
X144090000Y-100379000D01*
X144230000Y-105345000D02*
X144230000Y-103343000D01*
X144230000Y-102397000D02*
X144230000Y-100395000D01*
X144370000Y-105321000D02*
X144370000Y-103490000D01*
X144370000Y-102250000D02*
X144370000Y-100419000D01*
X144510000Y-105288000D02*
X144510000Y-103582000D01*
X144510000Y-102158000D02*
X144510000Y-100452000D01*
X144650000Y-105247000D02*
X144650000Y-103638000D01*
X144650000Y-102102000D02*
X144650000Y-100493000D01*
X144790000Y-105197000D02*
X144790000Y-103665000D01*
X144790000Y-102075000D02*
X144790000Y-100543000D01*
X144930000Y-105136000D02*
X144930000Y-103668000D01*
X144930000Y-102072000D02*
X144930000Y-100604000D01*
X145070000Y-105066000D02*
X145070000Y-103646000D01*
X145070000Y-102094000D02*
X145070000Y-100674000D01*
X145210000Y-104984000D02*
X145210000Y-103596000D01*
X145210000Y-102144000D02*
X145210000Y-100756000D01*
X145350000Y-104889000D02*
X145350000Y-103514000D01*
X145350000Y-102226000D02*
X145350000Y-100851000D01*
X145490000Y-104778000D02*
X145490000Y-103382000D01*
X145490000Y-102358000D02*
X145490000Y-100962000D01*
X145630000Y-104650000D02*
X145630000Y-103135000D01*
X145630000Y-102605000D02*
X145630000Y-101090000D01*
X145770000Y-104501000D02*
X145770000Y-101239000D01*
X145910000Y-104322000D02*
X145910000Y-101418000D01*
X146050000Y-104103000D02*
X146050000Y-101637000D01*
X146190000Y-103814000D02*
X146190000Y-101926000D01*
X146330000Y-103342000D02*
X146330000Y-102398000D01*
X145675000Y-102870000D02*
G75*
G03X145675000Y-102870000I-800000J0D01*
G01*
X146412500Y-102870000D02*
G75*
G03X146412500Y-102870000I-2537500J0D01*
G01*
X124750000Y-101641000D02*
X124750000Y-106639000D01*
X124610000Y-101649000D02*
X124610000Y-103986000D01*
X124610000Y-104294000D02*
X124610000Y-106631000D01*
X124470000Y-101665000D02*
X124470000Y-103667000D01*
X124470000Y-104613000D02*
X124470000Y-106615000D01*
X124330000Y-101689000D02*
X124330000Y-103520000D01*
X124330000Y-104760000D02*
X124330000Y-106591000D01*
X124190000Y-101722000D02*
X124190000Y-103428000D01*
X124190000Y-104852000D02*
X124190000Y-106558000D01*
X124050000Y-101763000D02*
X124050000Y-103372000D01*
X124050000Y-104908000D02*
X124050000Y-106517000D01*
X123910000Y-101813000D02*
X123910000Y-103345000D01*
X123910000Y-104935000D02*
X123910000Y-106467000D01*
X123770000Y-101874000D02*
X123770000Y-103342000D01*
X123770000Y-104938000D02*
X123770000Y-106406000D01*
X123630000Y-101944000D02*
X123630000Y-103364000D01*
X123630000Y-104916000D02*
X123630000Y-106336000D01*
X123490000Y-102026000D02*
X123490000Y-103414000D01*
X123490000Y-104866000D02*
X123490000Y-106254000D01*
X123350000Y-102121000D02*
X123350000Y-103496000D01*
X123350000Y-104784000D02*
X123350000Y-106159000D01*
X123210000Y-102232000D02*
X123210000Y-103628000D01*
X123210000Y-104652000D02*
X123210000Y-106048000D01*
X123070000Y-102360000D02*
X123070000Y-103875000D01*
X123070000Y-104405000D02*
X123070000Y-105920000D01*
X122930000Y-102509000D02*
X122930000Y-105771000D01*
X122790000Y-102688000D02*
X122790000Y-105592000D01*
X122650000Y-102907000D02*
X122650000Y-105373000D01*
X122510000Y-103196000D02*
X122510000Y-105084000D01*
X122370000Y-103668000D02*
X122370000Y-104612000D01*
X124625000Y-104140000D02*
G75*
G03X124625000Y-104140000I-800000J0D01*
G01*
X127362500Y-104140000D02*
G75*
G03X127362500Y-104140000I-2537500J0D01*
G01*
X129295000Y-94885000D02*
X129295000Y-96885000D01*
X127245000Y-96885000D02*
X127245000Y-94885000D01*
X143120000Y-83550000D02*
X143120000Y-81550000D01*
X145170000Y-81550000D02*
X145170000Y-83550000D01*
X128660000Y-84725000D02*
X128660000Y-86725000D01*
X126610000Y-86725000D02*
X126610000Y-84725000D01*
X146803000Y-97242000D02*
X146803000Y-95242000D01*
X148853000Y-95242000D02*
X148853000Y-97242000D01*
X121480000Y-81956000D02*
X121480000Y-86954000D01*
X121340000Y-81964000D02*
X121340000Y-84301000D01*
X121340000Y-84609000D02*
X121340000Y-86946000D01*
X121200000Y-81980000D02*
X121200000Y-83982000D01*
X121200000Y-84928000D02*
X121200000Y-86930000D01*
X121060000Y-82004000D02*
X121060000Y-83835000D01*
X121060000Y-85075000D02*
X121060000Y-86906000D01*
X120920000Y-82037000D02*
X120920000Y-83743000D01*
X120920000Y-85167000D02*
X120920000Y-86873000D01*
X120780000Y-82078000D02*
X120780000Y-83687000D01*
X120780000Y-85223000D02*
X120780000Y-86832000D01*
X120640000Y-82128000D02*
X120640000Y-83660000D01*
X120640000Y-85250000D02*
X120640000Y-86782000D01*
X120500000Y-82189000D02*
X120500000Y-83657000D01*
X120500000Y-85253000D02*
X120500000Y-86721000D01*
X120360000Y-82259000D02*
X120360000Y-83679000D01*
X120360000Y-85231000D02*
X120360000Y-86651000D01*
X120220000Y-82341000D02*
X120220000Y-83729000D01*
X120220000Y-85181000D02*
X120220000Y-86569000D01*
X120080000Y-82436000D02*
X120080000Y-83811000D01*
X120080000Y-85099000D02*
X120080000Y-86474000D01*
X119940000Y-82547000D02*
X119940000Y-83943000D01*
X119940000Y-84967000D02*
X119940000Y-86363000D01*
X119800000Y-82675000D02*
X119800000Y-84190000D01*
X119800000Y-84720000D02*
X119800000Y-86235000D01*
X119660000Y-82824000D02*
X119660000Y-86086000D01*
X119520000Y-83003000D02*
X119520000Y-85907000D01*
X119380000Y-83222000D02*
X119380000Y-85688000D01*
X119240000Y-83511000D02*
X119240000Y-85399000D01*
X119100000Y-83983000D02*
X119100000Y-84927000D01*
X121355000Y-84455000D02*
G75*
G03X121355000Y-84455000I-800000J0D01*
G01*
X124092500Y-84455000D02*
G75*
G03X124092500Y-84455000I-2537500J0D01*
G01*
X167395000Y-114570000D02*
X167395000Y-116570000D01*
X165345000Y-116570000D02*
X165345000Y-114570000D01*
X169890000Y-76159000D02*
X169890000Y-71161000D01*
X170030000Y-76151000D02*
X170030000Y-73814000D01*
X170030000Y-73506000D02*
X170030000Y-71169000D01*
X170170000Y-76135000D02*
X170170000Y-74133000D01*
X170170000Y-73187000D02*
X170170000Y-71185000D01*
X170310000Y-76111000D02*
X170310000Y-74280000D01*
X170310000Y-73040000D02*
X170310000Y-71209000D01*
X170450000Y-76078000D02*
X170450000Y-74372000D01*
X170450000Y-72948000D02*
X170450000Y-71242000D01*
X170590000Y-76037000D02*
X170590000Y-74428000D01*
X170590000Y-72892000D02*
X170590000Y-71283000D01*
X170730000Y-75987000D02*
X170730000Y-74455000D01*
X170730000Y-72865000D02*
X170730000Y-71333000D01*
X170870000Y-75926000D02*
X170870000Y-74458000D01*
X170870000Y-72862000D02*
X170870000Y-71394000D01*
X171010000Y-75856000D02*
X171010000Y-74436000D01*
X171010000Y-72884000D02*
X171010000Y-71464000D01*
X171150000Y-75774000D02*
X171150000Y-74386000D01*
X171150000Y-72934000D02*
X171150000Y-71546000D01*
X171290000Y-75679000D02*
X171290000Y-74304000D01*
X171290000Y-73016000D02*
X171290000Y-71641000D01*
X171430000Y-75568000D02*
X171430000Y-74172000D01*
X171430000Y-73148000D02*
X171430000Y-71752000D01*
X171570000Y-75440000D02*
X171570000Y-73925000D01*
X171570000Y-73395000D02*
X171570000Y-71880000D01*
X171710000Y-75291000D02*
X171710000Y-72029000D01*
X171850000Y-75112000D02*
X171850000Y-72208000D01*
X171990000Y-74893000D02*
X171990000Y-72427000D01*
X172130000Y-74604000D02*
X172130000Y-72716000D01*
X172270000Y-74132000D02*
X172270000Y-73188000D01*
X171615000Y-73660000D02*
G75*
G03X171615000Y-73660000I-800000J0D01*
G01*
X172352500Y-73660000D02*
G75*
G03X172352500Y-73660000I-2537500J0D01*
G01*
X178825000Y-87900000D02*
X178825000Y-89900000D01*
X176775000Y-89900000D02*
X176775000Y-87900000D01*
X188960000Y-93100000D02*
X186960000Y-93100000D01*
X186960000Y-91050000D02*
X188960000Y-91050000D01*
X188960000Y-95640000D02*
X186960000Y-95640000D01*
X186960000Y-93590000D02*
X188960000Y-93590000D01*
X187366000Y-113629000D02*
X192364000Y-113629000D01*
X187374000Y-113769000D02*
X189711000Y-113769000D01*
X190019000Y-113769000D02*
X192356000Y-113769000D01*
X187390000Y-113909000D02*
X189392000Y-113909000D01*
X190338000Y-113909000D02*
X192340000Y-113909000D01*
X187414000Y-114049000D02*
X189245000Y-114049000D01*
X190485000Y-114049000D02*
X192316000Y-114049000D01*
X187447000Y-114189000D02*
X189153000Y-114189000D01*
X190577000Y-114189000D02*
X192283000Y-114189000D01*
X187488000Y-114329000D02*
X189097000Y-114329000D01*
X190633000Y-114329000D02*
X192242000Y-114329000D01*
X187538000Y-114469000D02*
X189070000Y-114469000D01*
X190660000Y-114469000D02*
X192192000Y-114469000D01*
X187599000Y-114609000D02*
X189067000Y-114609000D01*
X190663000Y-114609000D02*
X192131000Y-114609000D01*
X187669000Y-114749000D02*
X189089000Y-114749000D01*
X190641000Y-114749000D02*
X192061000Y-114749000D01*
X187751000Y-114889000D02*
X189139000Y-114889000D01*
X190591000Y-114889000D02*
X191979000Y-114889000D01*
X187846000Y-115029000D02*
X189221000Y-115029000D01*
X190509000Y-115029000D02*
X191884000Y-115029000D01*
X187957000Y-115169000D02*
X189353000Y-115169000D01*
X190377000Y-115169000D02*
X191773000Y-115169000D01*
X188085000Y-115309000D02*
X189600000Y-115309000D01*
X190130000Y-115309000D02*
X191645000Y-115309000D01*
X188234000Y-115449000D02*
X191496000Y-115449000D01*
X188413000Y-115589000D02*
X191317000Y-115589000D01*
X188632000Y-115729000D02*
X191098000Y-115729000D01*
X188921000Y-115869000D02*
X190809000Y-115869000D01*
X189393000Y-116009000D02*
X190337000Y-116009000D01*
X190665000Y-114554000D02*
G75*
G03X190665000Y-114554000I-800000J0D01*
G01*
X192402500Y-113554000D02*
G75*
G03X192402500Y-113554000I-2537500J0D01*
G01*
X188960000Y-98180000D02*
X186960000Y-98180000D01*
X186960000Y-96130000D02*
X188960000Y-96130000D01*
X190230000Y-100720000D02*
X188230000Y-100720000D01*
X188230000Y-98670000D02*
X190230000Y-98670000D01*
X188230000Y-101210000D02*
X190230000Y-101210000D01*
X190230000Y-103260000D02*
X188230000Y-103260000D01*
X187366000Y-107882000D02*
X192364000Y-107882000D01*
X187374000Y-108022000D02*
X189711000Y-108022000D01*
X190019000Y-108022000D02*
X192356000Y-108022000D01*
X187390000Y-108162000D02*
X189392000Y-108162000D01*
X190338000Y-108162000D02*
X192340000Y-108162000D01*
X187414000Y-108302000D02*
X189245000Y-108302000D01*
X190485000Y-108302000D02*
X192316000Y-108302000D01*
X187447000Y-108442000D02*
X189153000Y-108442000D01*
X190577000Y-108442000D02*
X192283000Y-108442000D01*
X187488000Y-108582000D02*
X189097000Y-108582000D01*
X190633000Y-108582000D02*
X192242000Y-108582000D01*
X187538000Y-108722000D02*
X189070000Y-108722000D01*
X190660000Y-108722000D02*
X192192000Y-108722000D01*
X187599000Y-108862000D02*
X189067000Y-108862000D01*
X190663000Y-108862000D02*
X192131000Y-108862000D01*
X187669000Y-109002000D02*
X189089000Y-109002000D01*
X190641000Y-109002000D02*
X192061000Y-109002000D01*
X187751000Y-109142000D02*
X189139000Y-109142000D01*
X190591000Y-109142000D02*
X191979000Y-109142000D01*
X187846000Y-109282000D02*
X189221000Y-109282000D01*
X190509000Y-109282000D02*
X191884000Y-109282000D01*
X187957000Y-109422000D02*
X189353000Y-109422000D01*
X190377000Y-109422000D02*
X191773000Y-109422000D01*
X188085000Y-109562000D02*
X189600000Y-109562000D01*
X190130000Y-109562000D02*
X191645000Y-109562000D01*
X188234000Y-109702000D02*
X191496000Y-109702000D01*
X188413000Y-109842000D02*
X191317000Y-109842000D01*
X188632000Y-109982000D02*
X191098000Y-109982000D01*
X188921000Y-110122000D02*
X190809000Y-110122000D01*
X189393000Y-110262000D02*
X190337000Y-110262000D01*
X190665000Y-108807000D02*
G75*
G03X190665000Y-108807000I-800000J0D01*
G01*
X192402500Y-107807000D02*
G75*
G03X192402500Y-107807000I-2537500J0D01*
G01*
X183100000Y-111650000D02*
X182400000Y-111650000D01*
X182400000Y-112850000D02*
X183100000Y-112850000D01*
X172900000Y-112850000D02*
X173600000Y-112850000D01*
X173600000Y-111650000D02*
X172900000Y-111650000D01*
X167275000Y-77715000D02*
X169275000Y-77715000D01*
X169275000Y-79765000D02*
X167275000Y-79765000D01*
X190230000Y-87385000D02*
X188230000Y-87385000D01*
X188230000Y-85335000D02*
X190230000Y-85335000D01*
X182490000Y-82915000D02*
X182490000Y-80915000D01*
X184540000Y-80915000D02*
X184540000Y-82915000D01*
X179950000Y-82915000D02*
X179950000Y-80915000D01*
X182000000Y-80915000D02*
X182000000Y-82915000D01*
X157870000Y-96790000D02*
X157870000Y-98790000D01*
X155820000Y-98790000D02*
X155820000Y-96790000D01*
X155210000Y-102480000D02*
X157210000Y-102480000D01*
X157210000Y-104530000D02*
X155210000Y-104530000D01*
X169255000Y-124419000D02*
X169255000Y-119421000D01*
X169395000Y-124411000D02*
X169395000Y-122074000D01*
X169395000Y-121766000D02*
X169395000Y-119429000D01*
X169535000Y-124395000D02*
X169535000Y-122393000D01*
X169535000Y-121447000D02*
X169535000Y-119445000D01*
X169675000Y-124371000D02*
X169675000Y-122540000D01*
X169675000Y-121300000D02*
X169675000Y-119469000D01*
X169815000Y-124338000D02*
X169815000Y-122632000D01*
X169815000Y-121208000D02*
X169815000Y-119502000D01*
X169955000Y-124297000D02*
X169955000Y-122688000D01*
X169955000Y-121152000D02*
X169955000Y-119543000D01*
X170095000Y-124247000D02*
X170095000Y-122715000D01*
X170095000Y-121125000D02*
X170095000Y-119593000D01*
X170235000Y-124186000D02*
X170235000Y-122718000D01*
X170235000Y-121122000D02*
X170235000Y-119654000D01*
X170375000Y-124116000D02*
X170375000Y-122696000D01*
X170375000Y-121144000D02*
X170375000Y-119724000D01*
X170515000Y-124034000D02*
X170515000Y-122646000D01*
X170515000Y-121194000D02*
X170515000Y-119806000D01*
X170655000Y-123939000D02*
X170655000Y-122564000D01*
X170655000Y-121276000D02*
X170655000Y-119901000D01*
X170795000Y-123828000D02*
X170795000Y-122432000D01*
X170795000Y-121408000D02*
X170795000Y-120012000D01*
X170935000Y-123700000D02*
X170935000Y-122185000D01*
X170935000Y-121655000D02*
X170935000Y-120140000D01*
X171075000Y-123551000D02*
X171075000Y-120289000D01*
X171215000Y-123372000D02*
X171215000Y-120468000D01*
X171355000Y-123153000D02*
X171355000Y-120687000D01*
X171495000Y-122864000D02*
X171495000Y-120976000D01*
X171635000Y-122392000D02*
X171635000Y-121448000D01*
X170980000Y-121920000D02*
G75*
G03X170980000Y-121920000I-800000J0D01*
G01*
X171717500Y-121920000D02*
G75*
G03X171717500Y-121920000I-2537500J0D01*
G01*
X176489000Y-136720000D02*
X171491000Y-136720000D01*
X176481000Y-136580000D02*
X174144000Y-136580000D01*
X173836000Y-136580000D02*
X171499000Y-136580000D01*
X176465000Y-136440000D02*
X174463000Y-136440000D01*
X173517000Y-136440000D02*
X171515000Y-136440000D01*
X176441000Y-136300000D02*
X174610000Y-136300000D01*
X173370000Y-136300000D02*
X171539000Y-136300000D01*
X176408000Y-136160000D02*
X174702000Y-136160000D01*
X173278000Y-136160000D02*
X171572000Y-136160000D01*
X176367000Y-136020000D02*
X174758000Y-136020000D01*
X173222000Y-136020000D02*
X171613000Y-136020000D01*
X176317000Y-135880000D02*
X174785000Y-135880000D01*
X173195000Y-135880000D02*
X171663000Y-135880000D01*
X176256000Y-135740000D02*
X174788000Y-135740000D01*
X173192000Y-135740000D02*
X171724000Y-135740000D01*
X176186000Y-135600000D02*
X174766000Y-135600000D01*
X173214000Y-135600000D02*
X171794000Y-135600000D01*
X176104000Y-135460000D02*
X174716000Y-135460000D01*
X173264000Y-135460000D02*
X171876000Y-135460000D01*
X176009000Y-135320000D02*
X174634000Y-135320000D01*
X173346000Y-135320000D02*
X171971000Y-135320000D01*
X175898000Y-135180000D02*
X174502000Y-135180000D01*
X173478000Y-135180000D02*
X172082000Y-135180000D01*
X175770000Y-135040000D02*
X174255000Y-135040000D01*
X173725000Y-135040000D02*
X172210000Y-135040000D01*
X175621000Y-134900000D02*
X172359000Y-134900000D01*
X175442000Y-134760000D02*
X172538000Y-134760000D01*
X175223000Y-134620000D02*
X172757000Y-134620000D01*
X174934000Y-134480000D02*
X173046000Y-134480000D01*
X174462000Y-134340000D02*
X173518000Y-134340000D01*
X174790000Y-135795000D02*
G75*
G03X174790000Y-135795000I-800000J0D01*
G01*
X176527500Y-136795000D02*
G75*
G03X176527500Y-136795000I-2537500J0D01*
G01*
X183125000Y-137525000D02*
X183125000Y-135525000D01*
X185175000Y-135525000D02*
X185175000Y-137525000D01*
X191729000Y-136720000D02*
X186731000Y-136720000D01*
X191721000Y-136580000D02*
X189384000Y-136580000D01*
X189076000Y-136580000D02*
X186739000Y-136580000D01*
X191705000Y-136440000D02*
X189703000Y-136440000D01*
X188757000Y-136440000D02*
X186755000Y-136440000D01*
X191681000Y-136300000D02*
X189850000Y-136300000D01*
X188610000Y-136300000D02*
X186779000Y-136300000D01*
X191648000Y-136160000D02*
X189942000Y-136160000D01*
X188518000Y-136160000D02*
X186812000Y-136160000D01*
X191607000Y-136020000D02*
X189998000Y-136020000D01*
X188462000Y-136020000D02*
X186853000Y-136020000D01*
X191557000Y-135880000D02*
X190025000Y-135880000D01*
X188435000Y-135880000D02*
X186903000Y-135880000D01*
X191496000Y-135740000D02*
X190028000Y-135740000D01*
X188432000Y-135740000D02*
X186964000Y-135740000D01*
X191426000Y-135600000D02*
X190006000Y-135600000D01*
X188454000Y-135600000D02*
X187034000Y-135600000D01*
X191344000Y-135460000D02*
X189956000Y-135460000D01*
X188504000Y-135460000D02*
X187116000Y-135460000D01*
X191249000Y-135320000D02*
X189874000Y-135320000D01*
X188586000Y-135320000D02*
X187211000Y-135320000D01*
X191138000Y-135180000D02*
X189742000Y-135180000D01*
X188718000Y-135180000D02*
X187322000Y-135180000D01*
X191010000Y-135040000D02*
X189495000Y-135040000D01*
X188965000Y-135040000D02*
X187450000Y-135040000D01*
X190861000Y-134900000D02*
X187599000Y-134900000D01*
X190682000Y-134760000D02*
X187778000Y-134760000D01*
X190463000Y-134620000D02*
X187997000Y-134620000D01*
X190174000Y-134480000D02*
X188286000Y-134480000D01*
X189702000Y-134340000D02*
X188758000Y-134340000D01*
X190030000Y-135795000D02*
G75*
G03X190030000Y-135795000I-800000J0D01*
G01*
X191767500Y-136795000D02*
G75*
G03X191767500Y-136795000I-2537500J0D01*
G01*
X195945000Y-133740000D02*
X193945000Y-133740000D01*
X193945000Y-131690000D02*
X195945000Y-131690000D01*
X185461000Y-130615000D02*
X190459000Y-130615000D01*
X185469000Y-130755000D02*
X187806000Y-130755000D01*
X188114000Y-130755000D02*
X190451000Y-130755000D01*
X185485000Y-130895000D02*
X187487000Y-130895000D01*
X188433000Y-130895000D02*
X190435000Y-130895000D01*
X185509000Y-131035000D02*
X187340000Y-131035000D01*
X188580000Y-131035000D02*
X190411000Y-131035000D01*
X185542000Y-131175000D02*
X187248000Y-131175000D01*
X188672000Y-131175000D02*
X190378000Y-131175000D01*
X185583000Y-131315000D02*
X187192000Y-131315000D01*
X188728000Y-131315000D02*
X190337000Y-131315000D01*
X185633000Y-131455000D02*
X187165000Y-131455000D01*
X188755000Y-131455000D02*
X190287000Y-131455000D01*
X185694000Y-131595000D02*
X187162000Y-131595000D01*
X188758000Y-131595000D02*
X190226000Y-131595000D01*
X185764000Y-131735000D02*
X187184000Y-131735000D01*
X188736000Y-131735000D02*
X190156000Y-131735000D01*
X185846000Y-131875000D02*
X187234000Y-131875000D01*
X188686000Y-131875000D02*
X190074000Y-131875000D01*
X185941000Y-132015000D02*
X187316000Y-132015000D01*
X188604000Y-132015000D02*
X189979000Y-132015000D01*
X186052000Y-132155000D02*
X187448000Y-132155000D01*
X188472000Y-132155000D02*
X189868000Y-132155000D01*
X186180000Y-132295000D02*
X187695000Y-132295000D01*
X188225000Y-132295000D02*
X189740000Y-132295000D01*
X186329000Y-132435000D02*
X189591000Y-132435000D01*
X186508000Y-132575000D02*
X189412000Y-132575000D01*
X186727000Y-132715000D02*
X189193000Y-132715000D01*
X187016000Y-132855000D02*
X188904000Y-132855000D01*
X187488000Y-132995000D02*
X188432000Y-132995000D01*
X188760000Y-131540000D02*
G75*
G03X188760000Y-131540000I-800000J0D01*
G01*
X190497500Y-130540000D02*
G75*
G03X190497500Y-130540000I-2537500J0D01*
G01*
X131345000Y-66520000D02*
X131345000Y-60520000D01*
X131345000Y-60520000D02*
X136625000Y-60520000D01*
X136625000Y-60520000D02*
X136625000Y-66520000D01*
X136625000Y-66520000D02*
X131345000Y-66520000D01*
X132715000Y-60520000D02*
X132715000Y-61520000D01*
X132715000Y-61520000D02*
X135255000Y-61520000D01*
X135255000Y-61520000D02*
X135255000Y-60520000D01*
X132715000Y-61520000D02*
X132965000Y-61950000D01*
X132965000Y-61950000D02*
X135005000Y-61950000D01*
X135005000Y-61950000D02*
X135255000Y-61520000D01*
X132965000Y-60520000D02*
X132965000Y-61520000D01*
X135005000Y-60520000D02*
X135005000Y-61520000D01*
X131915000Y-66520000D02*
X131915000Y-65900000D01*
X131915000Y-65900000D02*
X133515000Y-65900000D01*
X133515000Y-65900000D02*
X133515000Y-66520000D01*
X134455000Y-66520000D02*
X134455000Y-65900000D01*
X134455000Y-65900000D02*
X136055000Y-65900000D01*
X136055000Y-65900000D02*
X136055000Y-66520000D01*
X141505000Y-66520000D02*
X141505000Y-60520000D01*
X141505000Y-60520000D02*
X146785000Y-60520000D01*
X146785000Y-60520000D02*
X146785000Y-66520000D01*
X146785000Y-66520000D02*
X141505000Y-66520000D01*
X142875000Y-60520000D02*
X142875000Y-61520000D01*
X142875000Y-61520000D02*
X145415000Y-61520000D01*
X145415000Y-61520000D02*
X145415000Y-60520000D01*
X142875000Y-61520000D02*
X143125000Y-61950000D01*
X143125000Y-61950000D02*
X145165000Y-61950000D01*
X145165000Y-61950000D02*
X145415000Y-61520000D01*
X143125000Y-60520000D02*
X143125000Y-61520000D01*
X145165000Y-60520000D02*
X145165000Y-61520000D01*
X142075000Y-66520000D02*
X142075000Y-65900000D01*
X142075000Y-65900000D02*
X143675000Y-65900000D01*
X143675000Y-65900000D02*
X143675000Y-66520000D01*
X144615000Y-66520000D02*
X144615000Y-65900000D01*
X144615000Y-65900000D02*
X146215000Y-65900000D01*
X146215000Y-65900000D02*
X146215000Y-66520000D01*
X144945100Y-76283820D02*
X144945100Y-77335380D01*
X143344900Y-77386180D02*
X143344900Y-76334620D01*
X142074900Y-126916180D02*
X142074900Y-125864620D01*
X143675100Y-125813820D02*
X143675100Y-126865380D01*
X162090100Y-76283820D02*
X162090100Y-77335380D01*
X160489900Y-77386180D02*
X160489900Y-76334620D01*
X150578820Y-105879900D02*
X151630380Y-105879900D01*
X151681180Y-107480100D02*
X150629620Y-107480100D01*
X142430000Y-143260000D02*
X134430000Y-143260000D01*
X142430000Y-135940000D02*
X134430000Y-135940000D01*
X134430000Y-135940000D02*
X134430000Y-143260000D01*
X134430000Y-142640000D02*
X142430000Y-142640000D01*
X142430000Y-143260000D02*
X142430000Y-135940000D01*
X132080000Y-100965000D02*
X137160000Y-100965000D01*
X129260000Y-100685000D02*
X129260000Y-102235000D01*
X129540000Y-103505000D02*
X132080000Y-103505000D01*
X132080000Y-103505000D02*
X132080000Y-100965000D01*
X137160000Y-100965000D02*
X137160000Y-106045000D01*
X137160000Y-106045000D02*
X132080000Y-106045000D01*
X129260000Y-100685000D02*
X130810000Y-100685000D01*
X129540000Y-106045000D02*
X129540000Y-103505000D01*
X132080000Y-106045000D02*
X129540000Y-106045000D01*
X149420000Y-89700000D02*
X148620000Y-89700000D01*
X149420000Y-83050000D02*
X149420000Y-89700000D01*
X149420000Y-83050000D02*
X146470000Y-83050000D01*
X146470000Y-83050000D02*
X146470000Y-87600000D01*
X147820000Y-89700000D02*
X146470000Y-89700000D01*
X146470000Y-89700000D02*
X146470000Y-88400000D01*
X152300000Y-124940000D02*
X152300000Y-118940000D01*
X152300000Y-118940000D02*
X165200000Y-118940000D01*
X165200000Y-118940000D02*
X165200000Y-124940000D01*
X165200000Y-124940000D02*
X152300000Y-124940000D01*
X153670000Y-118940000D02*
X153670000Y-119940000D01*
X153670000Y-119940000D02*
X163830000Y-119940000D01*
X163830000Y-119940000D02*
X163830000Y-118940000D01*
X153670000Y-119940000D02*
X153920000Y-120370000D01*
X153920000Y-120370000D02*
X163580000Y-120370000D01*
X163580000Y-120370000D02*
X163830000Y-119940000D01*
X153920000Y-118940000D02*
X153920000Y-119940000D01*
X163580000Y-118940000D02*
X163580000Y-119940000D01*
X152870000Y-124940000D02*
X152870000Y-124320000D01*
X152870000Y-124320000D02*
X154470000Y-124320000D01*
X154470000Y-124320000D02*
X154470000Y-124940000D01*
X155410000Y-124940000D02*
X155410000Y-124320000D01*
X155410000Y-124320000D02*
X157010000Y-124320000D01*
X157010000Y-124320000D02*
X157010000Y-124940000D01*
X157950000Y-124940000D02*
X157950000Y-124320000D01*
X157950000Y-124320000D02*
X159550000Y-124320000D01*
X159550000Y-124320000D02*
X159550000Y-124940000D01*
X160490000Y-124940000D02*
X160490000Y-124320000D01*
X160490000Y-124320000D02*
X162090000Y-124320000D01*
X162090000Y-124320000D02*
X162090000Y-124940000D01*
X163030000Y-124940000D02*
X163030000Y-124320000D01*
X163030000Y-124320000D02*
X164630000Y-124320000D01*
X164630000Y-124320000D02*
X164630000Y-124940000D01*
X157825000Y-136565000D02*
X157325000Y-136565000D01*
X163825000Y-134065000D02*
G75*
G03X163825000Y-134065000I-2000000J0D01*
G01*
X163825000Y-139065000D02*
G75*
G03X163825000Y-139065000I-2000000J0D01*
G01*
X159325000Y-141565000D02*
X159325000Y-131565000D01*
X164225000Y-141565000D02*
X164225000Y-131565000D01*
X157825000Y-141565000D02*
X157825000Y-131565000D01*
X157325000Y-141565000D02*
X157325000Y-131565000D01*
X157325000Y-131565000D02*
X167125000Y-131565000D01*
X167125000Y-131565000D02*
X167125000Y-141565000D01*
X167125000Y-141565000D02*
X157325000Y-141565000D01*
X138235000Y-133715000D02*
X138235000Y-131715000D01*
X136085000Y-131715000D02*
X136085000Y-133715000D01*
X141410000Y-133715000D02*
X141410000Y-131715000D01*
X139260000Y-131715000D02*
X139260000Y-133715000D01*
X120455000Y-93710000D02*
X120455000Y-91710000D01*
X118305000Y-91710000D02*
X118305000Y-93710000D01*
X140319000Y-81475000D02*
X138319000Y-81475000D01*
X138319000Y-83625000D02*
X140319000Y-83625000D01*
X129980000Y-64500000D02*
X129980000Y-62500000D01*
X127830000Y-62500000D02*
X127830000Y-64500000D01*
X140140000Y-64500000D02*
X140140000Y-62500000D01*
X137990000Y-62500000D02*
X137990000Y-64500000D01*
X162755000Y-114570000D02*
X162755000Y-116570000D01*
X164905000Y-116570000D02*
X164905000Y-114570000D01*
X169275000Y-100525000D02*
X167275000Y-100525000D01*
X167275000Y-102675000D02*
X169275000Y-102675000D01*
X169275000Y-103065000D02*
X167275000Y-103065000D01*
X167275000Y-105215000D02*
X169275000Y-105215000D01*
X177000000Y-113325000D02*
X179000000Y-113325000D01*
X179000000Y-111175000D02*
X177000000Y-111175000D01*
X192845000Y-91170000D02*
X192845000Y-89170000D01*
X190695000Y-89170000D02*
X190695000Y-91170000D01*
X160391000Y-82915000D02*
X160391000Y-80915000D01*
X158241000Y-80915000D02*
X158241000Y-82915000D01*
X175700000Y-91170000D02*
X175700000Y-89170000D01*
X173550000Y-89170000D02*
X173550000Y-91170000D01*
X184590000Y-91170000D02*
X184590000Y-89170000D01*
X182440000Y-89170000D02*
X182440000Y-91170000D01*
X159115000Y-89095000D02*
X157115000Y-89095000D01*
X157115000Y-91245000D02*
X159115000Y-91245000D01*
X157210000Y-86555000D02*
X155210000Y-86555000D01*
X155210000Y-88705000D02*
X157210000Y-88705000D01*
X155305000Y-84015000D02*
X153305000Y-84015000D01*
X153305000Y-86165000D02*
X155305000Y-86165000D01*
X155305000Y-81475000D02*
X153305000Y-81475000D01*
X153305000Y-83625000D02*
X155305000Y-83625000D01*
X157285000Y-79740000D02*
X157285000Y-77740000D01*
X155135000Y-77740000D02*
X155135000Y-79740000D01*
X165540000Y-86090000D02*
X165540000Y-84090000D01*
X163390000Y-84090000D02*
X163390000Y-86090000D01*
X173160000Y-91170000D02*
X173160000Y-89170000D01*
X171010000Y-89170000D02*
X171010000Y-91170000D01*
X182050000Y-91170000D02*
X182050000Y-89170000D01*
X179900000Y-89170000D02*
X179900000Y-91170000D01*
X171085000Y-87435000D02*
X173085000Y-87435000D01*
X173085000Y-85285000D02*
X171085000Y-85285000D01*
X167275000Y-89975000D02*
X169275000Y-89975000D01*
X169275000Y-87825000D02*
X167275000Y-87825000D01*
X167275000Y-82990000D02*
X169275000Y-82990000D01*
X169275000Y-80840000D02*
X167275000Y-80840000D01*
X186325000Y-89975000D02*
X188325000Y-89975000D01*
X188325000Y-87825000D02*
X186325000Y-87825000D01*
X182515000Y-87435000D02*
X184515000Y-87435000D01*
X184515000Y-85285000D02*
X182515000Y-85285000D01*
X150300000Y-103870000D02*
X150300000Y-101870000D01*
X148150000Y-101870000D02*
X148150000Y-103870000D01*
X162365000Y-116570000D02*
X162365000Y-114570000D01*
X160215000Y-114570000D02*
X160215000Y-116570000D01*
X157675000Y-114570000D02*
X157675000Y-116570000D01*
X159825000Y-116570000D02*
X159825000Y-114570000D01*
X157285000Y-116570000D02*
X157285000Y-114570000D01*
X155135000Y-114570000D02*
X155135000Y-116570000D01*
X152595000Y-114570000D02*
X152595000Y-116570000D01*
X154745000Y-116570000D02*
X154745000Y-114570000D01*
X141700000Y-97250000D02*
X141125000Y-97250000D01*
X141700000Y-86900000D02*
X141025000Y-86900000D01*
X131350000Y-86900000D02*
X132025000Y-86900000D01*
X131350000Y-97250000D02*
X132025000Y-97250000D01*
X141700000Y-97250000D02*
X141700000Y-96575000D01*
X131350000Y-97250000D02*
X131350000Y-96575000D01*
X131350000Y-86900000D02*
X131350000Y-87575000D01*
X141700000Y-86900000D02*
X141700000Y-87575000D01*
X141125000Y-97250000D02*
X141125000Y-98525000D01*
X175445000Y-95435000D02*
X175895000Y-95435000D01*
X175445000Y-102685000D02*
X175970000Y-102685000D01*
X182695000Y-102685000D02*
X182170000Y-102685000D01*
X182695000Y-95435000D02*
X182170000Y-95435000D01*
X175445000Y-95435000D02*
X175445000Y-95960000D01*
X182695000Y-95435000D02*
X182695000Y-95960000D01*
X182695000Y-102685000D02*
X182695000Y-102160000D01*
X175445000Y-102685000D02*
X175445000Y-102160000D01*
X175895000Y-95435000D02*
X175895000Y-94060000D01*
X179505000Y-138225000D02*
G75*
G03X179505000Y-138225000I-100000J0D01*
G01*
X179955000Y-137975000D02*
X179455000Y-137975000D01*
X179955000Y-135075000D02*
X179955000Y-137975000D01*
X179455000Y-135075000D02*
X179955000Y-135075000D01*
X179455000Y-137975000D02*
X179455000Y-135075000D01*
X194745000Y-138225000D02*
G75*
G03X194745000Y-138225000I-100000J0D01*
G01*
X195195000Y-137975000D02*
X194695000Y-137975000D01*
X195195000Y-135075000D02*
X195195000Y-137975000D01*
X194695000Y-135075000D02*
X195195000Y-135075000D01*
X194695000Y-137975000D02*
X194695000Y-135075000D01*
X170983219Y-128270000D02*
G75*
G03X170983219Y-128270000I-803219J0D01*
G01*
X177303219Y-121920000D02*
G75*
G03X177303219Y-121920000I-803219J0D01*
G01*
X177333219Y-128270000D02*
G75*
G03X177333219Y-128270000I-803219J0D01*
G01*
X121890000Y-91110000D02*
X121890000Y-94310000D01*
X121890000Y-94310000D02*
X124490000Y-94310000D01*
X124490000Y-94310000D02*
X124490000Y-91110000D01*
X124490000Y-91110000D02*
X121890000Y-91110000D01*
X185535000Y-122225000D02*
X185535000Y-124925000D01*
X184035000Y-122225000D02*
X184035000Y-124925000D01*
X184935000Y-123725000D02*
X184685000Y-123725000D01*
X184685000Y-123725000D02*
X184835000Y-123575000D01*
X184435000Y-123475000D02*
X185135000Y-123475000D01*
X184785000Y-123825000D02*
X184785000Y-124175000D01*
X184785000Y-123475000D02*
X184435000Y-123825000D01*
X184435000Y-123825000D02*
X185135000Y-123825000D01*
X185135000Y-123825000D02*
X184785000Y-123475000D01*
X190615000Y-122225000D02*
X190615000Y-124925000D01*
X189115000Y-122225000D02*
X189115000Y-124925000D01*
X190015000Y-123725000D02*
X189765000Y-123725000D01*
X189765000Y-123725000D02*
X189915000Y-123575000D01*
X189515000Y-123475000D02*
X190215000Y-123475000D01*
X189865000Y-123825000D02*
X189865000Y-124175000D01*
X189865000Y-123475000D02*
X189515000Y-123825000D01*
X189515000Y-123825000D02*
X190215000Y-123825000D01*
X190215000Y-123825000D02*
X189865000Y-123475000D01*
X188075000Y-122225000D02*
X188075000Y-124925000D01*
X186575000Y-122225000D02*
X186575000Y-124925000D01*
X187475000Y-123725000D02*
X187225000Y-123725000D01*
X187225000Y-123725000D02*
X187375000Y-123575000D01*
X186975000Y-123475000D02*
X187675000Y-123475000D01*
X187325000Y-123825000D02*
X187325000Y-124175000D01*
X187325000Y-123475000D02*
X186975000Y-123825000D01*
X186975000Y-123825000D02*
X187675000Y-123825000D01*
X187675000Y-123825000D02*
X187325000Y-123475000D01*
X182995000Y-122225000D02*
X182995000Y-124925000D01*
X181495000Y-122225000D02*
X181495000Y-124925000D01*
X182395000Y-123725000D02*
X182145000Y-123725000D01*
X182145000Y-123725000D02*
X182295000Y-123575000D01*
X181895000Y-123475000D02*
X182595000Y-123475000D01*
X182245000Y-123825000D02*
X182245000Y-124175000D01*
X182245000Y-123475000D02*
X181895000Y-123825000D01*
X181895000Y-123825000D02*
X182595000Y-123825000D01*
X182595000Y-123825000D02*
X182245000Y-123475000D01*
X183710000Y-118380000D02*
X183710000Y-120380000D01*
X185860000Y-120380000D02*
X185860000Y-118380000D01*
X188790000Y-118380000D02*
X188790000Y-120380000D01*
X190940000Y-120380000D02*
X190940000Y-118380000D01*
X186250000Y-118380000D02*
X186250000Y-120380000D01*
X188400000Y-120380000D02*
X188400000Y-118380000D01*
X181170000Y-118380000D02*
X181170000Y-120380000D01*
X183320000Y-120380000D02*
X183320000Y-118380000D01*
X153000000Y-70750000D02*
X153200000Y-70750000D01*
X159000000Y-70750000D02*
X158800000Y-70750000D01*
X159000000Y-64250000D02*
X158800000Y-64250000D01*
X153000000Y-64250000D02*
X153200000Y-64250000D01*
X154800000Y-64250000D02*
X157200000Y-64250000D01*
X154800000Y-70750000D02*
X157200000Y-70750000D01*
X153000000Y-70750000D02*
X153000000Y-64250000D01*
X159000000Y-64250000D02*
X159000000Y-70750000D01*
X157000000Y-67500000D02*
G75*
G03X157000000Y-67500000I-1000000J0D01*
G01*
X157500000Y-67500000D02*
G75*
G03X157500000Y-67500000I-1500000J0D01*
G01*
X171559524Y-109702381D02*
X170892857Y-110702381D01*
X170892857Y-109702381D02*
X171559524Y-110702381D01*
X170559524Y-109797619D02*
X170511905Y-109750000D01*
X170416667Y-109702381D01*
X170178571Y-109702381D01*
X170083333Y-109750000D01*
X170035714Y-109797619D01*
X169988095Y-109892857D01*
X169988095Y-109988095D01*
X170035714Y-110130952D01*
X170607143Y-110702381D01*
X169988095Y-110702381D01*
X145772143Y-92900334D02*
X145819762Y-92852715D01*
X145867381Y-92709858D01*
X145867381Y-92614620D01*
X145819762Y-92471762D01*
X145724524Y-92376524D01*
X145629286Y-92328905D01*
X145438810Y-92281286D01*
X145295952Y-92281286D01*
X145105476Y-92328905D01*
X145010238Y-92376524D01*
X144915000Y-92471762D01*
X144867381Y-92614620D01*
X144867381Y-92709858D01*
X144915000Y-92852715D01*
X144962619Y-92900334D01*
X144867381Y-93805096D02*
X144867381Y-93328905D01*
X145343571Y-93281286D01*
X145295952Y-93328905D01*
X145248333Y-93424143D01*
X145248333Y-93662239D01*
X145295952Y-93757477D01*
X145343571Y-93805096D01*
X145438810Y-93852715D01*
X145676905Y-93852715D01*
X145772143Y-93805096D01*
X145819762Y-93757477D01*
X145867381Y-93662239D01*
X145867381Y-93424143D01*
X145819762Y-93328905D01*
X145772143Y-93281286D01*
X164282381Y-80002143D02*
X163806190Y-79668809D01*
X164282381Y-79430714D02*
X163282381Y-79430714D01*
X163282381Y-79811667D01*
X163330000Y-79906905D01*
X163377619Y-79954524D01*
X163472857Y-80002143D01*
X163615714Y-80002143D01*
X163710952Y-79954524D01*
X163758571Y-79906905D01*
X163806190Y-79811667D01*
X163806190Y-79430714D01*
X164282381Y-80954524D02*
X164282381Y-80383095D01*
X164282381Y-80668809D02*
X163282381Y-80668809D01*
X163425238Y-80573571D01*
X163520476Y-80478333D01*
X163568095Y-80383095D01*
X163282381Y-81859286D02*
X163282381Y-81383095D01*
X163758571Y-81335476D01*
X163710952Y-81383095D01*
X163663333Y-81478333D01*
X163663333Y-81716429D01*
X163710952Y-81811667D01*
X163758571Y-81859286D01*
X163853810Y-81906905D01*
X164091905Y-81906905D01*
X164187143Y-81859286D01*
X164234762Y-81811667D01*
X164282381Y-81716429D01*
X164282381Y-81478333D01*
X164234762Y-81383095D01*
X164187143Y-81335476D01*
D15*
X173053333Y-60412381D02*
X173053333Y-61126667D01*
X173100953Y-61269524D01*
X173196191Y-61364762D01*
X173339048Y-61412381D01*
X173434286Y-61412381D01*
X172053333Y-61412381D02*
X172624762Y-61412381D01*
X172339048Y-61412381D02*
X172339048Y-60412381D01*
X172434286Y-60555238D01*
X172529524Y-60650476D01*
X172624762Y-60698095D01*
X186483095Y-69937381D02*
X186483095Y-70651667D01*
X186530715Y-70794524D01*
X186625953Y-70889762D01*
X186768810Y-70937381D01*
X186864048Y-70937381D01*
X185483095Y-70937381D02*
X186054524Y-70937381D01*
X185768810Y-70937381D02*
X185768810Y-69937381D01*
X185864048Y-70080238D01*
X185959286Y-70175476D01*
X186054524Y-70223095D01*
X184721190Y-70413571D02*
X184578333Y-70461190D01*
X184530714Y-70508810D01*
X184483095Y-70604048D01*
X184483095Y-70746905D01*
X184530714Y-70842143D01*
X184578333Y-70889762D01*
X184673571Y-70937381D01*
X185054524Y-70937381D01*
X185054524Y-69937381D01*
X184721190Y-69937381D01*
X184625952Y-69985000D01*
X184578333Y-70032619D01*
X184530714Y-70127857D01*
X184530714Y-70223095D01*
X184578333Y-70318333D01*
X184625952Y-70365952D01*
X184721190Y-70413571D01*
X185054524Y-70413571D01*
X183530714Y-70937381D02*
X184102143Y-70937381D01*
X183816429Y-70937381D02*
X183816429Y-69937381D01*
X183911667Y-70080238D01*
X184006905Y-70175476D01*
X184102143Y-70223095D01*
X183149762Y-70032619D02*
X183102143Y-69985000D01*
X183006905Y-69937381D01*
X182768809Y-69937381D01*
X182673571Y-69985000D01*
X182625952Y-70032619D01*
X182578333Y-70127857D01*
X182578333Y-70223095D01*
X182625952Y-70365952D01*
X183197381Y-70937381D01*
X182578333Y-70937381D01*
X181625952Y-70937381D02*
X182197381Y-70937381D01*
X181911667Y-70937381D02*
X181911667Y-69937381D01*
X182006905Y-70080238D01*
X182102143Y-70175476D01*
X182197381Y-70223095D01*
X180673571Y-70937381D02*
X181245000Y-70937381D01*
X180959286Y-70937381D02*
X180959286Y-69937381D01*
X181054524Y-70080238D01*
X181149762Y-70175476D01*
X181245000Y-70223095D01*
X179673571Y-70842143D02*
X179721190Y-70889762D01*
X179864047Y-70937381D01*
X179959285Y-70937381D01*
X180102143Y-70889762D01*
X180197381Y-70794524D01*
X180245000Y-70699286D01*
X180292619Y-70508810D01*
X180292619Y-70365952D01*
X180245000Y-70175476D01*
X180197381Y-70080238D01*
X180102143Y-69985000D01*
X179959285Y-69937381D01*
X179864047Y-69937381D01*
X179721190Y-69985000D01*
X179673571Y-70032619D01*
X178673571Y-70842143D02*
X178721190Y-70889762D01*
X178864047Y-70937381D01*
X178959285Y-70937381D01*
X179102143Y-70889762D01*
X179197381Y-70794524D01*
X179245000Y-70699286D01*
X179292619Y-70508810D01*
X179292619Y-70365952D01*
X179245000Y-70175476D01*
X179197381Y-70080238D01*
X179102143Y-69985000D01*
X178959285Y-69937381D01*
X178864047Y-69937381D01*
X178721190Y-69985000D01*
X178673571Y-70032619D01*
X178245000Y-70937381D02*
X178245000Y-69937381D01*
X178006905Y-69937381D01*
X177864047Y-69985000D01*
X177768809Y-70080238D01*
X177721190Y-70175476D01*
X177673571Y-70365952D01*
X177673571Y-70508810D01*
X177721190Y-70699286D01*
X177768809Y-70794524D01*
X177864047Y-70889762D01*
X178006905Y-70937381D01*
X178245000Y-70937381D01*
D14*
X145311666Y-136872143D02*
X145359285Y-136919762D01*
X145502142Y-136967381D01*
X145597380Y-136967381D01*
X145740238Y-136919762D01*
X145835476Y-136824524D01*
X145883095Y-136729286D01*
X145930714Y-136538810D01*
X145930714Y-136395952D01*
X145883095Y-136205476D01*
X145835476Y-136110238D01*
X145740238Y-136015000D01*
X145597380Y-135967381D01*
X145502142Y-135967381D01*
X145359285Y-136015000D01*
X145311666Y-136062619D01*
X144359285Y-136967381D02*
X144930714Y-136967381D01*
X144645000Y-136967381D02*
X144645000Y-135967381D01*
X144740238Y-136110238D01*
X144835476Y-136205476D01*
X144930714Y-136253095D01*
X122721666Y-100147381D02*
X123055000Y-99671190D01*
X123293095Y-100147381D02*
X123293095Y-99147381D01*
X122912142Y-99147381D01*
X122816904Y-99195000D01*
X122769285Y-99242619D01*
X122721666Y-99337857D01*
X122721666Y-99480714D01*
X122769285Y-99575952D01*
X122816904Y-99623571D01*
X122912142Y-99671190D01*
X123293095Y-99671190D01*
X121769285Y-100147381D02*
X122340714Y-100147381D01*
X122055000Y-100147381D02*
X122055000Y-99147381D01*
X122150238Y-99290238D01*
X122245476Y-99385476D01*
X122340714Y-99433095D01*
X120816666Y-89892143D02*
X120864285Y-89939762D01*
X121007142Y-89987381D01*
X121102380Y-89987381D01*
X121245238Y-89939762D01*
X121340476Y-89844524D01*
X121388095Y-89749286D01*
X121435714Y-89558810D01*
X121435714Y-89415952D01*
X121388095Y-89225476D01*
X121340476Y-89130238D01*
X121245238Y-89035000D01*
X121102380Y-88987381D01*
X121007142Y-88987381D01*
X120864285Y-89035000D01*
X120816666Y-89082619D01*
X120435714Y-89082619D02*
X120388095Y-89035000D01*
X120292857Y-88987381D01*
X120054761Y-88987381D01*
X119959523Y-89035000D01*
X119911904Y-89082619D01*
X119864285Y-89177857D01*
X119864285Y-89273095D01*
X119911904Y-89415952D01*
X120483333Y-89987381D01*
X119864285Y-89987381D01*
X120816666Y-96242143D02*
X120864285Y-96289762D01*
X121007142Y-96337381D01*
X121102380Y-96337381D01*
X121245238Y-96289762D01*
X121340476Y-96194524D01*
X121388095Y-96099286D01*
X121435714Y-95908810D01*
X121435714Y-95765952D01*
X121388095Y-95575476D01*
X121340476Y-95480238D01*
X121245238Y-95385000D01*
X121102380Y-95337381D01*
X121007142Y-95337381D01*
X120864285Y-95385000D01*
X120816666Y-95432619D01*
X120483333Y-95337381D02*
X119864285Y-95337381D01*
X120197619Y-95718333D01*
X120054761Y-95718333D01*
X119959523Y-95765952D01*
X119911904Y-95813571D01*
X119864285Y-95908810D01*
X119864285Y-96146905D01*
X119911904Y-96242143D01*
X119959523Y-96289762D01*
X120054761Y-96337381D01*
X120340476Y-96337381D01*
X120435714Y-96289762D01*
X120483333Y-96242143D01*
X144041666Y-107027143D02*
X144089285Y-107074762D01*
X144232142Y-107122381D01*
X144327380Y-107122381D01*
X144470238Y-107074762D01*
X144565476Y-106979524D01*
X144613095Y-106884286D01*
X144660714Y-106693810D01*
X144660714Y-106550952D01*
X144613095Y-106360476D01*
X144565476Y-106265238D01*
X144470238Y-106170000D01*
X144327380Y-106122381D01*
X144232142Y-106122381D01*
X144089285Y-106170000D01*
X144041666Y-106217619D01*
X143184523Y-106455714D02*
X143184523Y-107122381D01*
X143422619Y-106074762D02*
X143660714Y-106789048D01*
X143041666Y-106789048D01*
X124991666Y-108307143D02*
X125039285Y-108354762D01*
X125182142Y-108402381D01*
X125277380Y-108402381D01*
X125420238Y-108354762D01*
X125515476Y-108259524D01*
X125563095Y-108164286D01*
X125610714Y-107973810D01*
X125610714Y-107830952D01*
X125563095Y-107640476D01*
X125515476Y-107545238D01*
X125420238Y-107450000D01*
X125277380Y-107402381D01*
X125182142Y-107402381D01*
X125039285Y-107450000D01*
X124991666Y-107497619D01*
X124134523Y-107402381D02*
X124325000Y-107402381D01*
X124420238Y-107450000D01*
X124467857Y-107497619D01*
X124563095Y-107640476D01*
X124610714Y-107830952D01*
X124610714Y-108211905D01*
X124563095Y-108307143D01*
X124515476Y-108354762D01*
X124420238Y-108402381D01*
X124229761Y-108402381D01*
X124134523Y-108354762D01*
X124086904Y-108307143D01*
X124039285Y-108211905D01*
X124039285Y-107973810D01*
X124086904Y-107878571D01*
X124134523Y-107830952D01*
X124229761Y-107783333D01*
X124420238Y-107783333D01*
X124515476Y-107830952D01*
X124563095Y-107878571D01*
X124610714Y-107973810D01*
X128627143Y-92543334D02*
X128674762Y-92495715D01*
X128722381Y-92352858D01*
X128722381Y-92257620D01*
X128674762Y-92114762D01*
X128579524Y-92019524D01*
X128484286Y-91971905D01*
X128293810Y-91924286D01*
X128150952Y-91924286D01*
X127960476Y-91971905D01*
X127865238Y-92019524D01*
X127770000Y-92114762D01*
X127722381Y-92257620D01*
X127722381Y-92352858D01*
X127770000Y-92495715D01*
X127817619Y-92543334D01*
X127722381Y-92876667D02*
X127722381Y-93543334D01*
X128722381Y-93114762D01*
X142597143Y-82383334D02*
X142644762Y-82335715D01*
X142692381Y-82192858D01*
X142692381Y-82097620D01*
X142644762Y-81954762D01*
X142549524Y-81859524D01*
X142454286Y-81811905D01*
X142263810Y-81764286D01*
X142120952Y-81764286D01*
X141930476Y-81811905D01*
X141835238Y-81859524D01*
X141740000Y-81954762D01*
X141692381Y-82097620D01*
X141692381Y-82192858D01*
X141740000Y-82335715D01*
X141787619Y-82383334D01*
X142120952Y-82954762D02*
X142073333Y-82859524D01*
X142025714Y-82811905D01*
X141930476Y-82764286D01*
X141882857Y-82764286D01*
X141787619Y-82811905D01*
X141740000Y-82859524D01*
X141692381Y-82954762D01*
X141692381Y-83145239D01*
X141740000Y-83240477D01*
X141787619Y-83288096D01*
X141882857Y-83335715D01*
X141930476Y-83335715D01*
X142025714Y-83288096D01*
X142073333Y-83240477D01*
X142120952Y-83145239D01*
X142120952Y-82954762D01*
X142168571Y-82859524D01*
X142216190Y-82811905D01*
X142311429Y-82764286D01*
X142501905Y-82764286D01*
X142597143Y-82811905D01*
X142644762Y-82859524D01*
X142692381Y-82954762D01*
X142692381Y-83145239D01*
X142644762Y-83240477D01*
X142597143Y-83288096D01*
X142501905Y-83335715D01*
X142311429Y-83335715D01*
X142216190Y-83288096D01*
X142168571Y-83240477D01*
X142120952Y-83145239D01*
X127992143Y-81748334D02*
X128039762Y-81700715D01*
X128087381Y-81557858D01*
X128087381Y-81462620D01*
X128039762Y-81319762D01*
X127944524Y-81224524D01*
X127849286Y-81176905D01*
X127658810Y-81129286D01*
X127515952Y-81129286D01*
X127325476Y-81176905D01*
X127230238Y-81224524D01*
X127135000Y-81319762D01*
X127087381Y-81462620D01*
X127087381Y-81557858D01*
X127135000Y-81700715D01*
X127182619Y-81748334D01*
X128087381Y-82224524D02*
X128087381Y-82415000D01*
X128039762Y-82510239D01*
X127992143Y-82557858D01*
X127849286Y-82653096D01*
X127658810Y-82700715D01*
X127277857Y-82700715D01*
X127182619Y-82653096D01*
X127135000Y-82605477D01*
X127087381Y-82510239D01*
X127087381Y-82319762D01*
X127135000Y-82224524D01*
X127182619Y-82176905D01*
X127277857Y-82129286D01*
X127515952Y-82129286D01*
X127611190Y-82176905D01*
X127658810Y-82224524D01*
X127706429Y-82319762D01*
X127706429Y-82510239D01*
X127658810Y-82605477D01*
X127611190Y-82653096D01*
X127515952Y-82700715D01*
X148185143Y-91789143D02*
X148232762Y-91741524D01*
X148280381Y-91598667D01*
X148280381Y-91503429D01*
X148232762Y-91360571D01*
X148137524Y-91265333D01*
X148042286Y-91217714D01*
X147851810Y-91170095D01*
X147708952Y-91170095D01*
X147518476Y-91217714D01*
X147423238Y-91265333D01*
X147328000Y-91360571D01*
X147280381Y-91503429D01*
X147280381Y-91598667D01*
X147328000Y-91741524D01*
X147375619Y-91789143D01*
X148280381Y-92741524D02*
X148280381Y-92170095D01*
X148280381Y-92455809D02*
X147280381Y-92455809D01*
X147423238Y-92360571D01*
X147518476Y-92265333D01*
X147566095Y-92170095D01*
X147280381Y-93360571D02*
X147280381Y-93455810D01*
X147328000Y-93551048D01*
X147375619Y-93598667D01*
X147470857Y-93646286D01*
X147661333Y-93693905D01*
X147899429Y-93693905D01*
X148089905Y-93646286D01*
X148185143Y-93598667D01*
X148232762Y-93551048D01*
X148280381Y-93455810D01*
X148280381Y-93360571D01*
X148232762Y-93265333D01*
X148185143Y-93217714D01*
X148089905Y-93170095D01*
X147899429Y-93122476D01*
X147661333Y-93122476D01*
X147470857Y-93170095D01*
X147375619Y-93217714D01*
X147328000Y-93265333D01*
X147280381Y-93360571D01*
X118117857Y-81637143D02*
X118165476Y-81684762D01*
X118308333Y-81732381D01*
X118403571Y-81732381D01*
X118546429Y-81684762D01*
X118641667Y-81589524D01*
X118689286Y-81494286D01*
X118736905Y-81303810D01*
X118736905Y-81160952D01*
X118689286Y-80970476D01*
X118641667Y-80875238D01*
X118546429Y-80780000D01*
X118403571Y-80732381D01*
X118308333Y-80732381D01*
X118165476Y-80780000D01*
X118117857Y-80827619D01*
X117165476Y-81732381D02*
X117736905Y-81732381D01*
X117451191Y-81732381D02*
X117451191Y-80732381D01*
X117546429Y-80875238D01*
X117641667Y-80970476D01*
X117736905Y-81018095D01*
X116213095Y-81732381D02*
X116784524Y-81732381D01*
X116498810Y-81732381D02*
X116498810Y-80732381D01*
X116594048Y-80875238D01*
X116689286Y-80970476D01*
X116784524Y-81018095D01*
X166727143Y-111117143D02*
X166774762Y-111069524D01*
X166822381Y-110926667D01*
X166822381Y-110831429D01*
X166774762Y-110688571D01*
X166679524Y-110593333D01*
X166584286Y-110545714D01*
X166393810Y-110498095D01*
X166250952Y-110498095D01*
X166060476Y-110545714D01*
X165965238Y-110593333D01*
X165870000Y-110688571D01*
X165822381Y-110831429D01*
X165822381Y-110926667D01*
X165870000Y-111069524D01*
X165917619Y-111117143D01*
X166822381Y-112069524D02*
X166822381Y-111498095D01*
X166822381Y-111783809D02*
X165822381Y-111783809D01*
X165965238Y-111688571D01*
X166060476Y-111593333D01*
X166108095Y-111498095D01*
X165917619Y-112450476D02*
X165870000Y-112498095D01*
X165822381Y-112593333D01*
X165822381Y-112831429D01*
X165870000Y-112926667D01*
X165917619Y-112974286D01*
X166012857Y-113021905D01*
X166108095Y-113021905D01*
X166250952Y-112974286D01*
X166822381Y-112402857D01*
X166822381Y-113021905D01*
X167012857Y-71477143D02*
X167060476Y-71524762D01*
X167203333Y-71572381D01*
X167298571Y-71572381D01*
X167441429Y-71524762D01*
X167536667Y-71429524D01*
X167584286Y-71334286D01*
X167631905Y-71143810D01*
X167631905Y-71000952D01*
X167584286Y-70810476D01*
X167536667Y-70715238D01*
X167441429Y-70620000D01*
X167298571Y-70572381D01*
X167203333Y-70572381D01*
X167060476Y-70620000D01*
X167012857Y-70667619D01*
X166060476Y-71572381D02*
X166631905Y-71572381D01*
X166346191Y-71572381D02*
X166346191Y-70572381D01*
X166441429Y-70715238D01*
X166536667Y-70810476D01*
X166631905Y-70858095D01*
X165727143Y-70572381D02*
X165108095Y-70572381D01*
X165441429Y-70953333D01*
X165298571Y-70953333D01*
X165203333Y-71000952D01*
X165155714Y-71048571D01*
X165108095Y-71143810D01*
X165108095Y-71381905D01*
X165155714Y-71477143D01*
X165203333Y-71524762D01*
X165298571Y-71572381D01*
X165584286Y-71572381D01*
X165679524Y-71524762D01*
X165727143Y-71477143D01*
X178157143Y-84447143D02*
X178204762Y-84399524D01*
X178252381Y-84256667D01*
X178252381Y-84161429D01*
X178204762Y-84018571D01*
X178109524Y-83923333D01*
X178014286Y-83875714D01*
X177823810Y-83828095D01*
X177680952Y-83828095D01*
X177490476Y-83875714D01*
X177395238Y-83923333D01*
X177300000Y-84018571D01*
X177252381Y-84161429D01*
X177252381Y-84256667D01*
X177300000Y-84399524D01*
X177347619Y-84447143D01*
X178252381Y-85399524D02*
X178252381Y-84828095D01*
X178252381Y-85113809D02*
X177252381Y-85113809D01*
X177395238Y-85018571D01*
X177490476Y-84923333D01*
X177538095Y-84828095D01*
X177585714Y-86256667D02*
X178252381Y-86256667D01*
X177204762Y-86018571D02*
X177919048Y-85780476D01*
X177919048Y-86399524D01*
X192412857Y-93067143D02*
X192460476Y-93114762D01*
X192603333Y-93162381D01*
X192698571Y-93162381D01*
X192841429Y-93114762D01*
X192936667Y-93019524D01*
X192984286Y-92924286D01*
X193031905Y-92733810D01*
X193031905Y-92590952D01*
X192984286Y-92400476D01*
X192936667Y-92305238D01*
X192841429Y-92210000D01*
X192698571Y-92162381D01*
X192603333Y-92162381D01*
X192460476Y-92210000D01*
X192412857Y-92257619D01*
X191460476Y-93162381D02*
X192031905Y-93162381D01*
X191746191Y-93162381D02*
X191746191Y-92162381D01*
X191841429Y-92305238D01*
X191936667Y-92400476D01*
X192031905Y-92448095D01*
X190603333Y-92162381D02*
X190793810Y-92162381D01*
X190889048Y-92210000D01*
X190936667Y-92257619D01*
X191031905Y-92400476D01*
X191079524Y-92590952D01*
X191079524Y-92971905D01*
X191031905Y-93067143D01*
X190984286Y-93114762D01*
X190889048Y-93162381D01*
X190698571Y-93162381D01*
X190603333Y-93114762D01*
X190555714Y-93067143D01*
X190508095Y-92971905D01*
X190508095Y-92733810D01*
X190555714Y-92638571D01*
X190603333Y-92590952D01*
X190698571Y-92543333D01*
X190889048Y-92543333D01*
X190984286Y-92590952D01*
X191031905Y-92638571D01*
X191079524Y-92733810D01*
X192412857Y-94972143D02*
X192460476Y-95019762D01*
X192603333Y-95067381D01*
X192698571Y-95067381D01*
X192841429Y-95019762D01*
X192936667Y-94924524D01*
X192984286Y-94829286D01*
X193031905Y-94638810D01*
X193031905Y-94495952D01*
X192984286Y-94305476D01*
X192936667Y-94210238D01*
X192841429Y-94115000D01*
X192698571Y-94067381D01*
X192603333Y-94067381D01*
X192460476Y-94115000D01*
X192412857Y-94162619D01*
X191460476Y-95067381D02*
X192031905Y-95067381D01*
X191746191Y-95067381D02*
X191746191Y-94067381D01*
X191841429Y-94210238D01*
X191936667Y-94305476D01*
X192031905Y-94353095D01*
X191127143Y-94067381D02*
X190460476Y-94067381D01*
X190889048Y-95067381D01*
X195587857Y-113911143D02*
X195635476Y-113958762D01*
X195778333Y-114006381D01*
X195873571Y-114006381D01*
X196016429Y-113958762D01*
X196111667Y-113863524D01*
X196159286Y-113768286D01*
X196206905Y-113577810D01*
X196206905Y-113434952D01*
X196159286Y-113244476D01*
X196111667Y-113149238D01*
X196016429Y-113054000D01*
X195873571Y-113006381D01*
X195778333Y-113006381D01*
X195635476Y-113054000D01*
X195587857Y-113101619D01*
X194635476Y-114006381D02*
X195206905Y-114006381D01*
X194921191Y-114006381D02*
X194921191Y-113006381D01*
X195016429Y-113149238D01*
X195111667Y-113244476D01*
X195206905Y-113292095D01*
X194064048Y-113434952D02*
X194159286Y-113387333D01*
X194206905Y-113339714D01*
X194254524Y-113244476D01*
X194254524Y-113196857D01*
X194206905Y-113101619D01*
X194159286Y-113054000D01*
X194064048Y-113006381D01*
X193873571Y-113006381D01*
X193778333Y-113054000D01*
X193730714Y-113101619D01*
X193683095Y-113196857D01*
X193683095Y-113244476D01*
X193730714Y-113339714D01*
X193778333Y-113387333D01*
X193873571Y-113434952D01*
X194064048Y-113434952D01*
X194159286Y-113482571D01*
X194206905Y-113530190D01*
X194254524Y-113625429D01*
X194254524Y-113815905D01*
X194206905Y-113911143D01*
X194159286Y-113958762D01*
X194064048Y-114006381D01*
X193873571Y-114006381D01*
X193778333Y-113958762D01*
X193730714Y-113911143D01*
X193683095Y-113815905D01*
X193683095Y-113625429D01*
X193730714Y-113530190D01*
X193778333Y-113482571D01*
X193873571Y-113434952D01*
X192412857Y-97512143D02*
X192460476Y-97559762D01*
X192603333Y-97607381D01*
X192698571Y-97607381D01*
X192841429Y-97559762D01*
X192936667Y-97464524D01*
X192984286Y-97369286D01*
X193031905Y-97178810D01*
X193031905Y-97035952D01*
X192984286Y-96845476D01*
X192936667Y-96750238D01*
X192841429Y-96655000D01*
X192698571Y-96607381D01*
X192603333Y-96607381D01*
X192460476Y-96655000D01*
X192412857Y-96702619D01*
X191460476Y-97607381D02*
X192031905Y-97607381D01*
X191746191Y-97607381D02*
X191746191Y-96607381D01*
X191841429Y-96750238D01*
X191936667Y-96845476D01*
X192031905Y-96893095D01*
X190984286Y-97607381D02*
X190793810Y-97607381D01*
X190698571Y-97559762D01*
X190650952Y-97512143D01*
X190555714Y-97369286D01*
X190508095Y-97178810D01*
X190508095Y-96797857D01*
X190555714Y-96702619D01*
X190603333Y-96655000D01*
X190698571Y-96607381D01*
X190889048Y-96607381D01*
X190984286Y-96655000D01*
X191031905Y-96702619D01*
X191079524Y-96797857D01*
X191079524Y-97035952D01*
X191031905Y-97131190D01*
X190984286Y-97178810D01*
X190889048Y-97226429D01*
X190698571Y-97226429D01*
X190603333Y-97178810D01*
X190555714Y-97131190D01*
X190508095Y-97035952D01*
X195587857Y-100052143D02*
X195635476Y-100099762D01*
X195778333Y-100147381D01*
X195873571Y-100147381D01*
X196016429Y-100099762D01*
X196111667Y-100004524D01*
X196159286Y-99909286D01*
X196206905Y-99718810D01*
X196206905Y-99575952D01*
X196159286Y-99385476D01*
X196111667Y-99290238D01*
X196016429Y-99195000D01*
X195873571Y-99147381D01*
X195778333Y-99147381D01*
X195635476Y-99195000D01*
X195587857Y-99242619D01*
X195206905Y-99242619D02*
X195159286Y-99195000D01*
X195064048Y-99147381D01*
X194825952Y-99147381D01*
X194730714Y-99195000D01*
X194683095Y-99242619D01*
X194635476Y-99337857D01*
X194635476Y-99433095D01*
X194683095Y-99575952D01*
X195254524Y-100147381D01*
X194635476Y-100147381D01*
X194016429Y-99147381D02*
X193921190Y-99147381D01*
X193825952Y-99195000D01*
X193778333Y-99242619D01*
X193730714Y-99337857D01*
X193683095Y-99528333D01*
X193683095Y-99766429D01*
X193730714Y-99956905D01*
X193778333Y-100052143D01*
X193825952Y-100099762D01*
X193921190Y-100147381D01*
X194016429Y-100147381D01*
X194111667Y-100099762D01*
X194159286Y-100052143D01*
X194206905Y-99956905D01*
X194254524Y-99766429D01*
X194254524Y-99528333D01*
X194206905Y-99337857D01*
X194159286Y-99242619D01*
X194111667Y-99195000D01*
X194016429Y-99147381D01*
X195587857Y-102592143D02*
X195635476Y-102639762D01*
X195778333Y-102687381D01*
X195873571Y-102687381D01*
X196016429Y-102639762D01*
X196111667Y-102544524D01*
X196159286Y-102449286D01*
X196206905Y-102258810D01*
X196206905Y-102115952D01*
X196159286Y-101925476D01*
X196111667Y-101830238D01*
X196016429Y-101735000D01*
X195873571Y-101687381D01*
X195778333Y-101687381D01*
X195635476Y-101735000D01*
X195587857Y-101782619D01*
X195206905Y-101782619D02*
X195159286Y-101735000D01*
X195064048Y-101687381D01*
X194825952Y-101687381D01*
X194730714Y-101735000D01*
X194683095Y-101782619D01*
X194635476Y-101877857D01*
X194635476Y-101973095D01*
X194683095Y-102115952D01*
X195254524Y-102687381D01*
X194635476Y-102687381D01*
X194254524Y-101782619D02*
X194206905Y-101735000D01*
X194111667Y-101687381D01*
X193873571Y-101687381D01*
X193778333Y-101735000D01*
X193730714Y-101782619D01*
X193683095Y-101877857D01*
X193683095Y-101973095D01*
X193730714Y-102115952D01*
X194302143Y-102687381D01*
X193683095Y-102687381D01*
X195587857Y-108307143D02*
X195635476Y-108354762D01*
X195778333Y-108402381D01*
X195873571Y-108402381D01*
X196016429Y-108354762D01*
X196111667Y-108259524D01*
X196159286Y-108164286D01*
X196206905Y-107973810D01*
X196206905Y-107830952D01*
X196159286Y-107640476D01*
X196111667Y-107545238D01*
X196016429Y-107450000D01*
X195873571Y-107402381D01*
X195778333Y-107402381D01*
X195635476Y-107450000D01*
X195587857Y-107497619D01*
X195206905Y-107497619D02*
X195159286Y-107450000D01*
X195064048Y-107402381D01*
X194825952Y-107402381D01*
X194730714Y-107450000D01*
X194683095Y-107497619D01*
X194635476Y-107592857D01*
X194635476Y-107688095D01*
X194683095Y-107830952D01*
X195254524Y-108402381D01*
X194635476Y-108402381D01*
X194302143Y-107402381D02*
X193683095Y-107402381D01*
X194016429Y-107783333D01*
X193873571Y-107783333D01*
X193778333Y-107830952D01*
X193730714Y-107878571D01*
X193683095Y-107973810D01*
X193683095Y-108211905D01*
X193730714Y-108307143D01*
X193778333Y-108354762D01*
X193873571Y-108402381D01*
X194159286Y-108402381D01*
X194254524Y-108354762D01*
X194302143Y-108307143D01*
X183392857Y-114357143D02*
X183440476Y-114404762D01*
X183583333Y-114452381D01*
X183678571Y-114452381D01*
X183821429Y-114404762D01*
X183916667Y-114309524D01*
X183964286Y-114214286D01*
X184011905Y-114023810D01*
X184011905Y-113880952D01*
X183964286Y-113690476D01*
X183916667Y-113595238D01*
X183821429Y-113500000D01*
X183678571Y-113452381D01*
X183583333Y-113452381D01*
X183440476Y-113500000D01*
X183392857Y-113547619D01*
X183011905Y-113547619D02*
X182964286Y-113500000D01*
X182869048Y-113452381D01*
X182630952Y-113452381D01*
X182535714Y-113500000D01*
X182488095Y-113547619D01*
X182440476Y-113642857D01*
X182440476Y-113738095D01*
X182488095Y-113880952D01*
X183059524Y-114452381D01*
X182440476Y-114452381D01*
X181583333Y-113785714D02*
X181583333Y-114452381D01*
X181821429Y-113404762D02*
X182059524Y-114119048D01*
X181440476Y-114119048D01*
X173892857Y-114357143D02*
X173940476Y-114404762D01*
X174083333Y-114452381D01*
X174178571Y-114452381D01*
X174321429Y-114404762D01*
X174416667Y-114309524D01*
X174464286Y-114214286D01*
X174511905Y-114023810D01*
X174511905Y-113880952D01*
X174464286Y-113690476D01*
X174416667Y-113595238D01*
X174321429Y-113500000D01*
X174178571Y-113452381D01*
X174083333Y-113452381D01*
X173940476Y-113500000D01*
X173892857Y-113547619D01*
X173511905Y-113547619D02*
X173464286Y-113500000D01*
X173369048Y-113452381D01*
X173130952Y-113452381D01*
X173035714Y-113500000D01*
X172988095Y-113547619D01*
X172940476Y-113642857D01*
X172940476Y-113738095D01*
X172988095Y-113880952D01*
X173559524Y-114452381D01*
X172940476Y-114452381D01*
X172035714Y-113452381D02*
X172511905Y-113452381D01*
X172559524Y-113928571D01*
X172511905Y-113880952D01*
X172416667Y-113833333D01*
X172178571Y-113833333D01*
X172083333Y-113880952D01*
X172035714Y-113928571D01*
X171988095Y-114023810D01*
X171988095Y-114261905D01*
X172035714Y-114357143D01*
X172083333Y-114404762D01*
X172178571Y-114452381D01*
X172416667Y-114452381D01*
X172511905Y-114404762D01*
X172559524Y-114357143D01*
X172727857Y-79097143D02*
X172775476Y-79144762D01*
X172918333Y-79192381D01*
X173013571Y-79192381D01*
X173156429Y-79144762D01*
X173251667Y-79049524D01*
X173299286Y-78954286D01*
X173346905Y-78763810D01*
X173346905Y-78620952D01*
X173299286Y-78430476D01*
X173251667Y-78335238D01*
X173156429Y-78240000D01*
X173013571Y-78192381D01*
X172918333Y-78192381D01*
X172775476Y-78240000D01*
X172727857Y-78287619D01*
X172346905Y-78287619D02*
X172299286Y-78240000D01*
X172204048Y-78192381D01*
X171965952Y-78192381D01*
X171870714Y-78240000D01*
X171823095Y-78287619D01*
X171775476Y-78382857D01*
X171775476Y-78478095D01*
X171823095Y-78620952D01*
X172394524Y-79192381D01*
X171775476Y-79192381D01*
X170918333Y-78192381D02*
X171108810Y-78192381D01*
X171204048Y-78240000D01*
X171251667Y-78287619D01*
X171346905Y-78430476D01*
X171394524Y-78620952D01*
X171394524Y-79001905D01*
X171346905Y-79097143D01*
X171299286Y-79144762D01*
X171204048Y-79192381D01*
X171013571Y-79192381D01*
X170918333Y-79144762D01*
X170870714Y-79097143D01*
X170823095Y-79001905D01*
X170823095Y-78763810D01*
X170870714Y-78668571D01*
X170918333Y-78620952D01*
X171013571Y-78573333D01*
X171204048Y-78573333D01*
X171299286Y-78620952D01*
X171346905Y-78668571D01*
X171394524Y-78763810D01*
X189872857Y-84812143D02*
X189920476Y-84859762D01*
X190063333Y-84907381D01*
X190158571Y-84907381D01*
X190301429Y-84859762D01*
X190396667Y-84764524D01*
X190444286Y-84669286D01*
X190491905Y-84478810D01*
X190491905Y-84335952D01*
X190444286Y-84145476D01*
X190396667Y-84050238D01*
X190301429Y-83955000D01*
X190158571Y-83907381D01*
X190063333Y-83907381D01*
X189920476Y-83955000D01*
X189872857Y-84002619D01*
X189491905Y-84002619D02*
X189444286Y-83955000D01*
X189349048Y-83907381D01*
X189110952Y-83907381D01*
X189015714Y-83955000D01*
X188968095Y-84002619D01*
X188920476Y-84097857D01*
X188920476Y-84193095D01*
X188968095Y-84335952D01*
X189539524Y-84907381D01*
X188920476Y-84907381D01*
X188587143Y-83907381D02*
X187920476Y-83907381D01*
X188349048Y-84907381D01*
X186412143Y-81272143D02*
X186459762Y-81224524D01*
X186507381Y-81081667D01*
X186507381Y-80986429D01*
X186459762Y-80843571D01*
X186364524Y-80748333D01*
X186269286Y-80700714D01*
X186078810Y-80653095D01*
X185935952Y-80653095D01*
X185745476Y-80700714D01*
X185650238Y-80748333D01*
X185555000Y-80843571D01*
X185507381Y-80986429D01*
X185507381Y-81081667D01*
X185555000Y-81224524D01*
X185602619Y-81272143D01*
X185602619Y-81653095D02*
X185555000Y-81700714D01*
X185507381Y-81795952D01*
X185507381Y-82034048D01*
X185555000Y-82129286D01*
X185602619Y-82176905D01*
X185697857Y-82224524D01*
X185793095Y-82224524D01*
X185935952Y-82176905D01*
X186507381Y-81605476D01*
X186507381Y-82224524D01*
X185935952Y-82795952D02*
X185888333Y-82700714D01*
X185840714Y-82653095D01*
X185745476Y-82605476D01*
X185697857Y-82605476D01*
X185602619Y-82653095D01*
X185555000Y-82700714D01*
X185507381Y-82795952D01*
X185507381Y-82986429D01*
X185555000Y-83081667D01*
X185602619Y-83129286D01*
X185697857Y-83176905D01*
X185745476Y-83176905D01*
X185840714Y-83129286D01*
X185888333Y-83081667D01*
X185935952Y-82986429D01*
X185935952Y-82795952D01*
X185983571Y-82700714D01*
X186031190Y-82653095D01*
X186126429Y-82605476D01*
X186316905Y-82605476D01*
X186412143Y-82653095D01*
X186459762Y-82700714D01*
X186507381Y-82795952D01*
X186507381Y-82986429D01*
X186459762Y-83081667D01*
X186412143Y-83129286D01*
X186316905Y-83176905D01*
X186126429Y-83176905D01*
X186031190Y-83129286D01*
X185983571Y-83081667D01*
X185935952Y-82986429D01*
X179032143Y-81272143D02*
X179079762Y-81224524D01*
X179127381Y-81081667D01*
X179127381Y-80986429D01*
X179079762Y-80843571D01*
X178984524Y-80748333D01*
X178889286Y-80700714D01*
X178698810Y-80653095D01*
X178555952Y-80653095D01*
X178365476Y-80700714D01*
X178270238Y-80748333D01*
X178175000Y-80843571D01*
X178127381Y-80986429D01*
X178127381Y-81081667D01*
X178175000Y-81224524D01*
X178222619Y-81272143D01*
X178222619Y-81653095D02*
X178175000Y-81700714D01*
X178127381Y-81795952D01*
X178127381Y-82034048D01*
X178175000Y-82129286D01*
X178222619Y-82176905D01*
X178317857Y-82224524D01*
X178413095Y-82224524D01*
X178555952Y-82176905D01*
X179127381Y-81605476D01*
X179127381Y-82224524D01*
X179127381Y-82700714D02*
X179127381Y-82891190D01*
X179079762Y-82986429D01*
X179032143Y-83034048D01*
X178889286Y-83129286D01*
X178698810Y-83176905D01*
X178317857Y-83176905D01*
X178222619Y-83129286D01*
X178175000Y-83081667D01*
X178127381Y-82986429D01*
X178127381Y-82795952D01*
X178175000Y-82700714D01*
X178222619Y-82653095D01*
X178317857Y-82605476D01*
X178555952Y-82605476D01*
X178651190Y-82653095D01*
X178698810Y-82700714D01*
X178746429Y-82795952D01*
X178746429Y-82986429D01*
X178698810Y-83081667D01*
X178651190Y-83129286D01*
X178555952Y-83176905D01*
X159742143Y-97147143D02*
X159789762Y-97099524D01*
X159837381Y-96956667D01*
X159837381Y-96861429D01*
X159789762Y-96718571D01*
X159694524Y-96623333D01*
X159599286Y-96575714D01*
X159408810Y-96528095D01*
X159265952Y-96528095D01*
X159075476Y-96575714D01*
X158980238Y-96623333D01*
X158885000Y-96718571D01*
X158837381Y-96861429D01*
X158837381Y-96956667D01*
X158885000Y-97099524D01*
X158932619Y-97147143D01*
X158837381Y-97480476D02*
X158837381Y-98099524D01*
X159218333Y-97766190D01*
X159218333Y-97909048D01*
X159265952Y-98004286D01*
X159313571Y-98051905D01*
X159408810Y-98099524D01*
X159646905Y-98099524D01*
X159742143Y-98051905D01*
X159789762Y-98004286D01*
X159837381Y-97909048D01*
X159837381Y-97623333D01*
X159789762Y-97528095D01*
X159742143Y-97480476D01*
X159837381Y-99051905D02*
X159837381Y-98480476D01*
X159837381Y-98766190D02*
X158837381Y-98766190D01*
X158980238Y-98670952D01*
X159075476Y-98575714D01*
X159123095Y-98480476D01*
X160662857Y-103862143D02*
X160710476Y-103909762D01*
X160853333Y-103957381D01*
X160948571Y-103957381D01*
X161091429Y-103909762D01*
X161186667Y-103814524D01*
X161234286Y-103719286D01*
X161281905Y-103528810D01*
X161281905Y-103385952D01*
X161234286Y-103195476D01*
X161186667Y-103100238D01*
X161091429Y-103005000D01*
X160948571Y-102957381D01*
X160853333Y-102957381D01*
X160710476Y-103005000D01*
X160662857Y-103052619D01*
X160329524Y-102957381D02*
X159710476Y-102957381D01*
X160043810Y-103338333D01*
X159900952Y-103338333D01*
X159805714Y-103385952D01*
X159758095Y-103433571D01*
X159710476Y-103528810D01*
X159710476Y-103766905D01*
X159758095Y-103862143D01*
X159805714Y-103909762D01*
X159900952Y-103957381D01*
X160186667Y-103957381D01*
X160281905Y-103909762D01*
X160329524Y-103862143D01*
X159329524Y-103052619D02*
X159281905Y-103005000D01*
X159186667Y-102957381D01*
X158948571Y-102957381D01*
X158853333Y-103005000D01*
X158805714Y-103052619D01*
X158758095Y-103147857D01*
X158758095Y-103243095D01*
X158805714Y-103385952D01*
X159377143Y-103957381D01*
X158758095Y-103957381D01*
X170187857Y-118467143D02*
X170235476Y-118514762D01*
X170378333Y-118562381D01*
X170473571Y-118562381D01*
X170616429Y-118514762D01*
X170711667Y-118419524D01*
X170759286Y-118324286D01*
X170806905Y-118133810D01*
X170806905Y-117990952D01*
X170759286Y-117800476D01*
X170711667Y-117705238D01*
X170616429Y-117610000D01*
X170473571Y-117562381D01*
X170378333Y-117562381D01*
X170235476Y-117610000D01*
X170187857Y-117657619D01*
X169854524Y-117562381D02*
X169235476Y-117562381D01*
X169568810Y-117943333D01*
X169425952Y-117943333D01*
X169330714Y-117990952D01*
X169283095Y-118038571D01*
X169235476Y-118133810D01*
X169235476Y-118371905D01*
X169283095Y-118467143D01*
X169330714Y-118514762D01*
X169425952Y-118562381D01*
X169711667Y-118562381D01*
X169806905Y-118514762D01*
X169854524Y-118467143D01*
X168902143Y-117562381D02*
X168283095Y-117562381D01*
X168616429Y-117943333D01*
X168473571Y-117943333D01*
X168378333Y-117990952D01*
X168330714Y-118038571D01*
X168283095Y-118133810D01*
X168283095Y-118371905D01*
X168330714Y-118467143D01*
X168378333Y-118514762D01*
X168473571Y-118562381D01*
X168759286Y-118562381D01*
X168854524Y-118514762D01*
X168902143Y-118467143D01*
X174632857Y-141327143D02*
X174680476Y-141374762D01*
X174823333Y-141422381D01*
X174918571Y-141422381D01*
X175061429Y-141374762D01*
X175156667Y-141279524D01*
X175204286Y-141184286D01*
X175251905Y-140993810D01*
X175251905Y-140850952D01*
X175204286Y-140660476D01*
X175156667Y-140565238D01*
X175061429Y-140470000D01*
X174918571Y-140422381D01*
X174823333Y-140422381D01*
X174680476Y-140470000D01*
X174632857Y-140517619D01*
X174299524Y-140422381D02*
X173680476Y-140422381D01*
X174013810Y-140803333D01*
X173870952Y-140803333D01*
X173775714Y-140850952D01*
X173728095Y-140898571D01*
X173680476Y-140993810D01*
X173680476Y-141231905D01*
X173728095Y-141327143D01*
X173775714Y-141374762D01*
X173870952Y-141422381D01*
X174156667Y-141422381D01*
X174251905Y-141374762D01*
X174299524Y-141327143D01*
X172775714Y-140422381D02*
X173251905Y-140422381D01*
X173299524Y-140898571D01*
X173251905Y-140850952D01*
X173156667Y-140803333D01*
X172918571Y-140803333D01*
X172823333Y-140850952D01*
X172775714Y-140898571D01*
X172728095Y-140993810D01*
X172728095Y-141231905D01*
X172775714Y-141327143D01*
X172823333Y-141374762D01*
X172918571Y-141422381D01*
X173156667Y-141422381D01*
X173251905Y-141374762D01*
X173299524Y-141327143D01*
X184792857Y-140692143D02*
X184840476Y-140739762D01*
X184983333Y-140787381D01*
X185078571Y-140787381D01*
X185221429Y-140739762D01*
X185316667Y-140644524D01*
X185364286Y-140549286D01*
X185411905Y-140358810D01*
X185411905Y-140215952D01*
X185364286Y-140025476D01*
X185316667Y-139930238D01*
X185221429Y-139835000D01*
X185078571Y-139787381D01*
X184983333Y-139787381D01*
X184840476Y-139835000D01*
X184792857Y-139882619D01*
X184459524Y-139787381D02*
X183840476Y-139787381D01*
X184173810Y-140168333D01*
X184030952Y-140168333D01*
X183935714Y-140215952D01*
X183888095Y-140263571D01*
X183840476Y-140358810D01*
X183840476Y-140596905D01*
X183888095Y-140692143D01*
X183935714Y-140739762D01*
X184030952Y-140787381D01*
X184316667Y-140787381D01*
X184411905Y-140739762D01*
X184459524Y-140692143D01*
X182983333Y-139787381D02*
X183173810Y-139787381D01*
X183269048Y-139835000D01*
X183316667Y-139882619D01*
X183411905Y-140025476D01*
X183459524Y-140215952D01*
X183459524Y-140596905D01*
X183411905Y-140692143D01*
X183364286Y-140739762D01*
X183269048Y-140787381D01*
X183078571Y-140787381D01*
X182983333Y-140739762D01*
X182935714Y-140692143D01*
X182888095Y-140596905D01*
X182888095Y-140358810D01*
X182935714Y-140263571D01*
X182983333Y-140215952D01*
X183078571Y-140168333D01*
X183269048Y-140168333D01*
X183364286Y-140215952D01*
X183411905Y-140263571D01*
X183459524Y-140358810D01*
X189872857Y-141327143D02*
X189920476Y-141374762D01*
X190063333Y-141422381D01*
X190158571Y-141422381D01*
X190301429Y-141374762D01*
X190396667Y-141279524D01*
X190444286Y-141184286D01*
X190491905Y-140993810D01*
X190491905Y-140850952D01*
X190444286Y-140660476D01*
X190396667Y-140565238D01*
X190301429Y-140470000D01*
X190158571Y-140422381D01*
X190063333Y-140422381D01*
X189920476Y-140470000D01*
X189872857Y-140517619D01*
X189539524Y-140422381D02*
X188920476Y-140422381D01*
X189253810Y-140803333D01*
X189110952Y-140803333D01*
X189015714Y-140850952D01*
X188968095Y-140898571D01*
X188920476Y-140993810D01*
X188920476Y-141231905D01*
X188968095Y-141327143D01*
X189015714Y-141374762D01*
X189110952Y-141422381D01*
X189396667Y-141422381D01*
X189491905Y-141374762D01*
X189539524Y-141327143D01*
X188587143Y-140422381D02*
X187920476Y-140422381D01*
X188349048Y-141422381D01*
X199397857Y-133072143D02*
X199445476Y-133119762D01*
X199588333Y-133167381D01*
X199683571Y-133167381D01*
X199826429Y-133119762D01*
X199921667Y-133024524D01*
X199969286Y-132929286D01*
X200016905Y-132738810D01*
X200016905Y-132595952D01*
X199969286Y-132405476D01*
X199921667Y-132310238D01*
X199826429Y-132215000D01*
X199683571Y-132167381D01*
X199588333Y-132167381D01*
X199445476Y-132215000D01*
X199397857Y-132262619D01*
X199064524Y-132167381D02*
X198445476Y-132167381D01*
X198778810Y-132548333D01*
X198635952Y-132548333D01*
X198540714Y-132595952D01*
X198493095Y-132643571D01*
X198445476Y-132738810D01*
X198445476Y-132976905D01*
X198493095Y-133072143D01*
X198540714Y-133119762D01*
X198635952Y-133167381D01*
X198921667Y-133167381D01*
X199016905Y-133119762D01*
X199064524Y-133072143D01*
X197874048Y-132595952D02*
X197969286Y-132548333D01*
X198016905Y-132500714D01*
X198064524Y-132405476D01*
X198064524Y-132357857D01*
X198016905Y-132262619D01*
X197969286Y-132215000D01*
X197874048Y-132167381D01*
X197683571Y-132167381D01*
X197588333Y-132215000D01*
X197540714Y-132262619D01*
X197493095Y-132357857D01*
X197493095Y-132405476D01*
X197540714Y-132500714D01*
X197588333Y-132548333D01*
X197683571Y-132595952D01*
X197874048Y-132595952D01*
X197969286Y-132643571D01*
X198016905Y-132691190D01*
X198064524Y-132786429D01*
X198064524Y-132976905D01*
X198016905Y-133072143D01*
X197969286Y-133119762D01*
X197874048Y-133167381D01*
X197683571Y-133167381D01*
X197588333Y-133119762D01*
X197540714Y-133072143D01*
X197493095Y-132976905D01*
X197493095Y-132786429D01*
X197540714Y-132691190D01*
X197588333Y-132643571D01*
X197683571Y-132595952D01*
X184157857Y-131167143D02*
X184205476Y-131214762D01*
X184348333Y-131262381D01*
X184443571Y-131262381D01*
X184586429Y-131214762D01*
X184681667Y-131119524D01*
X184729286Y-131024286D01*
X184776905Y-130833810D01*
X184776905Y-130690952D01*
X184729286Y-130500476D01*
X184681667Y-130405238D01*
X184586429Y-130310000D01*
X184443571Y-130262381D01*
X184348333Y-130262381D01*
X184205476Y-130310000D01*
X184157857Y-130357619D01*
X183824524Y-130262381D02*
X183205476Y-130262381D01*
X183538810Y-130643333D01*
X183395952Y-130643333D01*
X183300714Y-130690952D01*
X183253095Y-130738571D01*
X183205476Y-130833810D01*
X183205476Y-131071905D01*
X183253095Y-131167143D01*
X183300714Y-131214762D01*
X183395952Y-131262381D01*
X183681667Y-131262381D01*
X183776905Y-131214762D01*
X183824524Y-131167143D01*
X182729286Y-131262381D02*
X182538810Y-131262381D01*
X182443571Y-131214762D01*
X182395952Y-131167143D01*
X182300714Y-131024286D01*
X182253095Y-130833810D01*
X182253095Y-130452857D01*
X182300714Y-130357619D01*
X182348333Y-130310000D01*
X182443571Y-130262381D01*
X182634048Y-130262381D01*
X182729286Y-130310000D01*
X182776905Y-130357619D01*
X182824524Y-130452857D01*
X182824524Y-130690952D01*
X182776905Y-130786190D01*
X182729286Y-130833810D01*
X182634048Y-130881429D01*
X182443571Y-130881429D01*
X182348333Y-130833810D01*
X182300714Y-130786190D01*
X182253095Y-130690952D01*
X130278095Y-60777381D02*
X130278095Y-59777381D01*
X130040000Y-59777381D01*
X129897142Y-59825000D01*
X129801904Y-59920238D01*
X129754285Y-60015476D01*
X129706666Y-60205952D01*
X129706666Y-60348810D01*
X129754285Y-60539286D01*
X129801904Y-60634524D01*
X129897142Y-60729762D01*
X130040000Y-60777381D01*
X130278095Y-60777381D01*
X128754285Y-60777381D02*
X129325714Y-60777381D01*
X129040000Y-60777381D02*
X129040000Y-59777381D01*
X129135238Y-59920238D01*
X129230476Y-60015476D01*
X129325714Y-60063095D01*
X149328095Y-60777381D02*
X149328095Y-59777381D01*
X149090000Y-59777381D01*
X148947142Y-59825000D01*
X148851904Y-59920238D01*
X148804285Y-60015476D01*
X148756666Y-60205952D01*
X148756666Y-60348810D01*
X148804285Y-60539286D01*
X148851904Y-60634524D01*
X148947142Y-60729762D01*
X149090000Y-60777381D01*
X149328095Y-60777381D01*
X148375714Y-59872619D02*
X148328095Y-59825000D01*
X148232857Y-59777381D01*
X147994761Y-59777381D01*
X147899523Y-59825000D01*
X147851904Y-59872619D01*
X147804285Y-59967857D01*
X147804285Y-60063095D01*
X147851904Y-60205952D01*
X148423333Y-60777381D01*
X147804285Y-60777381D01*
X146452381Y-76668334D02*
X146452381Y-76192143D01*
X145452381Y-76192143D01*
X146452381Y-77525477D02*
X146452381Y-76954048D01*
X146452381Y-77239762D02*
X145452381Y-77239762D01*
X145595238Y-77144524D01*
X145690476Y-77049286D01*
X145738095Y-76954048D01*
X145232381Y-126198334D02*
X145232381Y-125722143D01*
X144232381Y-125722143D01*
X144327619Y-126484048D02*
X144280000Y-126531667D01*
X144232381Y-126626905D01*
X144232381Y-126865001D01*
X144280000Y-126960239D01*
X144327619Y-127007858D01*
X144422857Y-127055477D01*
X144518095Y-127055477D01*
X144660952Y-127007858D01*
X145232381Y-126436429D01*
X145232381Y-127055477D01*
X163647381Y-75398334D02*
X163647381Y-74922143D01*
X162647381Y-74922143D01*
X162647381Y-75636429D02*
X162647381Y-76255477D01*
X163028333Y-75922143D01*
X163028333Y-76065001D01*
X163075952Y-76160239D01*
X163123571Y-76207858D01*
X163218810Y-76255477D01*
X163456905Y-76255477D01*
X163552143Y-76207858D01*
X163599762Y-76160239D01*
X163647381Y-76065001D01*
X163647381Y-75779286D01*
X163599762Y-75684048D01*
X163552143Y-75636429D01*
X151296666Y-109037381D02*
X151772857Y-109037381D01*
X151772857Y-108037381D01*
X150534761Y-108370714D02*
X150534761Y-109037381D01*
X150772857Y-107989762D02*
X151010952Y-108704048D01*
X150391904Y-108704048D01*
X140668095Y-134892381D02*
X140668095Y-133892381D01*
X140287142Y-133892381D01*
X140191904Y-133940000D01*
X140144285Y-133987619D01*
X140096666Y-134082857D01*
X140096666Y-134225714D01*
X140144285Y-134320952D01*
X140191904Y-134368571D01*
X140287142Y-134416190D01*
X140668095Y-134416190D01*
X139144285Y-134892381D02*
X139715714Y-134892381D01*
X139430000Y-134892381D02*
X139430000Y-133892381D01*
X139525238Y-134035238D01*
X139620476Y-134130476D01*
X139715714Y-134178095D01*
X139168095Y-103957381D02*
X139168095Y-102957381D01*
X138787142Y-102957381D01*
X138691904Y-103005000D01*
X138644285Y-103052619D01*
X138596666Y-103147857D01*
X138596666Y-103290714D01*
X138644285Y-103385952D01*
X138691904Y-103433571D01*
X138787142Y-103481190D01*
X139168095Y-103481190D01*
X138215714Y-103052619D02*
X138168095Y-103005000D01*
X138072857Y-102957381D01*
X137834761Y-102957381D01*
X137739523Y-103005000D01*
X137691904Y-103052619D01*
X137644285Y-103147857D01*
X137644285Y-103243095D01*
X137691904Y-103385952D01*
X138263333Y-103957381D01*
X137644285Y-103957381D01*
X151868095Y-91257381D02*
X151868095Y-90257381D01*
X151487142Y-90257381D01*
X151391904Y-90305000D01*
X151344285Y-90352619D01*
X151296666Y-90447857D01*
X151296666Y-90590714D01*
X151344285Y-90685952D01*
X151391904Y-90733571D01*
X151487142Y-90781190D01*
X151868095Y-90781190D01*
X150963333Y-90257381D02*
X150344285Y-90257381D01*
X150677619Y-90638333D01*
X150534761Y-90638333D01*
X150439523Y-90685952D01*
X150391904Y-90733571D01*
X150344285Y-90828810D01*
X150344285Y-91066905D01*
X150391904Y-91162143D01*
X150439523Y-91209762D01*
X150534761Y-91257381D01*
X150820476Y-91257381D01*
X150915714Y-91209762D01*
X150963333Y-91162143D01*
X150598095Y-122372381D02*
X150598095Y-121372381D01*
X150217142Y-121372381D01*
X150121904Y-121420000D01*
X150074285Y-121467619D01*
X150026666Y-121562857D01*
X150026666Y-121705714D01*
X150074285Y-121800952D01*
X150121904Y-121848571D01*
X150217142Y-121896190D01*
X150598095Y-121896190D01*
X149121904Y-121372381D02*
X149598095Y-121372381D01*
X149645714Y-121848571D01*
X149598095Y-121800952D01*
X149502857Y-121753333D01*
X149264761Y-121753333D01*
X149169523Y-121800952D01*
X149121904Y-121848571D01*
X149074285Y-121943810D01*
X149074285Y-122181905D01*
X149121904Y-122277143D01*
X149169523Y-122324762D01*
X149264761Y-122372381D01*
X149502857Y-122372381D01*
X149598095Y-122324762D01*
X149645714Y-122277143D01*
X169648095Y-141422381D02*
X169648095Y-140422381D01*
X169267142Y-140422381D01*
X169171904Y-140470000D01*
X169124285Y-140517619D01*
X169076666Y-140612857D01*
X169076666Y-140755714D01*
X169124285Y-140850952D01*
X169171904Y-140898571D01*
X169267142Y-140946190D01*
X169648095Y-140946190D01*
X168219523Y-140422381D02*
X168410000Y-140422381D01*
X168505238Y-140470000D01*
X168552857Y-140517619D01*
X168648095Y-140660476D01*
X168695714Y-140850952D01*
X168695714Y-141231905D01*
X168648095Y-141327143D01*
X168600476Y-141374762D01*
X168505238Y-141422381D01*
X168314761Y-141422381D01*
X168219523Y-141374762D01*
X168171904Y-141327143D01*
X168124285Y-141231905D01*
X168124285Y-140993810D01*
X168171904Y-140898571D01*
X168219523Y-140850952D01*
X168314761Y-140803333D01*
X168505238Y-140803333D01*
X168600476Y-140850952D01*
X168648095Y-140898571D01*
X168695714Y-140993810D01*
X137326666Y-129992381D02*
X137660000Y-129516190D01*
X137898095Y-129992381D02*
X137898095Y-128992381D01*
X137517142Y-128992381D01*
X137421904Y-129040000D01*
X137374285Y-129087619D01*
X137326666Y-129182857D01*
X137326666Y-129325714D01*
X137374285Y-129420952D01*
X137421904Y-129468571D01*
X137517142Y-129516190D01*
X137898095Y-129516190D01*
X136945714Y-129087619D02*
X136898095Y-129040000D01*
X136802857Y-128992381D01*
X136564761Y-128992381D01*
X136469523Y-129040000D01*
X136421904Y-129087619D01*
X136374285Y-129182857D01*
X136374285Y-129278095D01*
X136421904Y-129420952D01*
X136993333Y-129992381D01*
X136374285Y-129992381D01*
X140501666Y-129992381D02*
X140835000Y-129516190D01*
X141073095Y-129992381D02*
X141073095Y-128992381D01*
X140692142Y-128992381D01*
X140596904Y-129040000D01*
X140549285Y-129087619D01*
X140501666Y-129182857D01*
X140501666Y-129325714D01*
X140549285Y-129420952D01*
X140596904Y-129468571D01*
X140692142Y-129516190D01*
X141073095Y-129516190D01*
X140168333Y-128992381D02*
X139549285Y-128992381D01*
X139882619Y-129373333D01*
X139739761Y-129373333D01*
X139644523Y-129420952D01*
X139596904Y-129468571D01*
X139549285Y-129563810D01*
X139549285Y-129801905D01*
X139596904Y-129897143D01*
X139644523Y-129944762D01*
X139739761Y-129992381D01*
X140025476Y-129992381D01*
X140120714Y-129944762D01*
X140168333Y-129897143D01*
X117532381Y-92543334D02*
X117056190Y-92210000D01*
X117532381Y-91971905D02*
X116532381Y-91971905D01*
X116532381Y-92352858D01*
X116580000Y-92448096D01*
X116627619Y-92495715D01*
X116722857Y-92543334D01*
X116865714Y-92543334D01*
X116960952Y-92495715D01*
X117008571Y-92448096D01*
X117056190Y-92352858D01*
X117056190Y-91971905D01*
X116865714Y-93400477D02*
X117532381Y-93400477D01*
X116484762Y-93162381D02*
X117199048Y-92924286D01*
X117199048Y-93543334D01*
X136056666Y-83002381D02*
X136390000Y-82526190D01*
X136628095Y-83002381D02*
X136628095Y-82002381D01*
X136247142Y-82002381D01*
X136151904Y-82050000D01*
X136104285Y-82097619D01*
X136056666Y-82192857D01*
X136056666Y-82335714D01*
X136104285Y-82430952D01*
X136151904Y-82478571D01*
X136247142Y-82526190D01*
X136628095Y-82526190D01*
X135151904Y-82002381D02*
X135628095Y-82002381D01*
X135675714Y-82478571D01*
X135628095Y-82430952D01*
X135532857Y-82383333D01*
X135294761Y-82383333D01*
X135199523Y-82430952D01*
X135151904Y-82478571D01*
X135104285Y-82573810D01*
X135104285Y-82811905D01*
X135151904Y-82907143D01*
X135199523Y-82954762D01*
X135294761Y-83002381D01*
X135532857Y-83002381D01*
X135628095Y-82954762D01*
X135675714Y-82907143D01*
X129357381Y-67143334D02*
X128881190Y-66810000D01*
X129357381Y-66571905D02*
X128357381Y-66571905D01*
X128357381Y-66952858D01*
X128405000Y-67048096D01*
X128452619Y-67095715D01*
X128547857Y-67143334D01*
X128690714Y-67143334D01*
X128785952Y-67095715D01*
X128833571Y-67048096D01*
X128881190Y-66952858D01*
X128881190Y-66571905D01*
X128357381Y-68000477D02*
X128357381Y-67810000D01*
X128405000Y-67714762D01*
X128452619Y-67667143D01*
X128595476Y-67571905D01*
X128785952Y-67524286D01*
X129166905Y-67524286D01*
X129262143Y-67571905D01*
X129309762Y-67619524D01*
X129357381Y-67714762D01*
X129357381Y-67905239D01*
X129309762Y-68000477D01*
X129262143Y-68048096D01*
X129166905Y-68095715D01*
X128928810Y-68095715D01*
X128833571Y-68048096D01*
X128785952Y-68000477D01*
X128738333Y-67905239D01*
X128738333Y-67714762D01*
X128785952Y-67619524D01*
X128833571Y-67571905D01*
X128928810Y-67524286D01*
X139517381Y-67143334D02*
X139041190Y-66810000D01*
X139517381Y-66571905D02*
X138517381Y-66571905D01*
X138517381Y-66952858D01*
X138565000Y-67048096D01*
X138612619Y-67095715D01*
X138707857Y-67143334D01*
X138850714Y-67143334D01*
X138945952Y-67095715D01*
X138993571Y-67048096D01*
X139041190Y-66952858D01*
X139041190Y-66571905D01*
X138517381Y-67476667D02*
X138517381Y-68143334D01*
X139517381Y-67714762D01*
X164282381Y-111593334D02*
X163806190Y-111260000D01*
X164282381Y-111021905D02*
X163282381Y-111021905D01*
X163282381Y-111402858D01*
X163330000Y-111498096D01*
X163377619Y-111545715D01*
X163472857Y-111593334D01*
X163615714Y-111593334D01*
X163710952Y-111545715D01*
X163758571Y-111498096D01*
X163806190Y-111402858D01*
X163806190Y-111021905D01*
X163710952Y-112164762D02*
X163663333Y-112069524D01*
X163615714Y-112021905D01*
X163520476Y-111974286D01*
X163472857Y-111974286D01*
X163377619Y-112021905D01*
X163330000Y-112069524D01*
X163282381Y-112164762D01*
X163282381Y-112355239D01*
X163330000Y-112450477D01*
X163377619Y-112498096D01*
X163472857Y-112545715D01*
X163520476Y-112545715D01*
X163615714Y-112498096D01*
X163663333Y-112450477D01*
X163710952Y-112355239D01*
X163710952Y-112164762D01*
X163758571Y-112069524D01*
X163806190Y-112021905D01*
X163901429Y-111974286D01*
X164091905Y-111974286D01*
X164187143Y-112021905D01*
X164234762Y-112069524D01*
X164282381Y-112164762D01*
X164282381Y-112355239D01*
X164234762Y-112450477D01*
X164187143Y-112498096D01*
X164091905Y-112545715D01*
X163901429Y-112545715D01*
X163806190Y-112498096D01*
X163758571Y-112450477D01*
X163710952Y-112355239D01*
X165107857Y-102052381D02*
X165441191Y-101576190D01*
X165679286Y-102052381D02*
X165679286Y-101052381D01*
X165298333Y-101052381D01*
X165203095Y-101100000D01*
X165155476Y-101147619D01*
X165107857Y-101242857D01*
X165107857Y-101385714D01*
X165155476Y-101480952D01*
X165203095Y-101528571D01*
X165298333Y-101576190D01*
X165679286Y-101576190D01*
X164155476Y-102052381D02*
X164726905Y-102052381D01*
X164441191Y-102052381D02*
X164441191Y-101052381D01*
X164536429Y-101195238D01*
X164631667Y-101290476D01*
X164726905Y-101338095D01*
X163536429Y-101052381D02*
X163441190Y-101052381D01*
X163345952Y-101100000D01*
X163298333Y-101147619D01*
X163250714Y-101242857D01*
X163203095Y-101433333D01*
X163203095Y-101671429D01*
X163250714Y-101861905D01*
X163298333Y-101957143D01*
X163345952Y-102004762D01*
X163441190Y-102052381D01*
X163536429Y-102052381D01*
X163631667Y-102004762D01*
X163679286Y-101957143D01*
X163726905Y-101861905D01*
X163774524Y-101671429D01*
X163774524Y-101433333D01*
X163726905Y-101242857D01*
X163679286Y-101147619D01*
X163631667Y-101100000D01*
X163536429Y-101052381D01*
X165107857Y-104592381D02*
X165441191Y-104116190D01*
X165679286Y-104592381D02*
X165679286Y-103592381D01*
X165298333Y-103592381D01*
X165203095Y-103640000D01*
X165155476Y-103687619D01*
X165107857Y-103782857D01*
X165107857Y-103925714D01*
X165155476Y-104020952D01*
X165203095Y-104068571D01*
X165298333Y-104116190D01*
X165679286Y-104116190D01*
X164155476Y-104592381D02*
X164726905Y-104592381D01*
X164441191Y-104592381D02*
X164441191Y-103592381D01*
X164536429Y-103735238D01*
X164631667Y-103830476D01*
X164726905Y-103878095D01*
X163203095Y-104592381D02*
X163774524Y-104592381D01*
X163488810Y-104592381D02*
X163488810Y-103592381D01*
X163584048Y-103735238D01*
X163679286Y-103830476D01*
X163774524Y-103878095D01*
X178642857Y-114952381D02*
X178976191Y-114476190D01*
X179214286Y-114952381D02*
X179214286Y-113952381D01*
X178833333Y-113952381D01*
X178738095Y-114000000D01*
X178690476Y-114047619D01*
X178642857Y-114142857D01*
X178642857Y-114285714D01*
X178690476Y-114380952D01*
X178738095Y-114428571D01*
X178833333Y-114476190D01*
X179214286Y-114476190D01*
X177690476Y-114952381D02*
X178261905Y-114952381D01*
X177976191Y-114952381D02*
X177976191Y-113952381D01*
X178071429Y-114095238D01*
X178166667Y-114190476D01*
X178261905Y-114238095D01*
X177309524Y-114047619D02*
X177261905Y-114000000D01*
X177166667Y-113952381D01*
X176928571Y-113952381D01*
X176833333Y-114000000D01*
X176785714Y-114047619D01*
X176738095Y-114142857D01*
X176738095Y-114238095D01*
X176785714Y-114380952D01*
X177357143Y-114952381D01*
X176738095Y-114952381D01*
X195587857Y-90622381D02*
X195921191Y-90146190D01*
X196159286Y-90622381D02*
X196159286Y-89622381D01*
X195778333Y-89622381D01*
X195683095Y-89670000D01*
X195635476Y-89717619D01*
X195587857Y-89812857D01*
X195587857Y-89955714D01*
X195635476Y-90050952D01*
X195683095Y-90098571D01*
X195778333Y-90146190D01*
X196159286Y-90146190D01*
X194635476Y-90622381D02*
X195206905Y-90622381D01*
X194921191Y-90622381D02*
X194921191Y-89622381D01*
X195016429Y-89765238D01*
X195111667Y-89860476D01*
X195206905Y-89908095D01*
X194302143Y-89622381D02*
X193683095Y-89622381D01*
X194016429Y-90003333D01*
X193873571Y-90003333D01*
X193778333Y-90050952D01*
X193730714Y-90098571D01*
X193683095Y-90193810D01*
X193683095Y-90431905D01*
X193730714Y-90527143D01*
X193778333Y-90574762D01*
X193873571Y-90622381D01*
X194159286Y-90622381D01*
X194254524Y-90574762D01*
X194302143Y-90527143D01*
X159837381Y-77462143D02*
X159361190Y-77128809D01*
X159837381Y-76890714D02*
X158837381Y-76890714D01*
X158837381Y-77271667D01*
X158885000Y-77366905D01*
X158932619Y-77414524D01*
X159027857Y-77462143D01*
X159170714Y-77462143D01*
X159265952Y-77414524D01*
X159313571Y-77366905D01*
X159361190Y-77271667D01*
X159361190Y-76890714D01*
X159837381Y-78414524D02*
X159837381Y-77843095D01*
X159837381Y-78128809D02*
X158837381Y-78128809D01*
X158980238Y-78033571D01*
X159075476Y-77938333D01*
X159123095Y-77843095D01*
X159170714Y-79271667D02*
X159837381Y-79271667D01*
X158789762Y-79033571D02*
X159504048Y-78795476D01*
X159504048Y-79414524D01*
X175077381Y-93337143D02*
X174601190Y-93003809D01*
X175077381Y-92765714D02*
X174077381Y-92765714D01*
X174077381Y-93146667D01*
X174125000Y-93241905D01*
X174172619Y-93289524D01*
X174267857Y-93337143D01*
X174410714Y-93337143D01*
X174505952Y-93289524D01*
X174553571Y-93241905D01*
X174601190Y-93146667D01*
X174601190Y-92765714D01*
X175077381Y-94289524D02*
X175077381Y-93718095D01*
X175077381Y-94003809D02*
X174077381Y-94003809D01*
X174220238Y-93908571D01*
X174315476Y-93813333D01*
X174363095Y-93718095D01*
X174077381Y-95146667D02*
X174077381Y-94956190D01*
X174125000Y-94860952D01*
X174172619Y-94813333D01*
X174315476Y-94718095D01*
X174505952Y-94670476D01*
X174886905Y-94670476D01*
X174982143Y-94718095D01*
X175029762Y-94765714D01*
X175077381Y-94860952D01*
X175077381Y-95051429D01*
X175029762Y-95146667D01*
X174982143Y-95194286D01*
X174886905Y-95241905D01*
X174648810Y-95241905D01*
X174553571Y-95194286D01*
X174505952Y-95146667D01*
X174458333Y-95051429D01*
X174458333Y-94860952D01*
X174505952Y-94765714D01*
X174553571Y-94718095D01*
X174648810Y-94670476D01*
X184792857Y-93797381D02*
X185126191Y-93321190D01*
X185364286Y-93797381D02*
X185364286Y-92797381D01*
X184983333Y-92797381D01*
X184888095Y-92845000D01*
X184840476Y-92892619D01*
X184792857Y-92987857D01*
X184792857Y-93130714D01*
X184840476Y-93225952D01*
X184888095Y-93273571D01*
X184983333Y-93321190D01*
X185364286Y-93321190D01*
X183840476Y-93797381D02*
X184411905Y-93797381D01*
X184126191Y-93797381D02*
X184126191Y-92797381D01*
X184221429Y-92940238D01*
X184316667Y-93035476D01*
X184411905Y-93083095D01*
X183507143Y-92797381D02*
X182840476Y-92797381D01*
X183269048Y-93797381D01*
X158757857Y-92922381D02*
X159091191Y-92446190D01*
X159329286Y-92922381D02*
X159329286Y-91922381D01*
X158948333Y-91922381D01*
X158853095Y-91970000D01*
X158805476Y-92017619D01*
X158757857Y-92112857D01*
X158757857Y-92255714D01*
X158805476Y-92350952D01*
X158853095Y-92398571D01*
X158948333Y-92446190D01*
X159329286Y-92446190D01*
X157805476Y-92922381D02*
X158376905Y-92922381D01*
X158091191Y-92922381D02*
X158091191Y-91922381D01*
X158186429Y-92065238D01*
X158281667Y-92160476D01*
X158376905Y-92208095D01*
X157234048Y-92350952D02*
X157329286Y-92303333D01*
X157376905Y-92255714D01*
X157424524Y-92160476D01*
X157424524Y-92112857D01*
X157376905Y-92017619D01*
X157329286Y-91970000D01*
X157234048Y-91922381D01*
X157043571Y-91922381D01*
X156948333Y-91970000D01*
X156900714Y-92017619D01*
X156853095Y-92112857D01*
X156853095Y-92160476D01*
X156900714Y-92255714D01*
X156948333Y-92303333D01*
X157043571Y-92350952D01*
X157234048Y-92350952D01*
X157329286Y-92398571D01*
X157376905Y-92446190D01*
X157424524Y-92541429D01*
X157424524Y-92731905D01*
X157376905Y-92827143D01*
X157329286Y-92874762D01*
X157234048Y-92922381D01*
X157043571Y-92922381D01*
X156948333Y-92874762D01*
X156900714Y-92827143D01*
X156853095Y-92731905D01*
X156853095Y-92541429D01*
X156900714Y-92446190D01*
X156948333Y-92398571D01*
X157043571Y-92350952D01*
X160662857Y-88082381D02*
X160996191Y-87606190D01*
X161234286Y-88082381D02*
X161234286Y-87082381D01*
X160853333Y-87082381D01*
X160758095Y-87130000D01*
X160710476Y-87177619D01*
X160662857Y-87272857D01*
X160662857Y-87415714D01*
X160710476Y-87510952D01*
X160758095Y-87558571D01*
X160853333Y-87606190D01*
X161234286Y-87606190D01*
X159710476Y-88082381D02*
X160281905Y-88082381D01*
X159996191Y-88082381D02*
X159996191Y-87082381D01*
X160091429Y-87225238D01*
X160186667Y-87320476D01*
X160281905Y-87368095D01*
X159234286Y-88082381D02*
X159043810Y-88082381D01*
X158948571Y-88034762D01*
X158900952Y-87987143D01*
X158805714Y-87844286D01*
X158758095Y-87653810D01*
X158758095Y-87272857D01*
X158805714Y-87177619D01*
X158853333Y-87130000D01*
X158948571Y-87082381D01*
X159139048Y-87082381D01*
X159234286Y-87130000D01*
X159281905Y-87177619D01*
X159329524Y-87272857D01*
X159329524Y-87510952D01*
X159281905Y-87606190D01*
X159234286Y-87653810D01*
X159139048Y-87701429D01*
X158948571Y-87701429D01*
X158853333Y-87653810D01*
X158805714Y-87606190D01*
X158758095Y-87510952D01*
X151582381Y-85082143D02*
X151106190Y-84748809D01*
X151582381Y-84510714D02*
X150582381Y-84510714D01*
X150582381Y-84891667D01*
X150630000Y-84986905D01*
X150677619Y-85034524D01*
X150772857Y-85082143D01*
X150915714Y-85082143D01*
X151010952Y-85034524D01*
X151058571Y-84986905D01*
X151106190Y-84891667D01*
X151106190Y-84510714D01*
X150677619Y-85463095D02*
X150630000Y-85510714D01*
X150582381Y-85605952D01*
X150582381Y-85844048D01*
X150630000Y-85939286D01*
X150677619Y-85986905D01*
X150772857Y-86034524D01*
X150868095Y-86034524D01*
X151010952Y-85986905D01*
X151582381Y-85415476D01*
X151582381Y-86034524D01*
X150582381Y-86653571D02*
X150582381Y-86748810D01*
X150630000Y-86844048D01*
X150677619Y-86891667D01*
X150772857Y-86939286D01*
X150963333Y-86986905D01*
X151201429Y-86986905D01*
X151391905Y-86939286D01*
X151487143Y-86891667D01*
X151534762Y-86844048D01*
X151582381Y-86748810D01*
X151582381Y-86653571D01*
X151534762Y-86558333D01*
X151487143Y-86510714D01*
X151391905Y-86463095D01*
X151201429Y-86415476D01*
X150963333Y-86415476D01*
X150772857Y-86463095D01*
X150677619Y-86510714D01*
X150630000Y-86558333D01*
X150582381Y-86653571D01*
X151582381Y-81272143D02*
X151106190Y-80938809D01*
X151582381Y-80700714D02*
X150582381Y-80700714D01*
X150582381Y-81081667D01*
X150630000Y-81176905D01*
X150677619Y-81224524D01*
X150772857Y-81272143D01*
X150915714Y-81272143D01*
X151010952Y-81224524D01*
X151058571Y-81176905D01*
X151106190Y-81081667D01*
X151106190Y-80700714D01*
X150677619Y-81653095D02*
X150630000Y-81700714D01*
X150582381Y-81795952D01*
X150582381Y-82034048D01*
X150630000Y-82129286D01*
X150677619Y-82176905D01*
X150772857Y-82224524D01*
X150868095Y-82224524D01*
X151010952Y-82176905D01*
X151582381Y-81605476D01*
X151582381Y-82224524D01*
X151582381Y-83176905D02*
X151582381Y-82605476D01*
X151582381Y-82891190D02*
X150582381Y-82891190D01*
X150725238Y-82795952D01*
X150820476Y-82700714D01*
X150868095Y-82605476D01*
X154122381Y-78097143D02*
X153646190Y-77763809D01*
X154122381Y-77525714D02*
X153122381Y-77525714D01*
X153122381Y-77906667D01*
X153170000Y-78001905D01*
X153217619Y-78049524D01*
X153312857Y-78097143D01*
X153455714Y-78097143D01*
X153550952Y-78049524D01*
X153598571Y-78001905D01*
X153646190Y-77906667D01*
X153646190Y-77525714D01*
X153217619Y-78478095D02*
X153170000Y-78525714D01*
X153122381Y-78620952D01*
X153122381Y-78859048D01*
X153170000Y-78954286D01*
X153217619Y-79001905D01*
X153312857Y-79049524D01*
X153408095Y-79049524D01*
X153550952Y-79001905D01*
X154122381Y-78430476D01*
X154122381Y-79049524D01*
X153217619Y-79430476D02*
X153170000Y-79478095D01*
X153122381Y-79573333D01*
X153122381Y-79811429D01*
X153170000Y-79906667D01*
X153217619Y-79954286D01*
X153312857Y-80001905D01*
X153408095Y-80001905D01*
X153550952Y-79954286D01*
X154122381Y-79382857D01*
X154122381Y-80001905D01*
X167457381Y-84447143D02*
X166981190Y-84113809D01*
X167457381Y-83875714D02*
X166457381Y-83875714D01*
X166457381Y-84256667D01*
X166505000Y-84351905D01*
X166552619Y-84399524D01*
X166647857Y-84447143D01*
X166790714Y-84447143D01*
X166885952Y-84399524D01*
X166933571Y-84351905D01*
X166981190Y-84256667D01*
X166981190Y-83875714D01*
X166552619Y-84828095D02*
X166505000Y-84875714D01*
X166457381Y-84970952D01*
X166457381Y-85209048D01*
X166505000Y-85304286D01*
X166552619Y-85351905D01*
X166647857Y-85399524D01*
X166743095Y-85399524D01*
X166885952Y-85351905D01*
X167457381Y-84780476D01*
X167457381Y-85399524D01*
X166457381Y-85732857D02*
X166457381Y-86351905D01*
X166838333Y-86018571D01*
X166838333Y-86161429D01*
X166885952Y-86256667D01*
X166933571Y-86304286D01*
X167028810Y-86351905D01*
X167266905Y-86351905D01*
X167362143Y-86304286D01*
X167409762Y-86256667D01*
X167457381Y-86161429D01*
X167457381Y-85875714D01*
X167409762Y-85780476D01*
X167362143Y-85732857D01*
X172537381Y-93337143D02*
X172061190Y-93003809D01*
X172537381Y-92765714D02*
X171537381Y-92765714D01*
X171537381Y-93146667D01*
X171585000Y-93241905D01*
X171632619Y-93289524D01*
X171727857Y-93337143D01*
X171870714Y-93337143D01*
X171965952Y-93289524D01*
X172013571Y-93241905D01*
X172061190Y-93146667D01*
X172061190Y-92765714D01*
X171632619Y-93718095D02*
X171585000Y-93765714D01*
X171537381Y-93860952D01*
X171537381Y-94099048D01*
X171585000Y-94194286D01*
X171632619Y-94241905D01*
X171727857Y-94289524D01*
X171823095Y-94289524D01*
X171965952Y-94241905D01*
X172537381Y-93670476D01*
X172537381Y-94289524D01*
X171870714Y-95146667D02*
X172537381Y-95146667D01*
X171489762Y-94908571D02*
X172204048Y-94670476D01*
X172204048Y-95289524D01*
X180982857Y-93797381D02*
X181316191Y-93321190D01*
X181554286Y-93797381D02*
X181554286Y-92797381D01*
X181173333Y-92797381D01*
X181078095Y-92845000D01*
X181030476Y-92892619D01*
X180982857Y-92987857D01*
X180982857Y-93130714D01*
X181030476Y-93225952D01*
X181078095Y-93273571D01*
X181173333Y-93321190D01*
X181554286Y-93321190D01*
X180601905Y-92892619D02*
X180554286Y-92845000D01*
X180459048Y-92797381D01*
X180220952Y-92797381D01*
X180125714Y-92845000D01*
X180078095Y-92892619D01*
X180030476Y-92987857D01*
X180030476Y-93083095D01*
X180078095Y-93225952D01*
X180649524Y-93797381D01*
X180030476Y-93797381D01*
X179125714Y-92797381D02*
X179601905Y-92797381D01*
X179649524Y-93273571D01*
X179601905Y-93225952D01*
X179506667Y-93178333D01*
X179268571Y-93178333D01*
X179173333Y-93225952D01*
X179125714Y-93273571D01*
X179078095Y-93368810D01*
X179078095Y-93606905D01*
X179125714Y-93702143D01*
X179173333Y-93749762D01*
X179268571Y-93797381D01*
X179506667Y-93797381D01*
X179601905Y-93749762D01*
X179649524Y-93702143D01*
X172727857Y-84512381D02*
X173061191Y-84036190D01*
X173299286Y-84512381D02*
X173299286Y-83512381D01*
X172918333Y-83512381D01*
X172823095Y-83560000D01*
X172775476Y-83607619D01*
X172727857Y-83702857D01*
X172727857Y-83845714D01*
X172775476Y-83940952D01*
X172823095Y-83988571D01*
X172918333Y-84036190D01*
X173299286Y-84036190D01*
X172346905Y-83607619D02*
X172299286Y-83560000D01*
X172204048Y-83512381D01*
X171965952Y-83512381D01*
X171870714Y-83560000D01*
X171823095Y-83607619D01*
X171775476Y-83702857D01*
X171775476Y-83798095D01*
X171823095Y-83940952D01*
X172394524Y-84512381D01*
X171775476Y-84512381D01*
X170918333Y-83512381D02*
X171108810Y-83512381D01*
X171204048Y-83560000D01*
X171251667Y-83607619D01*
X171346905Y-83750476D01*
X171394524Y-83940952D01*
X171394524Y-84321905D01*
X171346905Y-84417143D01*
X171299286Y-84464762D01*
X171204048Y-84512381D01*
X171013571Y-84512381D01*
X170918333Y-84464762D01*
X170870714Y-84417143D01*
X170823095Y-84321905D01*
X170823095Y-84083810D01*
X170870714Y-83988571D01*
X170918333Y-83940952D01*
X171013571Y-83893333D01*
X171204048Y-83893333D01*
X171299286Y-83940952D01*
X171346905Y-83988571D01*
X171394524Y-84083810D01*
X165107857Y-89352381D02*
X165441191Y-88876190D01*
X165679286Y-89352381D02*
X165679286Y-88352381D01*
X165298333Y-88352381D01*
X165203095Y-88400000D01*
X165155476Y-88447619D01*
X165107857Y-88542857D01*
X165107857Y-88685714D01*
X165155476Y-88780952D01*
X165203095Y-88828571D01*
X165298333Y-88876190D01*
X165679286Y-88876190D01*
X164726905Y-88447619D02*
X164679286Y-88400000D01*
X164584048Y-88352381D01*
X164345952Y-88352381D01*
X164250714Y-88400000D01*
X164203095Y-88447619D01*
X164155476Y-88542857D01*
X164155476Y-88638095D01*
X164203095Y-88780952D01*
X164774524Y-89352381D01*
X164155476Y-89352381D01*
X163822143Y-88352381D02*
X163155476Y-88352381D01*
X163584048Y-89352381D01*
X172727857Y-82367381D02*
X173061191Y-81891190D01*
X173299286Y-82367381D02*
X173299286Y-81367381D01*
X172918333Y-81367381D01*
X172823095Y-81415000D01*
X172775476Y-81462619D01*
X172727857Y-81557857D01*
X172727857Y-81700714D01*
X172775476Y-81795952D01*
X172823095Y-81843571D01*
X172918333Y-81891190D01*
X173299286Y-81891190D01*
X172346905Y-81462619D02*
X172299286Y-81415000D01*
X172204048Y-81367381D01*
X171965952Y-81367381D01*
X171870714Y-81415000D01*
X171823095Y-81462619D01*
X171775476Y-81557857D01*
X171775476Y-81653095D01*
X171823095Y-81795952D01*
X172394524Y-82367381D01*
X171775476Y-82367381D01*
X171204048Y-81795952D02*
X171299286Y-81748333D01*
X171346905Y-81700714D01*
X171394524Y-81605476D01*
X171394524Y-81557857D01*
X171346905Y-81462619D01*
X171299286Y-81415000D01*
X171204048Y-81367381D01*
X171013571Y-81367381D01*
X170918333Y-81415000D01*
X170870714Y-81462619D01*
X170823095Y-81557857D01*
X170823095Y-81605476D01*
X170870714Y-81700714D01*
X170918333Y-81748333D01*
X171013571Y-81795952D01*
X171204048Y-81795952D01*
X171299286Y-81843571D01*
X171346905Y-81891190D01*
X171394524Y-81986429D01*
X171394524Y-82176905D01*
X171346905Y-82272143D01*
X171299286Y-82319762D01*
X171204048Y-82367381D01*
X171013571Y-82367381D01*
X170918333Y-82319762D01*
X170870714Y-82272143D01*
X170823095Y-82176905D01*
X170823095Y-81986429D01*
X170870714Y-81891190D01*
X170918333Y-81843571D01*
X171013571Y-81795952D01*
X190317381Y-88257143D02*
X189841190Y-87923809D01*
X190317381Y-87685714D02*
X189317381Y-87685714D01*
X189317381Y-88066667D01*
X189365000Y-88161905D01*
X189412619Y-88209524D01*
X189507857Y-88257143D01*
X189650714Y-88257143D01*
X189745952Y-88209524D01*
X189793571Y-88161905D01*
X189841190Y-88066667D01*
X189841190Y-87685714D01*
X189412619Y-88638095D02*
X189365000Y-88685714D01*
X189317381Y-88780952D01*
X189317381Y-89019048D01*
X189365000Y-89114286D01*
X189412619Y-89161905D01*
X189507857Y-89209524D01*
X189603095Y-89209524D01*
X189745952Y-89161905D01*
X190317381Y-88590476D01*
X190317381Y-89209524D01*
X190317381Y-89685714D02*
X190317381Y-89876190D01*
X190269762Y-89971429D01*
X190222143Y-90019048D01*
X190079286Y-90114286D01*
X189888810Y-90161905D01*
X189507857Y-90161905D01*
X189412619Y-90114286D01*
X189365000Y-90066667D01*
X189317381Y-89971429D01*
X189317381Y-89780952D01*
X189365000Y-89685714D01*
X189412619Y-89638095D01*
X189507857Y-89590476D01*
X189745952Y-89590476D01*
X189841190Y-89638095D01*
X189888810Y-89685714D01*
X189936429Y-89780952D01*
X189936429Y-89971429D01*
X189888810Y-90066667D01*
X189841190Y-90114286D01*
X189745952Y-90161905D01*
X186062857Y-84907381D02*
X186396191Y-84431190D01*
X186634286Y-84907381D02*
X186634286Y-83907381D01*
X186253333Y-83907381D01*
X186158095Y-83955000D01*
X186110476Y-84002619D01*
X186062857Y-84097857D01*
X186062857Y-84240714D01*
X186110476Y-84335952D01*
X186158095Y-84383571D01*
X186253333Y-84431190D01*
X186634286Y-84431190D01*
X185729524Y-83907381D02*
X185110476Y-83907381D01*
X185443810Y-84288333D01*
X185300952Y-84288333D01*
X185205714Y-84335952D01*
X185158095Y-84383571D01*
X185110476Y-84478810D01*
X185110476Y-84716905D01*
X185158095Y-84812143D01*
X185205714Y-84859762D01*
X185300952Y-84907381D01*
X185586667Y-84907381D01*
X185681905Y-84859762D01*
X185729524Y-84812143D01*
X184491429Y-83907381D02*
X184396190Y-83907381D01*
X184300952Y-83955000D01*
X184253333Y-84002619D01*
X184205714Y-84097857D01*
X184158095Y-84288333D01*
X184158095Y-84526429D01*
X184205714Y-84716905D01*
X184253333Y-84812143D01*
X184300952Y-84859762D01*
X184396190Y-84907381D01*
X184491429Y-84907381D01*
X184586667Y-84859762D01*
X184634286Y-84812143D01*
X184681905Y-84716905D01*
X184729524Y-84526429D01*
X184729524Y-84288333D01*
X184681905Y-84097857D01*
X184634286Y-84002619D01*
X184586667Y-83955000D01*
X184491429Y-83907381D01*
X149867857Y-100147381D02*
X150201191Y-99671190D01*
X150439286Y-100147381D02*
X150439286Y-99147381D01*
X150058333Y-99147381D01*
X149963095Y-99195000D01*
X149915476Y-99242619D01*
X149867857Y-99337857D01*
X149867857Y-99480714D01*
X149915476Y-99575952D01*
X149963095Y-99623571D01*
X150058333Y-99671190D01*
X150439286Y-99671190D01*
X149534524Y-99147381D02*
X148915476Y-99147381D01*
X149248810Y-99528333D01*
X149105952Y-99528333D01*
X149010714Y-99575952D01*
X148963095Y-99623571D01*
X148915476Y-99718810D01*
X148915476Y-99956905D01*
X148963095Y-100052143D01*
X149010714Y-100099762D01*
X149105952Y-100147381D01*
X149391667Y-100147381D01*
X149486905Y-100099762D01*
X149534524Y-100052143D01*
X148582143Y-99147381D02*
X147963095Y-99147381D01*
X148296429Y-99528333D01*
X148153571Y-99528333D01*
X148058333Y-99575952D01*
X148010714Y-99623571D01*
X147963095Y-99718810D01*
X147963095Y-99956905D01*
X148010714Y-100052143D01*
X148058333Y-100099762D01*
X148153571Y-100147381D01*
X148439286Y-100147381D01*
X148534524Y-100099762D01*
X148582143Y-100052143D01*
X161742381Y-111117143D02*
X161266190Y-110783809D01*
X161742381Y-110545714D02*
X160742381Y-110545714D01*
X160742381Y-110926667D01*
X160790000Y-111021905D01*
X160837619Y-111069524D01*
X160932857Y-111117143D01*
X161075714Y-111117143D01*
X161170952Y-111069524D01*
X161218571Y-111021905D01*
X161266190Y-110926667D01*
X161266190Y-110545714D01*
X160742381Y-111450476D02*
X160742381Y-112069524D01*
X161123333Y-111736190D01*
X161123333Y-111879048D01*
X161170952Y-111974286D01*
X161218571Y-112021905D01*
X161313810Y-112069524D01*
X161551905Y-112069524D01*
X161647143Y-112021905D01*
X161694762Y-111974286D01*
X161742381Y-111879048D01*
X161742381Y-111593333D01*
X161694762Y-111498095D01*
X161647143Y-111450476D01*
X160742381Y-112926667D02*
X160742381Y-112736190D01*
X160790000Y-112640952D01*
X160837619Y-112593333D01*
X160980476Y-112498095D01*
X161170952Y-112450476D01*
X161551905Y-112450476D01*
X161647143Y-112498095D01*
X161694762Y-112545714D01*
X161742381Y-112640952D01*
X161742381Y-112831429D01*
X161694762Y-112926667D01*
X161647143Y-112974286D01*
X161551905Y-113021905D01*
X161313810Y-113021905D01*
X161218571Y-112974286D01*
X161170952Y-112926667D01*
X161123333Y-112831429D01*
X161123333Y-112640952D01*
X161170952Y-112545714D01*
X161218571Y-112498095D01*
X161313810Y-112450476D01*
X159202381Y-111117143D02*
X158726190Y-110783809D01*
X159202381Y-110545714D02*
X158202381Y-110545714D01*
X158202381Y-110926667D01*
X158250000Y-111021905D01*
X158297619Y-111069524D01*
X158392857Y-111117143D01*
X158535714Y-111117143D01*
X158630952Y-111069524D01*
X158678571Y-111021905D01*
X158726190Y-110926667D01*
X158726190Y-110545714D01*
X158202381Y-111450476D02*
X158202381Y-112069524D01*
X158583333Y-111736190D01*
X158583333Y-111879048D01*
X158630952Y-111974286D01*
X158678571Y-112021905D01*
X158773810Y-112069524D01*
X159011905Y-112069524D01*
X159107143Y-112021905D01*
X159154762Y-111974286D01*
X159202381Y-111879048D01*
X159202381Y-111593333D01*
X159154762Y-111498095D01*
X159107143Y-111450476D01*
X158202381Y-112402857D02*
X158202381Y-113069524D01*
X159202381Y-112640952D01*
X156662381Y-111117143D02*
X156186190Y-110783809D01*
X156662381Y-110545714D02*
X155662381Y-110545714D01*
X155662381Y-110926667D01*
X155710000Y-111021905D01*
X155757619Y-111069524D01*
X155852857Y-111117143D01*
X155995714Y-111117143D01*
X156090952Y-111069524D01*
X156138571Y-111021905D01*
X156186190Y-110926667D01*
X156186190Y-110545714D01*
X155662381Y-111450476D02*
X155662381Y-112069524D01*
X156043333Y-111736190D01*
X156043333Y-111879048D01*
X156090952Y-111974286D01*
X156138571Y-112021905D01*
X156233810Y-112069524D01*
X156471905Y-112069524D01*
X156567143Y-112021905D01*
X156614762Y-111974286D01*
X156662381Y-111879048D01*
X156662381Y-111593333D01*
X156614762Y-111498095D01*
X156567143Y-111450476D01*
X156090952Y-112640952D02*
X156043333Y-112545714D01*
X155995714Y-112498095D01*
X155900476Y-112450476D01*
X155852857Y-112450476D01*
X155757619Y-112498095D01*
X155710000Y-112545714D01*
X155662381Y-112640952D01*
X155662381Y-112831429D01*
X155710000Y-112926667D01*
X155757619Y-112974286D01*
X155852857Y-113021905D01*
X155900476Y-113021905D01*
X155995714Y-112974286D01*
X156043333Y-112926667D01*
X156090952Y-112831429D01*
X156090952Y-112640952D01*
X156138571Y-112545714D01*
X156186190Y-112498095D01*
X156281429Y-112450476D01*
X156471905Y-112450476D01*
X156567143Y-112498095D01*
X156614762Y-112545714D01*
X156662381Y-112640952D01*
X156662381Y-112831429D01*
X156614762Y-112926667D01*
X156567143Y-112974286D01*
X156471905Y-113021905D01*
X156281429Y-113021905D01*
X156186190Y-112974286D01*
X156138571Y-112926667D01*
X156090952Y-112831429D01*
X154122381Y-111117143D02*
X153646190Y-110783809D01*
X154122381Y-110545714D02*
X153122381Y-110545714D01*
X153122381Y-110926667D01*
X153170000Y-111021905D01*
X153217619Y-111069524D01*
X153312857Y-111117143D01*
X153455714Y-111117143D01*
X153550952Y-111069524D01*
X153598571Y-111021905D01*
X153646190Y-110926667D01*
X153646190Y-110545714D01*
X153122381Y-111450476D02*
X153122381Y-112069524D01*
X153503333Y-111736190D01*
X153503333Y-111879048D01*
X153550952Y-111974286D01*
X153598571Y-112021905D01*
X153693810Y-112069524D01*
X153931905Y-112069524D01*
X154027143Y-112021905D01*
X154074762Y-111974286D01*
X154122381Y-111879048D01*
X154122381Y-111593333D01*
X154074762Y-111498095D01*
X154027143Y-111450476D01*
X154122381Y-112545714D02*
X154122381Y-112736190D01*
X154074762Y-112831429D01*
X154027143Y-112879048D01*
X153884286Y-112974286D01*
X153693810Y-113021905D01*
X153312857Y-113021905D01*
X153217619Y-112974286D01*
X153170000Y-112926667D01*
X153122381Y-112831429D01*
X153122381Y-112640952D01*
X153170000Y-112545714D01*
X153217619Y-112498095D01*
X153312857Y-112450476D01*
X153550952Y-112450476D01*
X153646190Y-112498095D01*
X153693810Y-112545714D01*
X153741429Y-112640952D01*
X153741429Y-112831429D01*
X153693810Y-112926667D01*
X153646190Y-112974286D01*
X153550952Y-113021905D01*
X143427381Y-91313095D02*
X144236905Y-91313095D01*
X144332143Y-91360714D01*
X144379762Y-91408333D01*
X144427381Y-91503571D01*
X144427381Y-91694048D01*
X144379762Y-91789286D01*
X144332143Y-91836905D01*
X144236905Y-91884524D01*
X143427381Y-91884524D01*
X144427381Y-92884524D02*
X144427381Y-92313095D01*
X144427381Y-92598809D02*
X143427381Y-92598809D01*
X143570238Y-92503571D01*
X143665476Y-92408333D01*
X143713095Y-92313095D01*
X172522381Y-98298095D02*
X173331905Y-98298095D01*
X173427143Y-98345714D01*
X173474762Y-98393333D01*
X173522381Y-98488571D01*
X173522381Y-98679048D01*
X173474762Y-98774286D01*
X173427143Y-98821905D01*
X173331905Y-98869524D01*
X172522381Y-98869524D01*
X172617619Y-99298095D02*
X172570000Y-99345714D01*
X172522381Y-99440952D01*
X172522381Y-99679048D01*
X172570000Y-99774286D01*
X172617619Y-99821905D01*
X172712857Y-99869524D01*
X172808095Y-99869524D01*
X172950952Y-99821905D01*
X173522381Y-99250476D01*
X173522381Y-99869524D01*
X180466905Y-139787381D02*
X180466905Y-140596905D01*
X180419286Y-140692143D01*
X180371667Y-140739762D01*
X180276429Y-140787381D01*
X180085952Y-140787381D01*
X179990714Y-140739762D01*
X179943095Y-140692143D01*
X179895476Y-140596905D01*
X179895476Y-139787381D01*
X178990714Y-140120714D02*
X178990714Y-140787381D01*
X179228810Y-139739762D02*
X179466905Y-140454048D01*
X178847857Y-140454048D01*
X195706905Y-139787381D02*
X195706905Y-140596905D01*
X195659286Y-140692143D01*
X195611667Y-140739762D01*
X195516429Y-140787381D01*
X195325952Y-140787381D01*
X195230714Y-140739762D01*
X195183095Y-140692143D01*
X195135476Y-140596905D01*
X195135476Y-139787381D01*
X194183095Y-139787381D02*
X194659286Y-139787381D01*
X194706905Y-140263571D01*
X194659286Y-140215952D01*
X194564048Y-140168333D01*
X194325952Y-140168333D01*
X194230714Y-140215952D01*
X194183095Y-140263571D01*
X194135476Y-140358810D01*
X194135476Y-140596905D01*
X194183095Y-140692143D01*
X194230714Y-140739762D01*
X194325952Y-140787381D01*
X194564048Y-140787381D01*
X194659286Y-140739762D01*
X194706905Y-140692143D01*
X125182381Y-91900476D02*
X126182381Y-92567143D01*
X125182381Y-92567143D02*
X126182381Y-91900476D01*
X126182381Y-93471905D02*
X126182381Y-92900476D01*
X126182381Y-93186190D02*
X125182381Y-93186190D01*
X125325238Y-93090952D01*
X125420476Y-92995714D01*
X125468095Y-92900476D01*
X185237381Y-126261905D02*
X184237381Y-126261905D01*
X184237381Y-126500000D01*
X184285000Y-126642858D01*
X184380238Y-126738096D01*
X184475476Y-126785715D01*
X184665952Y-126833334D01*
X184808810Y-126833334D01*
X184999286Y-126785715D01*
X185094524Y-126738096D01*
X185189762Y-126642858D01*
X185237381Y-126500000D01*
X185237381Y-126261905D01*
X184237381Y-127166667D02*
X184237381Y-127785715D01*
X184618333Y-127452381D01*
X184618333Y-127595239D01*
X184665952Y-127690477D01*
X184713571Y-127738096D01*
X184808810Y-127785715D01*
X185046905Y-127785715D01*
X185142143Y-127738096D01*
X185189762Y-127690477D01*
X185237381Y-127595239D01*
X185237381Y-127309524D01*
X185189762Y-127214286D01*
X185142143Y-127166667D01*
X190317381Y-126261905D02*
X189317381Y-126261905D01*
X189317381Y-126500000D01*
X189365000Y-126642858D01*
X189460238Y-126738096D01*
X189555476Y-126785715D01*
X189745952Y-126833334D01*
X189888810Y-126833334D01*
X190079286Y-126785715D01*
X190174524Y-126738096D01*
X190269762Y-126642858D01*
X190317381Y-126500000D01*
X190317381Y-126261905D01*
X189650714Y-127690477D02*
X190317381Y-127690477D01*
X189269762Y-127452381D02*
X189984048Y-127214286D01*
X189984048Y-127833334D01*
X187777381Y-126261905D02*
X186777381Y-126261905D01*
X186777381Y-126500000D01*
X186825000Y-126642858D01*
X186920238Y-126738096D01*
X187015476Y-126785715D01*
X187205952Y-126833334D01*
X187348810Y-126833334D01*
X187539286Y-126785715D01*
X187634524Y-126738096D01*
X187729762Y-126642858D01*
X187777381Y-126500000D01*
X187777381Y-126261905D01*
X186777381Y-127738096D02*
X186777381Y-127261905D01*
X187253571Y-127214286D01*
X187205952Y-127261905D01*
X187158333Y-127357143D01*
X187158333Y-127595239D01*
X187205952Y-127690477D01*
X187253571Y-127738096D01*
X187348810Y-127785715D01*
X187586905Y-127785715D01*
X187682143Y-127738096D01*
X187729762Y-127690477D01*
X187777381Y-127595239D01*
X187777381Y-127357143D01*
X187729762Y-127261905D01*
X187682143Y-127214286D01*
X181427381Y-126261905D02*
X180427381Y-126261905D01*
X180427381Y-126500000D01*
X180475000Y-126642858D01*
X180570238Y-126738096D01*
X180665476Y-126785715D01*
X180855952Y-126833334D01*
X180998810Y-126833334D01*
X181189286Y-126785715D01*
X181284524Y-126738096D01*
X181379762Y-126642858D01*
X181427381Y-126500000D01*
X181427381Y-126261905D01*
X180427381Y-127690477D02*
X180427381Y-127500000D01*
X180475000Y-127404762D01*
X180522619Y-127357143D01*
X180665476Y-127261905D01*
X180855952Y-127214286D01*
X181236905Y-127214286D01*
X181332143Y-127261905D01*
X181379762Y-127309524D01*
X181427381Y-127404762D01*
X181427381Y-127595239D01*
X181379762Y-127690477D01*
X181332143Y-127738096D01*
X181236905Y-127785715D01*
X180998810Y-127785715D01*
X180903571Y-127738096D01*
X180855952Y-127690477D01*
X180808333Y-127595239D01*
X180808333Y-127404762D01*
X180855952Y-127309524D01*
X180903571Y-127261905D01*
X180998810Y-127214286D01*
X185237381Y-114927143D02*
X184761190Y-114593809D01*
X185237381Y-114355714D02*
X184237381Y-114355714D01*
X184237381Y-114736667D01*
X184285000Y-114831905D01*
X184332619Y-114879524D01*
X184427857Y-114927143D01*
X184570714Y-114927143D01*
X184665952Y-114879524D01*
X184713571Y-114831905D01*
X184761190Y-114736667D01*
X184761190Y-114355714D01*
X184570714Y-115784286D02*
X185237381Y-115784286D01*
X184189762Y-115546190D02*
X184904048Y-115308095D01*
X184904048Y-115927143D01*
X184237381Y-116498571D02*
X184237381Y-116593810D01*
X184285000Y-116689048D01*
X184332619Y-116736667D01*
X184427857Y-116784286D01*
X184618333Y-116831905D01*
X184856429Y-116831905D01*
X185046905Y-116784286D01*
X185142143Y-116736667D01*
X185189762Y-116689048D01*
X185237381Y-116593810D01*
X185237381Y-116498571D01*
X185189762Y-116403333D01*
X185142143Y-116355714D01*
X185046905Y-116308095D01*
X184856429Y-116260476D01*
X184618333Y-116260476D01*
X184427857Y-116308095D01*
X184332619Y-116355714D01*
X184285000Y-116403333D01*
X184237381Y-116498571D01*
X192857381Y-118737143D02*
X192381190Y-118403809D01*
X192857381Y-118165714D02*
X191857381Y-118165714D01*
X191857381Y-118546667D01*
X191905000Y-118641905D01*
X191952619Y-118689524D01*
X192047857Y-118737143D01*
X192190714Y-118737143D01*
X192285952Y-118689524D01*
X192333571Y-118641905D01*
X192381190Y-118546667D01*
X192381190Y-118165714D01*
X192190714Y-119594286D02*
X192857381Y-119594286D01*
X191809762Y-119356190D02*
X192524048Y-119118095D01*
X192524048Y-119737143D01*
X192857381Y-120641905D02*
X192857381Y-120070476D01*
X192857381Y-120356190D02*
X191857381Y-120356190D01*
X192000238Y-120260952D01*
X192095476Y-120165714D01*
X192143095Y-120070476D01*
X187142381Y-114927143D02*
X186666190Y-114593809D01*
X187142381Y-114355714D02*
X186142381Y-114355714D01*
X186142381Y-114736667D01*
X186190000Y-114831905D01*
X186237619Y-114879524D01*
X186332857Y-114927143D01*
X186475714Y-114927143D01*
X186570952Y-114879524D01*
X186618571Y-114831905D01*
X186666190Y-114736667D01*
X186666190Y-114355714D01*
X186475714Y-115784286D02*
X187142381Y-115784286D01*
X186094762Y-115546190D02*
X186809048Y-115308095D01*
X186809048Y-115927143D01*
X186237619Y-116260476D02*
X186190000Y-116308095D01*
X186142381Y-116403333D01*
X186142381Y-116641429D01*
X186190000Y-116736667D01*
X186237619Y-116784286D01*
X186332857Y-116831905D01*
X186428095Y-116831905D01*
X186570952Y-116784286D01*
X187142381Y-116212857D01*
X187142381Y-116831905D01*
X180702381Y-118857143D02*
X180226190Y-118523809D01*
X180702381Y-118285714D02*
X179702381Y-118285714D01*
X179702381Y-118666667D01*
X179750000Y-118761905D01*
X179797619Y-118809524D01*
X179892857Y-118857143D01*
X180035714Y-118857143D01*
X180130952Y-118809524D01*
X180178571Y-118761905D01*
X180226190Y-118666667D01*
X180226190Y-118285714D01*
X180035714Y-119714286D02*
X180702381Y-119714286D01*
X179654762Y-119476190D02*
X180369048Y-119238095D01*
X180369048Y-119857143D01*
X179702381Y-120142857D02*
X179702381Y-120761905D01*
X180083333Y-120428571D01*
X180083333Y-120571429D01*
X180130952Y-120666667D01*
X180178571Y-120714286D01*
X180273810Y-120761905D01*
X180511905Y-120761905D01*
X180607143Y-120714286D01*
X180654762Y-120666667D01*
X180702381Y-120571429D01*
X180702381Y-120285714D01*
X180654762Y-120190476D01*
X180607143Y-120142857D01*
X157543333Y-61999762D02*
X157400476Y-62047381D01*
X157162380Y-62047381D01*
X157067142Y-61999762D01*
X157019523Y-61952143D01*
X156971904Y-61856905D01*
X156971904Y-61761667D01*
X157019523Y-61666429D01*
X157067142Y-61618810D01*
X157162380Y-61571190D01*
X157352857Y-61523571D01*
X157448095Y-61475952D01*
X157495714Y-61428333D01*
X157543333Y-61333095D01*
X157543333Y-61237857D01*
X157495714Y-61142619D01*
X157448095Y-61095000D01*
X157352857Y-61047381D01*
X157114761Y-61047381D01*
X156971904Y-61095000D01*
X156638571Y-61047381D02*
X156400476Y-62047381D01*
X156209999Y-61333095D01*
X156019523Y-62047381D01*
X155781428Y-61047381D01*
X154876666Y-62047381D02*
X155448095Y-62047381D01*
X155162381Y-62047381D02*
X155162381Y-61047381D01*
X155257619Y-61190238D01*
X155352857Y-61285476D01*
X155448095Y-61333095D01*
M02*
