G04 #@! TF.FileFunction,Soldermask,Bot*
%FSLAX46Y46*%
G04 Gerber Fmt 4.6, Leading zero omitted, Abs format (unit mm)*
G04 Created by KiCad (PCBNEW 4.0.4+dfsg1-stable) date Sun Aug 20 17:41:52 2017*
%MOMM*%
%LPD*%
G01*
G04 APERTURE LIST*
%ADD10C,0.100000*%
%ADD11R,5.600700X2.100580*%
%ADD12R,1.600000X1.000000*%
%ADD13R,1.700000X0.900000*%
%ADD14C,1.800000*%
%ADD15R,1.800000X1.800000*%
%ADD16C,2.900000*%
%ADD17C,1.900000*%
%ADD18C,3.450000*%
%ADD19R,1.300000X1.300000*%
%ADD20C,1.300000*%
%ADD21R,0.900000X1.700000*%
%ADD22R,0.800000X0.750000*%
%ADD23R,1.000000X1.600000*%
%ADD24R,2.000000X2.600000*%
%ADD25O,2.000000X2.600000*%
%ADD26R,1.198880X1.600200*%
%ADD27R,1.600200X1.198880*%
%ADD28R,0.400000X1.650000*%
%ADD29O,1.100000X1.500000*%
%ADD30O,1.200000X1.700000*%
%ADD31R,1.425000X2.500000*%
%ADD32R,1.727200X1.727200*%
%ADD33O,1.727200X1.727200*%
%ADD34R,1.050000X1.050000*%
%ADD35C,1.050000*%
%ADD36C,1.200000*%
%ADD37R,2.500000X2.500000*%
%ADD38C,2.500000*%
%ADD39R,0.550000X1.500000*%
%ADD40R,1.500000X0.550000*%
%ADD41R,0.250000X1.300000*%
%ADD42R,1.300000X0.250000*%
%ADD43R,1.060000X0.650000*%
%ADD44C,1.143000*%
%ADD45R,1.200000X1.400000*%
%ADD46R,1.198880X1.198880*%
%ADD47R,1.000000X3.200000*%
%ADD48C,3.500000*%
G04 APERTURE END LIST*
D10*
D11*
X173151140Y-108250000D03*
X182848860Y-108250000D03*
D12*
X145415000Y-94742000D03*
X145415000Y-97742000D03*
D13*
X161925000Y-81735000D03*
X161925000Y-84635000D03*
D14*
X186690000Y-76200000D03*
X185420000Y-73660000D03*
X184150000Y-76200000D03*
X182880000Y-73660000D03*
X181610000Y-76200000D03*
X180340000Y-73660000D03*
X179070000Y-76200000D03*
D15*
X177800000Y-73660000D03*
D16*
X174370000Y-70360000D03*
X190120000Y-70360000D03*
D17*
X188570000Y-63930000D03*
X175920000Y-62230000D03*
X178460000Y-63930000D03*
X186030000Y-62230000D03*
D18*
X187960000Y-67310000D03*
X176530000Y-67310000D03*
D19*
X144145000Y-132715000D03*
D20*
X146145000Y-132715000D03*
D21*
X124915000Y-99695000D03*
X127815000Y-99695000D03*
D22*
X122440000Y-89535000D03*
X123940000Y-89535000D03*
X123940000Y-95885000D03*
X122440000Y-95885000D03*
D19*
X142875000Y-102870000D03*
D20*
X144875000Y-102870000D03*
D19*
X125825000Y-104140000D03*
D20*
X123825000Y-104140000D03*
D12*
X128270000Y-97385000D03*
X128270000Y-94385000D03*
X144145000Y-81050000D03*
X144145000Y-84050000D03*
X127635000Y-87225000D03*
X127635000Y-84225000D03*
X147828000Y-94742000D03*
X147828000Y-97742000D03*
D19*
X122555000Y-84455000D03*
D20*
X120555000Y-84455000D03*
D12*
X166370000Y-117070000D03*
X166370000Y-114070000D03*
D19*
X168815000Y-73660000D03*
D20*
X170815000Y-73660000D03*
D12*
X177800000Y-90400000D03*
X177800000Y-87400000D03*
D23*
X186460000Y-92075000D03*
X189460000Y-92075000D03*
X186460000Y-94615000D03*
X189460000Y-94615000D03*
D19*
X189865000Y-112554000D03*
D20*
X189865000Y-114554000D03*
D23*
X186460000Y-97155000D03*
X189460000Y-97155000D03*
X187730000Y-99695000D03*
X190730000Y-99695000D03*
X190730000Y-102235000D03*
X187730000Y-102235000D03*
D19*
X189865000Y-106807000D03*
D20*
X189865000Y-108807000D03*
D22*
X183500000Y-112250000D03*
X182000000Y-112250000D03*
X172500000Y-112250000D03*
X174000000Y-112250000D03*
D23*
X169775000Y-78740000D03*
X166775000Y-78740000D03*
X187730000Y-86360000D03*
X190730000Y-86360000D03*
D12*
X183515000Y-80415000D03*
X183515000Y-83415000D03*
X180975000Y-80415000D03*
X180975000Y-83415000D03*
X156845000Y-99290000D03*
X156845000Y-96290000D03*
D23*
X157710000Y-103505000D03*
X154710000Y-103505000D03*
D19*
X168180000Y-121920000D03*
D20*
X170180000Y-121920000D03*
D19*
X173990000Y-137795000D03*
D20*
X173990000Y-135795000D03*
D12*
X184150000Y-135025000D03*
X184150000Y-138025000D03*
D19*
X189230000Y-137795000D03*
D20*
X189230000Y-135795000D03*
D23*
X193445000Y-132715000D03*
X196445000Y-132715000D03*
D19*
X187960000Y-129540000D03*
D20*
X187960000Y-131540000D03*
D24*
X132715000Y-63500000D03*
D25*
X135255000Y-63500000D03*
D24*
X142875000Y-63500000D03*
D25*
X145415000Y-63500000D03*
D26*
X144145000Y-75034140D03*
X144145000Y-78635860D03*
X142875000Y-128165860D03*
X142875000Y-124564140D03*
X161290000Y-75034140D03*
X161290000Y-78635860D03*
D27*
X149329140Y-106680000D03*
X152930860Y-106680000D03*
D28*
X139730000Y-137565000D03*
X139080000Y-137565000D03*
X138430900Y-137565000D03*
X137780000Y-137565000D03*
X137130000Y-137565000D03*
D29*
X140855000Y-137440000D03*
X136005000Y-137440000D03*
D30*
X141155000Y-140440000D03*
X135705000Y-140440000D03*
D31*
X139392500Y-140690000D03*
X137467500Y-140690000D03*
D32*
X130810000Y-102235000D03*
D33*
X130810000Y-104775000D03*
X133350000Y-102235000D03*
X133350000Y-104775000D03*
X135890000Y-102235000D03*
X135890000Y-104775000D03*
D34*
X147320000Y-88900000D03*
D35*
X147320000Y-87630000D03*
X147320000Y-86360000D03*
X147320000Y-85090000D03*
X147320000Y-83820000D03*
X148590000Y-87630000D03*
X148590000Y-86360000D03*
X148590000Y-85090000D03*
X148590000Y-83820000D03*
X148590000Y-88900000D03*
D36*
X152400000Y-100965000D03*
X154940000Y-100965000D03*
D24*
X153670000Y-121920000D03*
D25*
X156210000Y-121920000D03*
X158750000Y-121920000D03*
X161290000Y-121920000D03*
X163830000Y-121920000D03*
D37*
X161925000Y-139065000D03*
D38*
X161925000Y-134065000D03*
D13*
X137160000Y-131265000D03*
X137160000Y-134165000D03*
X140335000Y-131265000D03*
X140335000Y-134165000D03*
X119380000Y-91260000D03*
X119380000Y-94160000D03*
D21*
X137869000Y-82550000D03*
X140769000Y-82550000D03*
D13*
X128905000Y-62050000D03*
X128905000Y-64950000D03*
X139065000Y-62050000D03*
X139065000Y-64950000D03*
X163830000Y-117020000D03*
X163830000Y-114120000D03*
D21*
X166825000Y-101600000D03*
X169725000Y-101600000D03*
X166825000Y-104140000D03*
X169725000Y-104140000D03*
X179450000Y-112250000D03*
X176550000Y-112250000D03*
D13*
X191770000Y-88720000D03*
X191770000Y-91620000D03*
X159316000Y-80465000D03*
X159316000Y-83365000D03*
X174625000Y-88720000D03*
X174625000Y-91620000D03*
X183515000Y-88720000D03*
X183515000Y-91620000D03*
D21*
X156665000Y-90170000D03*
X159565000Y-90170000D03*
X154760000Y-87630000D03*
X157660000Y-87630000D03*
X152855000Y-85090000D03*
X155755000Y-85090000D03*
X152855000Y-82550000D03*
X155755000Y-82550000D03*
D13*
X156210000Y-77290000D03*
X156210000Y-80190000D03*
X164465000Y-83640000D03*
X164465000Y-86540000D03*
X172085000Y-88720000D03*
X172085000Y-91620000D03*
X180975000Y-88720000D03*
X180975000Y-91620000D03*
D21*
X173535000Y-86360000D03*
X170635000Y-86360000D03*
X169725000Y-88900000D03*
X166825000Y-88900000D03*
X169725000Y-81915000D03*
X166825000Y-81915000D03*
X188775000Y-88900000D03*
X185875000Y-88900000D03*
X184965000Y-86360000D03*
X182065000Y-86360000D03*
D13*
X149225000Y-101420000D03*
X149225000Y-104320000D03*
X161290000Y-114120000D03*
X161290000Y-117020000D03*
X158750000Y-117020000D03*
X158750000Y-114120000D03*
X156210000Y-114120000D03*
X156210000Y-117020000D03*
X153670000Y-117020000D03*
X153670000Y-114120000D03*
D39*
X140525000Y-97775000D03*
X139725000Y-97775000D03*
X138925000Y-97775000D03*
X138125000Y-97775000D03*
X137325000Y-97775000D03*
X136525000Y-97775000D03*
X135725000Y-97775000D03*
X134925000Y-97775000D03*
X134125000Y-97775000D03*
X133325000Y-97775000D03*
X132525000Y-97775000D03*
D40*
X130825000Y-96075000D03*
X130825000Y-95275000D03*
X130825000Y-94475000D03*
X130825000Y-93675000D03*
X130825000Y-92875000D03*
X130825000Y-92075000D03*
X130825000Y-91275000D03*
X130825000Y-90475000D03*
X130825000Y-89675000D03*
X130825000Y-88875000D03*
X130825000Y-88075000D03*
D39*
X132525000Y-86375000D03*
X133325000Y-86375000D03*
X134125000Y-86375000D03*
X134925000Y-86375000D03*
X135725000Y-86375000D03*
X136525000Y-86375000D03*
X137325000Y-86375000D03*
X138125000Y-86375000D03*
X138925000Y-86375000D03*
X139725000Y-86375000D03*
X140525000Y-86375000D03*
D40*
X142225000Y-88075000D03*
X142225000Y-88875000D03*
X142225000Y-89675000D03*
X142225000Y-90475000D03*
X142225000Y-91275000D03*
X142225000Y-92075000D03*
X142225000Y-92875000D03*
X142225000Y-93675000D03*
X142225000Y-94475000D03*
X142225000Y-95275000D03*
X142225000Y-96075000D03*
D41*
X176320000Y-94710000D03*
X176820000Y-94710000D03*
X177320000Y-94710000D03*
X177820000Y-94710000D03*
X178320000Y-94710000D03*
X178820000Y-94710000D03*
X179320000Y-94710000D03*
X179820000Y-94710000D03*
X180320000Y-94710000D03*
X180820000Y-94710000D03*
X181320000Y-94710000D03*
X181820000Y-94710000D03*
D42*
X183420000Y-96310000D03*
X183420000Y-96810000D03*
X183420000Y-97310000D03*
X183420000Y-97810000D03*
X183420000Y-98310000D03*
X183420000Y-98810000D03*
X183420000Y-99310000D03*
X183420000Y-99810000D03*
X183420000Y-100310000D03*
X183420000Y-100810000D03*
X183420000Y-101310000D03*
X183420000Y-101810000D03*
D41*
X181820000Y-103410000D03*
X181320000Y-103410000D03*
X180820000Y-103410000D03*
X180320000Y-103410000D03*
X179820000Y-103410000D03*
X179320000Y-103410000D03*
X178820000Y-103410000D03*
X178320000Y-103410000D03*
X177820000Y-103410000D03*
X177320000Y-103410000D03*
X176820000Y-103410000D03*
X176320000Y-103410000D03*
D42*
X174720000Y-101810000D03*
X174720000Y-101310000D03*
X174720000Y-100810000D03*
X174720000Y-100310000D03*
X174720000Y-99810000D03*
X174720000Y-99310000D03*
X174720000Y-98810000D03*
X174720000Y-98310000D03*
X174720000Y-97810000D03*
X174720000Y-97310000D03*
X174720000Y-96810000D03*
X174720000Y-96310000D03*
D43*
X178605000Y-137475000D03*
X178605000Y-136525000D03*
X178605000Y-135575000D03*
X180805000Y-135575000D03*
X180805000Y-137475000D03*
X193845000Y-137475000D03*
X193845000Y-136525000D03*
X193845000Y-135575000D03*
X196045000Y-135575000D03*
X196045000Y-137475000D03*
D44*
X170180000Y-128270000D03*
X176500000Y-121920000D03*
X176530000Y-128270000D03*
D45*
X123990000Y-91610000D03*
X123990000Y-93810000D03*
X122390000Y-91610000D03*
X122390000Y-93810000D03*
D46*
X184785000Y-124874020D03*
X184785000Y-122775980D03*
X189865000Y-124874020D03*
X189865000Y-122775980D03*
X187325000Y-124874020D03*
X187325000Y-122775980D03*
X182245000Y-124874020D03*
X182245000Y-122775980D03*
D13*
X184785000Y-120830000D03*
X184785000Y-117930000D03*
X189865000Y-120830000D03*
X189865000Y-117930000D03*
X187325000Y-120830000D03*
X187325000Y-117930000D03*
X182245000Y-120830000D03*
X182245000Y-117930000D03*
D47*
X154000000Y-70900000D03*
X154000000Y-64100000D03*
X158000000Y-64100000D03*
X158000000Y-70900000D03*
D48*
X120845000Y-72965000D03*
X192845000Y-72965000D03*
X192845000Y-128965000D03*
X120845000Y-128965000D03*
M02*
