M48
;DRILL file {KiCad 4.0.4+dfsg1-stable} date Sun Aug 20 17:41:55 2017
;FORMAT={-:-/ absolute / inch / decimal}
FMAT,2
INCH,TZ
T1C0.016
T2C0.025
T3C0.026
T4C0.028
T5C0.031
T6C0.035
T7C0.040
T8C0.040
T9C0.047
T10C0.051
T11C0.063
%
G90
G05
M72
T1
X5.05Y-3.575
X5.075Y-3.55
X5.1772Y-3.185
X5.1772Y-3.2165
X5.1772Y-3.248
X5.1772Y-3.2795
X5.2Y-3.95
X5.2165Y-5.3543
X5.4Y-4.
X5.4017Y-3.9668
X5.425Y-4.15
X5.438Y-3.454
X5.475Y-3.637
X5.475Y-3.6685
X5.475Y-3.7
X5.52Y-5.37
X5.525Y-4.
X5.6Y-4.325
X5.6004Y-4.388
X5.6004Y-4.4195
X5.6005Y-4.3565
X5.605Y-5.35
X5.72Y-3.545
X5.8Y-4.2
X5.8Y-4.325
X5.975Y-2.875
X5.975Y-3.025
X5.975Y-3.4
X5.975Y-3.75
X6.1299Y-4.175
X6.2Y-3.95
X6.2Y-4.
X6.425Y-3.025
X6.5Y-2.95
X6.5Y-3.475
X6.5Y-3.775
X6.61Y-3.56
X6.625Y-4.
X6.6437Y-4.1929
X6.6804Y-4.1611
X6.685Y-3.635
X6.7Y-3.
X6.85Y-3.7
X6.925Y-3.
X7.0079Y-4.124
X7.08Y-3.83
X7.1Y-4.15
X7.125Y-4.125
X7.15Y-3.83
X7.15Y-4.025
X7.175Y-4.6
X7.2Y-4.075
X7.2146Y-4.1437
X7.275Y-4.6
X7.3018Y-4.0232
X7.31Y-3.915
X7.325Y-4.
X7.375Y-4.6
X7.475Y-4.6
X7.55Y-4.675
X7.575Y-4.7
X7.625Y-4.425
T2
X6.7Y-5.05
X6.9488Y-4.8
X6.95Y-5.05
T3
X5.8Y-3.3
X5.8Y-3.35
X5.8Y-3.4
X5.8Y-3.45
X5.8Y-3.5
X5.85Y-3.3
X5.85Y-3.35
X5.85Y-3.4
X5.85Y-3.45
X5.85Y-3.5
T5
X4.7463Y-3.325
X4.825Y-3.325
X4.875Y-4.1
X4.9537Y-4.1
X5.625Y-4.05
X5.675Y-5.225
X5.7037Y-4.05
X5.7537Y-5.225
X6.Y-3.975
X6.1Y-3.975
X6.6213Y-4.8
X6.6463Y-2.9
X6.7Y-4.8
X6.725Y-2.9
X6.85Y-5.3463
X6.85Y-5.425
X7.4Y-5.1
X7.4Y-5.1787
X7.45Y-5.3463
X7.45Y-5.425
X7.475Y-4.205
X7.475Y-4.2837
X7.475Y-4.4313
X7.475Y-4.51
T6
X7.Y-2.9
X7.05Y-3.
X7.1Y-2.9
X7.15Y-3.
X7.2Y-2.9
X7.25Y-3.
X7.3Y-2.9
X7.35Y-3.
T7
X5.15Y-4.025
X5.15Y-4.125
X5.25Y-4.025
X5.25Y-4.125
X5.35Y-4.025
X5.35Y-4.125
T8
X6.926Y-2.45
X7.026Y-2.5169
X7.324Y-2.45
X7.424Y-2.5169
T9
X5.225Y-2.5
X5.325Y-2.5
X5.625Y-2.5
X5.725Y-2.5
X6.05Y-4.8
X6.15Y-4.8
X6.25Y-4.8
X6.35Y-4.8
X6.45Y-4.8
T10
X6.375Y-5.2781
X6.375Y-5.475
T11
X6.865Y-2.7701
X7.485Y-2.7701
T3
X5.3545Y-5.4189G85X5.3545Y-5.4031
G05
X5.5455Y-5.4189G85X5.5455Y-5.4031
G05
T4
X5.3427Y-5.539G85X5.3427Y-5.5193
G05
X5.5573Y-5.539G85X5.5573Y-5.5193
G05
T0
M30
