G04 #@! TF.FileFunction,Legend,Top*
%FSLAX46Y46*%
G04 Gerber Fmt 4.6, Leading zero omitted, Abs format (unit mm)*
G04 Created by KiCad (PCBNEW 4.0.2+dfsg1-stable) date Wed 21 Jun 2017 09:22:51 BST*
%MOMM*%
G01*
G04 APERTURE LIST*
%ADD10C,0.100000*%
%ADD11C,0.300000*%
%ADD12C,0.150000*%
%ADD13C,0.050000*%
G04 APERTURE END LIST*
D10*
D11*
X116043572Y-116598571D02*
X116043572Y-115098571D01*
X116900715Y-116598571D01*
X116900715Y-115098571D01*
X118186429Y-116527143D02*
X118043572Y-116598571D01*
X117757858Y-116598571D01*
X117615001Y-116527143D01*
X117543572Y-116384286D01*
X117543572Y-115812857D01*
X117615001Y-115670000D01*
X117757858Y-115598571D01*
X118043572Y-115598571D01*
X118186429Y-115670000D01*
X118257858Y-115812857D01*
X118257858Y-115955714D01*
X117543572Y-116098571D01*
X118686429Y-115598571D02*
X119257858Y-115598571D01*
X118900715Y-115098571D02*
X118900715Y-116384286D01*
X118972143Y-116527143D01*
X119115001Y-116598571D01*
X119257858Y-116598571D01*
X119615001Y-115598571D02*
X119900715Y-116598571D01*
X120186429Y-115884286D01*
X120472144Y-116598571D01*
X120757858Y-115598571D01*
X121543573Y-116598571D02*
X121400715Y-116527143D01*
X121329287Y-116455714D01*
X121257858Y-116312857D01*
X121257858Y-115884286D01*
X121329287Y-115741429D01*
X121400715Y-115670000D01*
X121543573Y-115598571D01*
X121757858Y-115598571D01*
X121900715Y-115670000D01*
X121972144Y-115741429D01*
X122043573Y-115884286D01*
X122043573Y-116312857D01*
X121972144Y-116455714D01*
X121900715Y-116527143D01*
X121757858Y-116598571D01*
X121543573Y-116598571D01*
X122686430Y-116598571D02*
X122686430Y-115598571D01*
X122686430Y-115884286D02*
X122757858Y-115741429D01*
X122829287Y-115670000D01*
X122972144Y-115598571D01*
X123115001Y-115598571D01*
X123615001Y-116598571D02*
X123615001Y-115098571D01*
X123757858Y-116027143D02*
X124186429Y-116598571D01*
X124186429Y-115598571D02*
X123615001Y-116170000D01*
X126615001Y-116527143D02*
X126472144Y-116598571D01*
X126186430Y-116598571D01*
X126043572Y-116527143D01*
X125972144Y-116455714D01*
X125900715Y-116312857D01*
X125900715Y-115884286D01*
X125972144Y-115741429D01*
X126043572Y-115670000D01*
X126186430Y-115598571D01*
X126472144Y-115598571D01*
X126615001Y-115670000D01*
X127472144Y-116598571D02*
X127329286Y-116527143D01*
X127257858Y-116455714D01*
X127186429Y-116312857D01*
X127186429Y-115884286D01*
X127257858Y-115741429D01*
X127329286Y-115670000D01*
X127472144Y-115598571D01*
X127686429Y-115598571D01*
X127829286Y-115670000D01*
X127900715Y-115741429D01*
X127972144Y-115884286D01*
X127972144Y-116312857D01*
X127900715Y-116455714D01*
X127829286Y-116527143D01*
X127686429Y-116598571D01*
X127472144Y-116598571D01*
X128615001Y-115598571D02*
X128615001Y-116598571D01*
X128615001Y-115741429D02*
X128686429Y-115670000D01*
X128829287Y-115598571D01*
X129043572Y-115598571D01*
X129186429Y-115670000D01*
X129257858Y-115812857D01*
X129257858Y-116598571D01*
X129972144Y-115598571D02*
X129972144Y-116598571D01*
X129972144Y-115741429D02*
X130043572Y-115670000D01*
X130186430Y-115598571D01*
X130400715Y-115598571D01*
X130543572Y-115670000D01*
X130615001Y-115812857D01*
X130615001Y-116598571D01*
X131900715Y-116527143D02*
X131757858Y-116598571D01*
X131472144Y-116598571D01*
X131329287Y-116527143D01*
X131257858Y-116384286D01*
X131257858Y-115812857D01*
X131329287Y-115670000D01*
X131472144Y-115598571D01*
X131757858Y-115598571D01*
X131900715Y-115670000D01*
X131972144Y-115812857D01*
X131972144Y-115955714D01*
X131257858Y-116098571D01*
X133257858Y-116527143D02*
X133115001Y-116598571D01*
X132829287Y-116598571D01*
X132686429Y-116527143D01*
X132615001Y-116455714D01*
X132543572Y-116312857D01*
X132543572Y-115884286D01*
X132615001Y-115741429D01*
X132686429Y-115670000D01*
X132829287Y-115598571D01*
X133115001Y-115598571D01*
X133257858Y-115670000D01*
X133686429Y-115598571D02*
X134257858Y-115598571D01*
X133900715Y-115098571D02*
X133900715Y-116384286D01*
X133972143Y-116527143D01*
X134115001Y-116598571D01*
X134257858Y-116598571D01*
X135329286Y-116527143D02*
X135186429Y-116598571D01*
X134900715Y-116598571D01*
X134757858Y-116527143D01*
X134686429Y-116384286D01*
X134686429Y-115812857D01*
X134757858Y-115670000D01*
X134900715Y-115598571D01*
X135186429Y-115598571D01*
X135329286Y-115670000D01*
X135400715Y-115812857D01*
X135400715Y-115955714D01*
X134686429Y-116098571D01*
X136686429Y-116598571D02*
X136686429Y-115098571D01*
X136686429Y-116527143D02*
X136543572Y-116598571D01*
X136257858Y-116598571D01*
X136115000Y-116527143D01*
X136043572Y-116455714D01*
X135972143Y-116312857D01*
X135972143Y-115884286D01*
X136043572Y-115741429D01*
X136115000Y-115670000D01*
X136257858Y-115598571D01*
X136543572Y-115598571D01*
X136686429Y-115670000D01*
X115615000Y-118927143D02*
X115472143Y-118998571D01*
X115186429Y-118998571D01*
X115043572Y-118927143D01*
X114972143Y-118784286D01*
X114972143Y-118212857D01*
X115043572Y-118070000D01*
X115186429Y-117998571D01*
X115472143Y-117998571D01*
X115615000Y-118070000D01*
X115686429Y-118212857D01*
X115686429Y-118355714D01*
X114972143Y-118498571D01*
X116329286Y-117998571D02*
X116329286Y-118998571D01*
X116329286Y-118141429D02*
X116400714Y-118070000D01*
X116543572Y-117998571D01*
X116757857Y-117998571D01*
X116900714Y-118070000D01*
X116972143Y-118212857D01*
X116972143Y-118998571D01*
X117543572Y-117998571D02*
X117900715Y-118998571D01*
X118257857Y-117998571D01*
X118829286Y-118998571D02*
X118829286Y-117998571D01*
X118829286Y-117498571D02*
X118757857Y-117570000D01*
X118829286Y-117641429D01*
X118900714Y-117570000D01*
X118829286Y-117498571D01*
X118829286Y-117641429D01*
X119543572Y-118998571D02*
X119543572Y-117998571D01*
X119543572Y-118284286D02*
X119615000Y-118141429D01*
X119686429Y-118070000D01*
X119829286Y-117998571D01*
X119972143Y-117998571D01*
X120686429Y-118998571D02*
X120543571Y-118927143D01*
X120472143Y-118855714D01*
X120400714Y-118712857D01*
X120400714Y-118284286D01*
X120472143Y-118141429D01*
X120543571Y-118070000D01*
X120686429Y-117998571D01*
X120900714Y-117998571D01*
X121043571Y-118070000D01*
X121115000Y-118141429D01*
X121186429Y-118284286D01*
X121186429Y-118712857D01*
X121115000Y-118855714D01*
X121043571Y-118927143D01*
X120900714Y-118998571D01*
X120686429Y-118998571D01*
X121829286Y-117998571D02*
X121829286Y-118998571D01*
X121829286Y-118141429D02*
X121900714Y-118070000D01*
X122043572Y-117998571D01*
X122257857Y-117998571D01*
X122400714Y-118070000D01*
X122472143Y-118212857D01*
X122472143Y-118998571D01*
X123186429Y-118998571D02*
X123186429Y-117998571D01*
X123186429Y-118141429D02*
X123257857Y-118070000D01*
X123400715Y-117998571D01*
X123615000Y-117998571D01*
X123757857Y-118070000D01*
X123829286Y-118212857D01*
X123829286Y-118998571D01*
X123829286Y-118212857D02*
X123900715Y-118070000D01*
X124043572Y-117998571D01*
X124257857Y-117998571D01*
X124400715Y-118070000D01*
X124472143Y-118212857D01*
X124472143Y-118998571D01*
X125757857Y-118927143D02*
X125615000Y-118998571D01*
X125329286Y-118998571D01*
X125186429Y-118927143D01*
X125115000Y-118784286D01*
X125115000Y-118212857D01*
X125186429Y-118070000D01*
X125329286Y-117998571D01*
X125615000Y-117998571D01*
X125757857Y-118070000D01*
X125829286Y-118212857D01*
X125829286Y-118355714D01*
X125115000Y-118498571D01*
X126472143Y-117998571D02*
X126472143Y-118998571D01*
X126472143Y-118141429D02*
X126543571Y-118070000D01*
X126686429Y-117998571D01*
X126900714Y-117998571D01*
X127043571Y-118070000D01*
X127115000Y-118212857D01*
X127115000Y-118998571D01*
X127615000Y-117998571D02*
X128186429Y-117998571D01*
X127829286Y-117498571D02*
X127829286Y-118784286D01*
X127900714Y-118927143D01*
X128043572Y-118998571D01*
X128186429Y-118998571D01*
X129829286Y-118998571D02*
X129829286Y-117998571D01*
X129829286Y-118141429D02*
X129900714Y-118070000D01*
X130043572Y-117998571D01*
X130257857Y-117998571D01*
X130400714Y-118070000D01*
X130472143Y-118212857D01*
X130472143Y-118998571D01*
X130472143Y-118212857D02*
X130543572Y-118070000D01*
X130686429Y-117998571D01*
X130900714Y-117998571D01*
X131043572Y-118070000D01*
X131115000Y-118212857D01*
X131115000Y-118998571D01*
X132043572Y-118998571D02*
X131900714Y-118927143D01*
X131829286Y-118855714D01*
X131757857Y-118712857D01*
X131757857Y-118284286D01*
X131829286Y-118141429D01*
X131900714Y-118070000D01*
X132043572Y-117998571D01*
X132257857Y-117998571D01*
X132400714Y-118070000D01*
X132472143Y-118141429D01*
X132543572Y-118284286D01*
X132543572Y-118712857D01*
X132472143Y-118855714D01*
X132400714Y-118927143D01*
X132257857Y-118998571D01*
X132043572Y-118998571D01*
X133186429Y-117998571D02*
X133186429Y-118998571D01*
X133186429Y-118141429D02*
X133257857Y-118070000D01*
X133400715Y-117998571D01*
X133615000Y-117998571D01*
X133757857Y-118070000D01*
X133829286Y-118212857D01*
X133829286Y-118998571D01*
X134543572Y-118998571D02*
X134543572Y-117998571D01*
X134543572Y-117498571D02*
X134472143Y-117570000D01*
X134543572Y-117641429D01*
X134615000Y-117570000D01*
X134543572Y-117498571D01*
X134543572Y-117641429D01*
X135043572Y-117998571D02*
X135615001Y-117998571D01*
X135257858Y-117498571D02*
X135257858Y-118784286D01*
X135329286Y-118927143D01*
X135472144Y-118998571D01*
X135615001Y-118998571D01*
X136329287Y-118998571D02*
X136186429Y-118927143D01*
X136115001Y-118855714D01*
X136043572Y-118712857D01*
X136043572Y-118284286D01*
X136115001Y-118141429D01*
X136186429Y-118070000D01*
X136329287Y-117998571D01*
X136543572Y-117998571D01*
X136686429Y-118070000D01*
X136757858Y-118141429D01*
X136829287Y-118284286D01*
X136829287Y-118712857D01*
X136757858Y-118855714D01*
X136686429Y-118927143D01*
X136543572Y-118998571D01*
X136329287Y-118998571D01*
X137472144Y-118998571D02*
X137472144Y-117998571D01*
X137472144Y-118284286D02*
X137543572Y-118141429D01*
X137615001Y-118070000D01*
X137757858Y-117998571D01*
X137900715Y-117998571D01*
X121650715Y-123798571D02*
X121150715Y-123084286D01*
X120793572Y-123798571D02*
X120793572Y-122298571D01*
X121365000Y-122298571D01*
X121507858Y-122370000D01*
X121579286Y-122441429D01*
X121650715Y-122584286D01*
X121650715Y-122798571D01*
X121579286Y-122941429D01*
X121507858Y-123012857D01*
X121365000Y-123084286D01*
X120793572Y-123084286D01*
X122865000Y-123727143D02*
X122722143Y-123798571D01*
X122436429Y-123798571D01*
X122293572Y-123727143D01*
X122222143Y-123584286D01*
X122222143Y-123012857D01*
X122293572Y-122870000D01*
X122436429Y-122798571D01*
X122722143Y-122798571D01*
X122865000Y-122870000D01*
X122936429Y-123012857D01*
X122936429Y-123155714D01*
X122222143Y-123298571D01*
X123436429Y-122798571D02*
X123793572Y-123798571D01*
X124150714Y-122798571D01*
X124722143Y-123798571D02*
X124722143Y-122798571D01*
X124722143Y-122298571D02*
X124650714Y-122370000D01*
X124722143Y-122441429D01*
X124793571Y-122370000D01*
X124722143Y-122298571D01*
X124722143Y-122441429D01*
X125365000Y-123727143D02*
X125507857Y-123798571D01*
X125793572Y-123798571D01*
X125936429Y-123727143D01*
X126007857Y-123584286D01*
X126007857Y-123512857D01*
X125936429Y-123370000D01*
X125793572Y-123298571D01*
X125579286Y-123298571D01*
X125436429Y-123227143D01*
X125365000Y-123084286D01*
X125365000Y-123012857D01*
X125436429Y-122870000D01*
X125579286Y-122798571D01*
X125793572Y-122798571D01*
X125936429Y-122870000D01*
X126650715Y-123798571D02*
X126650715Y-122798571D01*
X126650715Y-122298571D02*
X126579286Y-122370000D01*
X126650715Y-122441429D01*
X126722143Y-122370000D01*
X126650715Y-122298571D01*
X126650715Y-122441429D01*
X127579287Y-123798571D02*
X127436429Y-123727143D01*
X127365001Y-123655714D01*
X127293572Y-123512857D01*
X127293572Y-123084286D01*
X127365001Y-122941429D01*
X127436429Y-122870000D01*
X127579287Y-122798571D01*
X127793572Y-122798571D01*
X127936429Y-122870000D01*
X128007858Y-122941429D01*
X128079287Y-123084286D01*
X128079287Y-123512857D01*
X128007858Y-123655714D01*
X127936429Y-123727143D01*
X127793572Y-123798571D01*
X127579287Y-123798571D01*
X128722144Y-122798571D02*
X128722144Y-123798571D01*
X128722144Y-122941429D02*
X128793572Y-122870000D01*
X128936430Y-122798571D01*
X129150715Y-122798571D01*
X129293572Y-122870000D01*
X129365001Y-123012857D01*
X129365001Y-123798571D01*
X131150715Y-122441429D02*
X131222144Y-122370000D01*
X131365001Y-122298571D01*
X131722144Y-122298571D01*
X131865001Y-122370000D01*
X131936430Y-122441429D01*
X132007858Y-122584286D01*
X132007858Y-122727143D01*
X131936430Y-122941429D01*
X131079287Y-123798571D01*
X132007858Y-123798571D01*
X119650715Y-128527143D02*
X119865001Y-128598571D01*
X120222144Y-128598571D01*
X120365001Y-128527143D01*
X120436430Y-128455714D01*
X120507858Y-128312857D01*
X120507858Y-128170000D01*
X120436430Y-128027143D01*
X120365001Y-127955714D01*
X120222144Y-127884286D01*
X119936430Y-127812857D01*
X119793572Y-127741429D01*
X119722144Y-127670000D01*
X119650715Y-127527143D01*
X119650715Y-127384286D01*
X119722144Y-127241429D01*
X119793572Y-127170000D01*
X119936430Y-127098571D01*
X120293572Y-127098571D01*
X120507858Y-127170000D01*
X121722143Y-128527143D02*
X121579286Y-128598571D01*
X121293572Y-128598571D01*
X121150715Y-128527143D01*
X121079286Y-128384286D01*
X121079286Y-127812857D01*
X121150715Y-127670000D01*
X121293572Y-127598571D01*
X121579286Y-127598571D01*
X121722143Y-127670000D01*
X121793572Y-127812857D01*
X121793572Y-127955714D01*
X121079286Y-128098571D01*
X123079286Y-128598571D02*
X123079286Y-127812857D01*
X123007857Y-127670000D01*
X122865000Y-127598571D01*
X122579286Y-127598571D01*
X122436429Y-127670000D01*
X123079286Y-128527143D02*
X122936429Y-128598571D01*
X122579286Y-128598571D01*
X122436429Y-128527143D01*
X122365000Y-128384286D01*
X122365000Y-128241429D01*
X122436429Y-128098571D01*
X122579286Y-128027143D01*
X122936429Y-128027143D01*
X123079286Y-127955714D01*
X123793572Y-127598571D02*
X123793572Y-128598571D01*
X123793572Y-127741429D02*
X123865000Y-127670000D01*
X124007858Y-127598571D01*
X124222143Y-127598571D01*
X124365000Y-127670000D01*
X124436429Y-127812857D01*
X124436429Y-128598571D01*
X127007858Y-128598571D02*
X126293572Y-128598571D01*
X126293572Y-127098571D01*
X128079286Y-128527143D02*
X127936429Y-128598571D01*
X127650715Y-128598571D01*
X127507858Y-128527143D01*
X127436429Y-128384286D01*
X127436429Y-127812857D01*
X127507858Y-127670000D01*
X127650715Y-127598571D01*
X127936429Y-127598571D01*
X128079286Y-127670000D01*
X128150715Y-127812857D01*
X128150715Y-127955714D01*
X127436429Y-128098571D01*
X129436429Y-128598571D02*
X129436429Y-127812857D01*
X129365000Y-127670000D01*
X129222143Y-127598571D01*
X128936429Y-127598571D01*
X128793572Y-127670000D01*
X129436429Y-128527143D02*
X129293572Y-128598571D01*
X128936429Y-128598571D01*
X128793572Y-128527143D01*
X128722143Y-128384286D01*
X128722143Y-128241429D01*
X128793572Y-128098571D01*
X128936429Y-128027143D01*
X129293572Y-128027143D01*
X129436429Y-127955714D01*
X130007858Y-127598571D02*
X130365001Y-128598571D01*
X130722143Y-127598571D01*
X131865000Y-128527143D02*
X131722143Y-128598571D01*
X131436429Y-128598571D01*
X131293572Y-128527143D01*
X131222143Y-128384286D01*
X131222143Y-127812857D01*
X131293572Y-127670000D01*
X131436429Y-127598571D01*
X131722143Y-127598571D01*
X131865000Y-127670000D01*
X131936429Y-127812857D01*
X131936429Y-127955714D01*
X131222143Y-128098571D01*
X132436429Y-127598571D02*
X132793572Y-128598571D01*
X133150714Y-127598571D02*
X132793572Y-128598571D01*
X132650714Y-128955714D01*
X132579286Y-129027143D01*
X132436429Y-129098571D01*
D12*
X170450000Y-95005000D02*
X172450000Y-95005000D01*
X172450000Y-92955000D02*
X170450000Y-92955000D01*
X184515000Y-104766000D02*
X182515000Y-104766000D01*
X182515000Y-106816000D02*
X184515000Y-106816000D01*
X173085000Y-66285000D02*
X171085000Y-66285000D01*
X171085000Y-68335000D02*
X173085000Y-68335000D01*
X159250000Y-128660000D02*
X161250000Y-128660000D01*
X161250000Y-126610000D02*
X159250000Y-126610000D01*
X150876000Y-103251000D02*
X151384000Y-102743000D01*
X151892000Y-103251000D02*
X151384000Y-103759000D01*
X151384000Y-103759000D02*
X150876000Y-103251000D01*
X155956000Y-100965000D02*
G75*
G03X155956000Y-100965000I-2286000J0D01*
G01*
X156420000Y-100965000D02*
G75*
G03X156420000Y-100965000I-2750000J0D01*
G01*
X191320000Y-105215000D02*
X189320000Y-105215000D01*
X189320000Y-103065000D02*
X191320000Y-103065000D01*
X195310000Y-63305000D02*
X193310000Y-63305000D01*
X193310000Y-61155000D02*
X195310000Y-61155000D01*
X195310000Y-65845000D02*
X193310000Y-65845000D01*
X193310000Y-63695000D02*
X195310000Y-63695000D01*
X160385000Y-107120000D02*
X158385000Y-107120000D01*
X158385000Y-104970000D02*
X160385000Y-104970000D01*
X160385000Y-109660000D02*
X158385000Y-109660000D01*
X158385000Y-107510000D02*
X160385000Y-107510000D01*
D13*
X160623078Y-99990000D02*
G75*
G03X160623078Y-99990000I-103078J0D01*
G01*
D12*
X158570000Y-99515000D02*
X158570000Y-102415000D01*
X158570000Y-102415000D02*
X161470000Y-102415000D01*
X161470000Y-102415000D02*
X161470000Y-99515000D01*
X161470000Y-99515000D02*
X158570000Y-99515000D01*
X144543780Y-125244860D02*
X144904460Y-126715520D01*
X144904460Y-126715520D02*
X145183860Y-125653800D01*
X145183860Y-125653800D02*
X145493740Y-126725680D01*
X145493740Y-126725680D02*
X145834100Y-125275340D01*
X143123920Y-125935740D02*
X143913860Y-125925580D01*
X143913860Y-125925580D02*
X143924020Y-125935740D01*
X143924020Y-125935740D02*
X143924020Y-125925580D01*
X143964660Y-125214380D02*
X143964660Y-126756160D01*
X143075660Y-125204220D02*
X143075660Y-126773940D01*
X143075660Y-126773940D02*
X143085820Y-126763780D01*
X142524480Y-125305820D02*
X142173960Y-125224540D01*
X142173960Y-125224540D02*
X141853920Y-125214380D01*
X141853920Y-125214380D02*
X141615160Y-125415040D01*
X141615160Y-125415040D02*
X141584680Y-125684280D01*
X141584680Y-125684280D02*
X141825980Y-125925580D01*
X141825980Y-125925580D02*
X142214600Y-126055120D01*
X142214600Y-126055120D02*
X142394940Y-126215140D01*
X142394940Y-126215140D02*
X142435580Y-126514860D01*
X142435580Y-126514860D02*
X142204440Y-126735840D01*
X142204440Y-126735840D02*
X141884400Y-126763780D01*
X141884400Y-126763780D02*
X141533880Y-126654560D01*
X140495020Y-125204220D02*
X140246100Y-125224540D01*
X140246100Y-125224540D02*
X140004800Y-125465840D01*
X140004800Y-125465840D02*
X139915900Y-125956060D01*
X139915900Y-125956060D02*
X139943840Y-126304040D01*
X139943840Y-126304040D02*
X140144500Y-126624080D01*
X140144500Y-126624080D02*
X140395960Y-126746000D01*
X140395960Y-126746000D02*
X140705840Y-126674880D01*
X140705840Y-126674880D02*
X140924280Y-126494540D01*
X140924280Y-126494540D02*
X140995400Y-126034800D01*
X140995400Y-126034800D02*
X140944600Y-125625860D01*
X140944600Y-125625860D02*
X140835380Y-125343920D01*
X140835380Y-125343920D02*
X140474700Y-125214380D01*
X141094460Y-123484640D02*
X140835380Y-124045980D01*
X140835380Y-124045980D02*
X141373860Y-124564140D01*
X141373860Y-124564140D02*
X141894560Y-124294900D01*
X141894560Y-124294900D02*
X142173960Y-124454920D01*
X143614140Y-124434600D02*
X143944340Y-124244100D01*
X143944340Y-124244100D02*
X144383760Y-124574300D01*
X144383760Y-124574300D02*
X144856200Y-124084080D01*
X144856200Y-124084080D02*
X144574260Y-123604020D01*
X144574260Y-123604020D02*
X144764760Y-123134120D01*
X144764760Y-123134120D02*
X145374360Y-122946160D01*
X145374360Y-122946160D02*
X145374360Y-122265440D01*
X145374360Y-122265440D02*
X144815560Y-122125740D01*
X144815560Y-122125740D02*
X144614900Y-121554240D01*
X144614900Y-121554240D02*
X144884140Y-121084340D01*
X144884140Y-121084340D02*
X144414240Y-120573800D01*
X144414240Y-120573800D02*
X143896080Y-120835420D01*
X143896080Y-120835420D02*
X143426180Y-120634760D01*
X143426180Y-120634760D02*
X143256000Y-120093740D01*
X143256000Y-120093740D02*
X142565120Y-120075960D01*
X142565120Y-120075960D02*
X142354300Y-120624600D01*
X142354300Y-120624600D02*
X141935200Y-120794780D01*
X141935200Y-120794780D02*
X141384020Y-120525540D01*
X141384020Y-120525540D02*
X140865860Y-121053860D01*
X140865860Y-121053860D02*
X141114780Y-121594880D01*
X141114780Y-121594880D02*
X140944600Y-122074940D01*
X140944600Y-122074940D02*
X140395960Y-122174000D01*
X140395960Y-122174000D02*
X140385800Y-122875040D01*
X140385800Y-122875040D02*
X140944600Y-123075700D01*
X140944600Y-123075700D02*
X141084300Y-123474480D01*
X143225520Y-123454160D02*
X143525240Y-123304300D01*
X143525240Y-123304300D02*
X143725900Y-123106180D01*
X143725900Y-123106180D02*
X143875760Y-122704860D01*
X143875760Y-122704860D02*
X143875760Y-122306080D01*
X143875760Y-122306080D02*
X143725900Y-121955560D01*
X143725900Y-121955560D02*
X143273780Y-121605040D01*
X143273780Y-121605040D02*
X142824200Y-121554240D01*
X142824200Y-121554240D02*
X142425420Y-121655840D01*
X142425420Y-121655840D02*
X142024100Y-122003820D01*
X142024100Y-122003820D02*
X141874240Y-122455940D01*
X141874240Y-122455940D02*
X141925040Y-122953780D01*
X141925040Y-122953780D02*
X142173960Y-123256040D01*
X142173960Y-123256040D02*
X142524480Y-123454160D01*
X142524480Y-123454160D02*
X142173960Y-124454920D01*
X143225520Y-123454160D02*
X143624300Y-124454920D01*
X170807143Y-96637143D02*
X170759524Y-96684762D01*
X170616667Y-96732381D01*
X170521429Y-96732381D01*
X170378571Y-96684762D01*
X170283333Y-96589524D01*
X170235714Y-96494286D01*
X170188095Y-96303810D01*
X170188095Y-96160952D01*
X170235714Y-95970476D01*
X170283333Y-95875238D01*
X170378571Y-95780000D01*
X170521429Y-95732381D01*
X170616667Y-95732381D01*
X170759524Y-95780000D01*
X170807143Y-95827619D01*
X171759524Y-96732381D02*
X171188095Y-96732381D01*
X171473809Y-96732381D02*
X171473809Y-95732381D01*
X171378571Y-95875238D01*
X171283333Y-95970476D01*
X171188095Y-96018095D01*
X172664286Y-95732381D02*
X172188095Y-95732381D01*
X172140476Y-96208571D01*
X172188095Y-96160952D01*
X172283333Y-96113333D01*
X172521429Y-96113333D01*
X172616667Y-96160952D01*
X172664286Y-96208571D01*
X172711905Y-96303810D01*
X172711905Y-96541905D01*
X172664286Y-96637143D01*
X172616667Y-96684762D01*
X172521429Y-96732381D01*
X172283333Y-96732381D01*
X172188095Y-96684762D01*
X172140476Y-96637143D01*
X182872143Y-108307143D02*
X182824524Y-108354762D01*
X182681667Y-108402381D01*
X182586429Y-108402381D01*
X182443571Y-108354762D01*
X182348333Y-108259524D01*
X182300714Y-108164286D01*
X182253095Y-107973810D01*
X182253095Y-107830952D01*
X182300714Y-107640476D01*
X182348333Y-107545238D01*
X182443571Y-107450000D01*
X182586429Y-107402381D01*
X182681667Y-107402381D01*
X182824524Y-107450000D01*
X182872143Y-107497619D01*
X183253095Y-107497619D02*
X183300714Y-107450000D01*
X183395952Y-107402381D01*
X183634048Y-107402381D01*
X183729286Y-107450000D01*
X183776905Y-107497619D01*
X183824524Y-107592857D01*
X183824524Y-107688095D01*
X183776905Y-107830952D01*
X183205476Y-108402381D01*
X183824524Y-108402381D01*
X184776905Y-108402381D02*
X184205476Y-108402381D01*
X184491190Y-108402381D02*
X184491190Y-107402381D01*
X184395952Y-107545238D01*
X184300714Y-107640476D01*
X184205476Y-107688095D01*
X171442143Y-65367143D02*
X171394524Y-65414762D01*
X171251667Y-65462381D01*
X171156429Y-65462381D01*
X171013571Y-65414762D01*
X170918333Y-65319524D01*
X170870714Y-65224286D01*
X170823095Y-65033810D01*
X170823095Y-64890952D01*
X170870714Y-64700476D01*
X170918333Y-64605238D01*
X171013571Y-64510000D01*
X171156429Y-64462381D01*
X171251667Y-64462381D01*
X171394524Y-64510000D01*
X171442143Y-64557619D01*
X171775476Y-64462381D02*
X172394524Y-64462381D01*
X172061190Y-64843333D01*
X172204048Y-64843333D01*
X172299286Y-64890952D01*
X172346905Y-64938571D01*
X172394524Y-65033810D01*
X172394524Y-65271905D01*
X172346905Y-65367143D01*
X172299286Y-65414762D01*
X172204048Y-65462381D01*
X171918333Y-65462381D01*
X171823095Y-65414762D01*
X171775476Y-65367143D01*
X173013571Y-64462381D02*
X173108810Y-64462381D01*
X173204048Y-64510000D01*
X173251667Y-64557619D01*
X173299286Y-64652857D01*
X173346905Y-64843333D01*
X173346905Y-65081429D01*
X173299286Y-65271905D01*
X173251667Y-65367143D01*
X173204048Y-65414762D01*
X173108810Y-65462381D01*
X173013571Y-65462381D01*
X172918333Y-65414762D01*
X172870714Y-65367143D01*
X172823095Y-65271905D01*
X172775476Y-65081429D01*
X172775476Y-64843333D01*
X172823095Y-64652857D01*
X172870714Y-64557619D01*
X172918333Y-64510000D01*
X173013571Y-64462381D01*
X159607143Y-130292143D02*
X159559524Y-130339762D01*
X159416667Y-130387381D01*
X159321429Y-130387381D01*
X159178571Y-130339762D01*
X159083333Y-130244524D01*
X159035714Y-130149286D01*
X158988095Y-129958810D01*
X158988095Y-129815952D01*
X159035714Y-129625476D01*
X159083333Y-129530238D01*
X159178571Y-129435000D01*
X159321429Y-129387381D01*
X159416667Y-129387381D01*
X159559524Y-129435000D01*
X159607143Y-129482619D01*
X159940476Y-129387381D02*
X160559524Y-129387381D01*
X160226190Y-129768333D01*
X160369048Y-129768333D01*
X160464286Y-129815952D01*
X160511905Y-129863571D01*
X160559524Y-129958810D01*
X160559524Y-130196905D01*
X160511905Y-130292143D01*
X160464286Y-130339762D01*
X160369048Y-130387381D01*
X160083333Y-130387381D01*
X159988095Y-130339762D01*
X159940476Y-130292143D01*
X161416667Y-129720714D02*
X161416667Y-130387381D01*
X161178571Y-129339762D02*
X160940476Y-130054048D01*
X161559524Y-130054048D01*
X152931905Y-97607381D02*
X152931905Y-96607381D01*
X153312858Y-96607381D01*
X153408096Y-96655000D01*
X153455715Y-96702619D01*
X153503334Y-96797857D01*
X153503334Y-96940714D01*
X153455715Y-97035952D01*
X153408096Y-97083571D01*
X153312858Y-97131190D01*
X152931905Y-97131190D01*
X154360477Y-96940714D02*
X154360477Y-97607381D01*
X154122381Y-96559762D02*
X153884286Y-97274048D01*
X154503334Y-97274048D01*
X193508334Y-104592381D02*
X193175000Y-104116190D01*
X192936905Y-104592381D02*
X192936905Y-103592381D01*
X193317858Y-103592381D01*
X193413096Y-103640000D01*
X193460715Y-103687619D01*
X193508334Y-103782857D01*
X193508334Y-103925714D01*
X193460715Y-104020952D01*
X193413096Y-104068571D01*
X193317858Y-104116190D01*
X192936905Y-104116190D01*
X193984524Y-104592381D02*
X194175000Y-104592381D01*
X194270239Y-104544762D01*
X194317858Y-104497143D01*
X194413096Y-104354286D01*
X194460715Y-104163810D01*
X194460715Y-103782857D01*
X194413096Y-103687619D01*
X194365477Y-103640000D01*
X194270239Y-103592381D01*
X194079762Y-103592381D01*
X193984524Y-103640000D01*
X193936905Y-103687619D01*
X193889286Y-103782857D01*
X193889286Y-104020952D01*
X193936905Y-104116190D01*
X193984524Y-104163810D01*
X194079762Y-104211429D01*
X194270239Y-104211429D01*
X194365477Y-104163810D01*
X194413096Y-104116190D01*
X194460715Y-104020952D01*
X197477143Y-62682381D02*
X197143809Y-62206190D01*
X196905714Y-62682381D02*
X196905714Y-61682381D01*
X197286667Y-61682381D01*
X197381905Y-61730000D01*
X197429524Y-61777619D01*
X197477143Y-61872857D01*
X197477143Y-62015714D01*
X197429524Y-62110952D01*
X197381905Y-62158571D01*
X197286667Y-62206190D01*
X196905714Y-62206190D01*
X197810476Y-61682381D02*
X198429524Y-61682381D01*
X198096190Y-62063333D01*
X198239048Y-62063333D01*
X198334286Y-62110952D01*
X198381905Y-62158571D01*
X198429524Y-62253810D01*
X198429524Y-62491905D01*
X198381905Y-62587143D01*
X198334286Y-62634762D01*
X198239048Y-62682381D01*
X197953333Y-62682381D01*
X197858095Y-62634762D01*
X197810476Y-62587143D01*
X199381905Y-62682381D02*
X198810476Y-62682381D01*
X199096190Y-62682381D02*
X199096190Y-61682381D01*
X199000952Y-61825238D01*
X198905714Y-61920476D01*
X198810476Y-61968095D01*
X197477143Y-65222381D02*
X197143809Y-64746190D01*
X196905714Y-65222381D02*
X196905714Y-64222381D01*
X197286667Y-64222381D01*
X197381905Y-64270000D01*
X197429524Y-64317619D01*
X197477143Y-64412857D01*
X197477143Y-64555714D01*
X197429524Y-64650952D01*
X197381905Y-64698571D01*
X197286667Y-64746190D01*
X196905714Y-64746190D01*
X197810476Y-64222381D02*
X198429524Y-64222381D01*
X198096190Y-64603333D01*
X198239048Y-64603333D01*
X198334286Y-64650952D01*
X198381905Y-64698571D01*
X198429524Y-64793810D01*
X198429524Y-65031905D01*
X198381905Y-65127143D01*
X198334286Y-65174762D01*
X198239048Y-65222381D01*
X197953333Y-65222381D01*
X197858095Y-65174762D01*
X197810476Y-65127143D01*
X198810476Y-64317619D02*
X198858095Y-64270000D01*
X198953333Y-64222381D01*
X199191429Y-64222381D01*
X199286667Y-64270000D01*
X199334286Y-64317619D01*
X199381905Y-64412857D01*
X199381905Y-64508095D01*
X199334286Y-64650952D01*
X198762857Y-65222381D01*
X199381905Y-65222381D01*
X162552143Y-106497381D02*
X162218809Y-106021190D01*
X161980714Y-106497381D02*
X161980714Y-105497381D01*
X162361667Y-105497381D01*
X162456905Y-105545000D01*
X162504524Y-105592619D01*
X162552143Y-105687857D01*
X162552143Y-105830714D01*
X162504524Y-105925952D01*
X162456905Y-105973571D01*
X162361667Y-106021190D01*
X161980714Y-106021190D01*
X162885476Y-105497381D02*
X163504524Y-105497381D01*
X163171190Y-105878333D01*
X163314048Y-105878333D01*
X163409286Y-105925952D01*
X163456905Y-105973571D01*
X163504524Y-106068810D01*
X163504524Y-106306905D01*
X163456905Y-106402143D01*
X163409286Y-106449762D01*
X163314048Y-106497381D01*
X163028333Y-106497381D01*
X162933095Y-106449762D01*
X162885476Y-106402143D01*
X164361667Y-105830714D02*
X164361667Y-106497381D01*
X164123571Y-105449762D02*
X163885476Y-106164048D01*
X164504524Y-106164048D01*
X162552143Y-109037381D02*
X162218809Y-108561190D01*
X161980714Y-109037381D02*
X161980714Y-108037381D01*
X162361667Y-108037381D01*
X162456905Y-108085000D01*
X162504524Y-108132619D01*
X162552143Y-108227857D01*
X162552143Y-108370714D01*
X162504524Y-108465952D01*
X162456905Y-108513571D01*
X162361667Y-108561190D01*
X161980714Y-108561190D01*
X162885476Y-108037381D02*
X163504524Y-108037381D01*
X163171190Y-108418333D01*
X163314048Y-108418333D01*
X163409286Y-108465952D01*
X163456905Y-108513571D01*
X163504524Y-108608810D01*
X163504524Y-108846905D01*
X163456905Y-108942143D01*
X163409286Y-108989762D01*
X163314048Y-109037381D01*
X163028333Y-109037381D01*
X162933095Y-108989762D01*
X162885476Y-108942143D01*
X164409286Y-108037381D02*
X163933095Y-108037381D01*
X163885476Y-108513571D01*
X163933095Y-108465952D01*
X164028333Y-108418333D01*
X164266429Y-108418333D01*
X164361667Y-108465952D01*
X164409286Y-108513571D01*
X164456905Y-108608810D01*
X164456905Y-108846905D01*
X164409286Y-108942143D01*
X164361667Y-108989762D01*
X164266429Y-109037381D01*
X164028333Y-109037381D01*
X163933095Y-108989762D01*
X163885476Y-108942143D01*
X159105714Y-97767857D02*
X159105714Y-98739286D01*
X159162857Y-98853571D01*
X159220000Y-98910714D01*
X159334286Y-98967857D01*
X159562857Y-98967857D01*
X159677143Y-98910714D01*
X159734286Y-98853571D01*
X159791429Y-98739286D01*
X159791429Y-97767857D01*
X160248572Y-97767857D02*
X160991429Y-97767857D01*
X160591429Y-98225000D01*
X160762857Y-98225000D01*
X160877143Y-98282143D01*
X160934286Y-98339286D01*
X160991429Y-98453571D01*
X160991429Y-98739286D01*
X160934286Y-98853571D01*
X160877143Y-98910714D01*
X160762857Y-98967857D01*
X160420000Y-98967857D01*
X160305714Y-98910714D01*
X160248572Y-98853571D01*
M02*
