G04 #@! TF.FileFunction,Copper,L2,Bot,Signal*
%FSLAX46Y46*%
G04 Gerber Fmt 4.6, Leading zero omitted, Abs format (unit mm)*
G04 Created by KiCad (PCBNEW 4.0.4+dfsg1-stable) date Wed Oct 11 10:07:52 2017*
%MOMM*%
%LPD*%
G01*
G04 APERTURE LIST*
%ADD10C,0.100000*%
%ADD11C,1.400000*%
%ADD12R,1.400000X1.400000*%
%ADD13C,2.500000*%
%ADD14C,1.500000*%
%ADD15R,1.300000X1.300000*%
%ADD16C,1.300000*%
%ADD17R,2.000000X2.600000*%
%ADD18O,2.000000X2.600000*%
%ADD19O,1.100000X1.500000*%
%ADD20O,1.200000X1.700000*%
%ADD21R,1.727200X1.727200*%
%ADD22O,1.727200X1.727200*%
%ADD23R,1.727200X2.032000*%
%ADD24O,1.727200X2.032000*%
%ADD25R,1.050000X1.050000*%
%ADD26C,1.050000*%
%ADD27C,1.200000*%
%ADD28R,0.500000X0.350000*%
%ADD29C,1.143000*%
%ADD30C,0.600000*%
%ADD31C,0.254000*%
%ADD32C,0.050000*%
G04 APERTURE END LIST*
D10*
D11*
X165735000Y-79248000D03*
X167005000Y-76708000D03*
X168275000Y-79248000D03*
X169545000Y-76708000D03*
X170815000Y-79248000D03*
X172085000Y-76708000D03*
X173355000Y-79248000D03*
D12*
X174625000Y-76708000D03*
D13*
X178055000Y-73408000D03*
X162305000Y-73408000D03*
D14*
X163855000Y-66978000D03*
X176505000Y-65278000D03*
X173965000Y-66978000D03*
X166395000Y-65278000D03*
D15*
X182880000Y-136525000D03*
D16*
X182880000Y-134525000D03*
D15*
X182880000Y-123825000D03*
D16*
X182880000Y-121825000D03*
D15*
X182880000Y-118110000D03*
D16*
X182880000Y-116110000D03*
D15*
X186690000Y-94615000D03*
D16*
X188690000Y-94615000D03*
D15*
X163195000Y-115570000D03*
D16*
X163195000Y-117570000D03*
D15*
X156210000Y-100330000D03*
D16*
X156210000Y-98330000D03*
D15*
X130175000Y-68580000D03*
D16*
X130175000Y-66580000D03*
D15*
X130810000Y-95885000D03*
D16*
X130810000Y-97885000D03*
D15*
X144145000Y-95250000D03*
D16*
X144145000Y-97250000D03*
D15*
X123825000Y-95885000D03*
D16*
X123825000Y-97885000D03*
D15*
X118745000Y-135890000D03*
D16*
X118745000Y-133890000D03*
D17*
X173990000Y-133350000D03*
D18*
X176530000Y-133350000D03*
D19*
X120535000Y-68681000D03*
X115685000Y-68681000D03*
D20*
X120835000Y-65681000D03*
X115385000Y-65681000D03*
D21*
X125730000Y-106680000D03*
D22*
X125730000Y-104140000D03*
X128270000Y-106680000D03*
X128270000Y-104140000D03*
X130810000Y-106680000D03*
X130810000Y-104140000D03*
D17*
X156210000Y-133350000D03*
D18*
X158750000Y-133350000D03*
D17*
X165100000Y-133350000D03*
D18*
X167640000Y-133350000D03*
D23*
X139700000Y-77470000D03*
D24*
X142240000Y-77470000D03*
X144780000Y-77470000D03*
X147320000Y-77470000D03*
X149860000Y-77470000D03*
D25*
X117475000Y-86360000D03*
D26*
X117475000Y-85090000D03*
X117475000Y-83820000D03*
X117475000Y-82550000D03*
X117475000Y-81280000D03*
X116205000Y-85090000D03*
X116205000Y-83820000D03*
X116205000Y-82550000D03*
X116205000Y-81280000D03*
X116205000Y-86360000D03*
D17*
X144780000Y-133350000D03*
D18*
X147320000Y-133350000D03*
X149860000Y-133350000D03*
D17*
X128270000Y-133350000D03*
D18*
X130810000Y-133350000D03*
X133350000Y-133350000D03*
X135890000Y-133350000D03*
X138430000Y-133350000D03*
D27*
X140355000Y-101600000D03*
X142855000Y-101600000D03*
D28*
X149470000Y-102575000D03*
X151520000Y-102575000D03*
X149470000Y-101925000D03*
X151520000Y-101925000D03*
X149470000Y-101275000D03*
X151520000Y-101275000D03*
X149470000Y-100625000D03*
X151520000Y-100625000D03*
D29*
X178435000Y-123190000D03*
X173990000Y-123190000D03*
X169545000Y-123190000D03*
D30*
X114935000Y-71120000D03*
X127000000Y-81915000D03*
X135255000Y-88265000D03*
X130810000Y-90170000D03*
X142875000Y-80010000D03*
X186690000Y-106045000D03*
X186870000Y-118101000D03*
X118110000Y-77470000D03*
X159385000Y-104775000D03*
X164465000Y-100965000D03*
X171450000Y-96520000D03*
X169545000Y-96520000D03*
X133985000Y-76200000D03*
X149225000Y-103505000D03*
X151765000Y-91440000D03*
X148590000Y-91440000D03*
X123825000Y-90805000D03*
X142240000Y-92075000D03*
X163830000Y-107315000D03*
X163195000Y-112395000D03*
X158750000Y-116840000D03*
X137160000Y-115570000D03*
X153035000Y-97790000D03*
X147320000Y-100965000D03*
X137795000Y-109220000D03*
X134620000Y-93345000D03*
X134620000Y-95885000D03*
X138430000Y-108585000D03*
X133985000Y-95250000D03*
X133985000Y-92710000D03*
X116840000Y-114300000D03*
X135255000Y-89065003D03*
X139700000Y-106680000D03*
X185420000Y-67310000D03*
X163195000Y-106680000D03*
X158115000Y-107950000D03*
X187960000Y-69850000D03*
X161925000Y-105410000D03*
X158115000Y-106680000D03*
X150495000Y-98425000D03*
X151130000Y-97790000D03*
X161290000Y-104775000D03*
X158750000Y-106045000D03*
X162560000Y-106045000D03*
X158750000Y-107315000D03*
X149860000Y-86995000D03*
X161290000Y-100330000D03*
X166370000Y-100330000D03*
X179705000Y-83820000D03*
X163830000Y-80645000D03*
X166370000Y-84455000D03*
X138430000Y-125095000D03*
X138430000Y-130175000D03*
X131445000Y-93980000D03*
X128270000Y-93980000D03*
X160020000Y-93980000D03*
X160655000Y-93345000D03*
X118745000Y-83820000D03*
X138430000Y-80010000D03*
X136525000Y-120015000D03*
X141224000Y-118872000D03*
X158750000Y-95250000D03*
X120650000Y-100330000D03*
X120650000Y-86995000D03*
X120650000Y-102870000D03*
X121285000Y-87630000D03*
X150495000Y-110490000D03*
X159385000Y-94615000D03*
X139700000Y-118364000D03*
X157480000Y-96520000D03*
X134620000Y-120650000D03*
X158115000Y-95885000D03*
X149860000Y-88900000D03*
X149860000Y-93345000D03*
X133350000Y-78740000D03*
X148590000Y-98425000D03*
D31*
X114935000Y-71120000D02*
X114935000Y-80010000D01*
X114935000Y-80010000D02*
X116205000Y-81280000D01*
X130810000Y-90170000D02*
X130810000Y-88519000D01*
X130810000Y-88519000D02*
X130810000Y-88265000D01*
X131191000Y-88265000D02*
X131064000Y-88265000D01*
X131064000Y-88265000D02*
X130810000Y-88519000D01*
X131191000Y-88265000D02*
X130810000Y-88265000D01*
X133350000Y-88265000D02*
X131191000Y-88265000D01*
X130810000Y-88265000D02*
X130810000Y-88011000D01*
X130810000Y-88011000D02*
X130810000Y-85725000D01*
X131064000Y-88265000D02*
X130810000Y-88011000D01*
X127000000Y-81915000D02*
X130810000Y-85725000D01*
X133350000Y-88265000D02*
X135255000Y-88265000D01*
X142087600Y-79375000D02*
X142722600Y-80010000D01*
X142722600Y-80010000D02*
X142875000Y-80010000D01*
X139700000Y-76987400D02*
X142087600Y-79375000D01*
X186870000Y-118101000D02*
X186870000Y-106225000D01*
X186870000Y-106225000D02*
X186690000Y-106045000D01*
X133985000Y-76200000D02*
X119380000Y-76200000D01*
X119380000Y-76200000D02*
X118110000Y-77470000D01*
X164465000Y-100965000D02*
X161332396Y-100965000D01*
X161332396Y-100965000D02*
X159385000Y-102912396D01*
X159385000Y-102912396D02*
X159385000Y-104775000D01*
X169545000Y-96520000D02*
X171450000Y-96520000D01*
X149470000Y-102575000D02*
X149470000Y-103260000D01*
X149470000Y-103260000D02*
X149225000Y-103505000D01*
X148590000Y-91440000D02*
X151765000Y-91440000D01*
X148590000Y-91440000D02*
X142875000Y-91440000D01*
X142875000Y-91440000D02*
X142240000Y-92075000D01*
X139700000Y-76835000D02*
X139700000Y-76987400D01*
X123825000Y-95885000D02*
X123825000Y-90805000D01*
X149470000Y-102575000D02*
X142981472Y-102575000D01*
X142981472Y-102575000D02*
X142855000Y-102448528D01*
X142855000Y-102448528D02*
X142855000Y-101600000D01*
X163830000Y-107315000D02*
X163195000Y-107950000D01*
X163195000Y-107950000D02*
X163195000Y-109220000D01*
X163195000Y-109220000D02*
X163195000Y-112395000D01*
X158569010Y-122366944D02*
X161659046Y-125456980D01*
X179712066Y-70492066D02*
X176198000Y-66978000D01*
X161659046Y-125456980D02*
X189488888Y-125456980D01*
X189488888Y-125456980D02*
X190861980Y-124083888D01*
X176198000Y-66978000D02*
X173965000Y-66978000D01*
X190861980Y-124083888D02*
X190861980Y-74483056D01*
X190861980Y-74483056D02*
X186870990Y-70492066D01*
X186870990Y-70492066D02*
X179712066Y-70492066D01*
X158569010Y-117445254D02*
X158569010Y-122366944D01*
X158750000Y-116840000D02*
X158750000Y-117264264D01*
X158750000Y-117264264D02*
X158569010Y-117445254D01*
X153035000Y-103483802D02*
X153035000Y-102108000D01*
X153035000Y-102108000D02*
X153035000Y-101854000D01*
X152781000Y-101925000D02*
X152852000Y-101925000D01*
X152852000Y-101925000D02*
X153035000Y-102108000D01*
X152781000Y-101925000D02*
X152964000Y-101925000D01*
X151520000Y-101925000D02*
X152781000Y-101925000D01*
X153035000Y-97790000D02*
X153035000Y-101727000D01*
X153035000Y-101727000D02*
X153035000Y-101854000D01*
X152781000Y-101925000D02*
X152837000Y-101925000D01*
X152837000Y-101925000D02*
X153035000Y-101727000D01*
X137160000Y-115570000D02*
X140948802Y-115570000D01*
X140948802Y-115570000D02*
X153035000Y-103483802D01*
X152964000Y-101925000D02*
X153035000Y-101854000D01*
X149470000Y-101275000D02*
X147630000Y-101275000D01*
X147630000Y-101275000D02*
X147320000Y-100965000D01*
X150820000Y-101925000D02*
X150170000Y-101275000D01*
X150170000Y-101275000D02*
X149470000Y-101275000D01*
X151520000Y-101925000D02*
X150820000Y-101925000D01*
X137795000Y-109220000D02*
X126365000Y-109220000D01*
X125730000Y-108585000D02*
X125730000Y-106680000D01*
X126365000Y-109220000D02*
X125730000Y-108585000D01*
X134620000Y-95885000D02*
X134620000Y-93345000D01*
X128270000Y-106680000D02*
X128270000Y-107901314D01*
X128270000Y-107901314D02*
X128953686Y-108585000D01*
X128953686Y-108585000D02*
X138430000Y-108585000D01*
X133985000Y-92710000D02*
X133985000Y-95250000D01*
X114935000Y-105410000D02*
X114935000Y-105664000D01*
X114935000Y-105664000D02*
X114935000Y-112395000D01*
X115316000Y-105410000D02*
X115189000Y-105410000D01*
X115189000Y-105410000D02*
X114935000Y-105664000D01*
X115316000Y-105410000D02*
X114935000Y-105410000D01*
X114935000Y-105156000D02*
X114935000Y-105410000D01*
X129540000Y-105410000D02*
X115316000Y-105410000D01*
X114935000Y-85090000D02*
X114935000Y-105156000D01*
X115189000Y-105410000D02*
X114935000Y-105156000D01*
X139700000Y-106680000D02*
X136779000Y-106680000D01*
X136779000Y-106680000D02*
X136525000Y-106680000D01*
X136525000Y-106426000D02*
X136779000Y-106680000D01*
X136525000Y-106045000D02*
X136525000Y-91440000D01*
X136271000Y-106680000D02*
X130810000Y-106680000D01*
X136525000Y-106680000D02*
X136525000Y-106045000D01*
X136525000Y-106680000D02*
X136271000Y-106680000D01*
X136525000Y-106045000D02*
X136525000Y-106426000D01*
X136525000Y-106426000D02*
X136271000Y-106680000D01*
X114935000Y-112395000D02*
X116840000Y-114300000D01*
X116205000Y-83820000D02*
X114935000Y-85090000D01*
X130810000Y-106680000D02*
X129540000Y-105410000D01*
X136525000Y-91440000D02*
X135255000Y-90170000D01*
X135255000Y-90170000D02*
X135255000Y-89065003D01*
X185420000Y-67310000D02*
X185420000Y-68399010D01*
X185420000Y-68399010D02*
X191315990Y-74295000D01*
X191315990Y-74295000D02*
X191315990Y-124271944D01*
X191315990Y-124271944D02*
X189676944Y-125910990D01*
X189676944Y-125910990D02*
X161470990Y-125910990D01*
X161470990Y-125910990D02*
X158115000Y-122555000D01*
X158115000Y-122555000D02*
X158115000Y-107950000D01*
X163195000Y-106680000D02*
X161925000Y-107950000D01*
X161925000Y-107950000D02*
X158115000Y-107950000D01*
X189418056Y-71755000D02*
X191770000Y-74106944D01*
X187960000Y-69850000D02*
X187960000Y-70296944D01*
X187960000Y-70296944D02*
X189418056Y-71755000D01*
X191770000Y-124460000D02*
X191770000Y-74295000D01*
X191770000Y-74295000D02*
X191770000Y-74106943D01*
X191770000Y-74106944D02*
X191770000Y-74295000D01*
X161925000Y-105410000D02*
X160655000Y-106680000D01*
X160655000Y-106680000D02*
X158115000Y-106680000D01*
X158115000Y-106680000D02*
X157480000Y-107315000D01*
X157480000Y-107315000D02*
X157480000Y-108585000D01*
X157480000Y-108585000D02*
X157660991Y-108765991D01*
X157660991Y-108765991D02*
X157660991Y-122743057D01*
X157660991Y-122743057D02*
X161282934Y-126365000D01*
X161282934Y-126365000D02*
X189865000Y-126365000D01*
X189865000Y-126365000D02*
X191770000Y-124460000D01*
X150495000Y-98425000D02*
X151520000Y-99450000D01*
X151520000Y-99450000D02*
X151520000Y-100625000D01*
X151520000Y-101275000D02*
X152024000Y-101275000D01*
X152400000Y-99060000D02*
X151130000Y-97790000D01*
X152024000Y-101275000D02*
X152400000Y-100899000D01*
X152400000Y-100899000D02*
X152400000Y-99060000D01*
X161290000Y-104775000D02*
X160020000Y-106045000D01*
X160020000Y-106045000D02*
X158750000Y-106045000D01*
X162560000Y-106045000D02*
X161290000Y-107315000D01*
X161290000Y-107315000D02*
X158750000Y-107315000D01*
X149860000Y-86995000D02*
X154485990Y-91620990D01*
X154485990Y-91620990D02*
X154485990Y-102674878D01*
X154485990Y-102674878D02*
X140955868Y-116205000D01*
X136906000Y-116205000D02*
X133350000Y-119761000D01*
X140955868Y-116205000D02*
X136906000Y-116205000D01*
X133350000Y-119761000D02*
X133350000Y-133350000D01*
X161290000Y-100330000D02*
X166370000Y-100330000D01*
X173355000Y-79248000D02*
X177927000Y-83820000D01*
X177927000Y-83820000D02*
X179705000Y-83820000D01*
X173482000Y-79375000D02*
X173355000Y-79248000D01*
X166370000Y-84455000D02*
X163830000Y-81915000D01*
X163830000Y-81915000D02*
X163830000Y-80645000D01*
X138430000Y-130175000D02*
X138430000Y-125095000D01*
X128270000Y-93980000D02*
X131445000Y-93980000D01*
X160020000Y-93980000D02*
X160020000Y-100993264D01*
X160020000Y-100993264D02*
X151765000Y-109248264D01*
X142420991Y-124013057D02*
X143956944Y-125549010D01*
X151765000Y-109248264D02*
X151765000Y-110490000D01*
X151130000Y-111125000D02*
X149246198Y-111125000D01*
X151765000Y-110490000D02*
X151130000Y-111125000D01*
X142420991Y-117950207D02*
X142420991Y-124013057D01*
X143956944Y-125549010D02*
X155394010Y-125549010D01*
X149246198Y-111125000D02*
X142420991Y-117950207D01*
X156210000Y-126365000D02*
X156210000Y-133350000D01*
X155394010Y-125549010D02*
X156210000Y-126365000D01*
X160655000Y-93345000D02*
X160655000Y-101000330D01*
X160655000Y-101000330D02*
X152219010Y-109436320D01*
X152219010Y-109436320D02*
X152219010Y-110678057D01*
X155591000Y-125095000D02*
X163846000Y-133350000D01*
X163846000Y-133350000D02*
X165100000Y-133350000D01*
X152219010Y-110678057D02*
X151318057Y-111579009D01*
X151318057Y-111579009D02*
X149434255Y-111579009D01*
X142875000Y-123825000D02*
X144145000Y-125095000D01*
X149434255Y-111579009D02*
X142875000Y-118138264D01*
X142875000Y-118138264D02*
X142875000Y-123825000D01*
X144145000Y-125095000D02*
X155591000Y-125095000D01*
X117475000Y-85090000D02*
X118745000Y-83820000D01*
X146050000Y-81915000D02*
X154940000Y-90805000D01*
X139065000Y-80645000D02*
X144780000Y-80645000D01*
X144780000Y-80645000D02*
X146050000Y-81915000D01*
X138430000Y-80010000D02*
X139065000Y-80645000D01*
X136525000Y-117228067D02*
X136525000Y-120015000D01*
X154940000Y-90805000D02*
X154940000Y-102862934D01*
X154940000Y-102862934D02*
X140966467Y-116836467D01*
X140966467Y-116836467D02*
X136916600Y-116836467D01*
X136916600Y-116836467D02*
X136525000Y-117228067D01*
X141224000Y-118872000D02*
X141224000Y-118505132D01*
X141224000Y-118505132D02*
X158750000Y-100979132D01*
X158750000Y-100979132D02*
X158750000Y-95250000D01*
X120650000Y-86995000D02*
X120650000Y-100330000D01*
X121285000Y-87630000D02*
X121285000Y-101600000D01*
X121285000Y-101600000D02*
X120650000Y-102235000D01*
X120650000Y-102235000D02*
X120650000Y-102870000D01*
X159385000Y-100986198D02*
X150495000Y-109876198D01*
X150495000Y-110490000D02*
X150495000Y-109876198D01*
X159385000Y-94615000D02*
X159385000Y-100986198D01*
X140454933Y-117983000D02*
X141216933Y-117221000D01*
X139700000Y-118364000D02*
X140081000Y-118364000D01*
X140454933Y-117983000D02*
X140454933Y-117990067D01*
X140454933Y-117990067D02*
X140081000Y-118364000D01*
X141216933Y-117221000D02*
X141224000Y-117221000D01*
X157480000Y-100965000D02*
X141224000Y-117221000D01*
X157480000Y-96520000D02*
X157480000Y-100965000D01*
X140970000Y-118110000D02*
X140970000Y-118117067D01*
X140970000Y-118117067D02*
X138437067Y-120650000D01*
X138437067Y-120650000D02*
X134620000Y-120650000D01*
X140970000Y-118110000D02*
X140977066Y-118110000D01*
X140977066Y-118110000D02*
X158115000Y-100972066D01*
X158115000Y-100972066D02*
X158115000Y-95885000D01*
X149860000Y-88900000D02*
X149860000Y-88265000D01*
X144145000Y-82550000D02*
X139700000Y-82550000D01*
X149860000Y-88265000D02*
X144145000Y-82550000D01*
X139700000Y-82550000D02*
X135890000Y-78740000D01*
X135890000Y-78740000D02*
X135255000Y-78740000D01*
X135255000Y-78740000D02*
X133350000Y-78740000D01*
X149985856Y-95759144D02*
X149985856Y-93470856D01*
X149985856Y-93470856D02*
X149860000Y-93345000D01*
X149985856Y-95759144D02*
X149985856Y-97029144D01*
X149985856Y-97029144D02*
X148590000Y-98425000D01*
G36*
X165785725Y-64364431D02*
X165482496Y-64667132D01*
X165318187Y-65062832D01*
X165317813Y-65491289D01*
X165481431Y-65887275D01*
X165784132Y-66190504D01*
X166179832Y-66354813D01*
X166608289Y-66355187D01*
X167004275Y-66191569D01*
X167307504Y-65888868D01*
X167471813Y-65493168D01*
X167472187Y-65064711D01*
X167308569Y-64668725D01*
X167005868Y-64365496D01*
X166943263Y-64339500D01*
X175956063Y-64339500D01*
X175895725Y-64364431D01*
X175592496Y-64667132D01*
X175428187Y-65062832D01*
X175427813Y-65491289D01*
X175591431Y-65887275D01*
X175894132Y-66190504D01*
X176289832Y-66354813D01*
X176718289Y-66355187D01*
X177114275Y-66191569D01*
X177417504Y-65888868D01*
X177581813Y-65493168D01*
X177582187Y-65064711D01*
X177418569Y-64668725D01*
X177115868Y-64365496D01*
X177053263Y-64339500D01*
X182118000Y-64339500D01*
X182118000Y-70038066D01*
X179900119Y-70038066D01*
X176519026Y-66656974D01*
X176371738Y-66558559D01*
X176198000Y-66524000D01*
X174942727Y-66524000D01*
X174878569Y-66368725D01*
X174575868Y-66065496D01*
X174180168Y-65901187D01*
X173751711Y-65900813D01*
X173355725Y-66064431D01*
X173052496Y-66367132D01*
X172888187Y-66762832D01*
X172887813Y-67191289D01*
X173051431Y-67587275D01*
X173354132Y-67890504D01*
X173749832Y-68054813D01*
X174178289Y-68055187D01*
X174574275Y-67891569D01*
X174877504Y-67588868D01*
X174942641Y-67432000D01*
X176009948Y-67432000D01*
X179391040Y-70813093D01*
X179538328Y-70911507D01*
X179712066Y-70946066D01*
X182118000Y-70946066D01*
X182118000Y-72033247D01*
X181380011Y-72338178D01*
X180795232Y-72921938D01*
X180478361Y-73685047D01*
X180477640Y-74511328D01*
X180793178Y-75274989D01*
X181376938Y-75859768D01*
X182118000Y-76167484D01*
X182118000Y-81788000D01*
X176537053Y-81788000D01*
X174329129Y-79580076D01*
X174381821Y-79453179D01*
X174382178Y-79044613D01*
X174226156Y-78667011D01*
X173937508Y-78377860D01*
X173560179Y-78221179D01*
X173151613Y-78220822D01*
X172774011Y-78376844D01*
X172484860Y-78665492D01*
X172328179Y-79042821D01*
X172327822Y-79451387D01*
X172483844Y-79828989D01*
X172772492Y-80118140D01*
X173149821Y-80274821D01*
X173558387Y-80275178D01*
X173686989Y-80222041D01*
X175252948Y-81788000D01*
X164345052Y-81788000D01*
X164284000Y-81726948D01*
X164284000Y-81077731D01*
X164361235Y-81000631D01*
X164456891Y-80770265D01*
X164457109Y-80520829D01*
X164361855Y-80290297D01*
X164255020Y-80183275D01*
X164979331Y-80183275D01*
X165041169Y-80419042D01*
X165542122Y-80595419D01*
X166072440Y-80566664D01*
X166428831Y-80419042D01*
X166490669Y-80183275D01*
X165735000Y-79427605D01*
X164979331Y-80183275D01*
X164255020Y-80183275D01*
X164185631Y-80113765D01*
X163955265Y-80018109D01*
X163705829Y-80017891D01*
X163475297Y-80113145D01*
X163298765Y-80289369D01*
X163203109Y-80519735D01*
X163202891Y-80769171D01*
X163298145Y-80999703D01*
X163376000Y-81077694D01*
X163376000Y-81788000D01*
X158242000Y-81788000D01*
X158242000Y-79055122D01*
X164387581Y-79055122D01*
X164416336Y-79585440D01*
X164563958Y-79941831D01*
X164799725Y-80003669D01*
X165555395Y-79248000D01*
X165914605Y-79248000D01*
X166670275Y-80003669D01*
X166906042Y-79941831D01*
X167078718Y-79451387D01*
X167247822Y-79451387D01*
X167403844Y-79828989D01*
X167692492Y-80118140D01*
X168069821Y-80274821D01*
X168478387Y-80275178D01*
X168855989Y-80119156D01*
X169145140Y-79830508D01*
X169301821Y-79453179D01*
X169301822Y-79451387D01*
X169787822Y-79451387D01*
X169943844Y-79828989D01*
X170232492Y-80118140D01*
X170609821Y-80274821D01*
X171018387Y-80275178D01*
X171395989Y-80119156D01*
X171685140Y-79830508D01*
X171841821Y-79453179D01*
X171842178Y-79044613D01*
X171686156Y-78667011D01*
X171397508Y-78377860D01*
X171020179Y-78221179D01*
X170611613Y-78220822D01*
X170234011Y-78376844D01*
X169944860Y-78665492D01*
X169788179Y-79042821D01*
X169787822Y-79451387D01*
X169301822Y-79451387D01*
X169302178Y-79044613D01*
X169146156Y-78667011D01*
X168857508Y-78377860D01*
X168480179Y-78221179D01*
X168071613Y-78220822D01*
X167694011Y-78376844D01*
X167404860Y-78665492D01*
X167248179Y-79042821D01*
X167247822Y-79451387D01*
X167078718Y-79451387D01*
X167082419Y-79440878D01*
X167053664Y-78910560D01*
X166906042Y-78554169D01*
X166670275Y-78492331D01*
X165914605Y-79248000D01*
X165555395Y-79248000D01*
X164799725Y-78492331D01*
X164563958Y-78554169D01*
X164387581Y-79055122D01*
X158242000Y-79055122D01*
X158242000Y-78312725D01*
X164979331Y-78312725D01*
X165735000Y-79068395D01*
X166490669Y-78312725D01*
X166428831Y-78076958D01*
X165927878Y-77900581D01*
X165397560Y-77929336D01*
X165041169Y-78076958D01*
X164979331Y-78312725D01*
X158242000Y-78312725D01*
X158242000Y-76911387D01*
X165977822Y-76911387D01*
X166133844Y-77288989D01*
X166422492Y-77578140D01*
X166799821Y-77734821D01*
X167208387Y-77735178D01*
X167585989Y-77579156D01*
X167875140Y-77290508D01*
X168031821Y-76913179D01*
X168031822Y-76911387D01*
X168517822Y-76911387D01*
X168673844Y-77288989D01*
X168962492Y-77578140D01*
X169339821Y-77734821D01*
X169748387Y-77735178D01*
X170125989Y-77579156D01*
X170415140Y-77290508D01*
X170571821Y-76913179D01*
X170571822Y-76911387D01*
X171057822Y-76911387D01*
X171213844Y-77288989D01*
X171502492Y-77578140D01*
X171879821Y-77734821D01*
X172288387Y-77735178D01*
X172665989Y-77579156D01*
X172955140Y-77290508D01*
X173111821Y-76913179D01*
X173112178Y-76504613D01*
X172956156Y-76127011D01*
X172837353Y-76008000D01*
X173591594Y-76008000D01*
X173591594Y-77408000D01*
X173614395Y-77529179D01*
X173686012Y-77640474D01*
X173795286Y-77715138D01*
X173925000Y-77741406D01*
X175325000Y-77741406D01*
X175446179Y-77718605D01*
X175557474Y-77646988D01*
X175632138Y-77537714D01*
X175658406Y-77408000D01*
X175658406Y-76008000D01*
X175635605Y-75886821D01*
X175563988Y-75775526D01*
X175454714Y-75700862D01*
X175325000Y-75674594D01*
X173925000Y-75674594D01*
X173803821Y-75697395D01*
X173692526Y-75769012D01*
X173617862Y-75878286D01*
X173591594Y-76008000D01*
X172837353Y-76008000D01*
X172667508Y-75837860D01*
X172290179Y-75681179D01*
X171881613Y-75680822D01*
X171504011Y-75836844D01*
X171214860Y-76125492D01*
X171058179Y-76502821D01*
X171057822Y-76911387D01*
X170571822Y-76911387D01*
X170572178Y-76504613D01*
X170416156Y-76127011D01*
X170127508Y-75837860D01*
X169750179Y-75681179D01*
X169341613Y-75680822D01*
X168964011Y-75836844D01*
X168674860Y-76125492D01*
X168518179Y-76502821D01*
X168517822Y-76911387D01*
X168031822Y-76911387D01*
X168032178Y-76504613D01*
X167876156Y-76127011D01*
X167587508Y-75837860D01*
X167210179Y-75681179D01*
X166801613Y-75680822D01*
X166424011Y-75836844D01*
X166134860Y-76125492D01*
X165978179Y-76502821D01*
X165977822Y-76911387D01*
X158242000Y-76911387D01*
X158242000Y-74741320D01*
X161151285Y-74741320D01*
X161280533Y-75034123D01*
X161980806Y-75302388D01*
X162730435Y-75282250D01*
X163329467Y-75034123D01*
X163458715Y-74741320D01*
X176901285Y-74741320D01*
X177030533Y-75034123D01*
X177730806Y-75302388D01*
X178480435Y-75282250D01*
X179079467Y-75034123D01*
X179208715Y-74741320D01*
X178055000Y-73587605D01*
X176901285Y-74741320D01*
X163458715Y-74741320D01*
X162305000Y-73587605D01*
X161151285Y-74741320D01*
X158242000Y-74741320D01*
X158242000Y-73083806D01*
X160410612Y-73083806D01*
X160430750Y-73833435D01*
X160678877Y-74432467D01*
X160971680Y-74561715D01*
X162125395Y-73408000D01*
X160971680Y-72254285D01*
X160678877Y-72383533D01*
X160410612Y-73083806D01*
X158242000Y-73083806D01*
X158242000Y-72074680D01*
X161151285Y-72074680D01*
X162305000Y-73228395D01*
X162319143Y-73214253D01*
X162498748Y-73393858D01*
X162484605Y-73408000D01*
X163638320Y-74561715D01*
X163931123Y-74432467D01*
X164199388Y-73732194D01*
X164179250Y-72982565D01*
X163931123Y-72383533D01*
X163638322Y-72254286D01*
X163727324Y-72165284D01*
X164075020Y-72309660D01*
X164851573Y-72310338D01*
X165569275Y-72013790D01*
X166118860Y-71465163D01*
X166416660Y-70747980D01*
X166416662Y-70744573D01*
X173942662Y-70744573D01*
X174239210Y-71462275D01*
X174787837Y-72011860D01*
X175505020Y-72309660D01*
X176281573Y-72310338D01*
X176632663Y-72165271D01*
X176721678Y-72254286D01*
X176428877Y-72383533D01*
X176160612Y-73083806D01*
X176180750Y-73833435D01*
X176428877Y-74432467D01*
X176721680Y-74561715D01*
X177875395Y-73408000D01*
X178234605Y-73408000D01*
X179388320Y-74561715D01*
X179681123Y-74432467D01*
X179949388Y-73732194D01*
X179929250Y-72982565D01*
X179681123Y-72383533D01*
X179388320Y-72254285D01*
X178234605Y-73408000D01*
X177875395Y-73408000D01*
X177861253Y-73393858D01*
X178040858Y-73214253D01*
X178055000Y-73228395D01*
X179208715Y-72074680D01*
X179079467Y-71781877D01*
X178379194Y-71513612D01*
X177629565Y-71533750D01*
X177374188Y-71639531D01*
X177548860Y-71465163D01*
X177846660Y-70747980D01*
X177847338Y-69971427D01*
X177550790Y-69253725D01*
X177002163Y-68704140D01*
X176284980Y-68406340D01*
X175508427Y-68405662D01*
X174790725Y-68702210D01*
X174241140Y-69250837D01*
X173943340Y-69968020D01*
X173942662Y-70744573D01*
X166416662Y-70744573D01*
X166417338Y-69971427D01*
X166120790Y-69253725D01*
X165572163Y-68704140D01*
X164854980Y-68406340D01*
X164078427Y-68405662D01*
X163360725Y-68702210D01*
X162811140Y-69250837D01*
X162513340Y-69968020D01*
X162512662Y-70744573D01*
X162809210Y-71462275D01*
X163003660Y-71657065D01*
X162629194Y-71513612D01*
X161879565Y-71533750D01*
X161280533Y-71781877D01*
X161151285Y-72074680D01*
X158242000Y-72074680D01*
X158242000Y-67191289D01*
X162777813Y-67191289D01*
X162941431Y-67587275D01*
X163244132Y-67890504D01*
X163639832Y-68054813D01*
X164068289Y-68055187D01*
X164464275Y-67891569D01*
X164767504Y-67588868D01*
X164931813Y-67193168D01*
X164932187Y-66764711D01*
X164768569Y-66368725D01*
X164465868Y-66065496D01*
X164070168Y-65901187D01*
X163641711Y-65900813D01*
X163245725Y-66064431D01*
X162942496Y-66367132D01*
X162778187Y-66762832D01*
X162777813Y-67191289D01*
X158242000Y-67191289D01*
X158242000Y-64339500D01*
X165846063Y-64339500D01*
X165785725Y-64364431D01*
X165785725Y-64364431D01*
G37*
X165785725Y-64364431D02*
X165482496Y-64667132D01*
X165318187Y-65062832D01*
X165317813Y-65491289D01*
X165481431Y-65887275D01*
X165784132Y-66190504D01*
X166179832Y-66354813D01*
X166608289Y-66355187D01*
X167004275Y-66191569D01*
X167307504Y-65888868D01*
X167471813Y-65493168D01*
X167472187Y-65064711D01*
X167308569Y-64668725D01*
X167005868Y-64365496D01*
X166943263Y-64339500D01*
X175956063Y-64339500D01*
X175895725Y-64364431D01*
X175592496Y-64667132D01*
X175428187Y-65062832D01*
X175427813Y-65491289D01*
X175591431Y-65887275D01*
X175894132Y-66190504D01*
X176289832Y-66354813D01*
X176718289Y-66355187D01*
X177114275Y-66191569D01*
X177417504Y-65888868D01*
X177581813Y-65493168D01*
X177582187Y-65064711D01*
X177418569Y-64668725D01*
X177115868Y-64365496D01*
X177053263Y-64339500D01*
X182118000Y-64339500D01*
X182118000Y-70038066D01*
X179900119Y-70038066D01*
X176519026Y-66656974D01*
X176371738Y-66558559D01*
X176198000Y-66524000D01*
X174942727Y-66524000D01*
X174878569Y-66368725D01*
X174575868Y-66065496D01*
X174180168Y-65901187D01*
X173751711Y-65900813D01*
X173355725Y-66064431D01*
X173052496Y-66367132D01*
X172888187Y-66762832D01*
X172887813Y-67191289D01*
X173051431Y-67587275D01*
X173354132Y-67890504D01*
X173749832Y-68054813D01*
X174178289Y-68055187D01*
X174574275Y-67891569D01*
X174877504Y-67588868D01*
X174942641Y-67432000D01*
X176009948Y-67432000D01*
X179391040Y-70813093D01*
X179538328Y-70911507D01*
X179712066Y-70946066D01*
X182118000Y-70946066D01*
X182118000Y-72033247D01*
X181380011Y-72338178D01*
X180795232Y-72921938D01*
X180478361Y-73685047D01*
X180477640Y-74511328D01*
X180793178Y-75274989D01*
X181376938Y-75859768D01*
X182118000Y-76167484D01*
X182118000Y-81788000D01*
X176537053Y-81788000D01*
X174329129Y-79580076D01*
X174381821Y-79453179D01*
X174382178Y-79044613D01*
X174226156Y-78667011D01*
X173937508Y-78377860D01*
X173560179Y-78221179D01*
X173151613Y-78220822D01*
X172774011Y-78376844D01*
X172484860Y-78665492D01*
X172328179Y-79042821D01*
X172327822Y-79451387D01*
X172483844Y-79828989D01*
X172772492Y-80118140D01*
X173149821Y-80274821D01*
X173558387Y-80275178D01*
X173686989Y-80222041D01*
X175252948Y-81788000D01*
X164345052Y-81788000D01*
X164284000Y-81726948D01*
X164284000Y-81077731D01*
X164361235Y-81000631D01*
X164456891Y-80770265D01*
X164457109Y-80520829D01*
X164361855Y-80290297D01*
X164255020Y-80183275D01*
X164979331Y-80183275D01*
X165041169Y-80419042D01*
X165542122Y-80595419D01*
X166072440Y-80566664D01*
X166428831Y-80419042D01*
X166490669Y-80183275D01*
X165735000Y-79427605D01*
X164979331Y-80183275D01*
X164255020Y-80183275D01*
X164185631Y-80113765D01*
X163955265Y-80018109D01*
X163705829Y-80017891D01*
X163475297Y-80113145D01*
X163298765Y-80289369D01*
X163203109Y-80519735D01*
X163202891Y-80769171D01*
X163298145Y-80999703D01*
X163376000Y-81077694D01*
X163376000Y-81788000D01*
X158242000Y-81788000D01*
X158242000Y-79055122D01*
X164387581Y-79055122D01*
X164416336Y-79585440D01*
X164563958Y-79941831D01*
X164799725Y-80003669D01*
X165555395Y-79248000D01*
X165914605Y-79248000D01*
X166670275Y-80003669D01*
X166906042Y-79941831D01*
X167078718Y-79451387D01*
X167247822Y-79451387D01*
X167403844Y-79828989D01*
X167692492Y-80118140D01*
X168069821Y-80274821D01*
X168478387Y-80275178D01*
X168855989Y-80119156D01*
X169145140Y-79830508D01*
X169301821Y-79453179D01*
X169301822Y-79451387D01*
X169787822Y-79451387D01*
X169943844Y-79828989D01*
X170232492Y-80118140D01*
X170609821Y-80274821D01*
X171018387Y-80275178D01*
X171395989Y-80119156D01*
X171685140Y-79830508D01*
X171841821Y-79453179D01*
X171842178Y-79044613D01*
X171686156Y-78667011D01*
X171397508Y-78377860D01*
X171020179Y-78221179D01*
X170611613Y-78220822D01*
X170234011Y-78376844D01*
X169944860Y-78665492D01*
X169788179Y-79042821D01*
X169787822Y-79451387D01*
X169301822Y-79451387D01*
X169302178Y-79044613D01*
X169146156Y-78667011D01*
X168857508Y-78377860D01*
X168480179Y-78221179D01*
X168071613Y-78220822D01*
X167694011Y-78376844D01*
X167404860Y-78665492D01*
X167248179Y-79042821D01*
X167247822Y-79451387D01*
X167078718Y-79451387D01*
X167082419Y-79440878D01*
X167053664Y-78910560D01*
X166906042Y-78554169D01*
X166670275Y-78492331D01*
X165914605Y-79248000D01*
X165555395Y-79248000D01*
X164799725Y-78492331D01*
X164563958Y-78554169D01*
X164387581Y-79055122D01*
X158242000Y-79055122D01*
X158242000Y-78312725D01*
X164979331Y-78312725D01*
X165735000Y-79068395D01*
X166490669Y-78312725D01*
X166428831Y-78076958D01*
X165927878Y-77900581D01*
X165397560Y-77929336D01*
X165041169Y-78076958D01*
X164979331Y-78312725D01*
X158242000Y-78312725D01*
X158242000Y-76911387D01*
X165977822Y-76911387D01*
X166133844Y-77288989D01*
X166422492Y-77578140D01*
X166799821Y-77734821D01*
X167208387Y-77735178D01*
X167585989Y-77579156D01*
X167875140Y-77290508D01*
X168031821Y-76913179D01*
X168031822Y-76911387D01*
X168517822Y-76911387D01*
X168673844Y-77288989D01*
X168962492Y-77578140D01*
X169339821Y-77734821D01*
X169748387Y-77735178D01*
X170125989Y-77579156D01*
X170415140Y-77290508D01*
X170571821Y-76913179D01*
X170571822Y-76911387D01*
X171057822Y-76911387D01*
X171213844Y-77288989D01*
X171502492Y-77578140D01*
X171879821Y-77734821D01*
X172288387Y-77735178D01*
X172665989Y-77579156D01*
X172955140Y-77290508D01*
X173111821Y-76913179D01*
X173112178Y-76504613D01*
X172956156Y-76127011D01*
X172837353Y-76008000D01*
X173591594Y-76008000D01*
X173591594Y-77408000D01*
X173614395Y-77529179D01*
X173686012Y-77640474D01*
X173795286Y-77715138D01*
X173925000Y-77741406D01*
X175325000Y-77741406D01*
X175446179Y-77718605D01*
X175557474Y-77646988D01*
X175632138Y-77537714D01*
X175658406Y-77408000D01*
X175658406Y-76008000D01*
X175635605Y-75886821D01*
X175563988Y-75775526D01*
X175454714Y-75700862D01*
X175325000Y-75674594D01*
X173925000Y-75674594D01*
X173803821Y-75697395D01*
X173692526Y-75769012D01*
X173617862Y-75878286D01*
X173591594Y-76008000D01*
X172837353Y-76008000D01*
X172667508Y-75837860D01*
X172290179Y-75681179D01*
X171881613Y-75680822D01*
X171504011Y-75836844D01*
X171214860Y-76125492D01*
X171058179Y-76502821D01*
X171057822Y-76911387D01*
X170571822Y-76911387D01*
X170572178Y-76504613D01*
X170416156Y-76127011D01*
X170127508Y-75837860D01*
X169750179Y-75681179D01*
X169341613Y-75680822D01*
X168964011Y-75836844D01*
X168674860Y-76125492D01*
X168518179Y-76502821D01*
X168517822Y-76911387D01*
X168031822Y-76911387D01*
X168032178Y-76504613D01*
X167876156Y-76127011D01*
X167587508Y-75837860D01*
X167210179Y-75681179D01*
X166801613Y-75680822D01*
X166424011Y-75836844D01*
X166134860Y-76125492D01*
X165978179Y-76502821D01*
X165977822Y-76911387D01*
X158242000Y-76911387D01*
X158242000Y-74741320D01*
X161151285Y-74741320D01*
X161280533Y-75034123D01*
X161980806Y-75302388D01*
X162730435Y-75282250D01*
X163329467Y-75034123D01*
X163458715Y-74741320D01*
X176901285Y-74741320D01*
X177030533Y-75034123D01*
X177730806Y-75302388D01*
X178480435Y-75282250D01*
X179079467Y-75034123D01*
X179208715Y-74741320D01*
X178055000Y-73587605D01*
X176901285Y-74741320D01*
X163458715Y-74741320D01*
X162305000Y-73587605D01*
X161151285Y-74741320D01*
X158242000Y-74741320D01*
X158242000Y-73083806D01*
X160410612Y-73083806D01*
X160430750Y-73833435D01*
X160678877Y-74432467D01*
X160971680Y-74561715D01*
X162125395Y-73408000D01*
X160971680Y-72254285D01*
X160678877Y-72383533D01*
X160410612Y-73083806D01*
X158242000Y-73083806D01*
X158242000Y-72074680D01*
X161151285Y-72074680D01*
X162305000Y-73228395D01*
X162319143Y-73214253D01*
X162498748Y-73393858D01*
X162484605Y-73408000D01*
X163638320Y-74561715D01*
X163931123Y-74432467D01*
X164199388Y-73732194D01*
X164179250Y-72982565D01*
X163931123Y-72383533D01*
X163638322Y-72254286D01*
X163727324Y-72165284D01*
X164075020Y-72309660D01*
X164851573Y-72310338D01*
X165569275Y-72013790D01*
X166118860Y-71465163D01*
X166416660Y-70747980D01*
X166416662Y-70744573D01*
X173942662Y-70744573D01*
X174239210Y-71462275D01*
X174787837Y-72011860D01*
X175505020Y-72309660D01*
X176281573Y-72310338D01*
X176632663Y-72165271D01*
X176721678Y-72254286D01*
X176428877Y-72383533D01*
X176160612Y-73083806D01*
X176180750Y-73833435D01*
X176428877Y-74432467D01*
X176721680Y-74561715D01*
X177875395Y-73408000D01*
X178234605Y-73408000D01*
X179388320Y-74561715D01*
X179681123Y-74432467D01*
X179949388Y-73732194D01*
X179929250Y-72982565D01*
X179681123Y-72383533D01*
X179388320Y-72254285D01*
X178234605Y-73408000D01*
X177875395Y-73408000D01*
X177861253Y-73393858D01*
X178040858Y-73214253D01*
X178055000Y-73228395D01*
X179208715Y-72074680D01*
X179079467Y-71781877D01*
X178379194Y-71513612D01*
X177629565Y-71533750D01*
X177374188Y-71639531D01*
X177548860Y-71465163D01*
X177846660Y-70747980D01*
X177847338Y-69971427D01*
X177550790Y-69253725D01*
X177002163Y-68704140D01*
X176284980Y-68406340D01*
X175508427Y-68405662D01*
X174790725Y-68702210D01*
X174241140Y-69250837D01*
X173943340Y-69968020D01*
X173942662Y-70744573D01*
X166416662Y-70744573D01*
X166417338Y-69971427D01*
X166120790Y-69253725D01*
X165572163Y-68704140D01*
X164854980Y-68406340D01*
X164078427Y-68405662D01*
X163360725Y-68702210D01*
X162811140Y-69250837D01*
X162513340Y-69968020D01*
X162512662Y-70744573D01*
X162809210Y-71462275D01*
X163003660Y-71657065D01*
X162629194Y-71513612D01*
X161879565Y-71533750D01*
X161280533Y-71781877D01*
X161151285Y-72074680D01*
X158242000Y-72074680D01*
X158242000Y-67191289D01*
X162777813Y-67191289D01*
X162941431Y-67587275D01*
X163244132Y-67890504D01*
X163639832Y-68054813D01*
X164068289Y-68055187D01*
X164464275Y-67891569D01*
X164767504Y-67588868D01*
X164931813Y-67193168D01*
X164932187Y-66764711D01*
X164768569Y-66368725D01*
X164465868Y-66065496D01*
X164070168Y-65901187D01*
X163641711Y-65900813D01*
X163245725Y-66064431D01*
X162942496Y-66367132D01*
X162778187Y-66762832D01*
X162777813Y-67191289D01*
X158242000Y-67191289D01*
X158242000Y-64339500D01*
X165846063Y-64339500D01*
X165785725Y-64364431D01*
G36*
X114555875Y-64499067D02*
X114262353Y-64887299D01*
X114139744Y-65358304D01*
X114302453Y-65554000D01*
X115258000Y-65554000D01*
X115258000Y-65534000D01*
X115512000Y-65534000D01*
X115512000Y-65554000D01*
X116467547Y-65554000D01*
X116630256Y-65358304D01*
X116507647Y-64887299D01*
X116214125Y-64499067D01*
X115942246Y-64339500D01*
X120277754Y-64339500D01*
X120005875Y-64499067D01*
X119712353Y-64887299D01*
X119589744Y-65358304D01*
X119752453Y-65554000D01*
X120708000Y-65554000D01*
X120708000Y-65534000D01*
X120962000Y-65534000D01*
X120962000Y-65554000D01*
X121917547Y-65554000D01*
X122080256Y-65358304D01*
X121957647Y-64887299D01*
X121664125Y-64499067D01*
X121392246Y-64339500D01*
X122428000Y-64339500D01*
X122428000Y-70358000D01*
X113792000Y-70358000D01*
X113792000Y-68994883D01*
X114499320Y-68994883D01*
X114633156Y-69439954D01*
X114927125Y-69799929D01*
X115336474Y-70020006D01*
X115375256Y-70024803D01*
X115558000Y-69899361D01*
X115558000Y-68808000D01*
X115812000Y-68808000D01*
X115812000Y-69899361D01*
X115994744Y-70024803D01*
X116033526Y-70020006D01*
X116442875Y-69799929D01*
X116736844Y-69439954D01*
X116870680Y-68994883D01*
X119349320Y-68994883D01*
X119483156Y-69439954D01*
X119777125Y-69799929D01*
X120186474Y-70020006D01*
X120225256Y-70024803D01*
X120408000Y-69899361D01*
X120408000Y-68808000D01*
X120662000Y-68808000D01*
X120662000Y-69899361D01*
X120844744Y-70024803D01*
X120883526Y-70020006D01*
X121292875Y-69799929D01*
X121586844Y-69439954D01*
X121720680Y-68994883D01*
X121565148Y-68808000D01*
X120662000Y-68808000D01*
X120408000Y-68808000D01*
X119504852Y-68808000D01*
X119349320Y-68994883D01*
X116870680Y-68994883D01*
X116715148Y-68808000D01*
X115812000Y-68808000D01*
X115558000Y-68808000D01*
X114654852Y-68808000D01*
X114499320Y-68994883D01*
X113792000Y-68994883D01*
X113792000Y-68367117D01*
X114499320Y-68367117D01*
X114654852Y-68554000D01*
X115558000Y-68554000D01*
X115558000Y-67462639D01*
X115812000Y-67462639D01*
X115812000Y-68554000D01*
X116715148Y-68554000D01*
X116870680Y-68367117D01*
X119349320Y-68367117D01*
X119504852Y-68554000D01*
X120408000Y-68554000D01*
X120408000Y-67462639D01*
X120662000Y-67462639D01*
X120662000Y-68554000D01*
X121565148Y-68554000D01*
X121720680Y-68367117D01*
X121586844Y-67922046D01*
X121292875Y-67562071D01*
X120883526Y-67341994D01*
X120844744Y-67337197D01*
X120662000Y-67462639D01*
X120408000Y-67462639D01*
X120225256Y-67337197D01*
X120186474Y-67341994D01*
X119777125Y-67562071D01*
X119483156Y-67922046D01*
X119349320Y-68367117D01*
X116870680Y-68367117D01*
X116736844Y-67922046D01*
X116442875Y-67562071D01*
X116033526Y-67341994D01*
X115994744Y-67337197D01*
X115812000Y-67462639D01*
X115558000Y-67462639D01*
X115375256Y-67337197D01*
X115336474Y-67341994D01*
X114927125Y-67562071D01*
X114633156Y-67922046D01*
X114499320Y-68367117D01*
X113792000Y-68367117D01*
X113792000Y-66003696D01*
X114139744Y-66003696D01*
X114262353Y-66474701D01*
X114555875Y-66862933D01*
X114975624Y-67109286D01*
X115067391Y-67124462D01*
X115258000Y-66999731D01*
X115258000Y-65808000D01*
X115512000Y-65808000D01*
X115512000Y-66999731D01*
X115702609Y-67124462D01*
X115794376Y-67109286D01*
X116214125Y-66862933D01*
X116507647Y-66474701D01*
X116630256Y-66003696D01*
X119589744Y-66003696D01*
X119712353Y-66474701D01*
X120005875Y-66862933D01*
X120425624Y-67109286D01*
X120517391Y-67124462D01*
X120708000Y-66999731D01*
X120708000Y-65808000D01*
X120962000Y-65808000D01*
X120962000Y-66999731D01*
X121152609Y-67124462D01*
X121244376Y-67109286D01*
X121664125Y-66862933D01*
X121957647Y-66474701D01*
X122080256Y-66003696D01*
X121917547Y-65808000D01*
X120962000Y-65808000D01*
X120708000Y-65808000D01*
X119752453Y-65808000D01*
X119589744Y-66003696D01*
X116630256Y-66003696D01*
X116467547Y-65808000D01*
X115512000Y-65808000D01*
X115258000Y-65808000D01*
X114302453Y-65808000D01*
X114139744Y-66003696D01*
X113792000Y-66003696D01*
X113792000Y-64339500D01*
X114827754Y-64339500D01*
X114555875Y-64499067D01*
X114555875Y-64499067D01*
G37*
X114555875Y-64499067D02*
X114262353Y-64887299D01*
X114139744Y-65358304D01*
X114302453Y-65554000D01*
X115258000Y-65554000D01*
X115258000Y-65534000D01*
X115512000Y-65534000D01*
X115512000Y-65554000D01*
X116467547Y-65554000D01*
X116630256Y-65358304D01*
X116507647Y-64887299D01*
X116214125Y-64499067D01*
X115942246Y-64339500D01*
X120277754Y-64339500D01*
X120005875Y-64499067D01*
X119712353Y-64887299D01*
X119589744Y-65358304D01*
X119752453Y-65554000D01*
X120708000Y-65554000D01*
X120708000Y-65534000D01*
X120962000Y-65534000D01*
X120962000Y-65554000D01*
X121917547Y-65554000D01*
X122080256Y-65358304D01*
X121957647Y-64887299D01*
X121664125Y-64499067D01*
X121392246Y-64339500D01*
X122428000Y-64339500D01*
X122428000Y-70358000D01*
X113792000Y-70358000D01*
X113792000Y-68994883D01*
X114499320Y-68994883D01*
X114633156Y-69439954D01*
X114927125Y-69799929D01*
X115336474Y-70020006D01*
X115375256Y-70024803D01*
X115558000Y-69899361D01*
X115558000Y-68808000D01*
X115812000Y-68808000D01*
X115812000Y-69899361D01*
X115994744Y-70024803D01*
X116033526Y-70020006D01*
X116442875Y-69799929D01*
X116736844Y-69439954D01*
X116870680Y-68994883D01*
X119349320Y-68994883D01*
X119483156Y-69439954D01*
X119777125Y-69799929D01*
X120186474Y-70020006D01*
X120225256Y-70024803D01*
X120408000Y-69899361D01*
X120408000Y-68808000D01*
X120662000Y-68808000D01*
X120662000Y-69899361D01*
X120844744Y-70024803D01*
X120883526Y-70020006D01*
X121292875Y-69799929D01*
X121586844Y-69439954D01*
X121720680Y-68994883D01*
X121565148Y-68808000D01*
X120662000Y-68808000D01*
X120408000Y-68808000D01*
X119504852Y-68808000D01*
X119349320Y-68994883D01*
X116870680Y-68994883D01*
X116715148Y-68808000D01*
X115812000Y-68808000D01*
X115558000Y-68808000D01*
X114654852Y-68808000D01*
X114499320Y-68994883D01*
X113792000Y-68994883D01*
X113792000Y-68367117D01*
X114499320Y-68367117D01*
X114654852Y-68554000D01*
X115558000Y-68554000D01*
X115558000Y-67462639D01*
X115812000Y-67462639D01*
X115812000Y-68554000D01*
X116715148Y-68554000D01*
X116870680Y-68367117D01*
X119349320Y-68367117D01*
X119504852Y-68554000D01*
X120408000Y-68554000D01*
X120408000Y-67462639D01*
X120662000Y-67462639D01*
X120662000Y-68554000D01*
X121565148Y-68554000D01*
X121720680Y-68367117D01*
X121586844Y-67922046D01*
X121292875Y-67562071D01*
X120883526Y-67341994D01*
X120844744Y-67337197D01*
X120662000Y-67462639D01*
X120408000Y-67462639D01*
X120225256Y-67337197D01*
X120186474Y-67341994D01*
X119777125Y-67562071D01*
X119483156Y-67922046D01*
X119349320Y-68367117D01*
X116870680Y-68367117D01*
X116736844Y-67922046D01*
X116442875Y-67562071D01*
X116033526Y-67341994D01*
X115994744Y-67337197D01*
X115812000Y-67462639D01*
X115558000Y-67462639D01*
X115375256Y-67337197D01*
X115336474Y-67341994D01*
X114927125Y-67562071D01*
X114633156Y-67922046D01*
X114499320Y-68367117D01*
X113792000Y-68367117D01*
X113792000Y-66003696D01*
X114139744Y-66003696D01*
X114262353Y-66474701D01*
X114555875Y-66862933D01*
X114975624Y-67109286D01*
X115067391Y-67124462D01*
X115258000Y-66999731D01*
X115258000Y-65808000D01*
X115512000Y-65808000D01*
X115512000Y-66999731D01*
X115702609Y-67124462D01*
X115794376Y-67109286D01*
X116214125Y-66862933D01*
X116507647Y-66474701D01*
X116630256Y-66003696D01*
X119589744Y-66003696D01*
X119712353Y-66474701D01*
X120005875Y-66862933D01*
X120425624Y-67109286D01*
X120517391Y-67124462D01*
X120708000Y-66999731D01*
X120708000Y-65808000D01*
X120962000Y-65808000D01*
X120962000Y-66999731D01*
X121152609Y-67124462D01*
X121244376Y-67109286D01*
X121664125Y-66862933D01*
X121957647Y-66474701D01*
X122080256Y-66003696D01*
X121917547Y-65808000D01*
X120962000Y-65808000D01*
X120708000Y-65808000D01*
X119752453Y-65808000D01*
X119589744Y-66003696D01*
X116630256Y-66003696D01*
X116467547Y-65808000D01*
X115512000Y-65808000D01*
X115258000Y-65808000D01*
X114302453Y-65808000D01*
X114139744Y-66003696D01*
X113792000Y-66003696D01*
X113792000Y-64339500D01*
X114827754Y-64339500D01*
X114555875Y-64499067D01*
D32*
G36*
X113540000Y-70485000D02*
X113548549Y-70530432D01*
X113575399Y-70572159D01*
X113616368Y-70600152D01*
X113665000Y-70610000D01*
X122555000Y-70610000D01*
X122600432Y-70601451D01*
X122642159Y-70574601D01*
X122670152Y-70533632D01*
X122680000Y-70485000D01*
X122680000Y-67930000D01*
X129295592Y-67930000D01*
X129295592Y-69230000D01*
X129311281Y-69313380D01*
X129360559Y-69389960D01*
X129435747Y-69441334D01*
X129525000Y-69459408D01*
X130825000Y-69459408D01*
X130908380Y-69443719D01*
X130984960Y-69394441D01*
X131036334Y-69319253D01*
X131054408Y-69230000D01*
X131054408Y-67930000D01*
X131038719Y-67846620D01*
X130989441Y-67770040D01*
X130914253Y-67718666D01*
X130825000Y-67700592D01*
X130618406Y-67700592D01*
X130685813Y-67672672D01*
X130754264Y-67483119D01*
X130175000Y-66903855D01*
X129595736Y-67483119D01*
X129664187Y-67672672D01*
X129777810Y-67700592D01*
X129525000Y-67700592D01*
X129441620Y-67716281D01*
X129365040Y-67765559D01*
X129313666Y-67840747D01*
X129295592Y-67930000D01*
X122680000Y-67930000D01*
X122680000Y-66526217D01*
X128970024Y-66526217D01*
X129041166Y-66991436D01*
X129082328Y-67090813D01*
X129271881Y-67159264D01*
X129851145Y-66580000D01*
X130498855Y-66580000D01*
X131078119Y-67159264D01*
X131267672Y-67090813D01*
X131379976Y-66633783D01*
X131308834Y-66168564D01*
X131267672Y-66069187D01*
X131078119Y-66000736D01*
X130498855Y-66580000D01*
X129851145Y-66580000D01*
X129271881Y-66000736D01*
X129082328Y-66069187D01*
X128970024Y-66526217D01*
X122680000Y-66526217D01*
X122680000Y-65676881D01*
X129595736Y-65676881D01*
X130175000Y-66256145D01*
X130754264Y-65676881D01*
X130685813Y-65487328D01*
X130228783Y-65375024D01*
X129763564Y-65446166D01*
X129664187Y-65487328D01*
X129595736Y-65676881D01*
X122680000Y-65676881D01*
X122680000Y-64187500D01*
X157990000Y-64187500D01*
X157990000Y-81915000D01*
X157998549Y-81960432D01*
X158025399Y-82002159D01*
X158066368Y-82030152D01*
X158115000Y-82040000D01*
X163502864Y-82040000D01*
X163504794Y-82049705D01*
X163581098Y-82163902D01*
X165845024Y-84427827D01*
X165844909Y-84558971D01*
X165924667Y-84752000D01*
X166072223Y-84899814D01*
X166265113Y-84979908D01*
X166473971Y-84980091D01*
X166667000Y-84900333D01*
X166814814Y-84752777D01*
X166894908Y-84559887D01*
X166895091Y-84351029D01*
X166815333Y-84158000D01*
X166667777Y-84010186D01*
X166474887Y-83930092D01*
X166342779Y-83929976D01*
X164452804Y-82040000D01*
X175649197Y-82040000D01*
X177678096Y-84068899D01*
X177678098Y-84068902D01*
X177750082Y-84117000D01*
X177792295Y-84145206D01*
X177927000Y-84172000D01*
X179314571Y-84172000D01*
X179407223Y-84264814D01*
X179600113Y-84344908D01*
X179808971Y-84345091D01*
X180002000Y-84265333D01*
X180149814Y-84117777D01*
X180229908Y-83924887D01*
X180230091Y-83716029D01*
X180150333Y-83523000D01*
X180002777Y-83375186D01*
X179809887Y-83295092D01*
X179601029Y-83294909D01*
X179408000Y-83374667D01*
X179314504Y-83468000D01*
X178072803Y-83468000D01*
X176644803Y-82040000D01*
X182245000Y-82040000D01*
X182290432Y-82031451D01*
X182332159Y-82004601D01*
X182360152Y-81963632D01*
X182370000Y-81915000D01*
X182370000Y-76074840D01*
X182946128Y-76075343D01*
X183672286Y-75775300D01*
X184228348Y-75220209D01*
X184529657Y-74494575D01*
X184530343Y-73708872D01*
X184230300Y-72982714D01*
X183675209Y-72426652D01*
X182949575Y-72125343D01*
X182370000Y-72124837D01*
X182370000Y-70844066D01*
X186725186Y-70844066D01*
X190509980Y-74628859D01*
X190509980Y-123938085D01*
X189343084Y-125104980D01*
X161804849Y-125104980D01*
X160734947Y-124035077D01*
X169023778Y-124035077D01*
X169082167Y-124216633D01*
X169510274Y-124315604D01*
X169943667Y-124243212D01*
X170007833Y-124216633D01*
X170066222Y-124035077D01*
X169545000Y-123513855D01*
X169023778Y-124035077D01*
X160734947Y-124035077D01*
X159855144Y-123155274D01*
X168419396Y-123155274D01*
X168491788Y-123588667D01*
X168518367Y-123652833D01*
X168699923Y-123711222D01*
X169221145Y-123190000D01*
X169868855Y-123190000D01*
X170390077Y-123711222D01*
X170571633Y-123652833D01*
X170642165Y-123347738D01*
X173193362Y-123347738D01*
X173314367Y-123640591D01*
X173538230Y-123864846D01*
X173830871Y-123986361D01*
X174147738Y-123986638D01*
X174440591Y-123865633D01*
X174664846Y-123641770D01*
X174786361Y-123349129D01*
X174786362Y-123347738D01*
X177638362Y-123347738D01*
X177759367Y-123640591D01*
X177983230Y-123864846D01*
X178275871Y-123986361D01*
X178592738Y-123986638D01*
X178885591Y-123865633D01*
X179109846Y-123641770D01*
X179231361Y-123349129D01*
X179231513Y-123175000D01*
X182000592Y-123175000D01*
X182000592Y-124475000D01*
X182016281Y-124558380D01*
X182065559Y-124634960D01*
X182140747Y-124686334D01*
X182230000Y-124704408D01*
X183530000Y-124704408D01*
X183613380Y-124688719D01*
X183689960Y-124639441D01*
X183741334Y-124564253D01*
X183759408Y-124475000D01*
X183759408Y-123175000D01*
X183743719Y-123091620D01*
X183694441Y-123015040D01*
X183619253Y-122963666D01*
X183530000Y-122945592D01*
X183323406Y-122945592D01*
X183390813Y-122917672D01*
X183459264Y-122728119D01*
X182880000Y-122148855D01*
X182300736Y-122728119D01*
X182369187Y-122917672D01*
X182482810Y-122945592D01*
X182230000Y-122945592D01*
X182146620Y-122961281D01*
X182070040Y-123010559D01*
X182018666Y-123085747D01*
X182000592Y-123175000D01*
X179231513Y-123175000D01*
X179231638Y-123032262D01*
X179110633Y-122739409D01*
X178886770Y-122515154D01*
X178594129Y-122393639D01*
X178277262Y-122393362D01*
X177984409Y-122514367D01*
X177760154Y-122738230D01*
X177638639Y-123030871D01*
X177638362Y-123347738D01*
X174786362Y-123347738D01*
X174786638Y-123032262D01*
X174665633Y-122739409D01*
X174441770Y-122515154D01*
X174149129Y-122393639D01*
X173832262Y-122393362D01*
X173539409Y-122514367D01*
X173315154Y-122738230D01*
X173193639Y-123030871D01*
X173193362Y-123347738D01*
X170642165Y-123347738D01*
X170670604Y-123224726D01*
X170598212Y-122791333D01*
X170571633Y-122727167D01*
X170390077Y-122668778D01*
X169868855Y-123190000D01*
X169221145Y-123190000D01*
X168699923Y-122668778D01*
X168518367Y-122727167D01*
X168419396Y-123155274D01*
X159855144Y-123155274D01*
X159044793Y-122344923D01*
X169023778Y-122344923D01*
X169545000Y-122866145D01*
X170066222Y-122344923D01*
X170007833Y-122163367D01*
X169579726Y-122064396D01*
X169146333Y-122136788D01*
X169082167Y-122163367D01*
X169023778Y-122344923D01*
X159044793Y-122344923D01*
X158921010Y-122221140D01*
X158921010Y-121771217D01*
X181675024Y-121771217D01*
X181746166Y-122236436D01*
X181787328Y-122335813D01*
X181976881Y-122404264D01*
X182556145Y-121825000D01*
X183203855Y-121825000D01*
X183783119Y-122404264D01*
X183972672Y-122335813D01*
X184084976Y-121878783D01*
X184013834Y-121413564D01*
X183972672Y-121314187D01*
X183783119Y-121245736D01*
X183203855Y-121825000D01*
X182556145Y-121825000D01*
X181976881Y-121245736D01*
X181787328Y-121314187D01*
X181675024Y-121771217D01*
X158921010Y-121771217D01*
X158921010Y-120921881D01*
X182300736Y-120921881D01*
X182880000Y-121501145D01*
X183459264Y-120921881D01*
X183390813Y-120732328D01*
X182933783Y-120620024D01*
X182468564Y-120691166D01*
X182369187Y-120732328D01*
X182300736Y-120921881D01*
X158921010Y-120921881D01*
X158921010Y-118473119D01*
X162615736Y-118473119D01*
X162684187Y-118662672D01*
X163141217Y-118774976D01*
X163606436Y-118703834D01*
X163705813Y-118662672D01*
X163774264Y-118473119D01*
X163195000Y-117893855D01*
X162615736Y-118473119D01*
X158921010Y-118473119D01*
X158921010Y-117591057D01*
X158995850Y-117516217D01*
X161990024Y-117516217D01*
X162061166Y-117981436D01*
X162102328Y-118080813D01*
X162291881Y-118149264D01*
X162871145Y-117570000D01*
X163518855Y-117570000D01*
X164098119Y-118149264D01*
X164287672Y-118080813D01*
X164399976Y-117623783D01*
X164374931Y-117460000D01*
X182000592Y-117460000D01*
X182000592Y-118760000D01*
X182016281Y-118843380D01*
X182065559Y-118919960D01*
X182140747Y-118971334D01*
X182230000Y-118989408D01*
X183530000Y-118989408D01*
X183613380Y-118973719D01*
X183689960Y-118924441D01*
X183741334Y-118849253D01*
X183759408Y-118760000D01*
X183759408Y-117460000D01*
X183743719Y-117376620D01*
X183694441Y-117300040D01*
X183619253Y-117248666D01*
X183530000Y-117230592D01*
X183323406Y-117230592D01*
X183390813Y-117202672D01*
X183459264Y-117013119D01*
X182880000Y-116433855D01*
X182300736Y-117013119D01*
X182369187Y-117202672D01*
X182482810Y-117230592D01*
X182230000Y-117230592D01*
X182146620Y-117246281D01*
X182070040Y-117295559D01*
X182018666Y-117370747D01*
X182000592Y-117460000D01*
X164374931Y-117460000D01*
X164328834Y-117158564D01*
X164287672Y-117059187D01*
X164098119Y-116990736D01*
X163518855Y-117570000D01*
X162871145Y-117570000D01*
X162291881Y-116990736D01*
X162102328Y-117059187D01*
X161990024Y-117516217D01*
X158995850Y-117516217D01*
X158998899Y-117513168D01*
X158998902Y-117513166D01*
X159075206Y-117398969D01*
X159075207Y-117398968D01*
X159102001Y-117264264D01*
X159102000Y-117264259D01*
X159102000Y-117230429D01*
X159194814Y-117137777D01*
X159274908Y-116944887D01*
X159275091Y-116736029D01*
X159195333Y-116543000D01*
X159047777Y-116395186D01*
X158854887Y-116315092D01*
X158646029Y-116314909D01*
X158467000Y-116388882D01*
X158467000Y-114920000D01*
X162315592Y-114920000D01*
X162315592Y-116220000D01*
X162331281Y-116303380D01*
X162380559Y-116379960D01*
X162455747Y-116431334D01*
X162545000Y-116449408D01*
X162751594Y-116449408D01*
X162684187Y-116477328D01*
X162615736Y-116666881D01*
X163195000Y-117246145D01*
X163774264Y-116666881D01*
X163705813Y-116477328D01*
X163592190Y-116449408D01*
X163845000Y-116449408D01*
X163928380Y-116433719D01*
X164004960Y-116384441D01*
X164056334Y-116309253D01*
X164074408Y-116220000D01*
X164074408Y-116056217D01*
X181675024Y-116056217D01*
X181746166Y-116521436D01*
X181787328Y-116620813D01*
X181976881Y-116689264D01*
X182556145Y-116110000D01*
X183203855Y-116110000D01*
X183783119Y-116689264D01*
X183972672Y-116620813D01*
X184084976Y-116163783D01*
X184013834Y-115698564D01*
X183972672Y-115599187D01*
X183783119Y-115530736D01*
X183203855Y-116110000D01*
X182556145Y-116110000D01*
X181976881Y-115530736D01*
X181787328Y-115599187D01*
X181675024Y-116056217D01*
X164074408Y-116056217D01*
X164074408Y-115206881D01*
X182300736Y-115206881D01*
X182880000Y-115786145D01*
X183459264Y-115206881D01*
X183390813Y-115017328D01*
X182933783Y-114905024D01*
X182468564Y-114976166D01*
X182369187Y-115017328D01*
X182300736Y-115206881D01*
X164074408Y-115206881D01*
X164074408Y-114920000D01*
X164058719Y-114836620D01*
X164009441Y-114760040D01*
X163934253Y-114708666D01*
X163845000Y-114690592D01*
X162545000Y-114690592D01*
X162461620Y-114706281D01*
X162385040Y-114755559D01*
X162333666Y-114830747D01*
X162315592Y-114920000D01*
X158467000Y-114920000D01*
X158467000Y-108340429D01*
X158505496Y-108302000D01*
X161924995Y-108302000D01*
X161925000Y-108302001D01*
X162059705Y-108275206D01*
X162173902Y-108198902D01*
X163167827Y-107204976D01*
X163298971Y-107205091D01*
X163308877Y-107200998D01*
X163305092Y-107210113D01*
X163304976Y-107342220D01*
X162946098Y-107701098D01*
X162869794Y-107815295D01*
X162842999Y-107950000D01*
X162843000Y-107950005D01*
X162843000Y-112004571D01*
X162750186Y-112097223D01*
X162670092Y-112290113D01*
X162669909Y-112498971D01*
X162749667Y-112692000D01*
X162897223Y-112839814D01*
X163090113Y-112919908D01*
X163298971Y-112920091D01*
X163492000Y-112840333D01*
X163639814Y-112692777D01*
X163719908Y-112499887D01*
X163720091Y-112291029D01*
X163640333Y-112098000D01*
X163547000Y-112004504D01*
X163547000Y-108095804D01*
X163802827Y-107839976D01*
X163933971Y-107840091D01*
X164127000Y-107760333D01*
X164274814Y-107612777D01*
X164354908Y-107419887D01*
X164355091Y-107211029D01*
X164275333Y-107018000D01*
X164127777Y-106870186D01*
X163934887Y-106790092D01*
X163726029Y-106789909D01*
X163716123Y-106794002D01*
X163719908Y-106784887D01*
X163720091Y-106576029D01*
X163640333Y-106383000D01*
X163492777Y-106235186D01*
X163299887Y-106155092D01*
X163091029Y-106154909D01*
X163081123Y-106159002D01*
X163084908Y-106149887D01*
X163084908Y-106148971D01*
X186164909Y-106148971D01*
X186244667Y-106342000D01*
X186392223Y-106489814D01*
X186518000Y-106542041D01*
X186518000Y-117710571D01*
X186425186Y-117803223D01*
X186345092Y-117996113D01*
X186344909Y-118204971D01*
X186424667Y-118398000D01*
X186572223Y-118545814D01*
X186765113Y-118625908D01*
X186973971Y-118626091D01*
X187167000Y-118546333D01*
X187314814Y-118398777D01*
X187394908Y-118205887D01*
X187395091Y-117997029D01*
X187315333Y-117804000D01*
X187222000Y-117710504D01*
X187222000Y-106225000D01*
X187209601Y-106162667D01*
X187214908Y-106149887D01*
X187215091Y-105941029D01*
X187135333Y-105748000D01*
X186987777Y-105600186D01*
X186794887Y-105520092D01*
X186586029Y-105519909D01*
X186393000Y-105599667D01*
X186245186Y-105747223D01*
X186165092Y-105940113D01*
X186164909Y-106148971D01*
X163084908Y-106148971D01*
X163085091Y-105941029D01*
X163005333Y-105748000D01*
X162857777Y-105600186D01*
X162664887Y-105520092D01*
X162456029Y-105519909D01*
X162446123Y-105524002D01*
X162449908Y-105514887D01*
X162450091Y-105306029D01*
X162370333Y-105113000D01*
X162222777Y-104965186D01*
X162029887Y-104885092D01*
X161821029Y-104884909D01*
X161811123Y-104889002D01*
X161814908Y-104879887D01*
X161815091Y-104671029D01*
X161735333Y-104478000D01*
X161587777Y-104330186D01*
X161394887Y-104250092D01*
X161186029Y-104249909D01*
X160993000Y-104329667D01*
X160845186Y-104477223D01*
X160765092Y-104670113D01*
X160764976Y-104802221D01*
X159874196Y-105693000D01*
X159140429Y-105693000D01*
X159047777Y-105600186D01*
X158854887Y-105520092D01*
X158646029Y-105519909D01*
X158453000Y-105599667D01*
X158305186Y-105747223D01*
X158225092Y-105940113D01*
X158224909Y-106148971D01*
X158229002Y-106158877D01*
X158219887Y-106155092D01*
X158011029Y-106154909D01*
X157818000Y-106234667D01*
X157670186Y-106382223D01*
X157590092Y-106575113D01*
X157589976Y-106707220D01*
X157231098Y-107066098D01*
X157154794Y-107180295D01*
X157127999Y-107315000D01*
X157128000Y-107315005D01*
X157128000Y-108584995D01*
X157127999Y-108585000D01*
X157154794Y-108719705D01*
X157231098Y-108833902D01*
X157308991Y-108911795D01*
X157308991Y-122743052D01*
X157308990Y-122743057D01*
X157335785Y-122877762D01*
X157412089Y-122991959D01*
X161034032Y-126613902D01*
X161148229Y-126690206D01*
X161170578Y-126694652D01*
X161282934Y-126717001D01*
X161282939Y-126717000D01*
X189864995Y-126717000D01*
X189865000Y-126717001D01*
X189999705Y-126690206D01*
X190113902Y-126613902D01*
X192018899Y-124708904D01*
X192018902Y-124708902D01*
X192095206Y-124594705D01*
X192102431Y-124558380D01*
X192122001Y-124460000D01*
X192122000Y-124459995D01*
X192122000Y-74106949D01*
X192122001Y-74106944D01*
X192095206Y-73972239D01*
X192095206Y-73972238D01*
X192018902Y-73858041D01*
X192018899Y-73858039D01*
X189666958Y-71506098D01*
X189666955Y-71506096D01*
X188356683Y-70195824D01*
X188404814Y-70147777D01*
X188484908Y-69954887D01*
X188485091Y-69746029D01*
X188405333Y-69553000D01*
X188257777Y-69405186D01*
X188064887Y-69325092D01*
X187856029Y-69324909D01*
X187663000Y-69404667D01*
X187515186Y-69552223D01*
X187435092Y-69745113D01*
X187434942Y-69916148D01*
X185772000Y-68253206D01*
X185772000Y-67700429D01*
X185864814Y-67607777D01*
X185944908Y-67414887D01*
X185945091Y-67206029D01*
X185865333Y-67013000D01*
X185717777Y-66865186D01*
X185524887Y-66785092D01*
X185316029Y-66784909D01*
X185123000Y-66864667D01*
X184975186Y-67012223D01*
X184895092Y-67205113D01*
X184894909Y-67413971D01*
X184974667Y-67607000D01*
X185068000Y-67700496D01*
X185068000Y-68399005D01*
X185067999Y-68399010D01*
X185094794Y-68533715D01*
X185171098Y-68647912D01*
X186663252Y-70140066D01*
X182370000Y-70140066D01*
X182370000Y-64187500D01*
X192467500Y-64187500D01*
X192467500Y-139012500D01*
X112642500Y-139012500D01*
X112642500Y-135240000D01*
X117865592Y-135240000D01*
X117865592Y-136540000D01*
X117881281Y-136623380D01*
X117930559Y-136699960D01*
X118005747Y-136751334D01*
X118095000Y-136769408D01*
X119395000Y-136769408D01*
X119478380Y-136753719D01*
X119554960Y-136704441D01*
X119606334Y-136629253D01*
X119624408Y-136540000D01*
X119624408Y-135875000D01*
X182000592Y-135875000D01*
X182000592Y-137175000D01*
X182016281Y-137258380D01*
X182065559Y-137334960D01*
X182140747Y-137386334D01*
X182230000Y-137404408D01*
X183530000Y-137404408D01*
X183613380Y-137388719D01*
X183689960Y-137339441D01*
X183741334Y-137264253D01*
X183759408Y-137175000D01*
X183759408Y-135875000D01*
X183743719Y-135791620D01*
X183694441Y-135715040D01*
X183619253Y-135663666D01*
X183530000Y-135645592D01*
X183323406Y-135645592D01*
X183390813Y-135617672D01*
X183459264Y-135428119D01*
X182880000Y-134848855D01*
X182300736Y-135428119D01*
X182369187Y-135617672D01*
X182482810Y-135645592D01*
X182230000Y-135645592D01*
X182146620Y-135661281D01*
X182070040Y-135710559D01*
X182018666Y-135785747D01*
X182000592Y-135875000D01*
X119624408Y-135875000D01*
X119624408Y-135240000D01*
X119608719Y-135156620D01*
X119559441Y-135080040D01*
X119484253Y-135028666D01*
X119395000Y-135010592D01*
X119188406Y-135010592D01*
X119255813Y-134982672D01*
X119324264Y-134793119D01*
X118745000Y-134213855D01*
X118165736Y-134793119D01*
X118234187Y-134982672D01*
X118347810Y-135010592D01*
X118095000Y-135010592D01*
X118011620Y-135026281D01*
X117935040Y-135075559D01*
X117883666Y-135150747D01*
X117865592Y-135240000D01*
X112642500Y-135240000D01*
X112642500Y-133836217D01*
X117540024Y-133836217D01*
X117611166Y-134301436D01*
X117652328Y-134400813D01*
X117841881Y-134469264D01*
X118421145Y-133890000D01*
X119068855Y-133890000D01*
X119648119Y-134469264D01*
X119837672Y-134400813D01*
X119949976Y-133943783D01*
X119914570Y-133712250D01*
X126737000Y-133712250D01*
X126737000Y-134756021D01*
X126818145Y-134951920D01*
X126968080Y-135101856D01*
X127163980Y-135183000D01*
X127907750Y-135183000D01*
X128041000Y-135049750D01*
X128041000Y-133579000D01*
X126870250Y-133579000D01*
X126737000Y-133712250D01*
X119914570Y-133712250D01*
X119878834Y-133478564D01*
X119837672Y-133379187D01*
X119648119Y-133310736D01*
X119068855Y-133890000D01*
X118421145Y-133890000D01*
X117841881Y-133310736D01*
X117652328Y-133379187D01*
X117540024Y-133836217D01*
X112642500Y-133836217D01*
X112642500Y-132986881D01*
X118165736Y-132986881D01*
X118745000Y-133566145D01*
X119324264Y-132986881D01*
X119255813Y-132797328D01*
X118798783Y-132685024D01*
X118333564Y-132756166D01*
X118234187Y-132797328D01*
X118165736Y-132986881D01*
X112642500Y-132986881D01*
X112642500Y-131943979D01*
X126737000Y-131943979D01*
X126737000Y-132987750D01*
X126870250Y-133121000D01*
X128041000Y-133121000D01*
X128041000Y-131650250D01*
X128499000Y-131650250D01*
X128499000Y-133121000D01*
X128519000Y-133121000D01*
X128519000Y-133579000D01*
X128499000Y-133579000D01*
X128499000Y-135049750D01*
X128632250Y-135183000D01*
X129376020Y-135183000D01*
X129571920Y-135101856D01*
X129721855Y-134951920D01*
X129803000Y-134756021D01*
X129803000Y-134335369D01*
X129943794Y-134546083D01*
X130341213Y-134811629D01*
X130810000Y-134904877D01*
X131278787Y-134811629D01*
X131676206Y-134546083D01*
X131941752Y-134148664D01*
X132035000Y-133679877D01*
X132035000Y-133020123D01*
X132125000Y-133020123D01*
X132125000Y-133679877D01*
X132218248Y-134148664D01*
X132483794Y-134546083D01*
X132881213Y-134811629D01*
X133350000Y-134904877D01*
X133818787Y-134811629D01*
X134216206Y-134546083D01*
X134481752Y-134148664D01*
X134575000Y-133679877D01*
X134575000Y-133020123D01*
X134665000Y-133020123D01*
X134665000Y-133679877D01*
X134758248Y-134148664D01*
X135023794Y-134546083D01*
X135421213Y-134811629D01*
X135890000Y-134904877D01*
X136358787Y-134811629D01*
X136756206Y-134546083D01*
X137021752Y-134148664D01*
X137115000Y-133679877D01*
X137115000Y-133020123D01*
X137205000Y-133020123D01*
X137205000Y-133679877D01*
X137298248Y-134148664D01*
X137563794Y-134546083D01*
X137961213Y-134811629D01*
X138430000Y-134904877D01*
X138898787Y-134811629D01*
X139296206Y-134546083D01*
X139561752Y-134148664D01*
X139655000Y-133679877D01*
X139655000Y-133020123D01*
X139561752Y-132551336D01*
X139296206Y-132153917D01*
X139140683Y-132050000D01*
X143550592Y-132050000D01*
X143550592Y-134650000D01*
X143566281Y-134733380D01*
X143615559Y-134809960D01*
X143690747Y-134861334D01*
X143780000Y-134879408D01*
X145780000Y-134879408D01*
X145863380Y-134863719D01*
X145939960Y-134814441D01*
X145991334Y-134739253D01*
X146009408Y-134650000D01*
X146009408Y-133020123D01*
X146095000Y-133020123D01*
X146095000Y-133679877D01*
X146188248Y-134148664D01*
X146453794Y-134546083D01*
X146851213Y-134811629D01*
X147320000Y-134904877D01*
X147788787Y-134811629D01*
X148186206Y-134546083D01*
X148439502Y-134166997D01*
X148511296Y-134393217D01*
X148898377Y-134852770D01*
X149396696Y-135111314D01*
X149631000Y-135030891D01*
X149631000Y-133579000D01*
X150089000Y-133579000D01*
X150089000Y-135030891D01*
X150323304Y-135111314D01*
X150821623Y-134852770D01*
X151208704Y-134393217D01*
X151390457Y-133820516D01*
X151265039Y-133579000D01*
X150089000Y-133579000D01*
X149631000Y-133579000D01*
X149611000Y-133579000D01*
X149611000Y-133121000D01*
X149631000Y-133121000D01*
X149631000Y-131669109D01*
X150089000Y-131669109D01*
X150089000Y-133121000D01*
X151265039Y-133121000D01*
X151390457Y-132879484D01*
X151208704Y-132306783D01*
X150821623Y-131847230D01*
X150323304Y-131588686D01*
X150089000Y-131669109D01*
X149631000Y-131669109D01*
X149396696Y-131588686D01*
X148898377Y-131847230D01*
X148511296Y-132306783D01*
X148439502Y-132533003D01*
X148186206Y-132153917D01*
X147788787Y-131888371D01*
X147320000Y-131795123D01*
X146851213Y-131888371D01*
X146453794Y-132153917D01*
X146188248Y-132551336D01*
X146095000Y-133020123D01*
X146009408Y-133020123D01*
X146009408Y-132050000D01*
X145993719Y-131966620D01*
X145944441Y-131890040D01*
X145869253Y-131838666D01*
X145780000Y-131820592D01*
X143780000Y-131820592D01*
X143696620Y-131836281D01*
X143620040Y-131885559D01*
X143568666Y-131960747D01*
X143550592Y-132050000D01*
X139140683Y-132050000D01*
X138898787Y-131888371D01*
X138430000Y-131795123D01*
X137961213Y-131888371D01*
X137563794Y-132153917D01*
X137298248Y-132551336D01*
X137205000Y-133020123D01*
X137115000Y-133020123D01*
X137021752Y-132551336D01*
X136756206Y-132153917D01*
X136358787Y-131888371D01*
X135890000Y-131795123D01*
X135421213Y-131888371D01*
X135023794Y-132153917D01*
X134758248Y-132551336D01*
X134665000Y-133020123D01*
X134575000Y-133020123D01*
X134481752Y-132551336D01*
X134216206Y-132153917D01*
X133818787Y-131888371D01*
X133702000Y-131865141D01*
X133702000Y-125198971D01*
X137904909Y-125198971D01*
X137984667Y-125392000D01*
X138078000Y-125485496D01*
X138078000Y-129784571D01*
X137985186Y-129877223D01*
X137905092Y-130070113D01*
X137904909Y-130278971D01*
X137984667Y-130472000D01*
X138132223Y-130619814D01*
X138325113Y-130699908D01*
X138533971Y-130700091D01*
X138727000Y-130620333D01*
X138874814Y-130472777D01*
X138954908Y-130279887D01*
X138955091Y-130071029D01*
X138875333Y-129878000D01*
X138782000Y-129784504D01*
X138782000Y-125485429D01*
X138874814Y-125392777D01*
X138954908Y-125199887D01*
X138955091Y-124991029D01*
X138875333Y-124798000D01*
X138727777Y-124650186D01*
X138534887Y-124570092D01*
X138326029Y-124569909D01*
X138133000Y-124649667D01*
X137985186Y-124797223D01*
X137905092Y-124990113D01*
X137904909Y-125198971D01*
X133702000Y-125198971D01*
X133702000Y-119906804D01*
X136173000Y-117435803D01*
X136173000Y-119624571D01*
X136080186Y-119717223D01*
X136000092Y-119910113D01*
X135999909Y-120118971D01*
X136073882Y-120298000D01*
X135010429Y-120298000D01*
X134917777Y-120205186D01*
X134724887Y-120125092D01*
X134516029Y-120124909D01*
X134323000Y-120204667D01*
X134175186Y-120352223D01*
X134095092Y-120545113D01*
X134094909Y-120753971D01*
X134174667Y-120947000D01*
X134322223Y-121094814D01*
X134515113Y-121174908D01*
X134723971Y-121175091D01*
X134917000Y-121095333D01*
X135010496Y-121002000D01*
X138437062Y-121002000D01*
X138437067Y-121002001D01*
X138571772Y-120975206D01*
X138685969Y-120898902D01*
X140698988Y-118885882D01*
X140698909Y-118975971D01*
X140778667Y-119169000D01*
X140926223Y-119316814D01*
X141119113Y-119396908D01*
X141327971Y-119397091D01*
X141521000Y-119317333D01*
X141668814Y-119169777D01*
X141748908Y-118976887D01*
X141749091Y-118768029D01*
X141669333Y-118575000D01*
X141660642Y-118566294D01*
X142068991Y-118157945D01*
X142068991Y-124013052D01*
X142068990Y-124013057D01*
X142095785Y-124147762D01*
X142172089Y-124261959D01*
X143708040Y-125797909D01*
X143708042Y-125797912D01*
X143822239Y-125874216D01*
X143844588Y-125878662D01*
X143956944Y-125901011D01*
X143956949Y-125901010D01*
X155248206Y-125901010D01*
X155858000Y-126510803D01*
X155858000Y-131820592D01*
X155210000Y-131820592D01*
X155126620Y-131836281D01*
X155050040Y-131885559D01*
X154998666Y-131960747D01*
X154980592Y-132050000D01*
X154980592Y-134650000D01*
X154996281Y-134733380D01*
X155045559Y-134809960D01*
X155120747Y-134861334D01*
X155210000Y-134879408D01*
X157210000Y-134879408D01*
X157293380Y-134863719D01*
X157369960Y-134814441D01*
X157421334Y-134739253D01*
X157439408Y-134650000D01*
X157439408Y-133020123D01*
X157525000Y-133020123D01*
X157525000Y-133679877D01*
X157618248Y-134148664D01*
X157883794Y-134546083D01*
X158281213Y-134811629D01*
X158750000Y-134904877D01*
X159218787Y-134811629D01*
X159616206Y-134546083D01*
X159881752Y-134148664D01*
X159975000Y-133679877D01*
X159975000Y-133020123D01*
X159881752Y-132551336D01*
X159616206Y-132153917D01*
X159218787Y-131888371D01*
X158750000Y-131795123D01*
X158281213Y-131888371D01*
X157883794Y-132153917D01*
X157618248Y-132551336D01*
X157525000Y-133020123D01*
X157439408Y-133020123D01*
X157439408Y-132050000D01*
X157423719Y-131966620D01*
X157374441Y-131890040D01*
X157299253Y-131838666D01*
X157210000Y-131820592D01*
X156562000Y-131820592D01*
X156562000Y-126563804D01*
X163597098Y-133598902D01*
X163711295Y-133675206D01*
X163846000Y-133702001D01*
X163846005Y-133702000D01*
X163870592Y-133702000D01*
X163870592Y-134650000D01*
X163886281Y-134733380D01*
X163935559Y-134809960D01*
X164010747Y-134861334D01*
X164100000Y-134879408D01*
X166100000Y-134879408D01*
X166183380Y-134863719D01*
X166259960Y-134814441D01*
X166311334Y-134739253D01*
X166329408Y-134650000D01*
X166329408Y-133020123D01*
X166415000Y-133020123D01*
X166415000Y-133679877D01*
X166508248Y-134148664D01*
X166773794Y-134546083D01*
X167171213Y-134811629D01*
X167640000Y-134904877D01*
X168108787Y-134811629D01*
X168506206Y-134546083D01*
X168771752Y-134148664D01*
X168865000Y-133679877D01*
X168865000Y-133020123D01*
X168771752Y-132551336D01*
X168506206Y-132153917D01*
X168350683Y-132050000D01*
X172760592Y-132050000D01*
X172760592Y-134650000D01*
X172776281Y-134733380D01*
X172825559Y-134809960D01*
X172900747Y-134861334D01*
X172990000Y-134879408D01*
X174990000Y-134879408D01*
X175073380Y-134863719D01*
X175149960Y-134814441D01*
X175201334Y-134739253D01*
X175219408Y-134650000D01*
X175219408Y-134438465D01*
X175568377Y-134852770D01*
X176066696Y-135111314D01*
X176301000Y-135030891D01*
X176301000Y-133579000D01*
X176759000Y-133579000D01*
X176759000Y-135030891D01*
X176993304Y-135111314D01*
X177491623Y-134852770D01*
X177813004Y-134471217D01*
X181675024Y-134471217D01*
X181746166Y-134936436D01*
X181787328Y-135035813D01*
X181976881Y-135104264D01*
X182556145Y-134525000D01*
X183203855Y-134525000D01*
X183783119Y-135104264D01*
X183972672Y-135035813D01*
X184084976Y-134578783D01*
X184013834Y-134113564D01*
X183972672Y-134014187D01*
X183783119Y-133945736D01*
X183203855Y-134525000D01*
X182556145Y-134525000D01*
X181976881Y-133945736D01*
X181787328Y-134014187D01*
X181675024Y-134471217D01*
X177813004Y-134471217D01*
X177878704Y-134393217D01*
X178060457Y-133820516D01*
X177957307Y-133621881D01*
X182300736Y-133621881D01*
X182880000Y-134201145D01*
X183459264Y-133621881D01*
X183390813Y-133432328D01*
X182933783Y-133320024D01*
X182468564Y-133391166D01*
X182369187Y-133432328D01*
X182300736Y-133621881D01*
X177957307Y-133621881D01*
X177935039Y-133579000D01*
X176759000Y-133579000D01*
X176301000Y-133579000D01*
X176281000Y-133579000D01*
X176281000Y-133121000D01*
X176301000Y-133121000D01*
X176301000Y-131669109D01*
X176759000Y-131669109D01*
X176759000Y-133121000D01*
X177935039Y-133121000D01*
X178060457Y-132879484D01*
X177878704Y-132306783D01*
X177491623Y-131847230D01*
X176993304Y-131588686D01*
X176759000Y-131669109D01*
X176301000Y-131669109D01*
X176066696Y-131588686D01*
X175568377Y-131847230D01*
X175219408Y-132261535D01*
X175219408Y-132050000D01*
X175203719Y-131966620D01*
X175154441Y-131890040D01*
X175079253Y-131838666D01*
X174990000Y-131820592D01*
X172990000Y-131820592D01*
X172906620Y-131836281D01*
X172830040Y-131885559D01*
X172778666Y-131960747D01*
X172760592Y-132050000D01*
X168350683Y-132050000D01*
X168108787Y-131888371D01*
X167640000Y-131795123D01*
X167171213Y-131888371D01*
X166773794Y-132153917D01*
X166508248Y-132551336D01*
X166415000Y-133020123D01*
X166329408Y-133020123D01*
X166329408Y-132050000D01*
X166313719Y-131966620D01*
X166264441Y-131890040D01*
X166189253Y-131838666D01*
X166100000Y-131820592D01*
X164100000Y-131820592D01*
X164016620Y-131836281D01*
X163940040Y-131885559D01*
X163888666Y-131960747D01*
X163870592Y-132050000D01*
X163870592Y-132876788D01*
X160484932Y-129491128D01*
X180579657Y-129491128D01*
X180879700Y-130217286D01*
X181434791Y-130773348D01*
X182160425Y-131074657D01*
X182946128Y-131075343D01*
X183672286Y-130775300D01*
X184228348Y-130220209D01*
X184529657Y-129494575D01*
X184530343Y-128708872D01*
X184230300Y-127982714D01*
X183675209Y-127426652D01*
X182949575Y-127125343D01*
X182163872Y-127124657D01*
X181437714Y-127424700D01*
X180881652Y-127979791D01*
X180580343Y-128705425D01*
X180579657Y-129491128D01*
X160484932Y-129491128D01*
X155839902Y-124846098D01*
X155725705Y-124769794D01*
X155591000Y-124742999D01*
X155590995Y-124743000D01*
X144290803Y-124743000D01*
X143227000Y-123679196D01*
X143227000Y-118284068D01*
X149580058Y-111931009D01*
X151318052Y-111931009D01*
X151318057Y-111931010D01*
X151430413Y-111908661D01*
X151452762Y-111904215D01*
X151566959Y-111827911D01*
X151566961Y-111827908D01*
X152467909Y-110926961D01*
X152467912Y-110926959D01*
X152544216Y-110812762D01*
X152571010Y-110678057D01*
X152571010Y-109582124D01*
X159033000Y-103120133D01*
X159033000Y-104384571D01*
X158940186Y-104477223D01*
X158860092Y-104670113D01*
X158859909Y-104878971D01*
X158939667Y-105072000D01*
X159087223Y-105219814D01*
X159280113Y-105299908D01*
X159488971Y-105300091D01*
X159682000Y-105220333D01*
X159829814Y-105072777D01*
X159909908Y-104879887D01*
X159910091Y-104671029D01*
X159830333Y-104478000D01*
X159737000Y-104384504D01*
X159737000Y-103058200D01*
X161478199Y-101317000D01*
X164074571Y-101317000D01*
X164167223Y-101409814D01*
X164360113Y-101489908D01*
X164568971Y-101490091D01*
X164762000Y-101410333D01*
X164909814Y-101262777D01*
X164989908Y-101069887D01*
X164990091Y-100861029D01*
X164916118Y-100682000D01*
X165979571Y-100682000D01*
X166072223Y-100774814D01*
X166265113Y-100854908D01*
X166473971Y-100855091D01*
X166667000Y-100775333D01*
X166814814Y-100627777D01*
X166894908Y-100434887D01*
X166895091Y-100226029D01*
X166815333Y-100033000D01*
X166667777Y-99885186D01*
X166474887Y-99805092D01*
X166266029Y-99804909D01*
X166073000Y-99884667D01*
X165979504Y-99978000D01*
X161680429Y-99978000D01*
X161587777Y-99885186D01*
X161394887Y-99805092D01*
X161186029Y-99804909D01*
X161007000Y-99878882D01*
X161007000Y-96623971D01*
X169019909Y-96623971D01*
X169099667Y-96817000D01*
X169247223Y-96964814D01*
X169440113Y-97044908D01*
X169648971Y-97045091D01*
X169842000Y-96965333D01*
X169935496Y-96872000D01*
X171059571Y-96872000D01*
X171152223Y-96964814D01*
X171345113Y-97044908D01*
X171553971Y-97045091D01*
X171747000Y-96965333D01*
X171894814Y-96817777D01*
X171974908Y-96624887D01*
X171975091Y-96416029D01*
X171895333Y-96223000D01*
X171747777Y-96075186D01*
X171554887Y-95995092D01*
X171346029Y-95994909D01*
X171153000Y-96074667D01*
X171059504Y-96168000D01*
X169935429Y-96168000D01*
X169842777Y-96075186D01*
X169649887Y-95995092D01*
X169441029Y-95994909D01*
X169248000Y-96074667D01*
X169100186Y-96222223D01*
X169020092Y-96415113D01*
X169019909Y-96623971D01*
X161007000Y-96623971D01*
X161007000Y-95518119D01*
X188110736Y-95518119D01*
X188179187Y-95707672D01*
X188636217Y-95819976D01*
X189101436Y-95748834D01*
X189200813Y-95707672D01*
X189269264Y-95518119D01*
X188690000Y-94938855D01*
X188110736Y-95518119D01*
X161007000Y-95518119D01*
X161007000Y-93965000D01*
X185810592Y-93965000D01*
X185810592Y-95265000D01*
X185826281Y-95348380D01*
X185875559Y-95424960D01*
X185950747Y-95476334D01*
X186040000Y-95494408D01*
X187340000Y-95494408D01*
X187423380Y-95478719D01*
X187499960Y-95429441D01*
X187551334Y-95354253D01*
X187569408Y-95265000D01*
X187569408Y-95058406D01*
X187597328Y-95125813D01*
X187786881Y-95194264D01*
X188366145Y-94615000D01*
X189013855Y-94615000D01*
X189593119Y-95194264D01*
X189782672Y-95125813D01*
X189894976Y-94668783D01*
X189823834Y-94203564D01*
X189782672Y-94104187D01*
X189593119Y-94035736D01*
X189013855Y-94615000D01*
X188366145Y-94615000D01*
X187786881Y-94035736D01*
X187597328Y-94104187D01*
X187569408Y-94217810D01*
X187569408Y-93965000D01*
X187553719Y-93881620D01*
X187504441Y-93805040D01*
X187429253Y-93753666D01*
X187340000Y-93735592D01*
X186040000Y-93735592D01*
X185956620Y-93751281D01*
X185880040Y-93800559D01*
X185828666Y-93875747D01*
X185810592Y-93965000D01*
X161007000Y-93965000D01*
X161007000Y-93735429D01*
X161030589Y-93711881D01*
X188110736Y-93711881D01*
X188690000Y-94291145D01*
X189269264Y-93711881D01*
X189200813Y-93522328D01*
X188743783Y-93410024D01*
X188278564Y-93481166D01*
X188179187Y-93522328D01*
X188110736Y-93711881D01*
X161030589Y-93711881D01*
X161099814Y-93642777D01*
X161179908Y-93449887D01*
X161180091Y-93241029D01*
X161100333Y-93048000D01*
X160952777Y-92900186D01*
X160759887Y-92820092D01*
X160551029Y-92819909D01*
X160358000Y-92899667D01*
X160210186Y-93047223D01*
X160130092Y-93240113D01*
X160129909Y-93448971D01*
X160134002Y-93458877D01*
X160124887Y-93455092D01*
X159916029Y-93454909D01*
X159723000Y-93534667D01*
X159575186Y-93682223D01*
X159495092Y-93875113D01*
X159494909Y-94083971D01*
X159499002Y-94093877D01*
X159489887Y-94090092D01*
X159281029Y-94089909D01*
X159088000Y-94169667D01*
X158940186Y-94317223D01*
X158860092Y-94510113D01*
X158859909Y-94718971D01*
X158864002Y-94728877D01*
X158854887Y-94725092D01*
X158646029Y-94724909D01*
X158453000Y-94804667D01*
X158305186Y-94952223D01*
X158225092Y-95145113D01*
X158224909Y-95353971D01*
X158229002Y-95363877D01*
X158219887Y-95360092D01*
X158011029Y-95359909D01*
X157818000Y-95439667D01*
X157670186Y-95587223D01*
X157590092Y-95780113D01*
X157589909Y-95988971D01*
X157594002Y-95998877D01*
X157584887Y-95995092D01*
X157376029Y-95994909D01*
X157183000Y-96074667D01*
X157035186Y-96222223D01*
X156955092Y-96415113D01*
X156954909Y-96623971D01*
X157034667Y-96817000D01*
X157128000Y-96910496D01*
X157128000Y-97756110D01*
X157113119Y-97750736D01*
X156533855Y-98330000D01*
X157113119Y-98909264D01*
X157128000Y-98903890D01*
X157128000Y-100819197D01*
X157089408Y-100857789D01*
X157089408Y-99680000D01*
X157073719Y-99596620D01*
X157024441Y-99520040D01*
X156949253Y-99468666D01*
X156860000Y-99450592D01*
X156653406Y-99450592D01*
X156720813Y-99422672D01*
X156789264Y-99233119D01*
X156210000Y-98653855D01*
X155630736Y-99233119D01*
X155699187Y-99422672D01*
X155812810Y-99450592D01*
X155560000Y-99450592D01*
X155476620Y-99466281D01*
X155400040Y-99515559D01*
X155348666Y-99590747D01*
X155330592Y-99680000D01*
X155330592Y-100980000D01*
X155346281Y-101063380D01*
X155395559Y-101139960D01*
X155470747Y-101191334D01*
X155560000Y-101209408D01*
X156737789Y-101209408D01*
X155292000Y-102655197D01*
X155292000Y-98903890D01*
X155306881Y-98909264D01*
X155886145Y-98330000D01*
X155306881Y-97750736D01*
X155292000Y-97756110D01*
X155292000Y-97426881D01*
X155630736Y-97426881D01*
X156210000Y-98006145D01*
X156789264Y-97426881D01*
X156720813Y-97237328D01*
X156263783Y-97125024D01*
X155798564Y-97196166D01*
X155699187Y-97237328D01*
X155630736Y-97426881D01*
X155292000Y-97426881D01*
X155292000Y-90805005D01*
X155292001Y-90805000D01*
X155265206Y-90670296D01*
X155265206Y-90670295D01*
X155188902Y-90556098D01*
X155188899Y-90556096D01*
X146298902Y-81666098D01*
X146298899Y-81666096D01*
X145028902Y-80396098D01*
X144914705Y-80319794D01*
X144780000Y-80292999D01*
X144779995Y-80293000D01*
X143325950Y-80293000D01*
X143399908Y-80114887D01*
X143400091Y-79906029D01*
X143320333Y-79713000D01*
X143172777Y-79565186D01*
X142979887Y-79485092D01*
X142771029Y-79484909D01*
X142717451Y-79507047D01*
X142336502Y-79126098D01*
X142336499Y-79126096D01*
X141872644Y-78662241D01*
X142240000Y-78735313D01*
X142656589Y-78652448D01*
X143009756Y-78416469D01*
X143245735Y-78063302D01*
X143328600Y-77646713D01*
X143328600Y-77293287D01*
X143691400Y-77293287D01*
X143691400Y-77646713D01*
X143774265Y-78063302D01*
X144010244Y-78416469D01*
X144363411Y-78652448D01*
X144780000Y-78735313D01*
X145196589Y-78652448D01*
X145549756Y-78416469D01*
X145785735Y-78063302D01*
X145815124Y-77915550D01*
X145958788Y-77915550D01*
X146174588Y-78414149D01*
X146564767Y-78792211D01*
X146878300Y-78947313D01*
X147091000Y-78864822D01*
X147091000Y-77699000D01*
X147549000Y-77699000D01*
X147549000Y-78864822D01*
X147761700Y-78947313D01*
X148075233Y-78792211D01*
X148465412Y-78414149D01*
X148681212Y-77915550D01*
X148577062Y-77699000D01*
X147549000Y-77699000D01*
X147091000Y-77699000D01*
X146062938Y-77699000D01*
X145958788Y-77915550D01*
X145815124Y-77915550D01*
X145868600Y-77646713D01*
X145868600Y-77293287D01*
X148771400Y-77293287D01*
X148771400Y-77646713D01*
X148854265Y-78063302D01*
X149090244Y-78416469D01*
X149443411Y-78652448D01*
X149860000Y-78735313D01*
X150276589Y-78652448D01*
X150629756Y-78416469D01*
X150865735Y-78063302D01*
X150948600Y-77646713D01*
X150948600Y-77293287D01*
X150865735Y-76876698D01*
X150629756Y-76523531D01*
X150276589Y-76287552D01*
X149860000Y-76204687D01*
X149443411Y-76287552D01*
X149090244Y-76523531D01*
X148854265Y-76876698D01*
X148771400Y-77293287D01*
X145868600Y-77293287D01*
X145815125Y-77024450D01*
X145958788Y-77024450D01*
X146062938Y-77241000D01*
X147091000Y-77241000D01*
X147091000Y-76075178D01*
X147549000Y-76075178D01*
X147549000Y-77241000D01*
X148577062Y-77241000D01*
X148681212Y-77024450D01*
X148465412Y-76525851D01*
X148075233Y-76147789D01*
X147761700Y-75992687D01*
X147549000Y-76075178D01*
X147091000Y-76075178D01*
X146878300Y-75992687D01*
X146564767Y-76147789D01*
X146174588Y-76525851D01*
X145958788Y-77024450D01*
X145815125Y-77024450D01*
X145785735Y-76876698D01*
X145549756Y-76523531D01*
X145196589Y-76287552D01*
X144780000Y-76204687D01*
X144363411Y-76287552D01*
X144010244Y-76523531D01*
X143774265Y-76876698D01*
X143691400Y-77293287D01*
X143328600Y-77293287D01*
X143245735Y-76876698D01*
X143009756Y-76523531D01*
X142656589Y-76287552D01*
X142240000Y-76204687D01*
X141823411Y-76287552D01*
X141470244Y-76523531D01*
X141234265Y-76876698D01*
X141151400Y-77293287D01*
X141151400Y-77646713D01*
X141224472Y-78014068D01*
X140793008Y-77582604D01*
X140793008Y-76454000D01*
X140777319Y-76370620D01*
X140728041Y-76294040D01*
X140652853Y-76242666D01*
X140563600Y-76224592D01*
X138836400Y-76224592D01*
X138753020Y-76240281D01*
X138676440Y-76289559D01*
X138625066Y-76364747D01*
X138606992Y-76454000D01*
X138606992Y-78486000D01*
X138622681Y-78569380D01*
X138671959Y-78645960D01*
X138747147Y-78697334D01*
X138836400Y-78715408D01*
X140563600Y-78715408D01*
X140646980Y-78699719D01*
X140723560Y-78650441D01*
X140774934Y-78575253D01*
X140777479Y-78562683D01*
X141838696Y-79623899D01*
X141838698Y-79623902D01*
X142364795Y-80149998D01*
X142423882Y-80293000D01*
X139210803Y-80293000D01*
X138954976Y-80037173D01*
X138955091Y-79906029D01*
X138875333Y-79713000D01*
X138727777Y-79565186D01*
X138534887Y-79485092D01*
X138326029Y-79484909D01*
X138133000Y-79564667D01*
X137985186Y-79712223D01*
X137905092Y-79905113D01*
X137904909Y-80113971D01*
X137984667Y-80307000D01*
X138132223Y-80454814D01*
X138325113Y-80534908D01*
X138457220Y-80535024D01*
X138816096Y-80893899D01*
X138816098Y-80893902D01*
X138930295Y-80970206D01*
X138952644Y-80974652D01*
X139065000Y-80997001D01*
X139065005Y-80997000D01*
X144634196Y-80997000D01*
X145801096Y-82163899D01*
X145801098Y-82163902D01*
X154588000Y-90950803D01*
X154588000Y-91225197D01*
X150384976Y-87022172D01*
X150385091Y-86891029D01*
X150305333Y-86698000D01*
X150157777Y-86550186D01*
X149964887Y-86470092D01*
X149756029Y-86469909D01*
X149563000Y-86549667D01*
X149415186Y-86697223D01*
X149335092Y-86890113D01*
X149334909Y-87098971D01*
X149414667Y-87292000D01*
X149562223Y-87439814D01*
X149755113Y-87519908D01*
X149887220Y-87520024D01*
X154133990Y-91766793D01*
X154133990Y-102529074D01*
X153387000Y-103276064D01*
X153387000Y-102108005D01*
X153387001Y-102108000D01*
X153387000Y-102107995D01*
X153387000Y-98180429D01*
X153479814Y-98087777D01*
X153559908Y-97894887D01*
X153560091Y-97686029D01*
X153480333Y-97493000D01*
X153332777Y-97345186D01*
X153139887Y-97265092D01*
X152931029Y-97264909D01*
X152738000Y-97344667D01*
X152590186Y-97492223D01*
X152510092Y-97685113D01*
X152509909Y-97893971D01*
X152589667Y-98087000D01*
X152683000Y-98180496D01*
X152683000Y-98862129D01*
X152648902Y-98811098D01*
X152648899Y-98811096D01*
X151654976Y-97817172D01*
X151655091Y-97686029D01*
X151575333Y-97493000D01*
X151427777Y-97345186D01*
X151234887Y-97265092D01*
X151026029Y-97264909D01*
X150833000Y-97344667D01*
X150685186Y-97492223D01*
X150605092Y-97685113D01*
X150604909Y-97893971D01*
X150609002Y-97903877D01*
X150599887Y-97900092D01*
X150391029Y-97899909D01*
X150198000Y-97979667D01*
X150050186Y-98127223D01*
X149970092Y-98320113D01*
X149969909Y-98528971D01*
X150049667Y-98722000D01*
X150197223Y-98869814D01*
X150390113Y-98949908D01*
X150522220Y-98950024D01*
X151168000Y-99595804D01*
X151168000Y-100248263D01*
X151110040Y-100285559D01*
X151058666Y-100360747D01*
X151040592Y-100450000D01*
X151040592Y-100800000D01*
X151056281Y-100883380D01*
X151099646Y-100950771D01*
X151058666Y-101010747D01*
X151040592Y-101100000D01*
X151040592Y-101450000D01*
X151056281Y-101533380D01*
X151081776Y-101573000D01*
X150965803Y-101573000D01*
X150418902Y-101026098D01*
X150304705Y-100949794D01*
X150240184Y-100936960D01*
X150253000Y-100906020D01*
X150253000Y-100845750D01*
X150119750Y-100712500D01*
X149595000Y-100712500D01*
X149595000Y-100800000D01*
X149345000Y-100800000D01*
X149345000Y-100712500D01*
X148820250Y-100712500D01*
X148687000Y-100845750D01*
X148687000Y-100906020D01*
X148694033Y-100923000D01*
X147845037Y-100923000D01*
X147845091Y-100861029D01*
X147765333Y-100668000D01*
X147617777Y-100520186D01*
X147424887Y-100440092D01*
X147216029Y-100439909D01*
X147023000Y-100519667D01*
X146875186Y-100667223D01*
X146795092Y-100860113D01*
X146794909Y-101068971D01*
X146874667Y-101262000D01*
X147022223Y-101409814D01*
X147215113Y-101489908D01*
X147347221Y-101490024D01*
X147381096Y-101523899D01*
X147381098Y-101523902D01*
X147483457Y-101592296D01*
X147495295Y-101600206D01*
X147630000Y-101627000D01*
X148694033Y-101627000D01*
X148687000Y-101643980D01*
X148687000Y-101704250D01*
X148820250Y-101837500D01*
X149345000Y-101837500D01*
X149345000Y-101750000D01*
X149595000Y-101750000D01*
X149595000Y-101837500D01*
X150119750Y-101837500D01*
X150177223Y-101780027D01*
X150571096Y-102173899D01*
X150571098Y-102173902D01*
X150685295Y-102250206D01*
X150707644Y-102254652D01*
X150749816Y-102263040D01*
X150737000Y-102293980D01*
X150737000Y-102354250D01*
X150870250Y-102487500D01*
X151395000Y-102487500D01*
X151395000Y-102400000D01*
X151645000Y-102400000D01*
X151645000Y-102487500D01*
X152169750Y-102487500D01*
X152303000Y-102354250D01*
X152303000Y-102293980D01*
X152295967Y-102277000D01*
X152683000Y-102277000D01*
X152683000Y-103337999D01*
X140802998Y-115218000D01*
X137550429Y-115218000D01*
X137457777Y-115125186D01*
X137264887Y-115045092D01*
X137056029Y-115044909D01*
X136863000Y-115124667D01*
X136715186Y-115272223D01*
X136635092Y-115465113D01*
X136634909Y-115673971D01*
X136714667Y-115867000D01*
X136744987Y-115897373D01*
X136657098Y-115956098D01*
X136657096Y-115956101D01*
X133101098Y-119512098D01*
X133024794Y-119626295D01*
X132997999Y-119761000D01*
X132998000Y-119761005D01*
X132998000Y-131865141D01*
X132881213Y-131888371D01*
X132483794Y-132153917D01*
X132218248Y-132551336D01*
X132125000Y-133020123D01*
X132035000Y-133020123D01*
X131941752Y-132551336D01*
X131676206Y-132153917D01*
X131278787Y-131888371D01*
X130810000Y-131795123D01*
X130341213Y-131888371D01*
X129943794Y-132153917D01*
X129803000Y-132364631D01*
X129803000Y-131943979D01*
X129721855Y-131748080D01*
X129571920Y-131598144D01*
X129376020Y-131517000D01*
X128632250Y-131517000D01*
X128499000Y-131650250D01*
X128041000Y-131650250D01*
X127907750Y-131517000D01*
X127163980Y-131517000D01*
X126968080Y-131598144D01*
X126818145Y-131748080D01*
X126737000Y-131943979D01*
X112642500Y-131943979D01*
X112642500Y-129491128D01*
X120579657Y-129491128D01*
X120879700Y-130217286D01*
X121434791Y-130773348D01*
X122160425Y-131074657D01*
X122946128Y-131075343D01*
X123672286Y-130775300D01*
X124228348Y-130220209D01*
X124529657Y-129494575D01*
X124530343Y-128708872D01*
X124230300Y-127982714D01*
X123675209Y-127426652D01*
X122949575Y-127125343D01*
X122163872Y-127124657D01*
X121437714Y-127424700D01*
X120881652Y-127979791D01*
X120580343Y-128705425D01*
X120579657Y-129491128D01*
X112642500Y-129491128D01*
X112642500Y-85090000D01*
X114582999Y-85090000D01*
X114583000Y-85090005D01*
X114583000Y-105155995D01*
X114582999Y-105156000D01*
X114583000Y-105156005D01*
X114583000Y-105663995D01*
X114582999Y-105664000D01*
X114583000Y-105664005D01*
X114583000Y-112394995D01*
X114582999Y-112395000D01*
X114609794Y-112529705D01*
X114686098Y-112643902D01*
X116315024Y-114272827D01*
X116314909Y-114403971D01*
X116394667Y-114597000D01*
X116542223Y-114744814D01*
X116735113Y-114824908D01*
X116943971Y-114825091D01*
X117137000Y-114745333D01*
X117284814Y-114597777D01*
X117364908Y-114404887D01*
X117365091Y-114196029D01*
X117285333Y-114003000D01*
X117137777Y-113855186D01*
X116944887Y-113775092D01*
X116812779Y-113774976D01*
X115287000Y-112249196D01*
X115287000Y-105809804D01*
X115334803Y-105762000D01*
X124648008Y-105762000D01*
X124636992Y-105816400D01*
X124636992Y-107543600D01*
X124652681Y-107626980D01*
X124701959Y-107703560D01*
X124777147Y-107754934D01*
X124866400Y-107773008D01*
X125378000Y-107773008D01*
X125378000Y-108584995D01*
X125377999Y-108585000D01*
X125404794Y-108719705D01*
X125481098Y-108833902D01*
X126116096Y-109468899D01*
X126116098Y-109468902D01*
X126230295Y-109545206D01*
X126252644Y-109549652D01*
X126365000Y-109572001D01*
X126365005Y-109572000D01*
X137404571Y-109572000D01*
X137497223Y-109664814D01*
X137690113Y-109744908D01*
X137898971Y-109745091D01*
X138092000Y-109665333D01*
X138239814Y-109517777D01*
X138319908Y-109324887D01*
X138320091Y-109116029D01*
X138315998Y-109106123D01*
X138325113Y-109109908D01*
X138533971Y-109110091D01*
X138727000Y-109030333D01*
X138874814Y-108882777D01*
X138954908Y-108689887D01*
X138955091Y-108481029D01*
X138875333Y-108288000D01*
X138727777Y-108140186D01*
X138534887Y-108060092D01*
X138326029Y-108059909D01*
X138133000Y-108139667D01*
X138039504Y-108233000D01*
X129099490Y-108233000D01*
X128622000Y-107755510D01*
X128622000Y-107719910D01*
X128686589Y-107707062D01*
X129039756Y-107471083D01*
X129275735Y-107117916D01*
X129358600Y-106701327D01*
X129358600Y-106658673D01*
X129275735Y-106242084D01*
X129039756Y-105888917D01*
X128849812Y-105762000D01*
X129394196Y-105762000D01*
X129832309Y-106200113D01*
X129804265Y-106242084D01*
X129721400Y-106658673D01*
X129721400Y-106701327D01*
X129804265Y-107117916D01*
X130040244Y-107471083D01*
X130393411Y-107707062D01*
X130810000Y-107789927D01*
X131226589Y-107707062D01*
X131579756Y-107471083D01*
X131815735Y-107117916D01*
X131832825Y-107032000D01*
X136270995Y-107032000D01*
X136271000Y-107032001D01*
X136271005Y-107032000D01*
X139309571Y-107032000D01*
X139402223Y-107124814D01*
X139595113Y-107204908D01*
X139803971Y-107205091D01*
X139997000Y-107125333D01*
X140144814Y-106977777D01*
X140224908Y-106784887D01*
X140225091Y-106576029D01*
X140145333Y-106383000D01*
X139997777Y-106235186D01*
X139804887Y-106155092D01*
X139596029Y-106154909D01*
X139403000Y-106234667D01*
X139309504Y-106328000D01*
X136924803Y-106328000D01*
X136877000Y-106280196D01*
X136877000Y-101763383D01*
X139529857Y-101763383D01*
X139655191Y-102066715D01*
X139887065Y-102298993D01*
X140190177Y-102424857D01*
X140518383Y-102425143D01*
X140821715Y-102299809D01*
X141053993Y-102067935D01*
X141179857Y-101764823D01*
X141179858Y-101763383D01*
X142029857Y-101763383D01*
X142155191Y-102066715D01*
X142387065Y-102298993D01*
X142503000Y-102347134D01*
X142503000Y-102448523D01*
X142502999Y-102448528D01*
X142529794Y-102583233D01*
X142606098Y-102697430D01*
X142732568Y-102823899D01*
X142732570Y-102823902D01*
X142846767Y-102900206D01*
X142981472Y-102927000D01*
X149080498Y-102927000D01*
X149118000Y-102952624D01*
X149118000Y-102981161D01*
X148928000Y-103059667D01*
X148780186Y-103207223D01*
X148700092Y-103400113D01*
X148699909Y-103608971D01*
X148779667Y-103802000D01*
X148927223Y-103949814D01*
X149120113Y-104029908D01*
X149328971Y-104030091D01*
X149522000Y-103950333D01*
X149669814Y-103802777D01*
X149749908Y-103609887D01*
X149750037Y-103462305D01*
X149795206Y-103394705D01*
X149822000Y-103260000D01*
X149822000Y-102951737D01*
X149879960Y-102914441D01*
X149931334Y-102839253D01*
X149940143Y-102795750D01*
X150737000Y-102795750D01*
X150737000Y-102856020D01*
X150818144Y-103051920D01*
X150968080Y-103201855D01*
X151163979Y-103283000D01*
X151261750Y-103283000D01*
X151395000Y-103149750D01*
X151395000Y-102662500D01*
X151645000Y-102662500D01*
X151645000Y-103149750D01*
X151778250Y-103283000D01*
X151876021Y-103283000D01*
X152071920Y-103201855D01*
X152221856Y-103051920D01*
X152303000Y-102856020D01*
X152303000Y-102795750D01*
X152169750Y-102662500D01*
X151645000Y-102662500D01*
X151395000Y-102662500D01*
X150870250Y-102662500D01*
X150737000Y-102795750D01*
X149940143Y-102795750D01*
X149949408Y-102750000D01*
X149949408Y-102581891D01*
X150021920Y-102551855D01*
X150171856Y-102401920D01*
X150253000Y-102206020D01*
X150253000Y-102145750D01*
X150119750Y-102012500D01*
X149595000Y-102012500D01*
X149595000Y-102100000D01*
X149345000Y-102100000D01*
X149345000Y-102012500D01*
X148820250Y-102012500D01*
X148687000Y-102145750D01*
X148687000Y-102206020D01*
X148694033Y-102223000D01*
X143398658Y-102223000D01*
X143553993Y-102067935D01*
X143679857Y-101764823D01*
X143680143Y-101436617D01*
X143554809Y-101133285D01*
X143322935Y-100901007D01*
X143019823Y-100775143D01*
X142691617Y-100774857D01*
X142388285Y-100900191D01*
X142156007Y-101132065D01*
X142030143Y-101435177D01*
X142029857Y-101763383D01*
X141179858Y-101763383D01*
X141180143Y-101436617D01*
X141054809Y-101133285D01*
X140822935Y-100901007D01*
X140519823Y-100775143D01*
X140191617Y-100774857D01*
X139888285Y-100900191D01*
X139656007Y-101132065D01*
X139530143Y-101435177D01*
X139529857Y-101763383D01*
X136877000Y-101763383D01*
X136877000Y-100343980D01*
X148687000Y-100343980D01*
X148687000Y-100404250D01*
X148820250Y-100537500D01*
X149345000Y-100537500D01*
X149345000Y-100050250D01*
X149595000Y-100050250D01*
X149595000Y-100537500D01*
X150119750Y-100537500D01*
X150253000Y-100404250D01*
X150253000Y-100343980D01*
X150171856Y-100148080D01*
X150021920Y-99998145D01*
X149826021Y-99917000D01*
X149728250Y-99917000D01*
X149595000Y-100050250D01*
X149345000Y-100050250D01*
X149211750Y-99917000D01*
X149113979Y-99917000D01*
X148918080Y-99998145D01*
X148768144Y-100148080D01*
X148687000Y-100343980D01*
X136877000Y-100343980D01*
X136877000Y-98528971D01*
X148064909Y-98528971D01*
X148144667Y-98722000D01*
X148292223Y-98869814D01*
X148485113Y-98949908D01*
X148693971Y-98950091D01*
X148887000Y-98870333D01*
X149034814Y-98722777D01*
X149114908Y-98529887D01*
X149115024Y-98397780D01*
X150234755Y-97278048D01*
X150234758Y-97278046D01*
X150311062Y-97163849D01*
X150337856Y-97029144D01*
X150337856Y-93563202D01*
X150384908Y-93449887D01*
X150385091Y-93241029D01*
X150305333Y-93048000D01*
X150157777Y-92900186D01*
X149964887Y-92820092D01*
X149756029Y-92819909D01*
X149563000Y-92899667D01*
X149415186Y-93047223D01*
X149335092Y-93240113D01*
X149334909Y-93448971D01*
X149414667Y-93642000D01*
X149562223Y-93789814D01*
X149633856Y-93819558D01*
X149633856Y-96883341D01*
X148617172Y-97900024D01*
X148486029Y-97899909D01*
X148293000Y-97979667D01*
X148145186Y-98127223D01*
X148065092Y-98320113D01*
X148064909Y-98528971D01*
X136877000Y-98528971D01*
X136877000Y-98153119D01*
X143565736Y-98153119D01*
X143634187Y-98342672D01*
X144091217Y-98454976D01*
X144556436Y-98383834D01*
X144655813Y-98342672D01*
X144724264Y-98153119D01*
X144145000Y-97573855D01*
X143565736Y-98153119D01*
X136877000Y-98153119D01*
X136877000Y-97196217D01*
X142940024Y-97196217D01*
X143011166Y-97661436D01*
X143052328Y-97760813D01*
X143241881Y-97829264D01*
X143821145Y-97250000D01*
X144468855Y-97250000D01*
X145048119Y-97829264D01*
X145237672Y-97760813D01*
X145349976Y-97303783D01*
X145278834Y-96838564D01*
X145237672Y-96739187D01*
X145048119Y-96670736D01*
X144468855Y-97250000D01*
X143821145Y-97250000D01*
X143241881Y-96670736D01*
X143052328Y-96739187D01*
X142940024Y-97196217D01*
X136877000Y-97196217D01*
X136877000Y-94600000D01*
X143265592Y-94600000D01*
X143265592Y-95900000D01*
X143281281Y-95983380D01*
X143330559Y-96059960D01*
X143405747Y-96111334D01*
X143495000Y-96129408D01*
X143701594Y-96129408D01*
X143634187Y-96157328D01*
X143565736Y-96346881D01*
X144145000Y-96926145D01*
X144724264Y-96346881D01*
X144655813Y-96157328D01*
X144542190Y-96129408D01*
X144795000Y-96129408D01*
X144878380Y-96113719D01*
X144954960Y-96064441D01*
X145006334Y-95989253D01*
X145024408Y-95900000D01*
X145024408Y-94600000D01*
X145008719Y-94516620D01*
X144959441Y-94440040D01*
X144884253Y-94388666D01*
X144795000Y-94370592D01*
X143495000Y-94370592D01*
X143411620Y-94386281D01*
X143335040Y-94435559D01*
X143283666Y-94510747D01*
X143265592Y-94600000D01*
X136877000Y-94600000D01*
X136877000Y-92178971D01*
X141714909Y-92178971D01*
X141794667Y-92372000D01*
X141942223Y-92519814D01*
X142135113Y-92599908D01*
X142343971Y-92600091D01*
X142537000Y-92520333D01*
X142684814Y-92372777D01*
X142764908Y-92179887D01*
X142765024Y-92047780D01*
X143020803Y-91792000D01*
X148199571Y-91792000D01*
X148292223Y-91884814D01*
X148485113Y-91964908D01*
X148693971Y-91965091D01*
X148887000Y-91885333D01*
X148980496Y-91792000D01*
X151374571Y-91792000D01*
X151467223Y-91884814D01*
X151660113Y-91964908D01*
X151868971Y-91965091D01*
X152062000Y-91885333D01*
X152209814Y-91737777D01*
X152289908Y-91544887D01*
X152290091Y-91336029D01*
X152210333Y-91143000D01*
X152062777Y-90995186D01*
X151869887Y-90915092D01*
X151661029Y-90914909D01*
X151468000Y-90994667D01*
X151374504Y-91088000D01*
X148980429Y-91088000D01*
X148887777Y-90995186D01*
X148694887Y-90915092D01*
X148486029Y-90914909D01*
X148293000Y-90994667D01*
X148199504Y-91088000D01*
X142875005Y-91088000D01*
X142875000Y-91087999D01*
X142762644Y-91110348D01*
X142740295Y-91114794D01*
X142626098Y-91191098D01*
X142626096Y-91191101D01*
X142267173Y-91550024D01*
X142136029Y-91549909D01*
X141943000Y-91629667D01*
X141795186Y-91777223D01*
X141715092Y-91970113D01*
X141714909Y-92178971D01*
X136877000Y-92178971D01*
X136877000Y-91440000D01*
X136850206Y-91305295D01*
X136773902Y-91191098D01*
X136773899Y-91191096D01*
X135607000Y-90024196D01*
X135607000Y-89455432D01*
X135699814Y-89362780D01*
X135779908Y-89169890D01*
X135780091Y-88961032D01*
X135700333Y-88768003D01*
X135597461Y-88664951D01*
X135699814Y-88562777D01*
X135779908Y-88369887D01*
X135780091Y-88161029D01*
X135700333Y-87968000D01*
X135552777Y-87820186D01*
X135359887Y-87740092D01*
X135151029Y-87739909D01*
X134958000Y-87819667D01*
X134864504Y-87913000D01*
X131209803Y-87913000D01*
X131162000Y-87865196D01*
X131162000Y-85725005D01*
X131162001Y-85725000D01*
X131135206Y-85590296D01*
X131135206Y-85590295D01*
X131058902Y-85476098D01*
X131058899Y-85476096D01*
X127524976Y-81942172D01*
X127525091Y-81811029D01*
X127445333Y-81618000D01*
X127297777Y-81470186D01*
X127104887Y-81390092D01*
X126896029Y-81389909D01*
X126703000Y-81469667D01*
X126555186Y-81617223D01*
X126475092Y-81810113D01*
X126474909Y-82018971D01*
X126554667Y-82212000D01*
X126702223Y-82359814D01*
X126895113Y-82439908D01*
X127027220Y-82440024D01*
X130458000Y-85870803D01*
X130458000Y-88010995D01*
X130457999Y-88011000D01*
X130458000Y-88011005D01*
X130458000Y-88518995D01*
X130457999Y-88519000D01*
X130458000Y-88519005D01*
X130458000Y-89779571D01*
X130365186Y-89872223D01*
X130285092Y-90065113D01*
X130284909Y-90273971D01*
X130364667Y-90467000D01*
X130512223Y-90614814D01*
X130705113Y-90694908D01*
X130913971Y-90695091D01*
X131107000Y-90615333D01*
X131254814Y-90467777D01*
X131334908Y-90274887D01*
X131335091Y-90066029D01*
X131255333Y-89873000D01*
X131162000Y-89779504D01*
X131162000Y-88664804D01*
X131209803Y-88617000D01*
X134864571Y-88617000D01*
X134912539Y-88665052D01*
X134810186Y-88767226D01*
X134730092Y-88960116D01*
X134729909Y-89168974D01*
X134809667Y-89362003D01*
X134903000Y-89455499D01*
X134903000Y-90169995D01*
X134902999Y-90170000D01*
X134929794Y-90304705D01*
X135006098Y-90418902D01*
X136173000Y-91585803D01*
X136173000Y-106280197D01*
X136125196Y-106328000D01*
X131832825Y-106328000D01*
X131815735Y-106242084D01*
X131579756Y-105888917D01*
X131226589Y-105652938D01*
X130810000Y-105570073D01*
X130393411Y-105652938D01*
X130325871Y-105698067D01*
X129788902Y-105161098D01*
X129674705Y-105084794D01*
X129540000Y-105057999D01*
X129539995Y-105058000D01*
X128849812Y-105058000D01*
X129039756Y-104931083D01*
X129273204Y-104581703D01*
X129485069Y-104581703D01*
X129754956Y-105055110D01*
X130185464Y-105389199D01*
X130368300Y-105464913D01*
X130581000Y-105382422D01*
X130581000Y-104369000D01*
X131039000Y-104369000D01*
X131039000Y-105382422D01*
X131251700Y-105464913D01*
X131434536Y-105389199D01*
X131865044Y-105055110D01*
X132134931Y-104581703D01*
X132054466Y-104369000D01*
X131039000Y-104369000D01*
X130581000Y-104369000D01*
X129565534Y-104369000D01*
X129485069Y-104581703D01*
X129273204Y-104581703D01*
X129275735Y-104577916D01*
X129358600Y-104161327D01*
X129358600Y-104118673D01*
X129275735Y-103702084D01*
X129273205Y-103698297D01*
X129485069Y-103698297D01*
X129565534Y-103911000D01*
X130581000Y-103911000D01*
X130581000Y-102897578D01*
X131039000Y-102897578D01*
X131039000Y-103911000D01*
X132054466Y-103911000D01*
X132134931Y-103698297D01*
X131865044Y-103224890D01*
X131434536Y-102890801D01*
X131251700Y-102815087D01*
X131039000Y-102897578D01*
X130581000Y-102897578D01*
X130368300Y-102815087D01*
X130185464Y-102890801D01*
X129754956Y-103224890D01*
X129485069Y-103698297D01*
X129273205Y-103698297D01*
X129039756Y-103348917D01*
X128686589Y-103112938D01*
X128270000Y-103030073D01*
X127853411Y-103112938D01*
X127500244Y-103348917D01*
X127264265Y-103702084D01*
X127181400Y-104118673D01*
X127181400Y-104161327D01*
X127264265Y-104577916D01*
X127500244Y-104931083D01*
X127690188Y-105058000D01*
X126309812Y-105058000D01*
X126499756Y-104931083D01*
X126735735Y-104577916D01*
X126818600Y-104161327D01*
X126818600Y-104118673D01*
X126735735Y-103702084D01*
X126499756Y-103348917D01*
X126146589Y-103112938D01*
X125730000Y-103030073D01*
X125313411Y-103112938D01*
X124960244Y-103348917D01*
X124724265Y-103702084D01*
X124641400Y-104118673D01*
X124641400Y-104161327D01*
X124724265Y-104577916D01*
X124960244Y-104931083D01*
X125150188Y-105058000D01*
X115334803Y-105058000D01*
X115287000Y-105010196D01*
X115287000Y-87170574D01*
X115718281Y-87170574D01*
X115770657Y-87347419D01*
X116181588Y-87438473D01*
X116596084Y-87365338D01*
X116639343Y-87347419D01*
X116691719Y-87170574D01*
X116205000Y-86683855D01*
X115718281Y-87170574D01*
X115287000Y-87170574D01*
X115287000Y-86814903D01*
X115394426Y-86846719D01*
X115881145Y-86360000D01*
X115394426Y-85873281D01*
X115287000Y-85905097D01*
X115287000Y-85235804D01*
X115455019Y-85067784D01*
X115454870Y-85238530D01*
X115568811Y-85514286D01*
X115779605Y-85725448D01*
X115975749Y-85806894D01*
X116205000Y-86036145D01*
X116219142Y-86022003D01*
X116542997Y-86345858D01*
X116528855Y-86360000D01*
X116720592Y-86551737D01*
X116720592Y-86885000D01*
X116736281Y-86968380D01*
X116785559Y-87044960D01*
X116860747Y-87096334D01*
X116950000Y-87114408D01*
X118000000Y-87114408D01*
X118082040Y-87098971D01*
X120124909Y-87098971D01*
X120204667Y-87292000D01*
X120298000Y-87385496D01*
X120298000Y-99939571D01*
X120205186Y-100032223D01*
X120125092Y-100225113D01*
X120124909Y-100433971D01*
X120204667Y-100627000D01*
X120352223Y-100774814D01*
X120545113Y-100854908D01*
X120753971Y-100855091D01*
X120933000Y-100781118D01*
X120933000Y-101454197D01*
X120401098Y-101986098D01*
X120324794Y-102100295D01*
X120297999Y-102235000D01*
X120298000Y-102235005D01*
X120298000Y-102479571D01*
X120205186Y-102572223D01*
X120125092Y-102765113D01*
X120124909Y-102973971D01*
X120204667Y-103167000D01*
X120352223Y-103314814D01*
X120545113Y-103394908D01*
X120753971Y-103395091D01*
X120947000Y-103315333D01*
X121094814Y-103167777D01*
X121174908Y-102974887D01*
X121175091Y-102766029D01*
X121095333Y-102573000D01*
X121002000Y-102479504D01*
X121002000Y-102380804D01*
X121533899Y-101848904D01*
X121533902Y-101848902D01*
X121610206Y-101734705D01*
X121621205Y-101679408D01*
X121637001Y-101600000D01*
X121637000Y-101599995D01*
X121637000Y-98788119D01*
X123245736Y-98788119D01*
X123314187Y-98977672D01*
X123771217Y-99089976D01*
X124236436Y-99018834D01*
X124335813Y-98977672D01*
X124404264Y-98788119D01*
X130230736Y-98788119D01*
X130299187Y-98977672D01*
X130756217Y-99089976D01*
X131221436Y-99018834D01*
X131320813Y-98977672D01*
X131389264Y-98788119D01*
X130810000Y-98208855D01*
X130230736Y-98788119D01*
X124404264Y-98788119D01*
X123825000Y-98208855D01*
X123245736Y-98788119D01*
X121637000Y-98788119D01*
X121637000Y-97831217D01*
X122620024Y-97831217D01*
X122691166Y-98296436D01*
X122732328Y-98395813D01*
X122921881Y-98464264D01*
X123501145Y-97885000D01*
X124148855Y-97885000D01*
X124728119Y-98464264D01*
X124917672Y-98395813D01*
X125029976Y-97938783D01*
X125013527Y-97831217D01*
X129605024Y-97831217D01*
X129676166Y-98296436D01*
X129717328Y-98395813D01*
X129906881Y-98464264D01*
X130486145Y-97885000D01*
X131133855Y-97885000D01*
X131713119Y-98464264D01*
X131902672Y-98395813D01*
X132014976Y-97938783D01*
X131943834Y-97473564D01*
X131902672Y-97374187D01*
X131713119Y-97305736D01*
X131133855Y-97885000D01*
X130486145Y-97885000D01*
X129906881Y-97305736D01*
X129717328Y-97374187D01*
X129605024Y-97831217D01*
X125013527Y-97831217D01*
X124958834Y-97473564D01*
X124917672Y-97374187D01*
X124728119Y-97305736D01*
X124148855Y-97885000D01*
X123501145Y-97885000D01*
X122921881Y-97305736D01*
X122732328Y-97374187D01*
X122620024Y-97831217D01*
X121637000Y-97831217D01*
X121637000Y-95235000D01*
X122945592Y-95235000D01*
X122945592Y-96535000D01*
X122961281Y-96618380D01*
X123010559Y-96694960D01*
X123085747Y-96746334D01*
X123175000Y-96764408D01*
X123381594Y-96764408D01*
X123314187Y-96792328D01*
X123245736Y-96981881D01*
X123825000Y-97561145D01*
X124404264Y-96981881D01*
X124335813Y-96792328D01*
X124222190Y-96764408D01*
X124475000Y-96764408D01*
X124558380Y-96748719D01*
X124634960Y-96699441D01*
X124686334Y-96624253D01*
X124704408Y-96535000D01*
X124704408Y-95235000D01*
X129930592Y-95235000D01*
X129930592Y-96535000D01*
X129946281Y-96618380D01*
X129995559Y-96694960D01*
X130070747Y-96746334D01*
X130160000Y-96764408D01*
X130366594Y-96764408D01*
X130299187Y-96792328D01*
X130230736Y-96981881D01*
X130810000Y-97561145D01*
X131389264Y-96981881D01*
X131320813Y-96792328D01*
X131207190Y-96764408D01*
X131460000Y-96764408D01*
X131543380Y-96748719D01*
X131619960Y-96699441D01*
X131671334Y-96624253D01*
X131689408Y-96535000D01*
X131689408Y-95235000D01*
X131673719Y-95151620D01*
X131624441Y-95075040D01*
X131549253Y-95023666D01*
X131460000Y-95005592D01*
X130160000Y-95005592D01*
X130076620Y-95021281D01*
X130000040Y-95070559D01*
X129948666Y-95145747D01*
X129930592Y-95235000D01*
X124704408Y-95235000D01*
X124688719Y-95151620D01*
X124639441Y-95075040D01*
X124564253Y-95023666D01*
X124475000Y-95005592D01*
X124177000Y-95005592D01*
X124177000Y-94083971D01*
X127744909Y-94083971D01*
X127824667Y-94277000D01*
X127972223Y-94424814D01*
X128165113Y-94504908D01*
X128373971Y-94505091D01*
X128567000Y-94425333D01*
X128660496Y-94332000D01*
X131054571Y-94332000D01*
X131147223Y-94424814D01*
X131340113Y-94504908D01*
X131548971Y-94505091D01*
X131742000Y-94425333D01*
X131889814Y-94277777D01*
X131969908Y-94084887D01*
X131970091Y-93876029D01*
X131890333Y-93683000D01*
X131742777Y-93535186D01*
X131549887Y-93455092D01*
X131341029Y-93454909D01*
X131148000Y-93534667D01*
X131054504Y-93628000D01*
X128660429Y-93628000D01*
X128567777Y-93535186D01*
X128374887Y-93455092D01*
X128166029Y-93454909D01*
X127973000Y-93534667D01*
X127825186Y-93682223D01*
X127745092Y-93875113D01*
X127744909Y-94083971D01*
X124177000Y-94083971D01*
X124177000Y-92813971D01*
X133459909Y-92813971D01*
X133539667Y-93007000D01*
X133633000Y-93100496D01*
X133633000Y-94859571D01*
X133540186Y-94952223D01*
X133460092Y-95145113D01*
X133459909Y-95353971D01*
X133539667Y-95547000D01*
X133687223Y-95694814D01*
X133880113Y-95774908D01*
X134088971Y-95775091D01*
X134098877Y-95770998D01*
X134095092Y-95780113D01*
X134094909Y-95988971D01*
X134174667Y-96182000D01*
X134322223Y-96329814D01*
X134515113Y-96409908D01*
X134723971Y-96410091D01*
X134917000Y-96330333D01*
X135064814Y-96182777D01*
X135144908Y-95989887D01*
X135145091Y-95781029D01*
X135065333Y-95588000D01*
X134972000Y-95494504D01*
X134972000Y-93735429D01*
X135064814Y-93642777D01*
X135144908Y-93449887D01*
X135145091Y-93241029D01*
X135065333Y-93048000D01*
X134917777Y-92900186D01*
X134724887Y-92820092D01*
X134516029Y-92819909D01*
X134506123Y-92824002D01*
X134509908Y-92814887D01*
X134510091Y-92606029D01*
X134430333Y-92413000D01*
X134282777Y-92265186D01*
X134089887Y-92185092D01*
X133881029Y-92184909D01*
X133688000Y-92264667D01*
X133540186Y-92412223D01*
X133460092Y-92605113D01*
X133459909Y-92813971D01*
X124177000Y-92813971D01*
X124177000Y-91195429D01*
X124269814Y-91102777D01*
X124349908Y-90909887D01*
X124350091Y-90701029D01*
X124270333Y-90508000D01*
X124122777Y-90360186D01*
X123929887Y-90280092D01*
X123721029Y-90279909D01*
X123528000Y-90359667D01*
X123380186Y-90507223D01*
X123300092Y-90700113D01*
X123299909Y-90908971D01*
X123379667Y-91102000D01*
X123473000Y-91195496D01*
X123473000Y-95005592D01*
X123175000Y-95005592D01*
X123091620Y-95021281D01*
X123015040Y-95070559D01*
X122963666Y-95145747D01*
X122945592Y-95235000D01*
X121637000Y-95235000D01*
X121637000Y-88020429D01*
X121729814Y-87927777D01*
X121809908Y-87734887D01*
X121810091Y-87526029D01*
X121730333Y-87333000D01*
X121582777Y-87185186D01*
X121389887Y-87105092D01*
X121181029Y-87104909D01*
X121171123Y-87109002D01*
X121174908Y-87099887D01*
X121175091Y-86891029D01*
X121095333Y-86698000D01*
X120947777Y-86550186D01*
X120754887Y-86470092D01*
X120546029Y-86469909D01*
X120353000Y-86549667D01*
X120205186Y-86697223D01*
X120125092Y-86890113D01*
X120124909Y-87098971D01*
X118082040Y-87098971D01*
X118083380Y-87098719D01*
X118159960Y-87049441D01*
X118211334Y-86974253D01*
X118229408Y-86885000D01*
X118229408Y-85835000D01*
X118213719Y-85751620D01*
X118164441Y-85675040D01*
X118089253Y-85623666D01*
X118016705Y-85608975D01*
X118110448Y-85515395D01*
X118224869Y-85239839D01*
X118225130Y-84941470D01*
X118194782Y-84868022D01*
X118717827Y-84344976D01*
X118848971Y-84345091D01*
X119042000Y-84265333D01*
X119189814Y-84117777D01*
X119269908Y-83924887D01*
X119270091Y-83716029D01*
X119190333Y-83523000D01*
X119042777Y-83375186D01*
X118849887Y-83295092D01*
X118641029Y-83294909D01*
X118448000Y-83374667D01*
X118300186Y-83522223D01*
X118225102Y-83703047D01*
X118225130Y-83671470D01*
X118111189Y-83395714D01*
X117900660Y-83184817D01*
X118110448Y-82975395D01*
X118224869Y-82699839D01*
X118225130Y-82401470D01*
X118111189Y-82125714D01*
X117900660Y-81914817D01*
X118110448Y-81705395D01*
X118224869Y-81429839D01*
X118225130Y-81131470D01*
X118111189Y-80855714D01*
X117900395Y-80644552D01*
X117624839Y-80530131D01*
X117326470Y-80529870D01*
X117050714Y-80643811D01*
X116839552Y-80854605D01*
X116758106Y-81050749D01*
X116528855Y-81280000D01*
X116542997Y-81294142D01*
X116219142Y-81617997D01*
X116205000Y-81603855D01*
X115975549Y-81833306D01*
X115780714Y-81913811D01*
X115569552Y-82124605D01*
X115455131Y-82400161D01*
X115454870Y-82698530D01*
X115568811Y-82974286D01*
X115779340Y-83185183D01*
X115569552Y-83394605D01*
X115455131Y-83670161D01*
X115454870Y-83968530D01*
X115485218Y-84041978D01*
X114686098Y-84841098D01*
X114609794Y-84955295D01*
X114582999Y-85090000D01*
X112642500Y-85090000D01*
X112642500Y-81256588D01*
X115126527Y-81256588D01*
X115199662Y-81671084D01*
X115217581Y-81714343D01*
X115394426Y-81766719D01*
X115881145Y-81280000D01*
X115394426Y-80793281D01*
X115217581Y-80845657D01*
X115126527Y-81256588D01*
X112642500Y-81256588D01*
X112642500Y-80469426D01*
X115718281Y-80469426D01*
X116205000Y-80956145D01*
X116691719Y-80469426D01*
X116639343Y-80292581D01*
X116228412Y-80201527D01*
X115813916Y-80274662D01*
X115770657Y-80292581D01*
X115718281Y-80469426D01*
X112642500Y-80469426D01*
X112642500Y-78843971D01*
X132824909Y-78843971D01*
X132904667Y-79037000D01*
X133052223Y-79184814D01*
X133245113Y-79264908D01*
X133453971Y-79265091D01*
X133647000Y-79185333D01*
X133740496Y-79092000D01*
X135744196Y-79092000D01*
X139451096Y-82798899D01*
X139451098Y-82798902D01*
X139565295Y-82875206D01*
X139587644Y-82879652D01*
X139700000Y-82902001D01*
X139700005Y-82902000D01*
X143999196Y-82902000D01*
X149508000Y-88410803D01*
X149508000Y-88509571D01*
X149415186Y-88602223D01*
X149335092Y-88795113D01*
X149334909Y-89003971D01*
X149414667Y-89197000D01*
X149562223Y-89344814D01*
X149755113Y-89424908D01*
X149963971Y-89425091D01*
X150157000Y-89345333D01*
X150304814Y-89197777D01*
X150384908Y-89004887D01*
X150385091Y-88796029D01*
X150305333Y-88603000D01*
X150212000Y-88509504D01*
X150212000Y-88265005D01*
X150212001Y-88265000D01*
X150185207Y-88130296D01*
X150159887Y-88092403D01*
X150108902Y-88016098D01*
X150108899Y-88016096D01*
X144393902Y-82301098D01*
X144279705Y-82224794D01*
X144145000Y-82197999D01*
X144144995Y-82198000D01*
X139845803Y-82198000D01*
X136138902Y-78491098D01*
X136024705Y-78414794D01*
X135890000Y-78387999D01*
X135889995Y-78388000D01*
X133740429Y-78388000D01*
X133647777Y-78295186D01*
X133454887Y-78215092D01*
X133246029Y-78214909D01*
X133053000Y-78294667D01*
X132905186Y-78442223D01*
X132825092Y-78635113D01*
X132824909Y-78843971D01*
X112642500Y-78843971D01*
X112642500Y-77573971D01*
X117584909Y-77573971D01*
X117664667Y-77767000D01*
X117812223Y-77914814D01*
X118005113Y-77994908D01*
X118213971Y-77995091D01*
X118407000Y-77915333D01*
X118554814Y-77767777D01*
X118634908Y-77574887D01*
X118635024Y-77442780D01*
X119525803Y-76552000D01*
X133594571Y-76552000D01*
X133687223Y-76644814D01*
X133880113Y-76724908D01*
X134088971Y-76725091D01*
X134282000Y-76645333D01*
X134429814Y-76497777D01*
X134509908Y-76304887D01*
X134510091Y-76096029D01*
X134430333Y-75903000D01*
X134282777Y-75755186D01*
X134089887Y-75675092D01*
X133881029Y-75674909D01*
X133688000Y-75754667D01*
X133594504Y-75848000D01*
X123496339Y-75848000D01*
X123672286Y-75775300D01*
X124228348Y-75220209D01*
X124529657Y-74494575D01*
X124530343Y-73708872D01*
X124230300Y-72982714D01*
X123675209Y-72426652D01*
X122949575Y-72125343D01*
X122163872Y-72124657D01*
X121437714Y-72424700D01*
X120881652Y-72979791D01*
X120580343Y-73705425D01*
X120579657Y-74491128D01*
X120879700Y-75217286D01*
X121434791Y-75773348D01*
X121614573Y-75848000D01*
X119380000Y-75848000D01*
X119245295Y-75874794D01*
X119131098Y-75951098D01*
X119131096Y-75951101D01*
X118137172Y-76945024D01*
X118006029Y-76944909D01*
X117813000Y-77024667D01*
X117665186Y-77172223D01*
X117585092Y-77365113D01*
X117584909Y-77573971D01*
X112642500Y-77573971D01*
X112642500Y-64187500D01*
X113540000Y-64187500D01*
X113540000Y-70485000D01*
X113540000Y-70485000D01*
G37*
X113540000Y-70485000D02*
X113548549Y-70530432D01*
X113575399Y-70572159D01*
X113616368Y-70600152D01*
X113665000Y-70610000D01*
X122555000Y-70610000D01*
X122600432Y-70601451D01*
X122642159Y-70574601D01*
X122670152Y-70533632D01*
X122680000Y-70485000D01*
X122680000Y-67930000D01*
X129295592Y-67930000D01*
X129295592Y-69230000D01*
X129311281Y-69313380D01*
X129360559Y-69389960D01*
X129435747Y-69441334D01*
X129525000Y-69459408D01*
X130825000Y-69459408D01*
X130908380Y-69443719D01*
X130984960Y-69394441D01*
X131036334Y-69319253D01*
X131054408Y-69230000D01*
X131054408Y-67930000D01*
X131038719Y-67846620D01*
X130989441Y-67770040D01*
X130914253Y-67718666D01*
X130825000Y-67700592D01*
X130618406Y-67700592D01*
X130685813Y-67672672D01*
X130754264Y-67483119D01*
X130175000Y-66903855D01*
X129595736Y-67483119D01*
X129664187Y-67672672D01*
X129777810Y-67700592D01*
X129525000Y-67700592D01*
X129441620Y-67716281D01*
X129365040Y-67765559D01*
X129313666Y-67840747D01*
X129295592Y-67930000D01*
X122680000Y-67930000D01*
X122680000Y-66526217D01*
X128970024Y-66526217D01*
X129041166Y-66991436D01*
X129082328Y-67090813D01*
X129271881Y-67159264D01*
X129851145Y-66580000D01*
X130498855Y-66580000D01*
X131078119Y-67159264D01*
X131267672Y-67090813D01*
X131379976Y-66633783D01*
X131308834Y-66168564D01*
X131267672Y-66069187D01*
X131078119Y-66000736D01*
X130498855Y-66580000D01*
X129851145Y-66580000D01*
X129271881Y-66000736D01*
X129082328Y-66069187D01*
X128970024Y-66526217D01*
X122680000Y-66526217D01*
X122680000Y-65676881D01*
X129595736Y-65676881D01*
X130175000Y-66256145D01*
X130754264Y-65676881D01*
X130685813Y-65487328D01*
X130228783Y-65375024D01*
X129763564Y-65446166D01*
X129664187Y-65487328D01*
X129595736Y-65676881D01*
X122680000Y-65676881D01*
X122680000Y-64187500D01*
X157990000Y-64187500D01*
X157990000Y-81915000D01*
X157998549Y-81960432D01*
X158025399Y-82002159D01*
X158066368Y-82030152D01*
X158115000Y-82040000D01*
X163502864Y-82040000D01*
X163504794Y-82049705D01*
X163581098Y-82163902D01*
X165845024Y-84427827D01*
X165844909Y-84558971D01*
X165924667Y-84752000D01*
X166072223Y-84899814D01*
X166265113Y-84979908D01*
X166473971Y-84980091D01*
X166667000Y-84900333D01*
X166814814Y-84752777D01*
X166894908Y-84559887D01*
X166895091Y-84351029D01*
X166815333Y-84158000D01*
X166667777Y-84010186D01*
X166474887Y-83930092D01*
X166342779Y-83929976D01*
X164452804Y-82040000D01*
X175649197Y-82040000D01*
X177678096Y-84068899D01*
X177678098Y-84068902D01*
X177750082Y-84117000D01*
X177792295Y-84145206D01*
X177927000Y-84172000D01*
X179314571Y-84172000D01*
X179407223Y-84264814D01*
X179600113Y-84344908D01*
X179808971Y-84345091D01*
X180002000Y-84265333D01*
X180149814Y-84117777D01*
X180229908Y-83924887D01*
X180230091Y-83716029D01*
X180150333Y-83523000D01*
X180002777Y-83375186D01*
X179809887Y-83295092D01*
X179601029Y-83294909D01*
X179408000Y-83374667D01*
X179314504Y-83468000D01*
X178072803Y-83468000D01*
X176644803Y-82040000D01*
X182245000Y-82040000D01*
X182290432Y-82031451D01*
X182332159Y-82004601D01*
X182360152Y-81963632D01*
X182370000Y-81915000D01*
X182370000Y-76074840D01*
X182946128Y-76075343D01*
X183672286Y-75775300D01*
X184228348Y-75220209D01*
X184529657Y-74494575D01*
X184530343Y-73708872D01*
X184230300Y-72982714D01*
X183675209Y-72426652D01*
X182949575Y-72125343D01*
X182370000Y-72124837D01*
X182370000Y-70844066D01*
X186725186Y-70844066D01*
X190509980Y-74628859D01*
X190509980Y-123938085D01*
X189343084Y-125104980D01*
X161804849Y-125104980D01*
X160734947Y-124035077D01*
X169023778Y-124035077D01*
X169082167Y-124216633D01*
X169510274Y-124315604D01*
X169943667Y-124243212D01*
X170007833Y-124216633D01*
X170066222Y-124035077D01*
X169545000Y-123513855D01*
X169023778Y-124035077D01*
X160734947Y-124035077D01*
X159855144Y-123155274D01*
X168419396Y-123155274D01*
X168491788Y-123588667D01*
X168518367Y-123652833D01*
X168699923Y-123711222D01*
X169221145Y-123190000D01*
X169868855Y-123190000D01*
X170390077Y-123711222D01*
X170571633Y-123652833D01*
X170642165Y-123347738D01*
X173193362Y-123347738D01*
X173314367Y-123640591D01*
X173538230Y-123864846D01*
X173830871Y-123986361D01*
X174147738Y-123986638D01*
X174440591Y-123865633D01*
X174664846Y-123641770D01*
X174786361Y-123349129D01*
X174786362Y-123347738D01*
X177638362Y-123347738D01*
X177759367Y-123640591D01*
X177983230Y-123864846D01*
X178275871Y-123986361D01*
X178592738Y-123986638D01*
X178885591Y-123865633D01*
X179109846Y-123641770D01*
X179231361Y-123349129D01*
X179231513Y-123175000D01*
X182000592Y-123175000D01*
X182000592Y-124475000D01*
X182016281Y-124558380D01*
X182065559Y-124634960D01*
X182140747Y-124686334D01*
X182230000Y-124704408D01*
X183530000Y-124704408D01*
X183613380Y-124688719D01*
X183689960Y-124639441D01*
X183741334Y-124564253D01*
X183759408Y-124475000D01*
X183759408Y-123175000D01*
X183743719Y-123091620D01*
X183694441Y-123015040D01*
X183619253Y-122963666D01*
X183530000Y-122945592D01*
X183323406Y-122945592D01*
X183390813Y-122917672D01*
X183459264Y-122728119D01*
X182880000Y-122148855D01*
X182300736Y-122728119D01*
X182369187Y-122917672D01*
X182482810Y-122945592D01*
X182230000Y-122945592D01*
X182146620Y-122961281D01*
X182070040Y-123010559D01*
X182018666Y-123085747D01*
X182000592Y-123175000D01*
X179231513Y-123175000D01*
X179231638Y-123032262D01*
X179110633Y-122739409D01*
X178886770Y-122515154D01*
X178594129Y-122393639D01*
X178277262Y-122393362D01*
X177984409Y-122514367D01*
X177760154Y-122738230D01*
X177638639Y-123030871D01*
X177638362Y-123347738D01*
X174786362Y-123347738D01*
X174786638Y-123032262D01*
X174665633Y-122739409D01*
X174441770Y-122515154D01*
X174149129Y-122393639D01*
X173832262Y-122393362D01*
X173539409Y-122514367D01*
X173315154Y-122738230D01*
X173193639Y-123030871D01*
X173193362Y-123347738D01*
X170642165Y-123347738D01*
X170670604Y-123224726D01*
X170598212Y-122791333D01*
X170571633Y-122727167D01*
X170390077Y-122668778D01*
X169868855Y-123190000D01*
X169221145Y-123190000D01*
X168699923Y-122668778D01*
X168518367Y-122727167D01*
X168419396Y-123155274D01*
X159855144Y-123155274D01*
X159044793Y-122344923D01*
X169023778Y-122344923D01*
X169545000Y-122866145D01*
X170066222Y-122344923D01*
X170007833Y-122163367D01*
X169579726Y-122064396D01*
X169146333Y-122136788D01*
X169082167Y-122163367D01*
X169023778Y-122344923D01*
X159044793Y-122344923D01*
X158921010Y-122221140D01*
X158921010Y-121771217D01*
X181675024Y-121771217D01*
X181746166Y-122236436D01*
X181787328Y-122335813D01*
X181976881Y-122404264D01*
X182556145Y-121825000D01*
X183203855Y-121825000D01*
X183783119Y-122404264D01*
X183972672Y-122335813D01*
X184084976Y-121878783D01*
X184013834Y-121413564D01*
X183972672Y-121314187D01*
X183783119Y-121245736D01*
X183203855Y-121825000D01*
X182556145Y-121825000D01*
X181976881Y-121245736D01*
X181787328Y-121314187D01*
X181675024Y-121771217D01*
X158921010Y-121771217D01*
X158921010Y-120921881D01*
X182300736Y-120921881D01*
X182880000Y-121501145D01*
X183459264Y-120921881D01*
X183390813Y-120732328D01*
X182933783Y-120620024D01*
X182468564Y-120691166D01*
X182369187Y-120732328D01*
X182300736Y-120921881D01*
X158921010Y-120921881D01*
X158921010Y-118473119D01*
X162615736Y-118473119D01*
X162684187Y-118662672D01*
X163141217Y-118774976D01*
X163606436Y-118703834D01*
X163705813Y-118662672D01*
X163774264Y-118473119D01*
X163195000Y-117893855D01*
X162615736Y-118473119D01*
X158921010Y-118473119D01*
X158921010Y-117591057D01*
X158995850Y-117516217D01*
X161990024Y-117516217D01*
X162061166Y-117981436D01*
X162102328Y-118080813D01*
X162291881Y-118149264D01*
X162871145Y-117570000D01*
X163518855Y-117570000D01*
X164098119Y-118149264D01*
X164287672Y-118080813D01*
X164399976Y-117623783D01*
X164374931Y-117460000D01*
X182000592Y-117460000D01*
X182000592Y-118760000D01*
X182016281Y-118843380D01*
X182065559Y-118919960D01*
X182140747Y-118971334D01*
X182230000Y-118989408D01*
X183530000Y-118989408D01*
X183613380Y-118973719D01*
X183689960Y-118924441D01*
X183741334Y-118849253D01*
X183759408Y-118760000D01*
X183759408Y-117460000D01*
X183743719Y-117376620D01*
X183694441Y-117300040D01*
X183619253Y-117248666D01*
X183530000Y-117230592D01*
X183323406Y-117230592D01*
X183390813Y-117202672D01*
X183459264Y-117013119D01*
X182880000Y-116433855D01*
X182300736Y-117013119D01*
X182369187Y-117202672D01*
X182482810Y-117230592D01*
X182230000Y-117230592D01*
X182146620Y-117246281D01*
X182070040Y-117295559D01*
X182018666Y-117370747D01*
X182000592Y-117460000D01*
X164374931Y-117460000D01*
X164328834Y-117158564D01*
X164287672Y-117059187D01*
X164098119Y-116990736D01*
X163518855Y-117570000D01*
X162871145Y-117570000D01*
X162291881Y-116990736D01*
X162102328Y-117059187D01*
X161990024Y-117516217D01*
X158995850Y-117516217D01*
X158998899Y-117513168D01*
X158998902Y-117513166D01*
X159075206Y-117398969D01*
X159075207Y-117398968D01*
X159102001Y-117264264D01*
X159102000Y-117264259D01*
X159102000Y-117230429D01*
X159194814Y-117137777D01*
X159274908Y-116944887D01*
X159275091Y-116736029D01*
X159195333Y-116543000D01*
X159047777Y-116395186D01*
X158854887Y-116315092D01*
X158646029Y-116314909D01*
X158467000Y-116388882D01*
X158467000Y-114920000D01*
X162315592Y-114920000D01*
X162315592Y-116220000D01*
X162331281Y-116303380D01*
X162380559Y-116379960D01*
X162455747Y-116431334D01*
X162545000Y-116449408D01*
X162751594Y-116449408D01*
X162684187Y-116477328D01*
X162615736Y-116666881D01*
X163195000Y-117246145D01*
X163774264Y-116666881D01*
X163705813Y-116477328D01*
X163592190Y-116449408D01*
X163845000Y-116449408D01*
X163928380Y-116433719D01*
X164004960Y-116384441D01*
X164056334Y-116309253D01*
X164074408Y-116220000D01*
X164074408Y-116056217D01*
X181675024Y-116056217D01*
X181746166Y-116521436D01*
X181787328Y-116620813D01*
X181976881Y-116689264D01*
X182556145Y-116110000D01*
X183203855Y-116110000D01*
X183783119Y-116689264D01*
X183972672Y-116620813D01*
X184084976Y-116163783D01*
X184013834Y-115698564D01*
X183972672Y-115599187D01*
X183783119Y-115530736D01*
X183203855Y-116110000D01*
X182556145Y-116110000D01*
X181976881Y-115530736D01*
X181787328Y-115599187D01*
X181675024Y-116056217D01*
X164074408Y-116056217D01*
X164074408Y-115206881D01*
X182300736Y-115206881D01*
X182880000Y-115786145D01*
X183459264Y-115206881D01*
X183390813Y-115017328D01*
X182933783Y-114905024D01*
X182468564Y-114976166D01*
X182369187Y-115017328D01*
X182300736Y-115206881D01*
X164074408Y-115206881D01*
X164074408Y-114920000D01*
X164058719Y-114836620D01*
X164009441Y-114760040D01*
X163934253Y-114708666D01*
X163845000Y-114690592D01*
X162545000Y-114690592D01*
X162461620Y-114706281D01*
X162385040Y-114755559D01*
X162333666Y-114830747D01*
X162315592Y-114920000D01*
X158467000Y-114920000D01*
X158467000Y-108340429D01*
X158505496Y-108302000D01*
X161924995Y-108302000D01*
X161925000Y-108302001D01*
X162059705Y-108275206D01*
X162173902Y-108198902D01*
X163167827Y-107204976D01*
X163298971Y-107205091D01*
X163308877Y-107200998D01*
X163305092Y-107210113D01*
X163304976Y-107342220D01*
X162946098Y-107701098D01*
X162869794Y-107815295D01*
X162842999Y-107950000D01*
X162843000Y-107950005D01*
X162843000Y-112004571D01*
X162750186Y-112097223D01*
X162670092Y-112290113D01*
X162669909Y-112498971D01*
X162749667Y-112692000D01*
X162897223Y-112839814D01*
X163090113Y-112919908D01*
X163298971Y-112920091D01*
X163492000Y-112840333D01*
X163639814Y-112692777D01*
X163719908Y-112499887D01*
X163720091Y-112291029D01*
X163640333Y-112098000D01*
X163547000Y-112004504D01*
X163547000Y-108095804D01*
X163802827Y-107839976D01*
X163933971Y-107840091D01*
X164127000Y-107760333D01*
X164274814Y-107612777D01*
X164354908Y-107419887D01*
X164355091Y-107211029D01*
X164275333Y-107018000D01*
X164127777Y-106870186D01*
X163934887Y-106790092D01*
X163726029Y-106789909D01*
X163716123Y-106794002D01*
X163719908Y-106784887D01*
X163720091Y-106576029D01*
X163640333Y-106383000D01*
X163492777Y-106235186D01*
X163299887Y-106155092D01*
X163091029Y-106154909D01*
X163081123Y-106159002D01*
X163084908Y-106149887D01*
X163084908Y-106148971D01*
X186164909Y-106148971D01*
X186244667Y-106342000D01*
X186392223Y-106489814D01*
X186518000Y-106542041D01*
X186518000Y-117710571D01*
X186425186Y-117803223D01*
X186345092Y-117996113D01*
X186344909Y-118204971D01*
X186424667Y-118398000D01*
X186572223Y-118545814D01*
X186765113Y-118625908D01*
X186973971Y-118626091D01*
X187167000Y-118546333D01*
X187314814Y-118398777D01*
X187394908Y-118205887D01*
X187395091Y-117997029D01*
X187315333Y-117804000D01*
X187222000Y-117710504D01*
X187222000Y-106225000D01*
X187209601Y-106162667D01*
X187214908Y-106149887D01*
X187215091Y-105941029D01*
X187135333Y-105748000D01*
X186987777Y-105600186D01*
X186794887Y-105520092D01*
X186586029Y-105519909D01*
X186393000Y-105599667D01*
X186245186Y-105747223D01*
X186165092Y-105940113D01*
X186164909Y-106148971D01*
X163084908Y-106148971D01*
X163085091Y-105941029D01*
X163005333Y-105748000D01*
X162857777Y-105600186D01*
X162664887Y-105520092D01*
X162456029Y-105519909D01*
X162446123Y-105524002D01*
X162449908Y-105514887D01*
X162450091Y-105306029D01*
X162370333Y-105113000D01*
X162222777Y-104965186D01*
X162029887Y-104885092D01*
X161821029Y-104884909D01*
X161811123Y-104889002D01*
X161814908Y-104879887D01*
X161815091Y-104671029D01*
X161735333Y-104478000D01*
X161587777Y-104330186D01*
X161394887Y-104250092D01*
X161186029Y-104249909D01*
X160993000Y-104329667D01*
X160845186Y-104477223D01*
X160765092Y-104670113D01*
X160764976Y-104802221D01*
X159874196Y-105693000D01*
X159140429Y-105693000D01*
X159047777Y-105600186D01*
X158854887Y-105520092D01*
X158646029Y-105519909D01*
X158453000Y-105599667D01*
X158305186Y-105747223D01*
X158225092Y-105940113D01*
X158224909Y-106148971D01*
X158229002Y-106158877D01*
X158219887Y-106155092D01*
X158011029Y-106154909D01*
X157818000Y-106234667D01*
X157670186Y-106382223D01*
X157590092Y-106575113D01*
X157589976Y-106707220D01*
X157231098Y-107066098D01*
X157154794Y-107180295D01*
X157127999Y-107315000D01*
X157128000Y-107315005D01*
X157128000Y-108584995D01*
X157127999Y-108585000D01*
X157154794Y-108719705D01*
X157231098Y-108833902D01*
X157308991Y-108911795D01*
X157308991Y-122743052D01*
X157308990Y-122743057D01*
X157335785Y-122877762D01*
X157412089Y-122991959D01*
X161034032Y-126613902D01*
X161148229Y-126690206D01*
X161170578Y-126694652D01*
X161282934Y-126717001D01*
X161282939Y-126717000D01*
X189864995Y-126717000D01*
X189865000Y-126717001D01*
X189999705Y-126690206D01*
X190113902Y-126613902D01*
X192018899Y-124708904D01*
X192018902Y-124708902D01*
X192095206Y-124594705D01*
X192102431Y-124558380D01*
X192122001Y-124460000D01*
X192122000Y-124459995D01*
X192122000Y-74106949D01*
X192122001Y-74106944D01*
X192095206Y-73972239D01*
X192095206Y-73972238D01*
X192018902Y-73858041D01*
X192018899Y-73858039D01*
X189666958Y-71506098D01*
X189666955Y-71506096D01*
X188356683Y-70195824D01*
X188404814Y-70147777D01*
X188484908Y-69954887D01*
X188485091Y-69746029D01*
X188405333Y-69553000D01*
X188257777Y-69405186D01*
X188064887Y-69325092D01*
X187856029Y-69324909D01*
X187663000Y-69404667D01*
X187515186Y-69552223D01*
X187435092Y-69745113D01*
X187434942Y-69916148D01*
X185772000Y-68253206D01*
X185772000Y-67700429D01*
X185864814Y-67607777D01*
X185944908Y-67414887D01*
X185945091Y-67206029D01*
X185865333Y-67013000D01*
X185717777Y-66865186D01*
X185524887Y-66785092D01*
X185316029Y-66784909D01*
X185123000Y-66864667D01*
X184975186Y-67012223D01*
X184895092Y-67205113D01*
X184894909Y-67413971D01*
X184974667Y-67607000D01*
X185068000Y-67700496D01*
X185068000Y-68399005D01*
X185067999Y-68399010D01*
X185094794Y-68533715D01*
X185171098Y-68647912D01*
X186663252Y-70140066D01*
X182370000Y-70140066D01*
X182370000Y-64187500D01*
X192467500Y-64187500D01*
X192467500Y-139012500D01*
X112642500Y-139012500D01*
X112642500Y-135240000D01*
X117865592Y-135240000D01*
X117865592Y-136540000D01*
X117881281Y-136623380D01*
X117930559Y-136699960D01*
X118005747Y-136751334D01*
X118095000Y-136769408D01*
X119395000Y-136769408D01*
X119478380Y-136753719D01*
X119554960Y-136704441D01*
X119606334Y-136629253D01*
X119624408Y-136540000D01*
X119624408Y-135875000D01*
X182000592Y-135875000D01*
X182000592Y-137175000D01*
X182016281Y-137258380D01*
X182065559Y-137334960D01*
X182140747Y-137386334D01*
X182230000Y-137404408D01*
X183530000Y-137404408D01*
X183613380Y-137388719D01*
X183689960Y-137339441D01*
X183741334Y-137264253D01*
X183759408Y-137175000D01*
X183759408Y-135875000D01*
X183743719Y-135791620D01*
X183694441Y-135715040D01*
X183619253Y-135663666D01*
X183530000Y-135645592D01*
X183323406Y-135645592D01*
X183390813Y-135617672D01*
X183459264Y-135428119D01*
X182880000Y-134848855D01*
X182300736Y-135428119D01*
X182369187Y-135617672D01*
X182482810Y-135645592D01*
X182230000Y-135645592D01*
X182146620Y-135661281D01*
X182070040Y-135710559D01*
X182018666Y-135785747D01*
X182000592Y-135875000D01*
X119624408Y-135875000D01*
X119624408Y-135240000D01*
X119608719Y-135156620D01*
X119559441Y-135080040D01*
X119484253Y-135028666D01*
X119395000Y-135010592D01*
X119188406Y-135010592D01*
X119255813Y-134982672D01*
X119324264Y-134793119D01*
X118745000Y-134213855D01*
X118165736Y-134793119D01*
X118234187Y-134982672D01*
X118347810Y-135010592D01*
X118095000Y-135010592D01*
X118011620Y-135026281D01*
X117935040Y-135075559D01*
X117883666Y-135150747D01*
X117865592Y-135240000D01*
X112642500Y-135240000D01*
X112642500Y-133836217D01*
X117540024Y-133836217D01*
X117611166Y-134301436D01*
X117652328Y-134400813D01*
X117841881Y-134469264D01*
X118421145Y-133890000D01*
X119068855Y-133890000D01*
X119648119Y-134469264D01*
X119837672Y-134400813D01*
X119949976Y-133943783D01*
X119914570Y-133712250D01*
X126737000Y-133712250D01*
X126737000Y-134756021D01*
X126818145Y-134951920D01*
X126968080Y-135101856D01*
X127163980Y-135183000D01*
X127907750Y-135183000D01*
X128041000Y-135049750D01*
X128041000Y-133579000D01*
X126870250Y-133579000D01*
X126737000Y-133712250D01*
X119914570Y-133712250D01*
X119878834Y-133478564D01*
X119837672Y-133379187D01*
X119648119Y-133310736D01*
X119068855Y-133890000D01*
X118421145Y-133890000D01*
X117841881Y-133310736D01*
X117652328Y-133379187D01*
X117540024Y-133836217D01*
X112642500Y-133836217D01*
X112642500Y-132986881D01*
X118165736Y-132986881D01*
X118745000Y-133566145D01*
X119324264Y-132986881D01*
X119255813Y-132797328D01*
X118798783Y-132685024D01*
X118333564Y-132756166D01*
X118234187Y-132797328D01*
X118165736Y-132986881D01*
X112642500Y-132986881D01*
X112642500Y-131943979D01*
X126737000Y-131943979D01*
X126737000Y-132987750D01*
X126870250Y-133121000D01*
X128041000Y-133121000D01*
X128041000Y-131650250D01*
X128499000Y-131650250D01*
X128499000Y-133121000D01*
X128519000Y-133121000D01*
X128519000Y-133579000D01*
X128499000Y-133579000D01*
X128499000Y-135049750D01*
X128632250Y-135183000D01*
X129376020Y-135183000D01*
X129571920Y-135101856D01*
X129721855Y-134951920D01*
X129803000Y-134756021D01*
X129803000Y-134335369D01*
X129943794Y-134546083D01*
X130341213Y-134811629D01*
X130810000Y-134904877D01*
X131278787Y-134811629D01*
X131676206Y-134546083D01*
X131941752Y-134148664D01*
X132035000Y-133679877D01*
X132035000Y-133020123D01*
X132125000Y-133020123D01*
X132125000Y-133679877D01*
X132218248Y-134148664D01*
X132483794Y-134546083D01*
X132881213Y-134811629D01*
X133350000Y-134904877D01*
X133818787Y-134811629D01*
X134216206Y-134546083D01*
X134481752Y-134148664D01*
X134575000Y-133679877D01*
X134575000Y-133020123D01*
X134665000Y-133020123D01*
X134665000Y-133679877D01*
X134758248Y-134148664D01*
X135023794Y-134546083D01*
X135421213Y-134811629D01*
X135890000Y-134904877D01*
X136358787Y-134811629D01*
X136756206Y-134546083D01*
X137021752Y-134148664D01*
X137115000Y-133679877D01*
X137115000Y-133020123D01*
X137205000Y-133020123D01*
X137205000Y-133679877D01*
X137298248Y-134148664D01*
X137563794Y-134546083D01*
X137961213Y-134811629D01*
X138430000Y-134904877D01*
X138898787Y-134811629D01*
X139296206Y-134546083D01*
X139561752Y-134148664D01*
X139655000Y-133679877D01*
X139655000Y-133020123D01*
X139561752Y-132551336D01*
X139296206Y-132153917D01*
X139140683Y-132050000D01*
X143550592Y-132050000D01*
X143550592Y-134650000D01*
X143566281Y-134733380D01*
X143615559Y-134809960D01*
X143690747Y-134861334D01*
X143780000Y-134879408D01*
X145780000Y-134879408D01*
X145863380Y-134863719D01*
X145939960Y-134814441D01*
X145991334Y-134739253D01*
X146009408Y-134650000D01*
X146009408Y-133020123D01*
X146095000Y-133020123D01*
X146095000Y-133679877D01*
X146188248Y-134148664D01*
X146453794Y-134546083D01*
X146851213Y-134811629D01*
X147320000Y-134904877D01*
X147788787Y-134811629D01*
X148186206Y-134546083D01*
X148439502Y-134166997D01*
X148511296Y-134393217D01*
X148898377Y-134852770D01*
X149396696Y-135111314D01*
X149631000Y-135030891D01*
X149631000Y-133579000D01*
X150089000Y-133579000D01*
X150089000Y-135030891D01*
X150323304Y-135111314D01*
X150821623Y-134852770D01*
X151208704Y-134393217D01*
X151390457Y-133820516D01*
X151265039Y-133579000D01*
X150089000Y-133579000D01*
X149631000Y-133579000D01*
X149611000Y-133579000D01*
X149611000Y-133121000D01*
X149631000Y-133121000D01*
X149631000Y-131669109D01*
X150089000Y-131669109D01*
X150089000Y-133121000D01*
X151265039Y-133121000D01*
X151390457Y-132879484D01*
X151208704Y-132306783D01*
X150821623Y-131847230D01*
X150323304Y-131588686D01*
X150089000Y-131669109D01*
X149631000Y-131669109D01*
X149396696Y-131588686D01*
X148898377Y-131847230D01*
X148511296Y-132306783D01*
X148439502Y-132533003D01*
X148186206Y-132153917D01*
X147788787Y-131888371D01*
X147320000Y-131795123D01*
X146851213Y-131888371D01*
X146453794Y-132153917D01*
X146188248Y-132551336D01*
X146095000Y-133020123D01*
X146009408Y-133020123D01*
X146009408Y-132050000D01*
X145993719Y-131966620D01*
X145944441Y-131890040D01*
X145869253Y-131838666D01*
X145780000Y-131820592D01*
X143780000Y-131820592D01*
X143696620Y-131836281D01*
X143620040Y-131885559D01*
X143568666Y-131960747D01*
X143550592Y-132050000D01*
X139140683Y-132050000D01*
X138898787Y-131888371D01*
X138430000Y-131795123D01*
X137961213Y-131888371D01*
X137563794Y-132153917D01*
X137298248Y-132551336D01*
X137205000Y-133020123D01*
X137115000Y-133020123D01*
X137021752Y-132551336D01*
X136756206Y-132153917D01*
X136358787Y-131888371D01*
X135890000Y-131795123D01*
X135421213Y-131888371D01*
X135023794Y-132153917D01*
X134758248Y-132551336D01*
X134665000Y-133020123D01*
X134575000Y-133020123D01*
X134481752Y-132551336D01*
X134216206Y-132153917D01*
X133818787Y-131888371D01*
X133702000Y-131865141D01*
X133702000Y-125198971D01*
X137904909Y-125198971D01*
X137984667Y-125392000D01*
X138078000Y-125485496D01*
X138078000Y-129784571D01*
X137985186Y-129877223D01*
X137905092Y-130070113D01*
X137904909Y-130278971D01*
X137984667Y-130472000D01*
X138132223Y-130619814D01*
X138325113Y-130699908D01*
X138533971Y-130700091D01*
X138727000Y-130620333D01*
X138874814Y-130472777D01*
X138954908Y-130279887D01*
X138955091Y-130071029D01*
X138875333Y-129878000D01*
X138782000Y-129784504D01*
X138782000Y-125485429D01*
X138874814Y-125392777D01*
X138954908Y-125199887D01*
X138955091Y-124991029D01*
X138875333Y-124798000D01*
X138727777Y-124650186D01*
X138534887Y-124570092D01*
X138326029Y-124569909D01*
X138133000Y-124649667D01*
X137985186Y-124797223D01*
X137905092Y-124990113D01*
X137904909Y-125198971D01*
X133702000Y-125198971D01*
X133702000Y-119906804D01*
X136173000Y-117435803D01*
X136173000Y-119624571D01*
X136080186Y-119717223D01*
X136000092Y-119910113D01*
X135999909Y-120118971D01*
X136073882Y-120298000D01*
X135010429Y-120298000D01*
X134917777Y-120205186D01*
X134724887Y-120125092D01*
X134516029Y-120124909D01*
X134323000Y-120204667D01*
X134175186Y-120352223D01*
X134095092Y-120545113D01*
X134094909Y-120753971D01*
X134174667Y-120947000D01*
X134322223Y-121094814D01*
X134515113Y-121174908D01*
X134723971Y-121175091D01*
X134917000Y-121095333D01*
X135010496Y-121002000D01*
X138437062Y-121002000D01*
X138437067Y-121002001D01*
X138571772Y-120975206D01*
X138685969Y-120898902D01*
X140698988Y-118885882D01*
X140698909Y-118975971D01*
X140778667Y-119169000D01*
X140926223Y-119316814D01*
X141119113Y-119396908D01*
X141327971Y-119397091D01*
X141521000Y-119317333D01*
X141668814Y-119169777D01*
X141748908Y-118976887D01*
X141749091Y-118768029D01*
X141669333Y-118575000D01*
X141660642Y-118566294D01*
X142068991Y-118157945D01*
X142068991Y-124013052D01*
X142068990Y-124013057D01*
X142095785Y-124147762D01*
X142172089Y-124261959D01*
X143708040Y-125797909D01*
X143708042Y-125797912D01*
X143822239Y-125874216D01*
X143844588Y-125878662D01*
X143956944Y-125901011D01*
X143956949Y-125901010D01*
X155248206Y-125901010D01*
X155858000Y-126510803D01*
X155858000Y-131820592D01*
X155210000Y-131820592D01*
X155126620Y-131836281D01*
X155050040Y-131885559D01*
X154998666Y-131960747D01*
X154980592Y-132050000D01*
X154980592Y-134650000D01*
X154996281Y-134733380D01*
X155045559Y-134809960D01*
X155120747Y-134861334D01*
X155210000Y-134879408D01*
X157210000Y-134879408D01*
X157293380Y-134863719D01*
X157369960Y-134814441D01*
X157421334Y-134739253D01*
X157439408Y-134650000D01*
X157439408Y-133020123D01*
X157525000Y-133020123D01*
X157525000Y-133679877D01*
X157618248Y-134148664D01*
X157883794Y-134546083D01*
X158281213Y-134811629D01*
X158750000Y-134904877D01*
X159218787Y-134811629D01*
X159616206Y-134546083D01*
X159881752Y-134148664D01*
X159975000Y-133679877D01*
X159975000Y-133020123D01*
X159881752Y-132551336D01*
X159616206Y-132153917D01*
X159218787Y-131888371D01*
X158750000Y-131795123D01*
X158281213Y-131888371D01*
X157883794Y-132153917D01*
X157618248Y-132551336D01*
X157525000Y-133020123D01*
X157439408Y-133020123D01*
X157439408Y-132050000D01*
X157423719Y-131966620D01*
X157374441Y-131890040D01*
X157299253Y-131838666D01*
X157210000Y-131820592D01*
X156562000Y-131820592D01*
X156562000Y-126563804D01*
X163597098Y-133598902D01*
X163711295Y-133675206D01*
X163846000Y-133702001D01*
X163846005Y-133702000D01*
X163870592Y-133702000D01*
X163870592Y-134650000D01*
X163886281Y-134733380D01*
X163935559Y-134809960D01*
X164010747Y-134861334D01*
X164100000Y-134879408D01*
X166100000Y-134879408D01*
X166183380Y-134863719D01*
X166259960Y-134814441D01*
X166311334Y-134739253D01*
X166329408Y-134650000D01*
X166329408Y-133020123D01*
X166415000Y-133020123D01*
X166415000Y-133679877D01*
X166508248Y-134148664D01*
X166773794Y-134546083D01*
X167171213Y-134811629D01*
X167640000Y-134904877D01*
X168108787Y-134811629D01*
X168506206Y-134546083D01*
X168771752Y-134148664D01*
X168865000Y-133679877D01*
X168865000Y-133020123D01*
X168771752Y-132551336D01*
X168506206Y-132153917D01*
X168350683Y-132050000D01*
X172760592Y-132050000D01*
X172760592Y-134650000D01*
X172776281Y-134733380D01*
X172825559Y-134809960D01*
X172900747Y-134861334D01*
X172990000Y-134879408D01*
X174990000Y-134879408D01*
X175073380Y-134863719D01*
X175149960Y-134814441D01*
X175201334Y-134739253D01*
X175219408Y-134650000D01*
X175219408Y-134438465D01*
X175568377Y-134852770D01*
X176066696Y-135111314D01*
X176301000Y-135030891D01*
X176301000Y-133579000D01*
X176759000Y-133579000D01*
X176759000Y-135030891D01*
X176993304Y-135111314D01*
X177491623Y-134852770D01*
X177813004Y-134471217D01*
X181675024Y-134471217D01*
X181746166Y-134936436D01*
X181787328Y-135035813D01*
X181976881Y-135104264D01*
X182556145Y-134525000D01*
X183203855Y-134525000D01*
X183783119Y-135104264D01*
X183972672Y-135035813D01*
X184084976Y-134578783D01*
X184013834Y-134113564D01*
X183972672Y-134014187D01*
X183783119Y-133945736D01*
X183203855Y-134525000D01*
X182556145Y-134525000D01*
X181976881Y-133945736D01*
X181787328Y-134014187D01*
X181675024Y-134471217D01*
X177813004Y-134471217D01*
X177878704Y-134393217D01*
X178060457Y-133820516D01*
X177957307Y-133621881D01*
X182300736Y-133621881D01*
X182880000Y-134201145D01*
X183459264Y-133621881D01*
X183390813Y-133432328D01*
X182933783Y-133320024D01*
X182468564Y-133391166D01*
X182369187Y-133432328D01*
X182300736Y-133621881D01*
X177957307Y-133621881D01*
X177935039Y-133579000D01*
X176759000Y-133579000D01*
X176301000Y-133579000D01*
X176281000Y-133579000D01*
X176281000Y-133121000D01*
X176301000Y-133121000D01*
X176301000Y-131669109D01*
X176759000Y-131669109D01*
X176759000Y-133121000D01*
X177935039Y-133121000D01*
X178060457Y-132879484D01*
X177878704Y-132306783D01*
X177491623Y-131847230D01*
X176993304Y-131588686D01*
X176759000Y-131669109D01*
X176301000Y-131669109D01*
X176066696Y-131588686D01*
X175568377Y-131847230D01*
X175219408Y-132261535D01*
X175219408Y-132050000D01*
X175203719Y-131966620D01*
X175154441Y-131890040D01*
X175079253Y-131838666D01*
X174990000Y-131820592D01*
X172990000Y-131820592D01*
X172906620Y-131836281D01*
X172830040Y-131885559D01*
X172778666Y-131960747D01*
X172760592Y-132050000D01*
X168350683Y-132050000D01*
X168108787Y-131888371D01*
X167640000Y-131795123D01*
X167171213Y-131888371D01*
X166773794Y-132153917D01*
X166508248Y-132551336D01*
X166415000Y-133020123D01*
X166329408Y-133020123D01*
X166329408Y-132050000D01*
X166313719Y-131966620D01*
X166264441Y-131890040D01*
X166189253Y-131838666D01*
X166100000Y-131820592D01*
X164100000Y-131820592D01*
X164016620Y-131836281D01*
X163940040Y-131885559D01*
X163888666Y-131960747D01*
X163870592Y-132050000D01*
X163870592Y-132876788D01*
X160484932Y-129491128D01*
X180579657Y-129491128D01*
X180879700Y-130217286D01*
X181434791Y-130773348D01*
X182160425Y-131074657D01*
X182946128Y-131075343D01*
X183672286Y-130775300D01*
X184228348Y-130220209D01*
X184529657Y-129494575D01*
X184530343Y-128708872D01*
X184230300Y-127982714D01*
X183675209Y-127426652D01*
X182949575Y-127125343D01*
X182163872Y-127124657D01*
X181437714Y-127424700D01*
X180881652Y-127979791D01*
X180580343Y-128705425D01*
X180579657Y-129491128D01*
X160484932Y-129491128D01*
X155839902Y-124846098D01*
X155725705Y-124769794D01*
X155591000Y-124742999D01*
X155590995Y-124743000D01*
X144290803Y-124743000D01*
X143227000Y-123679196D01*
X143227000Y-118284068D01*
X149580058Y-111931009D01*
X151318052Y-111931009D01*
X151318057Y-111931010D01*
X151430413Y-111908661D01*
X151452762Y-111904215D01*
X151566959Y-111827911D01*
X151566961Y-111827908D01*
X152467909Y-110926961D01*
X152467912Y-110926959D01*
X152544216Y-110812762D01*
X152571010Y-110678057D01*
X152571010Y-109582124D01*
X159033000Y-103120133D01*
X159033000Y-104384571D01*
X158940186Y-104477223D01*
X158860092Y-104670113D01*
X158859909Y-104878971D01*
X158939667Y-105072000D01*
X159087223Y-105219814D01*
X159280113Y-105299908D01*
X159488971Y-105300091D01*
X159682000Y-105220333D01*
X159829814Y-105072777D01*
X159909908Y-104879887D01*
X159910091Y-104671029D01*
X159830333Y-104478000D01*
X159737000Y-104384504D01*
X159737000Y-103058200D01*
X161478199Y-101317000D01*
X164074571Y-101317000D01*
X164167223Y-101409814D01*
X164360113Y-101489908D01*
X164568971Y-101490091D01*
X164762000Y-101410333D01*
X164909814Y-101262777D01*
X164989908Y-101069887D01*
X164990091Y-100861029D01*
X164916118Y-100682000D01*
X165979571Y-100682000D01*
X166072223Y-100774814D01*
X166265113Y-100854908D01*
X166473971Y-100855091D01*
X166667000Y-100775333D01*
X166814814Y-100627777D01*
X166894908Y-100434887D01*
X166895091Y-100226029D01*
X166815333Y-100033000D01*
X166667777Y-99885186D01*
X166474887Y-99805092D01*
X166266029Y-99804909D01*
X166073000Y-99884667D01*
X165979504Y-99978000D01*
X161680429Y-99978000D01*
X161587777Y-99885186D01*
X161394887Y-99805092D01*
X161186029Y-99804909D01*
X161007000Y-99878882D01*
X161007000Y-96623971D01*
X169019909Y-96623971D01*
X169099667Y-96817000D01*
X169247223Y-96964814D01*
X169440113Y-97044908D01*
X169648971Y-97045091D01*
X169842000Y-96965333D01*
X169935496Y-96872000D01*
X171059571Y-96872000D01*
X171152223Y-96964814D01*
X171345113Y-97044908D01*
X171553971Y-97045091D01*
X171747000Y-96965333D01*
X171894814Y-96817777D01*
X171974908Y-96624887D01*
X171975091Y-96416029D01*
X171895333Y-96223000D01*
X171747777Y-96075186D01*
X171554887Y-95995092D01*
X171346029Y-95994909D01*
X171153000Y-96074667D01*
X171059504Y-96168000D01*
X169935429Y-96168000D01*
X169842777Y-96075186D01*
X169649887Y-95995092D01*
X169441029Y-95994909D01*
X169248000Y-96074667D01*
X169100186Y-96222223D01*
X169020092Y-96415113D01*
X169019909Y-96623971D01*
X161007000Y-96623971D01*
X161007000Y-95518119D01*
X188110736Y-95518119D01*
X188179187Y-95707672D01*
X188636217Y-95819976D01*
X189101436Y-95748834D01*
X189200813Y-95707672D01*
X189269264Y-95518119D01*
X188690000Y-94938855D01*
X188110736Y-95518119D01*
X161007000Y-95518119D01*
X161007000Y-93965000D01*
X185810592Y-93965000D01*
X185810592Y-95265000D01*
X185826281Y-95348380D01*
X185875559Y-95424960D01*
X185950747Y-95476334D01*
X186040000Y-95494408D01*
X187340000Y-95494408D01*
X187423380Y-95478719D01*
X187499960Y-95429441D01*
X187551334Y-95354253D01*
X187569408Y-95265000D01*
X187569408Y-95058406D01*
X187597328Y-95125813D01*
X187786881Y-95194264D01*
X188366145Y-94615000D01*
X189013855Y-94615000D01*
X189593119Y-95194264D01*
X189782672Y-95125813D01*
X189894976Y-94668783D01*
X189823834Y-94203564D01*
X189782672Y-94104187D01*
X189593119Y-94035736D01*
X189013855Y-94615000D01*
X188366145Y-94615000D01*
X187786881Y-94035736D01*
X187597328Y-94104187D01*
X187569408Y-94217810D01*
X187569408Y-93965000D01*
X187553719Y-93881620D01*
X187504441Y-93805040D01*
X187429253Y-93753666D01*
X187340000Y-93735592D01*
X186040000Y-93735592D01*
X185956620Y-93751281D01*
X185880040Y-93800559D01*
X185828666Y-93875747D01*
X185810592Y-93965000D01*
X161007000Y-93965000D01*
X161007000Y-93735429D01*
X161030589Y-93711881D01*
X188110736Y-93711881D01*
X188690000Y-94291145D01*
X189269264Y-93711881D01*
X189200813Y-93522328D01*
X188743783Y-93410024D01*
X188278564Y-93481166D01*
X188179187Y-93522328D01*
X188110736Y-93711881D01*
X161030589Y-93711881D01*
X161099814Y-93642777D01*
X161179908Y-93449887D01*
X161180091Y-93241029D01*
X161100333Y-93048000D01*
X160952777Y-92900186D01*
X160759887Y-92820092D01*
X160551029Y-92819909D01*
X160358000Y-92899667D01*
X160210186Y-93047223D01*
X160130092Y-93240113D01*
X160129909Y-93448971D01*
X160134002Y-93458877D01*
X160124887Y-93455092D01*
X159916029Y-93454909D01*
X159723000Y-93534667D01*
X159575186Y-93682223D01*
X159495092Y-93875113D01*
X159494909Y-94083971D01*
X159499002Y-94093877D01*
X159489887Y-94090092D01*
X159281029Y-94089909D01*
X159088000Y-94169667D01*
X158940186Y-94317223D01*
X158860092Y-94510113D01*
X158859909Y-94718971D01*
X158864002Y-94728877D01*
X158854887Y-94725092D01*
X158646029Y-94724909D01*
X158453000Y-94804667D01*
X158305186Y-94952223D01*
X158225092Y-95145113D01*
X158224909Y-95353971D01*
X158229002Y-95363877D01*
X158219887Y-95360092D01*
X158011029Y-95359909D01*
X157818000Y-95439667D01*
X157670186Y-95587223D01*
X157590092Y-95780113D01*
X157589909Y-95988971D01*
X157594002Y-95998877D01*
X157584887Y-95995092D01*
X157376029Y-95994909D01*
X157183000Y-96074667D01*
X157035186Y-96222223D01*
X156955092Y-96415113D01*
X156954909Y-96623971D01*
X157034667Y-96817000D01*
X157128000Y-96910496D01*
X157128000Y-97756110D01*
X157113119Y-97750736D01*
X156533855Y-98330000D01*
X157113119Y-98909264D01*
X157128000Y-98903890D01*
X157128000Y-100819197D01*
X157089408Y-100857789D01*
X157089408Y-99680000D01*
X157073719Y-99596620D01*
X157024441Y-99520040D01*
X156949253Y-99468666D01*
X156860000Y-99450592D01*
X156653406Y-99450592D01*
X156720813Y-99422672D01*
X156789264Y-99233119D01*
X156210000Y-98653855D01*
X155630736Y-99233119D01*
X155699187Y-99422672D01*
X155812810Y-99450592D01*
X155560000Y-99450592D01*
X155476620Y-99466281D01*
X155400040Y-99515559D01*
X155348666Y-99590747D01*
X155330592Y-99680000D01*
X155330592Y-100980000D01*
X155346281Y-101063380D01*
X155395559Y-101139960D01*
X155470747Y-101191334D01*
X155560000Y-101209408D01*
X156737789Y-101209408D01*
X155292000Y-102655197D01*
X155292000Y-98903890D01*
X155306881Y-98909264D01*
X155886145Y-98330000D01*
X155306881Y-97750736D01*
X155292000Y-97756110D01*
X155292000Y-97426881D01*
X155630736Y-97426881D01*
X156210000Y-98006145D01*
X156789264Y-97426881D01*
X156720813Y-97237328D01*
X156263783Y-97125024D01*
X155798564Y-97196166D01*
X155699187Y-97237328D01*
X155630736Y-97426881D01*
X155292000Y-97426881D01*
X155292000Y-90805005D01*
X155292001Y-90805000D01*
X155265206Y-90670296D01*
X155265206Y-90670295D01*
X155188902Y-90556098D01*
X155188899Y-90556096D01*
X146298902Y-81666098D01*
X146298899Y-81666096D01*
X145028902Y-80396098D01*
X144914705Y-80319794D01*
X144780000Y-80292999D01*
X144779995Y-80293000D01*
X143325950Y-80293000D01*
X143399908Y-80114887D01*
X143400091Y-79906029D01*
X143320333Y-79713000D01*
X143172777Y-79565186D01*
X142979887Y-79485092D01*
X142771029Y-79484909D01*
X142717451Y-79507047D01*
X142336502Y-79126098D01*
X142336499Y-79126096D01*
X141872644Y-78662241D01*
X142240000Y-78735313D01*
X142656589Y-78652448D01*
X143009756Y-78416469D01*
X143245735Y-78063302D01*
X143328600Y-77646713D01*
X143328600Y-77293287D01*
X143691400Y-77293287D01*
X143691400Y-77646713D01*
X143774265Y-78063302D01*
X144010244Y-78416469D01*
X144363411Y-78652448D01*
X144780000Y-78735313D01*
X145196589Y-78652448D01*
X145549756Y-78416469D01*
X145785735Y-78063302D01*
X145815124Y-77915550D01*
X145958788Y-77915550D01*
X146174588Y-78414149D01*
X146564767Y-78792211D01*
X146878300Y-78947313D01*
X147091000Y-78864822D01*
X147091000Y-77699000D01*
X147549000Y-77699000D01*
X147549000Y-78864822D01*
X147761700Y-78947313D01*
X148075233Y-78792211D01*
X148465412Y-78414149D01*
X148681212Y-77915550D01*
X148577062Y-77699000D01*
X147549000Y-77699000D01*
X147091000Y-77699000D01*
X146062938Y-77699000D01*
X145958788Y-77915550D01*
X145815124Y-77915550D01*
X145868600Y-77646713D01*
X145868600Y-77293287D01*
X148771400Y-77293287D01*
X148771400Y-77646713D01*
X148854265Y-78063302D01*
X149090244Y-78416469D01*
X149443411Y-78652448D01*
X149860000Y-78735313D01*
X150276589Y-78652448D01*
X150629756Y-78416469D01*
X150865735Y-78063302D01*
X150948600Y-77646713D01*
X150948600Y-77293287D01*
X150865735Y-76876698D01*
X150629756Y-76523531D01*
X150276589Y-76287552D01*
X149860000Y-76204687D01*
X149443411Y-76287552D01*
X149090244Y-76523531D01*
X148854265Y-76876698D01*
X148771400Y-77293287D01*
X145868600Y-77293287D01*
X145815125Y-77024450D01*
X145958788Y-77024450D01*
X146062938Y-77241000D01*
X147091000Y-77241000D01*
X147091000Y-76075178D01*
X147549000Y-76075178D01*
X147549000Y-77241000D01*
X148577062Y-77241000D01*
X148681212Y-77024450D01*
X148465412Y-76525851D01*
X148075233Y-76147789D01*
X147761700Y-75992687D01*
X147549000Y-76075178D01*
X147091000Y-76075178D01*
X146878300Y-75992687D01*
X146564767Y-76147789D01*
X146174588Y-76525851D01*
X145958788Y-77024450D01*
X145815125Y-77024450D01*
X145785735Y-76876698D01*
X145549756Y-76523531D01*
X145196589Y-76287552D01*
X144780000Y-76204687D01*
X144363411Y-76287552D01*
X144010244Y-76523531D01*
X143774265Y-76876698D01*
X143691400Y-77293287D01*
X143328600Y-77293287D01*
X143245735Y-76876698D01*
X143009756Y-76523531D01*
X142656589Y-76287552D01*
X142240000Y-76204687D01*
X141823411Y-76287552D01*
X141470244Y-76523531D01*
X141234265Y-76876698D01*
X141151400Y-77293287D01*
X141151400Y-77646713D01*
X141224472Y-78014068D01*
X140793008Y-77582604D01*
X140793008Y-76454000D01*
X140777319Y-76370620D01*
X140728041Y-76294040D01*
X140652853Y-76242666D01*
X140563600Y-76224592D01*
X138836400Y-76224592D01*
X138753020Y-76240281D01*
X138676440Y-76289559D01*
X138625066Y-76364747D01*
X138606992Y-76454000D01*
X138606992Y-78486000D01*
X138622681Y-78569380D01*
X138671959Y-78645960D01*
X138747147Y-78697334D01*
X138836400Y-78715408D01*
X140563600Y-78715408D01*
X140646980Y-78699719D01*
X140723560Y-78650441D01*
X140774934Y-78575253D01*
X140777479Y-78562683D01*
X141838696Y-79623899D01*
X141838698Y-79623902D01*
X142364795Y-80149998D01*
X142423882Y-80293000D01*
X139210803Y-80293000D01*
X138954976Y-80037173D01*
X138955091Y-79906029D01*
X138875333Y-79713000D01*
X138727777Y-79565186D01*
X138534887Y-79485092D01*
X138326029Y-79484909D01*
X138133000Y-79564667D01*
X137985186Y-79712223D01*
X137905092Y-79905113D01*
X137904909Y-80113971D01*
X137984667Y-80307000D01*
X138132223Y-80454814D01*
X138325113Y-80534908D01*
X138457220Y-80535024D01*
X138816096Y-80893899D01*
X138816098Y-80893902D01*
X138930295Y-80970206D01*
X138952644Y-80974652D01*
X139065000Y-80997001D01*
X139065005Y-80997000D01*
X144634196Y-80997000D01*
X145801096Y-82163899D01*
X145801098Y-82163902D01*
X154588000Y-90950803D01*
X154588000Y-91225197D01*
X150384976Y-87022172D01*
X150385091Y-86891029D01*
X150305333Y-86698000D01*
X150157777Y-86550186D01*
X149964887Y-86470092D01*
X149756029Y-86469909D01*
X149563000Y-86549667D01*
X149415186Y-86697223D01*
X149335092Y-86890113D01*
X149334909Y-87098971D01*
X149414667Y-87292000D01*
X149562223Y-87439814D01*
X149755113Y-87519908D01*
X149887220Y-87520024D01*
X154133990Y-91766793D01*
X154133990Y-102529074D01*
X153387000Y-103276064D01*
X153387000Y-102108005D01*
X153387001Y-102108000D01*
X153387000Y-102107995D01*
X153387000Y-98180429D01*
X153479814Y-98087777D01*
X153559908Y-97894887D01*
X153560091Y-97686029D01*
X153480333Y-97493000D01*
X153332777Y-97345186D01*
X153139887Y-97265092D01*
X152931029Y-97264909D01*
X152738000Y-97344667D01*
X152590186Y-97492223D01*
X152510092Y-97685113D01*
X152509909Y-97893971D01*
X152589667Y-98087000D01*
X152683000Y-98180496D01*
X152683000Y-98862129D01*
X152648902Y-98811098D01*
X152648899Y-98811096D01*
X151654976Y-97817172D01*
X151655091Y-97686029D01*
X151575333Y-97493000D01*
X151427777Y-97345186D01*
X151234887Y-97265092D01*
X151026029Y-97264909D01*
X150833000Y-97344667D01*
X150685186Y-97492223D01*
X150605092Y-97685113D01*
X150604909Y-97893971D01*
X150609002Y-97903877D01*
X150599887Y-97900092D01*
X150391029Y-97899909D01*
X150198000Y-97979667D01*
X150050186Y-98127223D01*
X149970092Y-98320113D01*
X149969909Y-98528971D01*
X150049667Y-98722000D01*
X150197223Y-98869814D01*
X150390113Y-98949908D01*
X150522220Y-98950024D01*
X151168000Y-99595804D01*
X151168000Y-100248263D01*
X151110040Y-100285559D01*
X151058666Y-100360747D01*
X151040592Y-100450000D01*
X151040592Y-100800000D01*
X151056281Y-100883380D01*
X151099646Y-100950771D01*
X151058666Y-101010747D01*
X151040592Y-101100000D01*
X151040592Y-101450000D01*
X151056281Y-101533380D01*
X151081776Y-101573000D01*
X150965803Y-101573000D01*
X150418902Y-101026098D01*
X150304705Y-100949794D01*
X150240184Y-100936960D01*
X150253000Y-100906020D01*
X150253000Y-100845750D01*
X150119750Y-100712500D01*
X149595000Y-100712500D01*
X149595000Y-100800000D01*
X149345000Y-100800000D01*
X149345000Y-100712500D01*
X148820250Y-100712500D01*
X148687000Y-100845750D01*
X148687000Y-100906020D01*
X148694033Y-100923000D01*
X147845037Y-100923000D01*
X147845091Y-100861029D01*
X147765333Y-100668000D01*
X147617777Y-100520186D01*
X147424887Y-100440092D01*
X147216029Y-100439909D01*
X147023000Y-100519667D01*
X146875186Y-100667223D01*
X146795092Y-100860113D01*
X146794909Y-101068971D01*
X146874667Y-101262000D01*
X147022223Y-101409814D01*
X147215113Y-101489908D01*
X147347221Y-101490024D01*
X147381096Y-101523899D01*
X147381098Y-101523902D01*
X147483457Y-101592296D01*
X147495295Y-101600206D01*
X147630000Y-101627000D01*
X148694033Y-101627000D01*
X148687000Y-101643980D01*
X148687000Y-101704250D01*
X148820250Y-101837500D01*
X149345000Y-101837500D01*
X149345000Y-101750000D01*
X149595000Y-101750000D01*
X149595000Y-101837500D01*
X150119750Y-101837500D01*
X150177223Y-101780027D01*
X150571096Y-102173899D01*
X150571098Y-102173902D01*
X150685295Y-102250206D01*
X150707644Y-102254652D01*
X150749816Y-102263040D01*
X150737000Y-102293980D01*
X150737000Y-102354250D01*
X150870250Y-102487500D01*
X151395000Y-102487500D01*
X151395000Y-102400000D01*
X151645000Y-102400000D01*
X151645000Y-102487500D01*
X152169750Y-102487500D01*
X152303000Y-102354250D01*
X152303000Y-102293980D01*
X152295967Y-102277000D01*
X152683000Y-102277000D01*
X152683000Y-103337999D01*
X140802998Y-115218000D01*
X137550429Y-115218000D01*
X137457777Y-115125186D01*
X137264887Y-115045092D01*
X137056029Y-115044909D01*
X136863000Y-115124667D01*
X136715186Y-115272223D01*
X136635092Y-115465113D01*
X136634909Y-115673971D01*
X136714667Y-115867000D01*
X136744987Y-115897373D01*
X136657098Y-115956098D01*
X136657096Y-115956101D01*
X133101098Y-119512098D01*
X133024794Y-119626295D01*
X132997999Y-119761000D01*
X132998000Y-119761005D01*
X132998000Y-131865141D01*
X132881213Y-131888371D01*
X132483794Y-132153917D01*
X132218248Y-132551336D01*
X132125000Y-133020123D01*
X132035000Y-133020123D01*
X131941752Y-132551336D01*
X131676206Y-132153917D01*
X131278787Y-131888371D01*
X130810000Y-131795123D01*
X130341213Y-131888371D01*
X129943794Y-132153917D01*
X129803000Y-132364631D01*
X129803000Y-131943979D01*
X129721855Y-131748080D01*
X129571920Y-131598144D01*
X129376020Y-131517000D01*
X128632250Y-131517000D01*
X128499000Y-131650250D01*
X128041000Y-131650250D01*
X127907750Y-131517000D01*
X127163980Y-131517000D01*
X126968080Y-131598144D01*
X126818145Y-131748080D01*
X126737000Y-131943979D01*
X112642500Y-131943979D01*
X112642500Y-129491128D01*
X120579657Y-129491128D01*
X120879700Y-130217286D01*
X121434791Y-130773348D01*
X122160425Y-131074657D01*
X122946128Y-131075343D01*
X123672286Y-130775300D01*
X124228348Y-130220209D01*
X124529657Y-129494575D01*
X124530343Y-128708872D01*
X124230300Y-127982714D01*
X123675209Y-127426652D01*
X122949575Y-127125343D01*
X122163872Y-127124657D01*
X121437714Y-127424700D01*
X120881652Y-127979791D01*
X120580343Y-128705425D01*
X120579657Y-129491128D01*
X112642500Y-129491128D01*
X112642500Y-85090000D01*
X114582999Y-85090000D01*
X114583000Y-85090005D01*
X114583000Y-105155995D01*
X114582999Y-105156000D01*
X114583000Y-105156005D01*
X114583000Y-105663995D01*
X114582999Y-105664000D01*
X114583000Y-105664005D01*
X114583000Y-112394995D01*
X114582999Y-112395000D01*
X114609794Y-112529705D01*
X114686098Y-112643902D01*
X116315024Y-114272827D01*
X116314909Y-114403971D01*
X116394667Y-114597000D01*
X116542223Y-114744814D01*
X116735113Y-114824908D01*
X116943971Y-114825091D01*
X117137000Y-114745333D01*
X117284814Y-114597777D01*
X117364908Y-114404887D01*
X117365091Y-114196029D01*
X117285333Y-114003000D01*
X117137777Y-113855186D01*
X116944887Y-113775092D01*
X116812779Y-113774976D01*
X115287000Y-112249196D01*
X115287000Y-105809804D01*
X115334803Y-105762000D01*
X124648008Y-105762000D01*
X124636992Y-105816400D01*
X124636992Y-107543600D01*
X124652681Y-107626980D01*
X124701959Y-107703560D01*
X124777147Y-107754934D01*
X124866400Y-107773008D01*
X125378000Y-107773008D01*
X125378000Y-108584995D01*
X125377999Y-108585000D01*
X125404794Y-108719705D01*
X125481098Y-108833902D01*
X126116096Y-109468899D01*
X126116098Y-109468902D01*
X126230295Y-109545206D01*
X126252644Y-109549652D01*
X126365000Y-109572001D01*
X126365005Y-109572000D01*
X137404571Y-109572000D01*
X137497223Y-109664814D01*
X137690113Y-109744908D01*
X137898971Y-109745091D01*
X138092000Y-109665333D01*
X138239814Y-109517777D01*
X138319908Y-109324887D01*
X138320091Y-109116029D01*
X138315998Y-109106123D01*
X138325113Y-109109908D01*
X138533971Y-109110091D01*
X138727000Y-109030333D01*
X138874814Y-108882777D01*
X138954908Y-108689887D01*
X138955091Y-108481029D01*
X138875333Y-108288000D01*
X138727777Y-108140186D01*
X138534887Y-108060092D01*
X138326029Y-108059909D01*
X138133000Y-108139667D01*
X138039504Y-108233000D01*
X129099490Y-108233000D01*
X128622000Y-107755510D01*
X128622000Y-107719910D01*
X128686589Y-107707062D01*
X129039756Y-107471083D01*
X129275735Y-107117916D01*
X129358600Y-106701327D01*
X129358600Y-106658673D01*
X129275735Y-106242084D01*
X129039756Y-105888917D01*
X128849812Y-105762000D01*
X129394196Y-105762000D01*
X129832309Y-106200113D01*
X129804265Y-106242084D01*
X129721400Y-106658673D01*
X129721400Y-106701327D01*
X129804265Y-107117916D01*
X130040244Y-107471083D01*
X130393411Y-107707062D01*
X130810000Y-107789927D01*
X131226589Y-107707062D01*
X131579756Y-107471083D01*
X131815735Y-107117916D01*
X131832825Y-107032000D01*
X136270995Y-107032000D01*
X136271000Y-107032001D01*
X136271005Y-107032000D01*
X139309571Y-107032000D01*
X139402223Y-107124814D01*
X139595113Y-107204908D01*
X139803971Y-107205091D01*
X139997000Y-107125333D01*
X140144814Y-106977777D01*
X140224908Y-106784887D01*
X140225091Y-106576029D01*
X140145333Y-106383000D01*
X139997777Y-106235186D01*
X139804887Y-106155092D01*
X139596029Y-106154909D01*
X139403000Y-106234667D01*
X139309504Y-106328000D01*
X136924803Y-106328000D01*
X136877000Y-106280196D01*
X136877000Y-101763383D01*
X139529857Y-101763383D01*
X139655191Y-102066715D01*
X139887065Y-102298993D01*
X140190177Y-102424857D01*
X140518383Y-102425143D01*
X140821715Y-102299809D01*
X141053993Y-102067935D01*
X141179857Y-101764823D01*
X141179858Y-101763383D01*
X142029857Y-101763383D01*
X142155191Y-102066715D01*
X142387065Y-102298993D01*
X142503000Y-102347134D01*
X142503000Y-102448523D01*
X142502999Y-102448528D01*
X142529794Y-102583233D01*
X142606098Y-102697430D01*
X142732568Y-102823899D01*
X142732570Y-102823902D01*
X142846767Y-102900206D01*
X142981472Y-102927000D01*
X149080498Y-102927000D01*
X149118000Y-102952624D01*
X149118000Y-102981161D01*
X148928000Y-103059667D01*
X148780186Y-103207223D01*
X148700092Y-103400113D01*
X148699909Y-103608971D01*
X148779667Y-103802000D01*
X148927223Y-103949814D01*
X149120113Y-104029908D01*
X149328971Y-104030091D01*
X149522000Y-103950333D01*
X149669814Y-103802777D01*
X149749908Y-103609887D01*
X149750037Y-103462305D01*
X149795206Y-103394705D01*
X149822000Y-103260000D01*
X149822000Y-102951737D01*
X149879960Y-102914441D01*
X149931334Y-102839253D01*
X149940143Y-102795750D01*
X150737000Y-102795750D01*
X150737000Y-102856020D01*
X150818144Y-103051920D01*
X150968080Y-103201855D01*
X151163979Y-103283000D01*
X151261750Y-103283000D01*
X151395000Y-103149750D01*
X151395000Y-102662500D01*
X151645000Y-102662500D01*
X151645000Y-103149750D01*
X151778250Y-103283000D01*
X151876021Y-103283000D01*
X152071920Y-103201855D01*
X152221856Y-103051920D01*
X152303000Y-102856020D01*
X152303000Y-102795750D01*
X152169750Y-102662500D01*
X151645000Y-102662500D01*
X151395000Y-102662500D01*
X150870250Y-102662500D01*
X150737000Y-102795750D01*
X149940143Y-102795750D01*
X149949408Y-102750000D01*
X149949408Y-102581891D01*
X150021920Y-102551855D01*
X150171856Y-102401920D01*
X150253000Y-102206020D01*
X150253000Y-102145750D01*
X150119750Y-102012500D01*
X149595000Y-102012500D01*
X149595000Y-102100000D01*
X149345000Y-102100000D01*
X149345000Y-102012500D01*
X148820250Y-102012500D01*
X148687000Y-102145750D01*
X148687000Y-102206020D01*
X148694033Y-102223000D01*
X143398658Y-102223000D01*
X143553993Y-102067935D01*
X143679857Y-101764823D01*
X143680143Y-101436617D01*
X143554809Y-101133285D01*
X143322935Y-100901007D01*
X143019823Y-100775143D01*
X142691617Y-100774857D01*
X142388285Y-100900191D01*
X142156007Y-101132065D01*
X142030143Y-101435177D01*
X142029857Y-101763383D01*
X141179858Y-101763383D01*
X141180143Y-101436617D01*
X141054809Y-101133285D01*
X140822935Y-100901007D01*
X140519823Y-100775143D01*
X140191617Y-100774857D01*
X139888285Y-100900191D01*
X139656007Y-101132065D01*
X139530143Y-101435177D01*
X139529857Y-101763383D01*
X136877000Y-101763383D01*
X136877000Y-100343980D01*
X148687000Y-100343980D01*
X148687000Y-100404250D01*
X148820250Y-100537500D01*
X149345000Y-100537500D01*
X149345000Y-100050250D01*
X149595000Y-100050250D01*
X149595000Y-100537500D01*
X150119750Y-100537500D01*
X150253000Y-100404250D01*
X150253000Y-100343980D01*
X150171856Y-100148080D01*
X150021920Y-99998145D01*
X149826021Y-99917000D01*
X149728250Y-99917000D01*
X149595000Y-100050250D01*
X149345000Y-100050250D01*
X149211750Y-99917000D01*
X149113979Y-99917000D01*
X148918080Y-99998145D01*
X148768144Y-100148080D01*
X148687000Y-100343980D01*
X136877000Y-100343980D01*
X136877000Y-98528971D01*
X148064909Y-98528971D01*
X148144667Y-98722000D01*
X148292223Y-98869814D01*
X148485113Y-98949908D01*
X148693971Y-98950091D01*
X148887000Y-98870333D01*
X149034814Y-98722777D01*
X149114908Y-98529887D01*
X149115024Y-98397780D01*
X150234755Y-97278048D01*
X150234758Y-97278046D01*
X150311062Y-97163849D01*
X150337856Y-97029144D01*
X150337856Y-93563202D01*
X150384908Y-93449887D01*
X150385091Y-93241029D01*
X150305333Y-93048000D01*
X150157777Y-92900186D01*
X149964887Y-92820092D01*
X149756029Y-92819909D01*
X149563000Y-92899667D01*
X149415186Y-93047223D01*
X149335092Y-93240113D01*
X149334909Y-93448971D01*
X149414667Y-93642000D01*
X149562223Y-93789814D01*
X149633856Y-93819558D01*
X149633856Y-96883341D01*
X148617172Y-97900024D01*
X148486029Y-97899909D01*
X148293000Y-97979667D01*
X148145186Y-98127223D01*
X148065092Y-98320113D01*
X148064909Y-98528971D01*
X136877000Y-98528971D01*
X136877000Y-98153119D01*
X143565736Y-98153119D01*
X143634187Y-98342672D01*
X144091217Y-98454976D01*
X144556436Y-98383834D01*
X144655813Y-98342672D01*
X144724264Y-98153119D01*
X144145000Y-97573855D01*
X143565736Y-98153119D01*
X136877000Y-98153119D01*
X136877000Y-97196217D01*
X142940024Y-97196217D01*
X143011166Y-97661436D01*
X143052328Y-97760813D01*
X143241881Y-97829264D01*
X143821145Y-97250000D01*
X144468855Y-97250000D01*
X145048119Y-97829264D01*
X145237672Y-97760813D01*
X145349976Y-97303783D01*
X145278834Y-96838564D01*
X145237672Y-96739187D01*
X145048119Y-96670736D01*
X144468855Y-97250000D01*
X143821145Y-97250000D01*
X143241881Y-96670736D01*
X143052328Y-96739187D01*
X142940024Y-97196217D01*
X136877000Y-97196217D01*
X136877000Y-94600000D01*
X143265592Y-94600000D01*
X143265592Y-95900000D01*
X143281281Y-95983380D01*
X143330559Y-96059960D01*
X143405747Y-96111334D01*
X143495000Y-96129408D01*
X143701594Y-96129408D01*
X143634187Y-96157328D01*
X143565736Y-96346881D01*
X144145000Y-96926145D01*
X144724264Y-96346881D01*
X144655813Y-96157328D01*
X144542190Y-96129408D01*
X144795000Y-96129408D01*
X144878380Y-96113719D01*
X144954960Y-96064441D01*
X145006334Y-95989253D01*
X145024408Y-95900000D01*
X145024408Y-94600000D01*
X145008719Y-94516620D01*
X144959441Y-94440040D01*
X144884253Y-94388666D01*
X144795000Y-94370592D01*
X143495000Y-94370592D01*
X143411620Y-94386281D01*
X143335040Y-94435559D01*
X143283666Y-94510747D01*
X143265592Y-94600000D01*
X136877000Y-94600000D01*
X136877000Y-92178971D01*
X141714909Y-92178971D01*
X141794667Y-92372000D01*
X141942223Y-92519814D01*
X142135113Y-92599908D01*
X142343971Y-92600091D01*
X142537000Y-92520333D01*
X142684814Y-92372777D01*
X142764908Y-92179887D01*
X142765024Y-92047780D01*
X143020803Y-91792000D01*
X148199571Y-91792000D01*
X148292223Y-91884814D01*
X148485113Y-91964908D01*
X148693971Y-91965091D01*
X148887000Y-91885333D01*
X148980496Y-91792000D01*
X151374571Y-91792000D01*
X151467223Y-91884814D01*
X151660113Y-91964908D01*
X151868971Y-91965091D01*
X152062000Y-91885333D01*
X152209814Y-91737777D01*
X152289908Y-91544887D01*
X152290091Y-91336029D01*
X152210333Y-91143000D01*
X152062777Y-90995186D01*
X151869887Y-90915092D01*
X151661029Y-90914909D01*
X151468000Y-90994667D01*
X151374504Y-91088000D01*
X148980429Y-91088000D01*
X148887777Y-90995186D01*
X148694887Y-90915092D01*
X148486029Y-90914909D01*
X148293000Y-90994667D01*
X148199504Y-91088000D01*
X142875005Y-91088000D01*
X142875000Y-91087999D01*
X142762644Y-91110348D01*
X142740295Y-91114794D01*
X142626098Y-91191098D01*
X142626096Y-91191101D01*
X142267173Y-91550024D01*
X142136029Y-91549909D01*
X141943000Y-91629667D01*
X141795186Y-91777223D01*
X141715092Y-91970113D01*
X141714909Y-92178971D01*
X136877000Y-92178971D01*
X136877000Y-91440000D01*
X136850206Y-91305295D01*
X136773902Y-91191098D01*
X136773899Y-91191096D01*
X135607000Y-90024196D01*
X135607000Y-89455432D01*
X135699814Y-89362780D01*
X135779908Y-89169890D01*
X135780091Y-88961032D01*
X135700333Y-88768003D01*
X135597461Y-88664951D01*
X135699814Y-88562777D01*
X135779908Y-88369887D01*
X135780091Y-88161029D01*
X135700333Y-87968000D01*
X135552777Y-87820186D01*
X135359887Y-87740092D01*
X135151029Y-87739909D01*
X134958000Y-87819667D01*
X134864504Y-87913000D01*
X131209803Y-87913000D01*
X131162000Y-87865196D01*
X131162000Y-85725005D01*
X131162001Y-85725000D01*
X131135206Y-85590296D01*
X131135206Y-85590295D01*
X131058902Y-85476098D01*
X131058899Y-85476096D01*
X127524976Y-81942172D01*
X127525091Y-81811029D01*
X127445333Y-81618000D01*
X127297777Y-81470186D01*
X127104887Y-81390092D01*
X126896029Y-81389909D01*
X126703000Y-81469667D01*
X126555186Y-81617223D01*
X126475092Y-81810113D01*
X126474909Y-82018971D01*
X126554667Y-82212000D01*
X126702223Y-82359814D01*
X126895113Y-82439908D01*
X127027220Y-82440024D01*
X130458000Y-85870803D01*
X130458000Y-88010995D01*
X130457999Y-88011000D01*
X130458000Y-88011005D01*
X130458000Y-88518995D01*
X130457999Y-88519000D01*
X130458000Y-88519005D01*
X130458000Y-89779571D01*
X130365186Y-89872223D01*
X130285092Y-90065113D01*
X130284909Y-90273971D01*
X130364667Y-90467000D01*
X130512223Y-90614814D01*
X130705113Y-90694908D01*
X130913971Y-90695091D01*
X131107000Y-90615333D01*
X131254814Y-90467777D01*
X131334908Y-90274887D01*
X131335091Y-90066029D01*
X131255333Y-89873000D01*
X131162000Y-89779504D01*
X131162000Y-88664804D01*
X131209803Y-88617000D01*
X134864571Y-88617000D01*
X134912539Y-88665052D01*
X134810186Y-88767226D01*
X134730092Y-88960116D01*
X134729909Y-89168974D01*
X134809667Y-89362003D01*
X134903000Y-89455499D01*
X134903000Y-90169995D01*
X134902999Y-90170000D01*
X134929794Y-90304705D01*
X135006098Y-90418902D01*
X136173000Y-91585803D01*
X136173000Y-106280197D01*
X136125196Y-106328000D01*
X131832825Y-106328000D01*
X131815735Y-106242084D01*
X131579756Y-105888917D01*
X131226589Y-105652938D01*
X130810000Y-105570073D01*
X130393411Y-105652938D01*
X130325871Y-105698067D01*
X129788902Y-105161098D01*
X129674705Y-105084794D01*
X129540000Y-105057999D01*
X129539995Y-105058000D01*
X128849812Y-105058000D01*
X129039756Y-104931083D01*
X129273204Y-104581703D01*
X129485069Y-104581703D01*
X129754956Y-105055110D01*
X130185464Y-105389199D01*
X130368300Y-105464913D01*
X130581000Y-105382422D01*
X130581000Y-104369000D01*
X131039000Y-104369000D01*
X131039000Y-105382422D01*
X131251700Y-105464913D01*
X131434536Y-105389199D01*
X131865044Y-105055110D01*
X132134931Y-104581703D01*
X132054466Y-104369000D01*
X131039000Y-104369000D01*
X130581000Y-104369000D01*
X129565534Y-104369000D01*
X129485069Y-104581703D01*
X129273204Y-104581703D01*
X129275735Y-104577916D01*
X129358600Y-104161327D01*
X129358600Y-104118673D01*
X129275735Y-103702084D01*
X129273205Y-103698297D01*
X129485069Y-103698297D01*
X129565534Y-103911000D01*
X130581000Y-103911000D01*
X130581000Y-102897578D01*
X131039000Y-102897578D01*
X131039000Y-103911000D01*
X132054466Y-103911000D01*
X132134931Y-103698297D01*
X131865044Y-103224890D01*
X131434536Y-102890801D01*
X131251700Y-102815087D01*
X131039000Y-102897578D01*
X130581000Y-102897578D01*
X130368300Y-102815087D01*
X130185464Y-102890801D01*
X129754956Y-103224890D01*
X129485069Y-103698297D01*
X129273205Y-103698297D01*
X129039756Y-103348917D01*
X128686589Y-103112938D01*
X128270000Y-103030073D01*
X127853411Y-103112938D01*
X127500244Y-103348917D01*
X127264265Y-103702084D01*
X127181400Y-104118673D01*
X127181400Y-104161327D01*
X127264265Y-104577916D01*
X127500244Y-104931083D01*
X127690188Y-105058000D01*
X126309812Y-105058000D01*
X126499756Y-104931083D01*
X126735735Y-104577916D01*
X126818600Y-104161327D01*
X126818600Y-104118673D01*
X126735735Y-103702084D01*
X126499756Y-103348917D01*
X126146589Y-103112938D01*
X125730000Y-103030073D01*
X125313411Y-103112938D01*
X124960244Y-103348917D01*
X124724265Y-103702084D01*
X124641400Y-104118673D01*
X124641400Y-104161327D01*
X124724265Y-104577916D01*
X124960244Y-104931083D01*
X125150188Y-105058000D01*
X115334803Y-105058000D01*
X115287000Y-105010196D01*
X115287000Y-87170574D01*
X115718281Y-87170574D01*
X115770657Y-87347419D01*
X116181588Y-87438473D01*
X116596084Y-87365338D01*
X116639343Y-87347419D01*
X116691719Y-87170574D01*
X116205000Y-86683855D01*
X115718281Y-87170574D01*
X115287000Y-87170574D01*
X115287000Y-86814903D01*
X115394426Y-86846719D01*
X115881145Y-86360000D01*
X115394426Y-85873281D01*
X115287000Y-85905097D01*
X115287000Y-85235804D01*
X115455019Y-85067784D01*
X115454870Y-85238530D01*
X115568811Y-85514286D01*
X115779605Y-85725448D01*
X115975749Y-85806894D01*
X116205000Y-86036145D01*
X116219142Y-86022003D01*
X116542997Y-86345858D01*
X116528855Y-86360000D01*
X116720592Y-86551737D01*
X116720592Y-86885000D01*
X116736281Y-86968380D01*
X116785559Y-87044960D01*
X116860747Y-87096334D01*
X116950000Y-87114408D01*
X118000000Y-87114408D01*
X118082040Y-87098971D01*
X120124909Y-87098971D01*
X120204667Y-87292000D01*
X120298000Y-87385496D01*
X120298000Y-99939571D01*
X120205186Y-100032223D01*
X120125092Y-100225113D01*
X120124909Y-100433971D01*
X120204667Y-100627000D01*
X120352223Y-100774814D01*
X120545113Y-100854908D01*
X120753971Y-100855091D01*
X120933000Y-100781118D01*
X120933000Y-101454197D01*
X120401098Y-101986098D01*
X120324794Y-102100295D01*
X120297999Y-102235000D01*
X120298000Y-102235005D01*
X120298000Y-102479571D01*
X120205186Y-102572223D01*
X120125092Y-102765113D01*
X120124909Y-102973971D01*
X120204667Y-103167000D01*
X120352223Y-103314814D01*
X120545113Y-103394908D01*
X120753971Y-103395091D01*
X120947000Y-103315333D01*
X121094814Y-103167777D01*
X121174908Y-102974887D01*
X121175091Y-102766029D01*
X121095333Y-102573000D01*
X121002000Y-102479504D01*
X121002000Y-102380804D01*
X121533899Y-101848904D01*
X121533902Y-101848902D01*
X121610206Y-101734705D01*
X121621205Y-101679408D01*
X121637001Y-101600000D01*
X121637000Y-101599995D01*
X121637000Y-98788119D01*
X123245736Y-98788119D01*
X123314187Y-98977672D01*
X123771217Y-99089976D01*
X124236436Y-99018834D01*
X124335813Y-98977672D01*
X124404264Y-98788119D01*
X130230736Y-98788119D01*
X130299187Y-98977672D01*
X130756217Y-99089976D01*
X131221436Y-99018834D01*
X131320813Y-98977672D01*
X131389264Y-98788119D01*
X130810000Y-98208855D01*
X130230736Y-98788119D01*
X124404264Y-98788119D01*
X123825000Y-98208855D01*
X123245736Y-98788119D01*
X121637000Y-98788119D01*
X121637000Y-97831217D01*
X122620024Y-97831217D01*
X122691166Y-98296436D01*
X122732328Y-98395813D01*
X122921881Y-98464264D01*
X123501145Y-97885000D01*
X124148855Y-97885000D01*
X124728119Y-98464264D01*
X124917672Y-98395813D01*
X125029976Y-97938783D01*
X125013527Y-97831217D01*
X129605024Y-97831217D01*
X129676166Y-98296436D01*
X129717328Y-98395813D01*
X129906881Y-98464264D01*
X130486145Y-97885000D01*
X131133855Y-97885000D01*
X131713119Y-98464264D01*
X131902672Y-98395813D01*
X132014976Y-97938783D01*
X131943834Y-97473564D01*
X131902672Y-97374187D01*
X131713119Y-97305736D01*
X131133855Y-97885000D01*
X130486145Y-97885000D01*
X129906881Y-97305736D01*
X129717328Y-97374187D01*
X129605024Y-97831217D01*
X125013527Y-97831217D01*
X124958834Y-97473564D01*
X124917672Y-97374187D01*
X124728119Y-97305736D01*
X124148855Y-97885000D01*
X123501145Y-97885000D01*
X122921881Y-97305736D01*
X122732328Y-97374187D01*
X122620024Y-97831217D01*
X121637000Y-97831217D01*
X121637000Y-95235000D01*
X122945592Y-95235000D01*
X122945592Y-96535000D01*
X122961281Y-96618380D01*
X123010559Y-96694960D01*
X123085747Y-96746334D01*
X123175000Y-96764408D01*
X123381594Y-96764408D01*
X123314187Y-96792328D01*
X123245736Y-96981881D01*
X123825000Y-97561145D01*
X124404264Y-96981881D01*
X124335813Y-96792328D01*
X124222190Y-96764408D01*
X124475000Y-96764408D01*
X124558380Y-96748719D01*
X124634960Y-96699441D01*
X124686334Y-96624253D01*
X124704408Y-96535000D01*
X124704408Y-95235000D01*
X129930592Y-95235000D01*
X129930592Y-96535000D01*
X129946281Y-96618380D01*
X129995559Y-96694960D01*
X130070747Y-96746334D01*
X130160000Y-96764408D01*
X130366594Y-96764408D01*
X130299187Y-96792328D01*
X130230736Y-96981881D01*
X130810000Y-97561145D01*
X131389264Y-96981881D01*
X131320813Y-96792328D01*
X131207190Y-96764408D01*
X131460000Y-96764408D01*
X131543380Y-96748719D01*
X131619960Y-96699441D01*
X131671334Y-96624253D01*
X131689408Y-96535000D01*
X131689408Y-95235000D01*
X131673719Y-95151620D01*
X131624441Y-95075040D01*
X131549253Y-95023666D01*
X131460000Y-95005592D01*
X130160000Y-95005592D01*
X130076620Y-95021281D01*
X130000040Y-95070559D01*
X129948666Y-95145747D01*
X129930592Y-95235000D01*
X124704408Y-95235000D01*
X124688719Y-95151620D01*
X124639441Y-95075040D01*
X124564253Y-95023666D01*
X124475000Y-95005592D01*
X124177000Y-95005592D01*
X124177000Y-94083971D01*
X127744909Y-94083971D01*
X127824667Y-94277000D01*
X127972223Y-94424814D01*
X128165113Y-94504908D01*
X128373971Y-94505091D01*
X128567000Y-94425333D01*
X128660496Y-94332000D01*
X131054571Y-94332000D01*
X131147223Y-94424814D01*
X131340113Y-94504908D01*
X131548971Y-94505091D01*
X131742000Y-94425333D01*
X131889814Y-94277777D01*
X131969908Y-94084887D01*
X131970091Y-93876029D01*
X131890333Y-93683000D01*
X131742777Y-93535186D01*
X131549887Y-93455092D01*
X131341029Y-93454909D01*
X131148000Y-93534667D01*
X131054504Y-93628000D01*
X128660429Y-93628000D01*
X128567777Y-93535186D01*
X128374887Y-93455092D01*
X128166029Y-93454909D01*
X127973000Y-93534667D01*
X127825186Y-93682223D01*
X127745092Y-93875113D01*
X127744909Y-94083971D01*
X124177000Y-94083971D01*
X124177000Y-92813971D01*
X133459909Y-92813971D01*
X133539667Y-93007000D01*
X133633000Y-93100496D01*
X133633000Y-94859571D01*
X133540186Y-94952223D01*
X133460092Y-95145113D01*
X133459909Y-95353971D01*
X133539667Y-95547000D01*
X133687223Y-95694814D01*
X133880113Y-95774908D01*
X134088971Y-95775091D01*
X134098877Y-95770998D01*
X134095092Y-95780113D01*
X134094909Y-95988971D01*
X134174667Y-96182000D01*
X134322223Y-96329814D01*
X134515113Y-96409908D01*
X134723971Y-96410091D01*
X134917000Y-96330333D01*
X135064814Y-96182777D01*
X135144908Y-95989887D01*
X135145091Y-95781029D01*
X135065333Y-95588000D01*
X134972000Y-95494504D01*
X134972000Y-93735429D01*
X135064814Y-93642777D01*
X135144908Y-93449887D01*
X135145091Y-93241029D01*
X135065333Y-93048000D01*
X134917777Y-92900186D01*
X134724887Y-92820092D01*
X134516029Y-92819909D01*
X134506123Y-92824002D01*
X134509908Y-92814887D01*
X134510091Y-92606029D01*
X134430333Y-92413000D01*
X134282777Y-92265186D01*
X134089887Y-92185092D01*
X133881029Y-92184909D01*
X133688000Y-92264667D01*
X133540186Y-92412223D01*
X133460092Y-92605113D01*
X133459909Y-92813971D01*
X124177000Y-92813971D01*
X124177000Y-91195429D01*
X124269814Y-91102777D01*
X124349908Y-90909887D01*
X124350091Y-90701029D01*
X124270333Y-90508000D01*
X124122777Y-90360186D01*
X123929887Y-90280092D01*
X123721029Y-90279909D01*
X123528000Y-90359667D01*
X123380186Y-90507223D01*
X123300092Y-90700113D01*
X123299909Y-90908971D01*
X123379667Y-91102000D01*
X123473000Y-91195496D01*
X123473000Y-95005592D01*
X123175000Y-95005592D01*
X123091620Y-95021281D01*
X123015040Y-95070559D01*
X122963666Y-95145747D01*
X122945592Y-95235000D01*
X121637000Y-95235000D01*
X121637000Y-88020429D01*
X121729814Y-87927777D01*
X121809908Y-87734887D01*
X121810091Y-87526029D01*
X121730333Y-87333000D01*
X121582777Y-87185186D01*
X121389887Y-87105092D01*
X121181029Y-87104909D01*
X121171123Y-87109002D01*
X121174908Y-87099887D01*
X121175091Y-86891029D01*
X121095333Y-86698000D01*
X120947777Y-86550186D01*
X120754887Y-86470092D01*
X120546029Y-86469909D01*
X120353000Y-86549667D01*
X120205186Y-86697223D01*
X120125092Y-86890113D01*
X120124909Y-87098971D01*
X118082040Y-87098971D01*
X118083380Y-87098719D01*
X118159960Y-87049441D01*
X118211334Y-86974253D01*
X118229408Y-86885000D01*
X118229408Y-85835000D01*
X118213719Y-85751620D01*
X118164441Y-85675040D01*
X118089253Y-85623666D01*
X118016705Y-85608975D01*
X118110448Y-85515395D01*
X118224869Y-85239839D01*
X118225130Y-84941470D01*
X118194782Y-84868022D01*
X118717827Y-84344976D01*
X118848971Y-84345091D01*
X119042000Y-84265333D01*
X119189814Y-84117777D01*
X119269908Y-83924887D01*
X119270091Y-83716029D01*
X119190333Y-83523000D01*
X119042777Y-83375186D01*
X118849887Y-83295092D01*
X118641029Y-83294909D01*
X118448000Y-83374667D01*
X118300186Y-83522223D01*
X118225102Y-83703047D01*
X118225130Y-83671470D01*
X118111189Y-83395714D01*
X117900660Y-83184817D01*
X118110448Y-82975395D01*
X118224869Y-82699839D01*
X118225130Y-82401470D01*
X118111189Y-82125714D01*
X117900660Y-81914817D01*
X118110448Y-81705395D01*
X118224869Y-81429839D01*
X118225130Y-81131470D01*
X118111189Y-80855714D01*
X117900395Y-80644552D01*
X117624839Y-80530131D01*
X117326470Y-80529870D01*
X117050714Y-80643811D01*
X116839552Y-80854605D01*
X116758106Y-81050749D01*
X116528855Y-81280000D01*
X116542997Y-81294142D01*
X116219142Y-81617997D01*
X116205000Y-81603855D01*
X115975549Y-81833306D01*
X115780714Y-81913811D01*
X115569552Y-82124605D01*
X115455131Y-82400161D01*
X115454870Y-82698530D01*
X115568811Y-82974286D01*
X115779340Y-83185183D01*
X115569552Y-83394605D01*
X115455131Y-83670161D01*
X115454870Y-83968530D01*
X115485218Y-84041978D01*
X114686098Y-84841098D01*
X114609794Y-84955295D01*
X114582999Y-85090000D01*
X112642500Y-85090000D01*
X112642500Y-81256588D01*
X115126527Y-81256588D01*
X115199662Y-81671084D01*
X115217581Y-81714343D01*
X115394426Y-81766719D01*
X115881145Y-81280000D01*
X115394426Y-80793281D01*
X115217581Y-80845657D01*
X115126527Y-81256588D01*
X112642500Y-81256588D01*
X112642500Y-80469426D01*
X115718281Y-80469426D01*
X116205000Y-80956145D01*
X116691719Y-80469426D01*
X116639343Y-80292581D01*
X116228412Y-80201527D01*
X115813916Y-80274662D01*
X115770657Y-80292581D01*
X115718281Y-80469426D01*
X112642500Y-80469426D01*
X112642500Y-78843971D01*
X132824909Y-78843971D01*
X132904667Y-79037000D01*
X133052223Y-79184814D01*
X133245113Y-79264908D01*
X133453971Y-79265091D01*
X133647000Y-79185333D01*
X133740496Y-79092000D01*
X135744196Y-79092000D01*
X139451096Y-82798899D01*
X139451098Y-82798902D01*
X139565295Y-82875206D01*
X139587644Y-82879652D01*
X139700000Y-82902001D01*
X139700005Y-82902000D01*
X143999196Y-82902000D01*
X149508000Y-88410803D01*
X149508000Y-88509571D01*
X149415186Y-88602223D01*
X149335092Y-88795113D01*
X149334909Y-89003971D01*
X149414667Y-89197000D01*
X149562223Y-89344814D01*
X149755113Y-89424908D01*
X149963971Y-89425091D01*
X150157000Y-89345333D01*
X150304814Y-89197777D01*
X150384908Y-89004887D01*
X150385091Y-88796029D01*
X150305333Y-88603000D01*
X150212000Y-88509504D01*
X150212000Y-88265005D01*
X150212001Y-88265000D01*
X150185207Y-88130296D01*
X150159887Y-88092403D01*
X150108902Y-88016098D01*
X150108899Y-88016096D01*
X144393902Y-82301098D01*
X144279705Y-82224794D01*
X144145000Y-82197999D01*
X144144995Y-82198000D01*
X139845803Y-82198000D01*
X136138902Y-78491098D01*
X136024705Y-78414794D01*
X135890000Y-78387999D01*
X135889995Y-78388000D01*
X133740429Y-78388000D01*
X133647777Y-78295186D01*
X133454887Y-78215092D01*
X133246029Y-78214909D01*
X133053000Y-78294667D01*
X132905186Y-78442223D01*
X132825092Y-78635113D01*
X132824909Y-78843971D01*
X112642500Y-78843971D01*
X112642500Y-77573971D01*
X117584909Y-77573971D01*
X117664667Y-77767000D01*
X117812223Y-77914814D01*
X118005113Y-77994908D01*
X118213971Y-77995091D01*
X118407000Y-77915333D01*
X118554814Y-77767777D01*
X118634908Y-77574887D01*
X118635024Y-77442780D01*
X119525803Y-76552000D01*
X133594571Y-76552000D01*
X133687223Y-76644814D01*
X133880113Y-76724908D01*
X134088971Y-76725091D01*
X134282000Y-76645333D01*
X134429814Y-76497777D01*
X134509908Y-76304887D01*
X134510091Y-76096029D01*
X134430333Y-75903000D01*
X134282777Y-75755186D01*
X134089887Y-75675092D01*
X133881029Y-75674909D01*
X133688000Y-75754667D01*
X133594504Y-75848000D01*
X123496339Y-75848000D01*
X123672286Y-75775300D01*
X124228348Y-75220209D01*
X124529657Y-74494575D01*
X124530343Y-73708872D01*
X124230300Y-72982714D01*
X123675209Y-72426652D01*
X122949575Y-72125343D01*
X122163872Y-72124657D01*
X121437714Y-72424700D01*
X120881652Y-72979791D01*
X120580343Y-73705425D01*
X120579657Y-74491128D01*
X120879700Y-75217286D01*
X121434791Y-75773348D01*
X121614573Y-75848000D01*
X119380000Y-75848000D01*
X119245295Y-75874794D01*
X119131098Y-75951098D01*
X119131096Y-75951101D01*
X118137172Y-76945024D01*
X118006029Y-76944909D01*
X117813000Y-77024667D01*
X117665186Y-77172223D01*
X117585092Y-77365113D01*
X117584909Y-77573971D01*
X112642500Y-77573971D01*
X112642500Y-64187500D01*
X113540000Y-64187500D01*
X113540000Y-70485000D01*
M02*
