M48
;DRILL file {KiCad 4.0.4+dfsg1-stable} date Wed Oct 11 10:07:55 2017
;FORMAT={-:-/ absolute / inch / decimal}
FMAT,2
INCH,TZ
T1C0.016
T2C0.024
T3C0.025
T4C0.026
T5C0.028
T6C0.031
T7C0.035
T8C0.040
T9C0.040
T10C0.047
T11C0.063
%
G90
G05
M72
T1
X4.525Y-2.8
X4.6Y-4.5
X4.65Y-3.05
X4.675Y-3.3
X4.75Y-3.425
X4.75Y-3.95
X4.75Y-4.05
X4.775Y-3.45
X4.875Y-3.575
X5.Y-3.225
X5.05Y-3.7
X5.15Y-3.55
X5.175Y-3.7
X5.25Y-3.1
X5.275Y-3.
X5.275Y-3.65
X5.275Y-3.75
X5.3Y-3.675
X5.3Y-3.775
X5.3Y-4.75
X5.325Y-3.475
X5.325Y-3.5065
X5.375Y-4.725
X5.4Y-4.55
X5.425Y-4.3
X5.45Y-3.15
X5.45Y-4.275
X5.45Y-4.925
X5.45Y-5.125
X5.5Y-4.2
X5.5Y-4.66
X5.56Y-4.68
X5.6Y-3.625
X5.625Y-3.15
X5.8Y-3.975
X5.85Y-3.6
X5.85Y-3.875
X5.875Y-4.075
X5.9Y-3.425
X5.9Y-3.5
X5.9Y-3.675
X5.925Y-3.875
X5.925Y-4.35
X5.95Y-3.85
X5.975Y-3.6
X6.025Y-3.85
X6.2Y-3.8
X6.225Y-3.775
X6.225Y-4.2
X6.225Y-4.25
X6.25Y-3.75
X6.25Y-4.175
X6.25Y-4.225
X6.25Y-4.6
X6.275Y-3.725
X6.275Y-4.125
X6.3Y-3.7
X6.325Y-3.675
X6.35Y-3.95
X6.35Y-4.125
X6.375Y-4.15
X6.4Y-4.175
X6.425Y-4.2
X6.425Y-4.425
X6.45Y-3.175
X6.45Y-4.225
X6.475Y-3.975
X6.55Y-3.325
X6.55Y-3.95
X6.675Y-3.8
X6.75Y-3.8
X7.075Y-3.3
X7.3Y-2.65
X7.35Y-4.175
X7.3571Y-4.6496
X7.4Y-2.75
T2
X5.5258Y-4.
X5.6242Y-4.
T3
X6.675Y-4.85
X6.85Y-4.85
X7.025Y-4.85
T4
X4.575Y-3.2
X4.575Y-3.25
X4.575Y-3.3
X4.575Y-3.35
X4.575Y-3.4
X4.625Y-3.2
X4.625Y-3.25
X4.625Y-3.3
X4.625Y-3.35
X4.625Y-3.4
T6
X4.675Y-5.2713
X4.675Y-5.35
X4.875Y-3.775
X4.875Y-3.8537
X5.125Y-2.6213
X5.125Y-2.7
X5.15Y-3.775
X5.15Y-3.8537
X5.675Y-3.75
X5.675Y-3.8287
X6.15Y-3.8713
X6.15Y-3.95
X6.425Y-4.55
X6.425Y-4.6287
X7.2Y-4.5713
X7.2Y-4.65
X7.2Y-4.7963
X7.2Y-4.875
X7.2Y-5.2963
X7.2Y-5.375
X7.35Y-3.725
X7.4287Y-3.725
T7
X6.525Y-3.12
X6.575Y-3.02
X6.625Y-3.12
X6.675Y-3.02
X6.725Y-3.12
X6.775Y-3.02
X6.825Y-3.12
X6.875Y-3.02
T8
X4.95Y-4.1
X4.95Y-4.2
X5.05Y-4.1
X5.05Y-4.2
X5.15Y-4.1
X5.15Y-4.2
X5.5Y-3.05
X5.6Y-3.05
X5.7Y-3.05
X5.8Y-3.05
X5.9Y-3.05
T9
X6.451Y-2.6369
X6.551Y-2.57
X6.849Y-2.6369
X6.949Y-2.57
T10
X5.05Y-5.25
X5.15Y-5.25
X5.25Y-5.25
X5.35Y-5.25
X5.45Y-5.25
X5.7Y-5.25
X5.8Y-5.25
X5.9Y-5.25
X6.15Y-5.25
X6.25Y-5.25
X6.5Y-5.25
X6.6Y-5.25
X6.85Y-5.25
X6.95Y-5.25
T11
X6.39Y-2.8901
X7.01Y-2.8901
T4
X4.5545Y-2.6961G85X4.5545Y-2.7119
G05
X4.7455Y-2.6961G85X4.7455Y-2.7119
G05
T5
X4.5427Y-2.576G85X4.5427Y-2.5957
G05
X4.7573Y-2.576G85X4.7573Y-2.5957
G05
T0
M30
