G04 #@! TF.FileFunction,Legend,Bot*
%FSLAX46Y46*%
G04 Gerber Fmt 4.6, Leading zero omitted, Abs format (unit mm)*
G04 Created by KiCad (PCBNEW 4.0.4+dfsg1-stable) date Wed Oct 11 10:07:52 2017*
%MOMM*%
%LPD*%
G01*
G04 APERTURE LIST*
%ADD10C,0.100000*%
%ADD11C,0.150000*%
%ADD12C,0.050000*%
G04 APERTURE END LIST*
D10*
D11*
X143105000Y-99850000D02*
G75*
G02X143105000Y-103350000I-1500000J-1750000D01*
G01*
X140105000Y-99850000D02*
X143105000Y-99850000D01*
X140105000Y-103350000D02*
X143105000Y-103350000D01*
X140105000Y-103350000D02*
G75*
G02X140105000Y-99850000I1500000J1750000D01*
G01*
D12*
X151098078Y-102575000D02*
G75*
G03X151098078Y-102575000I-103078J0D01*
G01*
D11*
X149045000Y-103050000D02*
X149045000Y-100150000D01*
X149045000Y-100150000D02*
X151945000Y-100150000D01*
X151945000Y-100150000D02*
X151945000Y-103050000D01*
X151945000Y-103050000D02*
X149045000Y-103050000D01*
X142247857Y-104592381D02*
X142581191Y-104116190D01*
X142819286Y-104592381D02*
X142819286Y-103592381D01*
X142438333Y-103592381D01*
X142343095Y-103640000D01*
X142295476Y-103687619D01*
X142247857Y-103782857D01*
X142247857Y-103925714D01*
X142295476Y-104020952D01*
X142343095Y-104068571D01*
X142438333Y-104116190D01*
X142819286Y-104116190D01*
X141914524Y-103592381D02*
X141295476Y-103592381D01*
X141628810Y-103973333D01*
X141485952Y-103973333D01*
X141390714Y-104020952D01*
X141343095Y-104068571D01*
X141295476Y-104163810D01*
X141295476Y-104401905D01*
X141343095Y-104497143D01*
X141390714Y-104544762D01*
X141485952Y-104592381D01*
X141771667Y-104592381D01*
X141866905Y-104544762D01*
X141914524Y-104497143D01*
X140819286Y-104592381D02*
X140628810Y-104592381D01*
X140533571Y-104544762D01*
X140485952Y-104497143D01*
X140390714Y-104354286D01*
X140343095Y-104163810D01*
X140343095Y-103782857D01*
X140390714Y-103687619D01*
X140438333Y-103640000D01*
X140533571Y-103592381D01*
X140724048Y-103592381D01*
X140819286Y-103640000D01*
X140866905Y-103687619D01*
X140914524Y-103782857D01*
X140914524Y-104020952D01*
X140866905Y-104116190D01*
X140819286Y-104163810D01*
X140724048Y-104211429D01*
X140533571Y-104211429D01*
X140438333Y-104163810D01*
X140390714Y-104116190D01*
X140343095Y-104020952D01*
X151409286Y-103482857D02*
X151409286Y-104454286D01*
X151352143Y-104568571D01*
X151295000Y-104625714D01*
X151180714Y-104682857D01*
X150952143Y-104682857D01*
X150837857Y-104625714D01*
X150780714Y-104568571D01*
X150723571Y-104454286D01*
X150723571Y-103482857D01*
X149580714Y-103482857D02*
X150152143Y-103482857D01*
X150209286Y-104054286D01*
X150152143Y-103997143D01*
X150037857Y-103940000D01*
X149752143Y-103940000D01*
X149637857Y-103997143D01*
X149580714Y-104054286D01*
X149523571Y-104168571D01*
X149523571Y-104454286D01*
X149580714Y-104568571D01*
X149637857Y-104625714D01*
X149752143Y-104682857D01*
X150037857Y-104682857D01*
X150152143Y-104625714D01*
X150209286Y-104568571D01*
M02*
