G04 #@! TF.FileFunction,Soldermask,Top*
%FSLAX46Y46*%
G04 Gerber Fmt 4.6, Leading zero omitted, Abs format (unit mm)*
G04 Created by KiCad (PCBNEW 4.0.4+dfsg1-stable) date Wed Oct 11 10:07:52 2017*
%MOMM*%
%LPD*%
G01*
G04 APERTURE LIST*
%ADD10C,0.100000*%
%ADD11R,0.250000X1.300000*%
%ADD12R,1.300000X0.250000*%
%ADD13C,1.800000*%
%ADD14R,1.800000X1.800000*%
%ADD15C,2.900000*%
%ADD16C,1.900000*%
%ADD17C,3.450000*%
%ADD18R,1.000000X1.600000*%
%ADD19R,1.198880X1.600200*%
%ADD20R,1.300000X1.300000*%
%ADD21C,1.300000*%
%ADD22R,1.600000X1.000000*%
%ADD23R,0.800000X0.750000*%
%ADD24R,1.198880X1.198880*%
%ADD25R,1.600200X1.198880*%
%ADD26R,2.000000X2.600000*%
%ADD27O,2.000000X2.600000*%
%ADD28R,0.400000X1.650000*%
%ADD29O,1.100000X1.500000*%
%ADD30O,1.200000X1.700000*%
%ADD31R,1.425000X2.500000*%
%ADD32R,1.727200X1.727200*%
%ADD33O,1.727200X1.727200*%
%ADD34R,1.727200X2.032000*%
%ADD35O,1.727200X2.032000*%
%ADD36R,1.050000X1.050000*%
%ADD37C,1.050000*%
%ADD38R,0.900000X1.700000*%
%ADD39R,1.700000X0.900000*%
%ADD40C,1.200000*%
%ADD41R,2.100000X1.400000*%
%ADD42R,0.650000X1.060000*%
%ADD43R,0.550000X1.500000*%
%ADD44R,1.500000X0.550000*%
%ADD45C,1.143000*%
%ADD46R,5.600700X2.100580*%
%ADD47R,1.200000X1.400000*%
%ADD48C,3.500000*%
G04 APERTURE END LIST*
D10*
D11*
X174835000Y-95345000D03*
X174335000Y-95345000D03*
X173835000Y-95345000D03*
X173335000Y-95345000D03*
X172835000Y-95345000D03*
X172335000Y-95345000D03*
X171835000Y-95345000D03*
X171335000Y-95345000D03*
X170835000Y-95345000D03*
X170335000Y-95345000D03*
X169835000Y-95345000D03*
X169335000Y-95345000D03*
D12*
X167735000Y-96945000D03*
X167735000Y-97445000D03*
X167735000Y-97945000D03*
X167735000Y-98445000D03*
X167735000Y-98945000D03*
X167735000Y-99445000D03*
X167735000Y-99945000D03*
X167735000Y-100445000D03*
X167735000Y-100945000D03*
X167735000Y-101445000D03*
X167735000Y-101945000D03*
X167735000Y-102445000D03*
D11*
X169335000Y-104045000D03*
X169835000Y-104045000D03*
X170335000Y-104045000D03*
X170835000Y-104045000D03*
X171335000Y-104045000D03*
X171835000Y-104045000D03*
X172335000Y-104045000D03*
X172835000Y-104045000D03*
X173335000Y-104045000D03*
X173835000Y-104045000D03*
X174335000Y-104045000D03*
X174835000Y-104045000D03*
D12*
X176435000Y-102445000D03*
X176435000Y-101945000D03*
X176435000Y-101445000D03*
X176435000Y-100945000D03*
X176435000Y-100445000D03*
X176435000Y-99945000D03*
X176435000Y-99445000D03*
X176435000Y-98945000D03*
X176435000Y-98445000D03*
X176435000Y-97945000D03*
X176435000Y-97445000D03*
X176435000Y-96945000D03*
D13*
X165735000Y-79248000D03*
X167005000Y-76708000D03*
X168275000Y-79248000D03*
X169545000Y-76708000D03*
X170815000Y-79248000D03*
X172085000Y-76708000D03*
X173355000Y-79248000D03*
D14*
X174625000Y-76708000D03*
D15*
X178055000Y-73408000D03*
X162305000Y-73408000D03*
D16*
X163855000Y-66978000D03*
X176505000Y-65278000D03*
X173965000Y-66978000D03*
X166395000Y-65278000D03*
D17*
X164465000Y-70358000D03*
X175895000Y-70358000D03*
D18*
X162330000Y-103505000D03*
X165330000Y-103505000D03*
D19*
X159385000Y-112925860D03*
X159385000Y-109324140D03*
D20*
X182880000Y-136525000D03*
D21*
X182880000Y-134525000D03*
D18*
X190095000Y-130175000D03*
X187095000Y-130175000D03*
D20*
X182880000Y-123825000D03*
D21*
X182880000Y-121825000D03*
D18*
X190095000Y-119380000D03*
X187095000Y-119380000D03*
D20*
X182880000Y-118110000D03*
D21*
X182880000Y-116110000D03*
D20*
X186690000Y-94615000D03*
D21*
X188690000Y-94615000D03*
D22*
X173355000Y-92305000D03*
X173355000Y-89305000D03*
D18*
X165330000Y-93345000D03*
X162330000Y-93345000D03*
X165330000Y-95885000D03*
X162330000Y-95885000D03*
X165330000Y-98425000D03*
X162330000Y-98425000D03*
D20*
X163195000Y-115570000D03*
D21*
X163195000Y-117570000D03*
D18*
X165330000Y-100965000D03*
X162330000Y-100965000D03*
D22*
X161544000Y-112625000D03*
X161544000Y-109625000D03*
D20*
X156210000Y-100330000D03*
D21*
X156210000Y-98330000D03*
D23*
X167525000Y-113030000D03*
X169025000Y-113030000D03*
X176645000Y-113030000D03*
X175145000Y-113030000D03*
D22*
X184150000Y-83415000D03*
X184150000Y-80415000D03*
X164465000Y-87860000D03*
X164465000Y-84860000D03*
X168275000Y-82320000D03*
X168275000Y-85320000D03*
X170815000Y-82320000D03*
X170815000Y-85320000D03*
D18*
X156615000Y-74295000D03*
X159615000Y-74295000D03*
D20*
X130175000Y-68580000D03*
D21*
X130175000Y-66580000D03*
D23*
X140958000Y-84328000D03*
X139458000Y-84328000D03*
X139712000Y-89662000D03*
X141212000Y-89662000D03*
D20*
X130810000Y-95885000D03*
D21*
X130810000Y-97885000D03*
D18*
X122785000Y-88265000D03*
X119785000Y-88265000D03*
D20*
X144145000Y-95250000D03*
D21*
X144145000Y-97250000D03*
D18*
X140795000Y-91440000D03*
X137795000Y-91440000D03*
X121055000Y-79375000D03*
X124055000Y-79375000D03*
D22*
X133985000Y-74700000D03*
X133985000Y-77700000D03*
D18*
X119785000Y-90805000D03*
X122785000Y-90805000D03*
D20*
X123825000Y-95885000D03*
D21*
X123825000Y-97885000D03*
D18*
X138200000Y-123825000D03*
X141200000Y-123825000D03*
X149455000Y-104775000D03*
X146455000Y-104775000D03*
X148185000Y-100965000D03*
X145185000Y-100965000D03*
D20*
X118745000Y-135890000D03*
D21*
X118745000Y-133890000D03*
D22*
X123190000Y-132890000D03*
X123190000Y-135890000D03*
D24*
X151765000Y-116619020D03*
X151765000Y-114520980D03*
X149225000Y-116619020D03*
X149225000Y-114520980D03*
X154305000Y-116619020D03*
X154305000Y-114520980D03*
X156845000Y-116619020D03*
X156845000Y-114520980D03*
D25*
X141500860Y-93345000D03*
X137899140Y-93345000D03*
X127530860Y-70485000D03*
X123929140Y-70485000D03*
D19*
X149860000Y-80114140D03*
X149860000Y-83715860D03*
X153035000Y-92814140D03*
X153035000Y-96415860D03*
D26*
X173990000Y-133350000D03*
D27*
X176530000Y-133350000D03*
D28*
X119410000Y-68556000D03*
X118760000Y-68556000D03*
X118110900Y-68556000D03*
X117460000Y-68556000D03*
X116810000Y-68556000D03*
D29*
X120535000Y-68681000D03*
X115685000Y-68681000D03*
D30*
X120835000Y-65681000D03*
X115385000Y-65681000D03*
D31*
X119072500Y-65431000D03*
X117147500Y-65431000D03*
D32*
X125730000Y-106680000D03*
D33*
X125730000Y-104140000D03*
X128270000Y-106680000D03*
X128270000Y-104140000D03*
X130810000Y-106680000D03*
X130810000Y-104140000D03*
D26*
X156210000Y-133350000D03*
D27*
X158750000Y-133350000D03*
D26*
X165100000Y-133350000D03*
D27*
X167640000Y-133350000D03*
D34*
X139700000Y-77470000D03*
D35*
X142240000Y-77470000D03*
X144780000Y-77470000D03*
X147320000Y-77470000D03*
X149860000Y-77470000D03*
D36*
X117475000Y-86360000D03*
D37*
X117475000Y-85090000D03*
X117475000Y-83820000D03*
X117475000Y-82550000D03*
X117475000Y-81280000D03*
X116205000Y-85090000D03*
X116205000Y-83820000D03*
X116205000Y-82550000D03*
X116205000Y-81280000D03*
X116205000Y-86360000D03*
D26*
X144780000Y-133350000D03*
D27*
X147320000Y-133350000D03*
X149860000Y-133350000D03*
D26*
X128270000Y-133350000D03*
D27*
X130810000Y-133350000D03*
X133350000Y-133350000D03*
X135890000Y-133350000D03*
X138430000Y-133350000D03*
D38*
X170635000Y-113030000D03*
X173535000Y-113030000D03*
D39*
X161925000Y-84910000D03*
X161925000Y-87810000D03*
D38*
X186870000Y-104140000D03*
X183970000Y-104140000D03*
X186870000Y-101600000D03*
X183970000Y-101600000D03*
D39*
X175895000Y-89990000D03*
X175895000Y-92890000D03*
X168275000Y-89990000D03*
X168275000Y-92890000D03*
D38*
X186870000Y-99060000D03*
X183970000Y-99060000D03*
D39*
X178435000Y-89990000D03*
X178435000Y-92890000D03*
X170815000Y-89990000D03*
X170815000Y-92890000D03*
D38*
X176985000Y-87630000D03*
X179885000Y-87630000D03*
X180795000Y-90170000D03*
X183695000Y-90170000D03*
D39*
X184150000Y-84910000D03*
X184150000Y-87810000D03*
D38*
X163015000Y-90170000D03*
X165915000Y-90170000D03*
X166825000Y-87630000D03*
X169725000Y-87630000D03*
X180795000Y-66040000D03*
X183695000Y-66040000D03*
X180795000Y-68580000D03*
X183695000Y-68580000D03*
D39*
X151765000Y-112575000D03*
X151765000Y-109675000D03*
X149225000Y-112575000D03*
X149225000Y-109675000D03*
X154305000Y-112575000D03*
X154305000Y-109675000D03*
X156845000Y-112575000D03*
X156845000Y-109675000D03*
X142875000Y-109040000D03*
X142875000Y-111940000D03*
X114935000Y-72390000D03*
X114935000Y-75290000D03*
X117475000Y-72390000D03*
X117475000Y-75290000D03*
X144145000Y-88445000D03*
X144145000Y-85545000D03*
X127000000Y-77650000D03*
X127000000Y-74750000D03*
D38*
X138250000Y-121285000D03*
X141150000Y-121285000D03*
X119560000Y-100330000D03*
X116660000Y-100330000D03*
X119560000Y-102870000D03*
X116660000Y-102870000D03*
D39*
X145415000Y-110490000D03*
X145415000Y-113390000D03*
X161925000Y-134800000D03*
X161925000Y-131900000D03*
X170815000Y-134800000D03*
X170815000Y-131900000D03*
D38*
X151310000Y-95885000D03*
X148410000Y-95885000D03*
X151310000Y-93345000D03*
X148410000Y-93345000D03*
X138610000Y-118364000D03*
X135710000Y-118364000D03*
X135710000Y-115824000D03*
X138610000Y-115824000D03*
X133530000Y-123190000D03*
X130630000Y-123190000D03*
X130630000Y-120650000D03*
X133530000Y-120650000D03*
D39*
X141605000Y-134800000D03*
X141605000Y-131900000D03*
D40*
X140355000Y-101600000D03*
X142855000Y-101600000D03*
D38*
X140155000Y-104775000D03*
X143055000Y-104775000D03*
D41*
X125835000Y-115860000D03*
X116735000Y-115860000D03*
X116735000Y-120360000D03*
X125835000Y-120360000D03*
D42*
X187645000Y-134450000D03*
X188595000Y-134450000D03*
X189545000Y-134450000D03*
X189545000Y-132250000D03*
X187645000Y-132250000D03*
X187645000Y-123655000D03*
X188595000Y-123655000D03*
X189545000Y-123655000D03*
X189545000Y-121455000D03*
X187645000Y-121455000D03*
D43*
X126810000Y-91425000D03*
X127610000Y-91425000D03*
X128410000Y-91425000D03*
X129210000Y-91425000D03*
X130010000Y-91425000D03*
X130810000Y-91425000D03*
X131610000Y-91425000D03*
X132410000Y-91425000D03*
X133210000Y-91425000D03*
X134010000Y-91425000D03*
X134810000Y-91425000D03*
D44*
X136510000Y-89725000D03*
X136510000Y-88925000D03*
X136510000Y-88125000D03*
X136510000Y-87325000D03*
X136510000Y-86525000D03*
X136510000Y-85725000D03*
X136510000Y-84925000D03*
X136510000Y-84125000D03*
X136510000Y-83325000D03*
X136510000Y-82525000D03*
X136510000Y-81725000D03*
D43*
X134810000Y-80025000D03*
X134010000Y-80025000D03*
X133210000Y-80025000D03*
X132410000Y-80025000D03*
X131610000Y-80025000D03*
X130810000Y-80025000D03*
X130010000Y-80025000D03*
X129210000Y-80025000D03*
X128410000Y-80025000D03*
X127610000Y-80025000D03*
X126810000Y-80025000D03*
D44*
X125110000Y-81725000D03*
X125110000Y-82525000D03*
X125110000Y-83325000D03*
X125110000Y-84125000D03*
X125110000Y-84925000D03*
X125110000Y-85725000D03*
X125110000Y-86525000D03*
X125110000Y-87325000D03*
X125110000Y-88125000D03*
X125110000Y-88925000D03*
X125110000Y-89725000D03*
D45*
X178435000Y-123190000D03*
X173990000Y-123190000D03*
X169545000Y-123190000D03*
D46*
X176933860Y-109220000D03*
X167236140Y-109220000D03*
D47*
X139535000Y-85895000D03*
X139535000Y-88095000D03*
X141135000Y-85895000D03*
X141135000Y-88095000D03*
D48*
X122555000Y-74100000D03*
X182555000Y-74100000D03*
X182555000Y-129100000D03*
X122555000Y-129100000D03*
M02*
